G75*
%MOIN*%
%OFA0B0*%
%FSLAX25Y25*%
%IPPOS*%
%LPD*%
%AMOC8*
5,1,8,0,0,1.08239X$1,22.5*
%
%ADD10C,0.00000*%
%ADD11R,0.04331X0.03937*%
%ADD12C,0.05200*%
%ADD13R,0.03937X0.04331*%
%ADD14C,0.06000*%
%ADD15R,0.02200X0.05000*%
%ADD16R,0.05000X0.02200*%
%ADD17R,0.07900X0.05900*%
%ADD18R,0.07900X0.15000*%
%ADD19R,0.06000X0.06000*%
%ADD20OC8,0.06000*%
%ADD21OC8,0.05200*%
%ADD22R,0.04724X0.04724*%
%ADD23C,0.10000*%
%ADD24OC8,0.10000*%
%ADD25R,0.03937X0.05512*%
%ADD26R,0.08661X0.02362*%
%ADD27C,0.05000*%
%ADD28R,0.05512X0.07087*%
%ADD29C,0.01000*%
%ADD30C,0.02420*%
%ADD31C,0.01969*%
%ADD32C,0.02775*%
%ADD33C,0.01600*%
%ADD34C,0.05906*%
%ADD35C,0.03937*%
%ADD36C,0.03562*%
D10*
X0007977Y0017548D02*
X0007977Y0185550D01*
X0014277Y0186052D02*
X0014279Y0186210D01*
X0014285Y0186368D01*
X0014295Y0186526D01*
X0014309Y0186684D01*
X0014327Y0186841D01*
X0014348Y0186998D01*
X0014374Y0187154D01*
X0014404Y0187310D01*
X0014437Y0187465D01*
X0014475Y0187618D01*
X0014516Y0187771D01*
X0014561Y0187923D01*
X0014610Y0188074D01*
X0014663Y0188223D01*
X0014719Y0188371D01*
X0014779Y0188517D01*
X0014843Y0188662D01*
X0014911Y0188805D01*
X0014982Y0188947D01*
X0015056Y0189087D01*
X0015134Y0189224D01*
X0015216Y0189360D01*
X0015300Y0189494D01*
X0015389Y0189625D01*
X0015480Y0189754D01*
X0015575Y0189881D01*
X0015672Y0190006D01*
X0015773Y0190128D01*
X0015877Y0190247D01*
X0015984Y0190364D01*
X0016094Y0190478D01*
X0016207Y0190589D01*
X0016322Y0190698D01*
X0016440Y0190803D01*
X0016561Y0190905D01*
X0016684Y0191005D01*
X0016810Y0191101D01*
X0016938Y0191194D01*
X0017068Y0191284D01*
X0017201Y0191370D01*
X0017336Y0191454D01*
X0017472Y0191533D01*
X0017611Y0191610D01*
X0017752Y0191682D01*
X0017894Y0191752D01*
X0018038Y0191817D01*
X0018184Y0191879D01*
X0018331Y0191937D01*
X0018480Y0191992D01*
X0018630Y0192043D01*
X0018781Y0192090D01*
X0018933Y0192133D01*
X0019086Y0192172D01*
X0019241Y0192208D01*
X0019396Y0192239D01*
X0019552Y0192267D01*
X0019708Y0192291D01*
X0019865Y0192311D01*
X0020023Y0192327D01*
X0020180Y0192339D01*
X0020339Y0192347D01*
X0020497Y0192351D01*
X0020655Y0192351D01*
X0020813Y0192347D01*
X0020972Y0192339D01*
X0021129Y0192327D01*
X0021287Y0192311D01*
X0021444Y0192291D01*
X0021600Y0192267D01*
X0021756Y0192239D01*
X0021911Y0192208D01*
X0022066Y0192172D01*
X0022219Y0192133D01*
X0022371Y0192090D01*
X0022522Y0192043D01*
X0022672Y0191992D01*
X0022821Y0191937D01*
X0022968Y0191879D01*
X0023114Y0191817D01*
X0023258Y0191752D01*
X0023400Y0191682D01*
X0023541Y0191610D01*
X0023680Y0191533D01*
X0023816Y0191454D01*
X0023951Y0191370D01*
X0024084Y0191284D01*
X0024214Y0191194D01*
X0024342Y0191101D01*
X0024468Y0191005D01*
X0024591Y0190905D01*
X0024712Y0190803D01*
X0024830Y0190698D01*
X0024945Y0190589D01*
X0025058Y0190478D01*
X0025168Y0190364D01*
X0025275Y0190247D01*
X0025379Y0190128D01*
X0025480Y0190006D01*
X0025577Y0189881D01*
X0025672Y0189754D01*
X0025763Y0189625D01*
X0025852Y0189494D01*
X0025936Y0189360D01*
X0026018Y0189224D01*
X0026096Y0189087D01*
X0026170Y0188947D01*
X0026241Y0188805D01*
X0026309Y0188662D01*
X0026373Y0188517D01*
X0026433Y0188371D01*
X0026489Y0188223D01*
X0026542Y0188074D01*
X0026591Y0187923D01*
X0026636Y0187771D01*
X0026677Y0187618D01*
X0026715Y0187465D01*
X0026748Y0187310D01*
X0026778Y0187154D01*
X0026804Y0186998D01*
X0026825Y0186841D01*
X0026843Y0186684D01*
X0026857Y0186526D01*
X0026867Y0186368D01*
X0026873Y0186210D01*
X0026875Y0186052D01*
X0026873Y0185894D01*
X0026867Y0185736D01*
X0026857Y0185578D01*
X0026843Y0185420D01*
X0026825Y0185263D01*
X0026804Y0185106D01*
X0026778Y0184950D01*
X0026748Y0184794D01*
X0026715Y0184639D01*
X0026677Y0184486D01*
X0026636Y0184333D01*
X0026591Y0184181D01*
X0026542Y0184030D01*
X0026489Y0183881D01*
X0026433Y0183733D01*
X0026373Y0183587D01*
X0026309Y0183442D01*
X0026241Y0183299D01*
X0026170Y0183157D01*
X0026096Y0183017D01*
X0026018Y0182880D01*
X0025936Y0182744D01*
X0025852Y0182610D01*
X0025763Y0182479D01*
X0025672Y0182350D01*
X0025577Y0182223D01*
X0025480Y0182098D01*
X0025379Y0181976D01*
X0025275Y0181857D01*
X0025168Y0181740D01*
X0025058Y0181626D01*
X0024945Y0181515D01*
X0024830Y0181406D01*
X0024712Y0181301D01*
X0024591Y0181199D01*
X0024468Y0181099D01*
X0024342Y0181003D01*
X0024214Y0180910D01*
X0024084Y0180820D01*
X0023951Y0180734D01*
X0023816Y0180650D01*
X0023680Y0180571D01*
X0023541Y0180494D01*
X0023400Y0180422D01*
X0023258Y0180352D01*
X0023114Y0180287D01*
X0022968Y0180225D01*
X0022821Y0180167D01*
X0022672Y0180112D01*
X0022522Y0180061D01*
X0022371Y0180014D01*
X0022219Y0179971D01*
X0022066Y0179932D01*
X0021911Y0179896D01*
X0021756Y0179865D01*
X0021600Y0179837D01*
X0021444Y0179813D01*
X0021287Y0179793D01*
X0021129Y0179777D01*
X0020972Y0179765D01*
X0020813Y0179757D01*
X0020655Y0179753D01*
X0020497Y0179753D01*
X0020339Y0179757D01*
X0020180Y0179765D01*
X0020023Y0179777D01*
X0019865Y0179793D01*
X0019708Y0179813D01*
X0019552Y0179837D01*
X0019396Y0179865D01*
X0019241Y0179896D01*
X0019086Y0179932D01*
X0018933Y0179971D01*
X0018781Y0180014D01*
X0018630Y0180061D01*
X0018480Y0180112D01*
X0018331Y0180167D01*
X0018184Y0180225D01*
X0018038Y0180287D01*
X0017894Y0180352D01*
X0017752Y0180422D01*
X0017611Y0180494D01*
X0017472Y0180571D01*
X0017336Y0180650D01*
X0017201Y0180734D01*
X0017068Y0180820D01*
X0016938Y0180910D01*
X0016810Y0181003D01*
X0016684Y0181099D01*
X0016561Y0181199D01*
X0016440Y0181301D01*
X0016322Y0181406D01*
X0016207Y0181515D01*
X0016094Y0181626D01*
X0015984Y0181740D01*
X0015877Y0181857D01*
X0015773Y0181976D01*
X0015672Y0182098D01*
X0015575Y0182223D01*
X0015480Y0182350D01*
X0015389Y0182479D01*
X0015300Y0182610D01*
X0015216Y0182744D01*
X0015134Y0182880D01*
X0015056Y0183017D01*
X0014982Y0183157D01*
X0014911Y0183299D01*
X0014843Y0183442D01*
X0014779Y0183587D01*
X0014719Y0183733D01*
X0014663Y0183881D01*
X0014610Y0184030D01*
X0014561Y0184181D01*
X0014516Y0184333D01*
X0014475Y0184486D01*
X0014437Y0184639D01*
X0014404Y0184794D01*
X0014374Y0184950D01*
X0014348Y0185106D01*
X0014327Y0185263D01*
X0014309Y0185420D01*
X0014295Y0185578D01*
X0014285Y0185736D01*
X0014279Y0185894D01*
X0014277Y0186052D01*
X0007978Y0185550D02*
X0007982Y0185867D01*
X0007993Y0186183D01*
X0008012Y0186499D01*
X0008039Y0186814D01*
X0008074Y0187129D01*
X0008115Y0187443D01*
X0008165Y0187755D01*
X0008222Y0188067D01*
X0008287Y0188377D01*
X0008359Y0188685D01*
X0008438Y0188991D01*
X0008525Y0189296D01*
X0008619Y0189598D01*
X0008721Y0189898D01*
X0008829Y0190195D01*
X0008945Y0190490D01*
X0009068Y0190782D01*
X0009198Y0191070D01*
X0009335Y0191356D01*
X0009479Y0191638D01*
X0009629Y0191916D01*
X0009786Y0192191D01*
X0009950Y0192462D01*
X0010120Y0192729D01*
X0010297Y0192992D01*
X0010480Y0193250D01*
X0010669Y0193504D01*
X0010864Y0193753D01*
X0011065Y0193997D01*
X0011273Y0194237D01*
X0011485Y0194471D01*
X0011704Y0194700D01*
X0011928Y0194924D01*
X0012157Y0195143D01*
X0012391Y0195355D01*
X0012631Y0195563D01*
X0012875Y0195764D01*
X0013124Y0195959D01*
X0013378Y0196148D01*
X0013636Y0196331D01*
X0013899Y0196508D01*
X0014166Y0196678D01*
X0014437Y0196842D01*
X0014712Y0196999D01*
X0014990Y0197149D01*
X0015272Y0197293D01*
X0015558Y0197430D01*
X0015846Y0197560D01*
X0016138Y0197683D01*
X0016433Y0197799D01*
X0016730Y0197907D01*
X0017030Y0198009D01*
X0017332Y0198103D01*
X0017637Y0198190D01*
X0017943Y0198269D01*
X0018251Y0198341D01*
X0018561Y0198406D01*
X0018873Y0198463D01*
X0019185Y0198513D01*
X0019499Y0198554D01*
X0019814Y0198589D01*
X0020129Y0198616D01*
X0020445Y0198635D01*
X0020761Y0198646D01*
X0021078Y0198650D01*
X0189080Y0198650D01*
X0185930Y0186052D02*
X0185932Y0186210D01*
X0185938Y0186368D01*
X0185948Y0186526D01*
X0185962Y0186684D01*
X0185980Y0186841D01*
X0186001Y0186998D01*
X0186027Y0187154D01*
X0186057Y0187310D01*
X0186090Y0187465D01*
X0186128Y0187618D01*
X0186169Y0187771D01*
X0186214Y0187923D01*
X0186263Y0188074D01*
X0186316Y0188223D01*
X0186372Y0188371D01*
X0186432Y0188517D01*
X0186496Y0188662D01*
X0186564Y0188805D01*
X0186635Y0188947D01*
X0186709Y0189087D01*
X0186787Y0189224D01*
X0186869Y0189360D01*
X0186953Y0189494D01*
X0187042Y0189625D01*
X0187133Y0189754D01*
X0187228Y0189881D01*
X0187325Y0190006D01*
X0187426Y0190128D01*
X0187530Y0190247D01*
X0187637Y0190364D01*
X0187747Y0190478D01*
X0187860Y0190589D01*
X0187975Y0190698D01*
X0188093Y0190803D01*
X0188214Y0190905D01*
X0188337Y0191005D01*
X0188463Y0191101D01*
X0188591Y0191194D01*
X0188721Y0191284D01*
X0188854Y0191370D01*
X0188989Y0191454D01*
X0189125Y0191533D01*
X0189264Y0191610D01*
X0189405Y0191682D01*
X0189547Y0191752D01*
X0189691Y0191817D01*
X0189837Y0191879D01*
X0189984Y0191937D01*
X0190133Y0191992D01*
X0190283Y0192043D01*
X0190434Y0192090D01*
X0190586Y0192133D01*
X0190739Y0192172D01*
X0190894Y0192208D01*
X0191049Y0192239D01*
X0191205Y0192267D01*
X0191361Y0192291D01*
X0191518Y0192311D01*
X0191676Y0192327D01*
X0191833Y0192339D01*
X0191992Y0192347D01*
X0192150Y0192351D01*
X0192308Y0192351D01*
X0192466Y0192347D01*
X0192625Y0192339D01*
X0192782Y0192327D01*
X0192940Y0192311D01*
X0193097Y0192291D01*
X0193253Y0192267D01*
X0193409Y0192239D01*
X0193564Y0192208D01*
X0193719Y0192172D01*
X0193872Y0192133D01*
X0194024Y0192090D01*
X0194175Y0192043D01*
X0194325Y0191992D01*
X0194474Y0191937D01*
X0194621Y0191879D01*
X0194767Y0191817D01*
X0194911Y0191752D01*
X0195053Y0191682D01*
X0195194Y0191610D01*
X0195333Y0191533D01*
X0195469Y0191454D01*
X0195604Y0191370D01*
X0195737Y0191284D01*
X0195867Y0191194D01*
X0195995Y0191101D01*
X0196121Y0191005D01*
X0196244Y0190905D01*
X0196365Y0190803D01*
X0196483Y0190698D01*
X0196598Y0190589D01*
X0196711Y0190478D01*
X0196821Y0190364D01*
X0196928Y0190247D01*
X0197032Y0190128D01*
X0197133Y0190006D01*
X0197230Y0189881D01*
X0197325Y0189754D01*
X0197416Y0189625D01*
X0197505Y0189494D01*
X0197589Y0189360D01*
X0197671Y0189224D01*
X0197749Y0189087D01*
X0197823Y0188947D01*
X0197894Y0188805D01*
X0197962Y0188662D01*
X0198026Y0188517D01*
X0198086Y0188371D01*
X0198142Y0188223D01*
X0198195Y0188074D01*
X0198244Y0187923D01*
X0198289Y0187771D01*
X0198330Y0187618D01*
X0198368Y0187465D01*
X0198401Y0187310D01*
X0198431Y0187154D01*
X0198457Y0186998D01*
X0198478Y0186841D01*
X0198496Y0186684D01*
X0198510Y0186526D01*
X0198520Y0186368D01*
X0198526Y0186210D01*
X0198528Y0186052D01*
X0198526Y0185894D01*
X0198520Y0185736D01*
X0198510Y0185578D01*
X0198496Y0185420D01*
X0198478Y0185263D01*
X0198457Y0185106D01*
X0198431Y0184950D01*
X0198401Y0184794D01*
X0198368Y0184639D01*
X0198330Y0184486D01*
X0198289Y0184333D01*
X0198244Y0184181D01*
X0198195Y0184030D01*
X0198142Y0183881D01*
X0198086Y0183733D01*
X0198026Y0183587D01*
X0197962Y0183442D01*
X0197894Y0183299D01*
X0197823Y0183157D01*
X0197749Y0183017D01*
X0197671Y0182880D01*
X0197589Y0182744D01*
X0197505Y0182610D01*
X0197416Y0182479D01*
X0197325Y0182350D01*
X0197230Y0182223D01*
X0197133Y0182098D01*
X0197032Y0181976D01*
X0196928Y0181857D01*
X0196821Y0181740D01*
X0196711Y0181626D01*
X0196598Y0181515D01*
X0196483Y0181406D01*
X0196365Y0181301D01*
X0196244Y0181199D01*
X0196121Y0181099D01*
X0195995Y0181003D01*
X0195867Y0180910D01*
X0195737Y0180820D01*
X0195604Y0180734D01*
X0195469Y0180650D01*
X0195333Y0180571D01*
X0195194Y0180494D01*
X0195053Y0180422D01*
X0194911Y0180352D01*
X0194767Y0180287D01*
X0194621Y0180225D01*
X0194474Y0180167D01*
X0194325Y0180112D01*
X0194175Y0180061D01*
X0194024Y0180014D01*
X0193872Y0179971D01*
X0193719Y0179932D01*
X0193564Y0179896D01*
X0193409Y0179865D01*
X0193253Y0179837D01*
X0193097Y0179813D01*
X0192940Y0179793D01*
X0192782Y0179777D01*
X0192625Y0179765D01*
X0192466Y0179757D01*
X0192308Y0179753D01*
X0192150Y0179753D01*
X0191992Y0179757D01*
X0191833Y0179765D01*
X0191676Y0179777D01*
X0191518Y0179793D01*
X0191361Y0179813D01*
X0191205Y0179837D01*
X0191049Y0179865D01*
X0190894Y0179896D01*
X0190739Y0179932D01*
X0190586Y0179971D01*
X0190434Y0180014D01*
X0190283Y0180061D01*
X0190133Y0180112D01*
X0189984Y0180167D01*
X0189837Y0180225D01*
X0189691Y0180287D01*
X0189547Y0180352D01*
X0189405Y0180422D01*
X0189264Y0180494D01*
X0189125Y0180571D01*
X0188989Y0180650D01*
X0188854Y0180734D01*
X0188721Y0180820D01*
X0188591Y0180910D01*
X0188463Y0181003D01*
X0188337Y0181099D01*
X0188214Y0181199D01*
X0188093Y0181301D01*
X0187975Y0181406D01*
X0187860Y0181515D01*
X0187747Y0181626D01*
X0187637Y0181740D01*
X0187530Y0181857D01*
X0187426Y0181976D01*
X0187325Y0182098D01*
X0187228Y0182223D01*
X0187133Y0182350D01*
X0187042Y0182479D01*
X0186953Y0182610D01*
X0186869Y0182744D01*
X0186787Y0182880D01*
X0186709Y0183017D01*
X0186635Y0183157D01*
X0186564Y0183299D01*
X0186496Y0183442D01*
X0186432Y0183587D01*
X0186372Y0183733D01*
X0186316Y0183881D01*
X0186263Y0184030D01*
X0186214Y0184181D01*
X0186169Y0184333D01*
X0186128Y0184486D01*
X0186090Y0184639D01*
X0186057Y0184794D01*
X0186027Y0184950D01*
X0186001Y0185106D01*
X0185980Y0185263D01*
X0185962Y0185420D01*
X0185948Y0185578D01*
X0185938Y0185736D01*
X0185932Y0185894D01*
X0185930Y0186052D01*
X0189080Y0198650D02*
X0189461Y0198645D01*
X0189841Y0198632D01*
X0190221Y0198609D01*
X0190600Y0198576D01*
X0190978Y0198535D01*
X0191355Y0198485D01*
X0191731Y0198425D01*
X0192106Y0198357D01*
X0192478Y0198279D01*
X0192849Y0198192D01*
X0193217Y0198097D01*
X0193583Y0197992D01*
X0193946Y0197879D01*
X0194307Y0197757D01*
X0194664Y0197627D01*
X0195018Y0197487D01*
X0195369Y0197340D01*
X0195716Y0197183D01*
X0196059Y0197019D01*
X0196398Y0196846D01*
X0196733Y0196665D01*
X0197064Y0196476D01*
X0197389Y0196279D01*
X0197710Y0196075D01*
X0198026Y0195862D01*
X0198336Y0195642D01*
X0198642Y0195415D01*
X0198941Y0195180D01*
X0199235Y0194938D01*
X0199523Y0194690D01*
X0199805Y0194434D01*
X0200080Y0194171D01*
X0200349Y0193902D01*
X0200612Y0193627D01*
X0200868Y0193345D01*
X0201116Y0193057D01*
X0201358Y0192763D01*
X0201593Y0192464D01*
X0201820Y0192158D01*
X0202040Y0191848D01*
X0202253Y0191532D01*
X0202457Y0191211D01*
X0202654Y0190886D01*
X0202843Y0190555D01*
X0203024Y0190220D01*
X0203197Y0189881D01*
X0203361Y0189538D01*
X0203518Y0189191D01*
X0203665Y0188840D01*
X0203805Y0188486D01*
X0203935Y0188129D01*
X0204057Y0187768D01*
X0204170Y0187405D01*
X0204275Y0187039D01*
X0204370Y0186671D01*
X0204457Y0186300D01*
X0204535Y0185928D01*
X0204603Y0185553D01*
X0204663Y0185177D01*
X0204713Y0184800D01*
X0204754Y0184422D01*
X0204787Y0184043D01*
X0204810Y0183663D01*
X0204823Y0183283D01*
X0204828Y0182902D01*
X0204828Y0017548D01*
X0185930Y0014398D02*
X0185932Y0014556D01*
X0185938Y0014714D01*
X0185948Y0014872D01*
X0185962Y0015030D01*
X0185980Y0015187D01*
X0186001Y0015344D01*
X0186027Y0015500D01*
X0186057Y0015656D01*
X0186090Y0015811D01*
X0186128Y0015964D01*
X0186169Y0016117D01*
X0186214Y0016269D01*
X0186263Y0016420D01*
X0186316Y0016569D01*
X0186372Y0016717D01*
X0186432Y0016863D01*
X0186496Y0017008D01*
X0186564Y0017151D01*
X0186635Y0017293D01*
X0186709Y0017433D01*
X0186787Y0017570D01*
X0186869Y0017706D01*
X0186953Y0017840D01*
X0187042Y0017971D01*
X0187133Y0018100D01*
X0187228Y0018227D01*
X0187325Y0018352D01*
X0187426Y0018474D01*
X0187530Y0018593D01*
X0187637Y0018710D01*
X0187747Y0018824D01*
X0187860Y0018935D01*
X0187975Y0019044D01*
X0188093Y0019149D01*
X0188214Y0019251D01*
X0188337Y0019351D01*
X0188463Y0019447D01*
X0188591Y0019540D01*
X0188721Y0019630D01*
X0188854Y0019716D01*
X0188989Y0019800D01*
X0189125Y0019879D01*
X0189264Y0019956D01*
X0189405Y0020028D01*
X0189547Y0020098D01*
X0189691Y0020163D01*
X0189837Y0020225D01*
X0189984Y0020283D01*
X0190133Y0020338D01*
X0190283Y0020389D01*
X0190434Y0020436D01*
X0190586Y0020479D01*
X0190739Y0020518D01*
X0190894Y0020554D01*
X0191049Y0020585D01*
X0191205Y0020613D01*
X0191361Y0020637D01*
X0191518Y0020657D01*
X0191676Y0020673D01*
X0191833Y0020685D01*
X0191992Y0020693D01*
X0192150Y0020697D01*
X0192308Y0020697D01*
X0192466Y0020693D01*
X0192625Y0020685D01*
X0192782Y0020673D01*
X0192940Y0020657D01*
X0193097Y0020637D01*
X0193253Y0020613D01*
X0193409Y0020585D01*
X0193564Y0020554D01*
X0193719Y0020518D01*
X0193872Y0020479D01*
X0194024Y0020436D01*
X0194175Y0020389D01*
X0194325Y0020338D01*
X0194474Y0020283D01*
X0194621Y0020225D01*
X0194767Y0020163D01*
X0194911Y0020098D01*
X0195053Y0020028D01*
X0195194Y0019956D01*
X0195333Y0019879D01*
X0195469Y0019800D01*
X0195604Y0019716D01*
X0195737Y0019630D01*
X0195867Y0019540D01*
X0195995Y0019447D01*
X0196121Y0019351D01*
X0196244Y0019251D01*
X0196365Y0019149D01*
X0196483Y0019044D01*
X0196598Y0018935D01*
X0196711Y0018824D01*
X0196821Y0018710D01*
X0196928Y0018593D01*
X0197032Y0018474D01*
X0197133Y0018352D01*
X0197230Y0018227D01*
X0197325Y0018100D01*
X0197416Y0017971D01*
X0197505Y0017840D01*
X0197589Y0017706D01*
X0197671Y0017570D01*
X0197749Y0017433D01*
X0197823Y0017293D01*
X0197894Y0017151D01*
X0197962Y0017008D01*
X0198026Y0016863D01*
X0198086Y0016717D01*
X0198142Y0016569D01*
X0198195Y0016420D01*
X0198244Y0016269D01*
X0198289Y0016117D01*
X0198330Y0015964D01*
X0198368Y0015811D01*
X0198401Y0015656D01*
X0198431Y0015500D01*
X0198457Y0015344D01*
X0198478Y0015187D01*
X0198496Y0015030D01*
X0198510Y0014872D01*
X0198520Y0014714D01*
X0198526Y0014556D01*
X0198528Y0014398D01*
X0198526Y0014240D01*
X0198520Y0014082D01*
X0198510Y0013924D01*
X0198496Y0013766D01*
X0198478Y0013609D01*
X0198457Y0013452D01*
X0198431Y0013296D01*
X0198401Y0013140D01*
X0198368Y0012985D01*
X0198330Y0012832D01*
X0198289Y0012679D01*
X0198244Y0012527D01*
X0198195Y0012376D01*
X0198142Y0012227D01*
X0198086Y0012079D01*
X0198026Y0011933D01*
X0197962Y0011788D01*
X0197894Y0011645D01*
X0197823Y0011503D01*
X0197749Y0011363D01*
X0197671Y0011226D01*
X0197589Y0011090D01*
X0197505Y0010956D01*
X0197416Y0010825D01*
X0197325Y0010696D01*
X0197230Y0010569D01*
X0197133Y0010444D01*
X0197032Y0010322D01*
X0196928Y0010203D01*
X0196821Y0010086D01*
X0196711Y0009972D01*
X0196598Y0009861D01*
X0196483Y0009752D01*
X0196365Y0009647D01*
X0196244Y0009545D01*
X0196121Y0009445D01*
X0195995Y0009349D01*
X0195867Y0009256D01*
X0195737Y0009166D01*
X0195604Y0009080D01*
X0195469Y0008996D01*
X0195333Y0008917D01*
X0195194Y0008840D01*
X0195053Y0008768D01*
X0194911Y0008698D01*
X0194767Y0008633D01*
X0194621Y0008571D01*
X0194474Y0008513D01*
X0194325Y0008458D01*
X0194175Y0008407D01*
X0194024Y0008360D01*
X0193872Y0008317D01*
X0193719Y0008278D01*
X0193564Y0008242D01*
X0193409Y0008211D01*
X0193253Y0008183D01*
X0193097Y0008159D01*
X0192940Y0008139D01*
X0192782Y0008123D01*
X0192625Y0008111D01*
X0192466Y0008103D01*
X0192308Y0008099D01*
X0192150Y0008099D01*
X0191992Y0008103D01*
X0191833Y0008111D01*
X0191676Y0008123D01*
X0191518Y0008139D01*
X0191361Y0008159D01*
X0191205Y0008183D01*
X0191049Y0008211D01*
X0190894Y0008242D01*
X0190739Y0008278D01*
X0190586Y0008317D01*
X0190434Y0008360D01*
X0190283Y0008407D01*
X0190133Y0008458D01*
X0189984Y0008513D01*
X0189837Y0008571D01*
X0189691Y0008633D01*
X0189547Y0008698D01*
X0189405Y0008768D01*
X0189264Y0008840D01*
X0189125Y0008917D01*
X0188989Y0008996D01*
X0188854Y0009080D01*
X0188721Y0009166D01*
X0188591Y0009256D01*
X0188463Y0009349D01*
X0188337Y0009445D01*
X0188214Y0009545D01*
X0188093Y0009647D01*
X0187975Y0009752D01*
X0187860Y0009861D01*
X0187747Y0009972D01*
X0187637Y0010086D01*
X0187530Y0010203D01*
X0187426Y0010322D01*
X0187325Y0010444D01*
X0187228Y0010569D01*
X0187133Y0010696D01*
X0187042Y0010825D01*
X0186953Y0010956D01*
X0186869Y0011090D01*
X0186787Y0011226D01*
X0186709Y0011363D01*
X0186635Y0011503D01*
X0186564Y0011645D01*
X0186496Y0011788D01*
X0186432Y0011933D01*
X0186372Y0012079D01*
X0186316Y0012227D01*
X0186263Y0012376D01*
X0186214Y0012527D01*
X0186169Y0012679D01*
X0186128Y0012832D01*
X0186090Y0012985D01*
X0186057Y0013140D01*
X0186027Y0013296D01*
X0186001Y0013452D01*
X0185980Y0013609D01*
X0185962Y0013766D01*
X0185948Y0013924D01*
X0185938Y0014082D01*
X0185932Y0014240D01*
X0185930Y0014398D01*
X0189080Y0001800D02*
X0189461Y0001805D01*
X0189841Y0001818D01*
X0190221Y0001841D01*
X0190600Y0001874D01*
X0190978Y0001915D01*
X0191355Y0001965D01*
X0191731Y0002025D01*
X0192106Y0002093D01*
X0192478Y0002171D01*
X0192849Y0002258D01*
X0193217Y0002353D01*
X0193583Y0002458D01*
X0193946Y0002571D01*
X0194307Y0002693D01*
X0194664Y0002823D01*
X0195018Y0002963D01*
X0195369Y0003110D01*
X0195716Y0003267D01*
X0196059Y0003431D01*
X0196398Y0003604D01*
X0196733Y0003785D01*
X0197064Y0003974D01*
X0197389Y0004171D01*
X0197710Y0004375D01*
X0198026Y0004588D01*
X0198336Y0004808D01*
X0198642Y0005035D01*
X0198941Y0005270D01*
X0199235Y0005512D01*
X0199523Y0005760D01*
X0199805Y0006016D01*
X0200080Y0006279D01*
X0200349Y0006548D01*
X0200612Y0006823D01*
X0200868Y0007105D01*
X0201116Y0007393D01*
X0201358Y0007687D01*
X0201593Y0007986D01*
X0201820Y0008292D01*
X0202040Y0008602D01*
X0202253Y0008918D01*
X0202457Y0009239D01*
X0202654Y0009564D01*
X0202843Y0009895D01*
X0203024Y0010230D01*
X0203197Y0010569D01*
X0203361Y0010912D01*
X0203518Y0011259D01*
X0203665Y0011610D01*
X0203805Y0011964D01*
X0203935Y0012321D01*
X0204057Y0012682D01*
X0204170Y0013045D01*
X0204275Y0013411D01*
X0204370Y0013779D01*
X0204457Y0014150D01*
X0204535Y0014522D01*
X0204603Y0014897D01*
X0204663Y0015273D01*
X0204713Y0015650D01*
X0204754Y0016028D01*
X0204787Y0016407D01*
X0204810Y0016787D01*
X0204823Y0017167D01*
X0204828Y0017548D01*
X0189080Y0001800D02*
X0023725Y0001800D01*
X0014277Y0014398D02*
X0014279Y0014556D01*
X0014285Y0014714D01*
X0014295Y0014872D01*
X0014309Y0015030D01*
X0014327Y0015187D01*
X0014348Y0015344D01*
X0014374Y0015500D01*
X0014404Y0015656D01*
X0014437Y0015811D01*
X0014475Y0015964D01*
X0014516Y0016117D01*
X0014561Y0016269D01*
X0014610Y0016420D01*
X0014663Y0016569D01*
X0014719Y0016717D01*
X0014779Y0016863D01*
X0014843Y0017008D01*
X0014911Y0017151D01*
X0014982Y0017293D01*
X0015056Y0017433D01*
X0015134Y0017570D01*
X0015216Y0017706D01*
X0015300Y0017840D01*
X0015389Y0017971D01*
X0015480Y0018100D01*
X0015575Y0018227D01*
X0015672Y0018352D01*
X0015773Y0018474D01*
X0015877Y0018593D01*
X0015984Y0018710D01*
X0016094Y0018824D01*
X0016207Y0018935D01*
X0016322Y0019044D01*
X0016440Y0019149D01*
X0016561Y0019251D01*
X0016684Y0019351D01*
X0016810Y0019447D01*
X0016938Y0019540D01*
X0017068Y0019630D01*
X0017201Y0019716D01*
X0017336Y0019800D01*
X0017472Y0019879D01*
X0017611Y0019956D01*
X0017752Y0020028D01*
X0017894Y0020098D01*
X0018038Y0020163D01*
X0018184Y0020225D01*
X0018331Y0020283D01*
X0018480Y0020338D01*
X0018630Y0020389D01*
X0018781Y0020436D01*
X0018933Y0020479D01*
X0019086Y0020518D01*
X0019241Y0020554D01*
X0019396Y0020585D01*
X0019552Y0020613D01*
X0019708Y0020637D01*
X0019865Y0020657D01*
X0020023Y0020673D01*
X0020180Y0020685D01*
X0020339Y0020693D01*
X0020497Y0020697D01*
X0020655Y0020697D01*
X0020813Y0020693D01*
X0020972Y0020685D01*
X0021129Y0020673D01*
X0021287Y0020657D01*
X0021444Y0020637D01*
X0021600Y0020613D01*
X0021756Y0020585D01*
X0021911Y0020554D01*
X0022066Y0020518D01*
X0022219Y0020479D01*
X0022371Y0020436D01*
X0022522Y0020389D01*
X0022672Y0020338D01*
X0022821Y0020283D01*
X0022968Y0020225D01*
X0023114Y0020163D01*
X0023258Y0020098D01*
X0023400Y0020028D01*
X0023541Y0019956D01*
X0023680Y0019879D01*
X0023816Y0019800D01*
X0023951Y0019716D01*
X0024084Y0019630D01*
X0024214Y0019540D01*
X0024342Y0019447D01*
X0024468Y0019351D01*
X0024591Y0019251D01*
X0024712Y0019149D01*
X0024830Y0019044D01*
X0024945Y0018935D01*
X0025058Y0018824D01*
X0025168Y0018710D01*
X0025275Y0018593D01*
X0025379Y0018474D01*
X0025480Y0018352D01*
X0025577Y0018227D01*
X0025672Y0018100D01*
X0025763Y0017971D01*
X0025852Y0017840D01*
X0025936Y0017706D01*
X0026018Y0017570D01*
X0026096Y0017433D01*
X0026170Y0017293D01*
X0026241Y0017151D01*
X0026309Y0017008D01*
X0026373Y0016863D01*
X0026433Y0016717D01*
X0026489Y0016569D01*
X0026542Y0016420D01*
X0026591Y0016269D01*
X0026636Y0016117D01*
X0026677Y0015964D01*
X0026715Y0015811D01*
X0026748Y0015656D01*
X0026778Y0015500D01*
X0026804Y0015344D01*
X0026825Y0015187D01*
X0026843Y0015030D01*
X0026857Y0014872D01*
X0026867Y0014714D01*
X0026873Y0014556D01*
X0026875Y0014398D01*
X0026873Y0014240D01*
X0026867Y0014082D01*
X0026857Y0013924D01*
X0026843Y0013766D01*
X0026825Y0013609D01*
X0026804Y0013452D01*
X0026778Y0013296D01*
X0026748Y0013140D01*
X0026715Y0012985D01*
X0026677Y0012832D01*
X0026636Y0012679D01*
X0026591Y0012527D01*
X0026542Y0012376D01*
X0026489Y0012227D01*
X0026433Y0012079D01*
X0026373Y0011933D01*
X0026309Y0011788D01*
X0026241Y0011645D01*
X0026170Y0011503D01*
X0026096Y0011363D01*
X0026018Y0011226D01*
X0025936Y0011090D01*
X0025852Y0010956D01*
X0025763Y0010825D01*
X0025672Y0010696D01*
X0025577Y0010569D01*
X0025480Y0010444D01*
X0025379Y0010322D01*
X0025275Y0010203D01*
X0025168Y0010086D01*
X0025058Y0009972D01*
X0024945Y0009861D01*
X0024830Y0009752D01*
X0024712Y0009647D01*
X0024591Y0009545D01*
X0024468Y0009445D01*
X0024342Y0009349D01*
X0024214Y0009256D01*
X0024084Y0009166D01*
X0023951Y0009080D01*
X0023816Y0008996D01*
X0023680Y0008917D01*
X0023541Y0008840D01*
X0023400Y0008768D01*
X0023258Y0008698D01*
X0023114Y0008633D01*
X0022968Y0008571D01*
X0022821Y0008513D01*
X0022672Y0008458D01*
X0022522Y0008407D01*
X0022371Y0008360D01*
X0022219Y0008317D01*
X0022066Y0008278D01*
X0021911Y0008242D01*
X0021756Y0008211D01*
X0021600Y0008183D01*
X0021444Y0008159D01*
X0021287Y0008139D01*
X0021129Y0008123D01*
X0020972Y0008111D01*
X0020813Y0008103D01*
X0020655Y0008099D01*
X0020497Y0008099D01*
X0020339Y0008103D01*
X0020180Y0008111D01*
X0020023Y0008123D01*
X0019865Y0008139D01*
X0019708Y0008159D01*
X0019552Y0008183D01*
X0019396Y0008211D01*
X0019241Y0008242D01*
X0019086Y0008278D01*
X0018933Y0008317D01*
X0018781Y0008360D01*
X0018630Y0008407D01*
X0018480Y0008458D01*
X0018331Y0008513D01*
X0018184Y0008571D01*
X0018038Y0008633D01*
X0017894Y0008698D01*
X0017752Y0008768D01*
X0017611Y0008840D01*
X0017472Y0008917D01*
X0017336Y0008996D01*
X0017201Y0009080D01*
X0017068Y0009166D01*
X0016938Y0009256D01*
X0016810Y0009349D01*
X0016684Y0009445D01*
X0016561Y0009545D01*
X0016440Y0009647D01*
X0016322Y0009752D01*
X0016207Y0009861D01*
X0016094Y0009972D01*
X0015984Y0010086D01*
X0015877Y0010203D01*
X0015773Y0010322D01*
X0015672Y0010444D01*
X0015575Y0010569D01*
X0015480Y0010696D01*
X0015389Y0010825D01*
X0015300Y0010956D01*
X0015216Y0011090D01*
X0015134Y0011226D01*
X0015056Y0011363D01*
X0014982Y0011503D01*
X0014911Y0011645D01*
X0014843Y0011788D01*
X0014779Y0011933D01*
X0014719Y0012079D01*
X0014663Y0012227D01*
X0014610Y0012376D01*
X0014561Y0012527D01*
X0014516Y0012679D01*
X0014475Y0012832D01*
X0014437Y0012985D01*
X0014404Y0013140D01*
X0014374Y0013296D01*
X0014348Y0013452D01*
X0014327Y0013609D01*
X0014309Y0013766D01*
X0014295Y0013924D01*
X0014285Y0014082D01*
X0014279Y0014240D01*
X0014277Y0014398D01*
X0007977Y0017548D02*
X0007982Y0017167D01*
X0007995Y0016787D01*
X0008018Y0016407D01*
X0008051Y0016028D01*
X0008092Y0015650D01*
X0008142Y0015273D01*
X0008202Y0014897D01*
X0008270Y0014522D01*
X0008348Y0014150D01*
X0008435Y0013779D01*
X0008530Y0013411D01*
X0008635Y0013045D01*
X0008748Y0012682D01*
X0008870Y0012321D01*
X0009000Y0011964D01*
X0009140Y0011610D01*
X0009287Y0011259D01*
X0009444Y0010912D01*
X0009608Y0010569D01*
X0009781Y0010230D01*
X0009962Y0009895D01*
X0010151Y0009564D01*
X0010348Y0009239D01*
X0010552Y0008918D01*
X0010765Y0008602D01*
X0010985Y0008292D01*
X0011212Y0007986D01*
X0011447Y0007687D01*
X0011689Y0007393D01*
X0011937Y0007105D01*
X0012193Y0006823D01*
X0012456Y0006548D01*
X0012725Y0006279D01*
X0013000Y0006016D01*
X0013282Y0005760D01*
X0013570Y0005512D01*
X0013864Y0005270D01*
X0014163Y0005035D01*
X0014469Y0004808D01*
X0014779Y0004588D01*
X0015095Y0004375D01*
X0015416Y0004171D01*
X0015741Y0003974D01*
X0016072Y0003785D01*
X0016407Y0003604D01*
X0016746Y0003431D01*
X0017089Y0003267D01*
X0017436Y0003110D01*
X0017787Y0002963D01*
X0018141Y0002823D01*
X0018498Y0002693D01*
X0018859Y0002571D01*
X0019222Y0002458D01*
X0019588Y0002353D01*
X0019956Y0002258D01*
X0020327Y0002171D01*
X0020699Y0002093D01*
X0021074Y0002025D01*
X0021450Y0001965D01*
X0021827Y0001915D01*
X0022205Y0001874D01*
X0022584Y0001841D01*
X0022964Y0001818D01*
X0023344Y0001805D01*
X0023725Y0001800D01*
D11*
X0023927Y0044641D03*
X0023927Y0051334D03*
X0078668Y0064762D03*
X0085361Y0064762D03*
X0070477Y0129391D03*
X0070477Y0136084D03*
X0110881Y0135175D03*
X0117574Y0135175D03*
X0124977Y0132191D03*
X0124977Y0138884D03*
X0127065Y0147729D03*
X0127065Y0154421D03*
X0139893Y0149013D03*
X0146586Y0149013D03*
X0191727Y0152204D03*
X0191727Y0158896D03*
X0188611Y0061925D03*
X0181918Y0061925D03*
X0037665Y0175329D03*
X0037665Y0182021D03*
D12*
X0035772Y0120225D03*
X0035772Y0110225D03*
X0035772Y0100225D03*
X0035772Y0090225D03*
X0035772Y0080225D03*
X0035365Y0066088D03*
X0028615Y0035600D03*
X0065772Y0080225D03*
X0065772Y0090225D03*
X0065772Y0100225D03*
X0065772Y0110225D03*
X0065772Y0120225D03*
X0076717Y0120225D03*
X0076717Y0110225D03*
X0076717Y0100225D03*
X0076717Y0090225D03*
X0076717Y0080225D03*
X0106717Y0080225D03*
X0106717Y0090225D03*
X0106717Y0100225D03*
X0106717Y0110225D03*
X0106717Y0120225D03*
X0117662Y0120225D03*
X0117662Y0110225D03*
X0117662Y0100225D03*
X0117662Y0090225D03*
X0117662Y0080225D03*
X0147662Y0080225D03*
X0147662Y0090225D03*
X0147662Y0100225D03*
X0147662Y0110225D03*
X0147662Y0120225D03*
X0183977Y0138050D03*
D13*
X0185074Y0148050D03*
X0178381Y0148050D03*
X0171324Y0140550D03*
X0170024Y0147725D03*
X0170024Y0154413D03*
X0163331Y0154413D03*
X0163331Y0147725D03*
X0164631Y0140550D03*
X0164631Y0163050D03*
X0171324Y0163050D03*
X0102824Y0129587D03*
X0096131Y0129587D03*
X0068824Y0071950D03*
X0062131Y0071950D03*
X0083265Y0056859D03*
X0083265Y0050166D03*
G36*
X0118012Y0064476D02*
X0120795Y0061693D01*
X0117734Y0058632D01*
X0114951Y0061415D01*
X0118012Y0064476D01*
G37*
G36*
X0122745Y0059743D02*
X0125528Y0056960D01*
X0122467Y0053899D01*
X0119684Y0056682D01*
X0122745Y0059743D01*
G37*
X0131893Y0069238D03*
X0138586Y0069238D03*
X0044515Y0039359D03*
X0044515Y0032666D03*
X0026599Y0084788D03*
X0026636Y0090237D03*
X0019943Y0090237D03*
X0019906Y0084788D03*
X0020568Y0105237D03*
X0020568Y0111175D03*
X0020568Y0117112D03*
X0027261Y0117112D03*
X0027261Y0111175D03*
X0027261Y0105237D03*
D14*
X0102927Y0066400D02*
X0108927Y0066400D01*
X0108927Y0056400D02*
X0102927Y0056400D01*
X0102927Y0046400D02*
X0108927Y0046400D01*
X0108927Y0036400D02*
X0102927Y0036400D01*
X0104015Y0018613D02*
X0104015Y0012612D01*
X0114015Y0012612D02*
X0114015Y0018613D01*
X0124015Y0018613D02*
X0124015Y0012612D01*
X0134015Y0012612D02*
X0134015Y0018613D01*
X0144015Y0018613D02*
X0144015Y0012612D01*
X0154015Y0012612D02*
X0154015Y0018613D01*
X0164015Y0018613D02*
X0164015Y0012612D01*
X0174015Y0012612D02*
X0174015Y0018613D01*
X0182226Y0077546D02*
X0188226Y0077546D01*
X0188226Y0095346D02*
X0182226Y0095346D01*
X0182226Y0105105D02*
X0188226Y0105105D01*
X0188226Y0122905D02*
X0182226Y0122905D01*
X0162626Y0122905D02*
X0156626Y0122905D01*
X0156626Y0105105D02*
X0162626Y0105105D01*
X0162626Y0095346D02*
X0156626Y0095346D01*
X0156626Y0077546D02*
X0162626Y0077546D01*
X0166727Y0180050D02*
X0166727Y0186050D01*
X0156727Y0186050D02*
X0156727Y0180050D01*
X0144227Y0180050D02*
X0144227Y0186050D01*
X0134227Y0186050D02*
X0134227Y0180050D01*
X0124227Y0180050D02*
X0124227Y0186050D01*
X0111727Y0186050D02*
X0111727Y0180050D01*
X0101727Y0180050D02*
X0101727Y0186050D01*
X0091727Y0186050D02*
X0091727Y0180050D01*
X0176727Y0180050D02*
X0176727Y0186050D01*
D15*
X0100251Y0169950D03*
X0097101Y0169950D03*
X0093952Y0169950D03*
X0090802Y0169950D03*
X0087652Y0169950D03*
X0084503Y0169950D03*
X0081353Y0169950D03*
X0078204Y0169950D03*
X0078204Y0136150D03*
X0081353Y0136150D03*
X0084503Y0136150D03*
X0087652Y0136150D03*
X0090802Y0136150D03*
X0093952Y0136150D03*
X0097101Y0136150D03*
X0100251Y0136150D03*
D16*
X0106127Y0142026D03*
X0106127Y0145176D03*
X0106127Y0148326D03*
X0106127Y0151475D03*
X0106127Y0154625D03*
X0106127Y0157774D03*
X0106127Y0160924D03*
X0106127Y0164074D03*
X0072327Y0164074D03*
X0072327Y0160924D03*
X0072327Y0157774D03*
X0072327Y0154625D03*
X0072327Y0151475D03*
X0072327Y0148326D03*
X0072327Y0145176D03*
X0072327Y0142026D03*
D17*
X0069415Y0065112D03*
X0069415Y0056112D03*
X0069415Y0047112D03*
D18*
X0044615Y0056012D03*
D19*
X0065477Y0178050D03*
D20*
X0055477Y0178050D03*
X0045477Y0178050D03*
X0045477Y0188050D03*
X0055477Y0188050D03*
X0065477Y0188050D03*
D21*
X0191977Y0138050D03*
X0035365Y0058087D03*
X0020615Y0035600D03*
D22*
X0024115Y0057804D03*
X0024115Y0066071D03*
X0145543Y0066800D03*
X0150427Y0060809D03*
X0153811Y0066800D03*
X0150427Y0052541D03*
D23*
X0074515Y0032262D03*
D24*
X0054515Y0032262D03*
D25*
X0131437Y0063206D03*
X0138917Y0063206D03*
X0135177Y0054544D03*
D26*
X0144338Y0046125D03*
X0144338Y0041125D03*
X0144338Y0036125D03*
X0144338Y0031125D03*
X0123866Y0031125D03*
X0123866Y0036125D03*
X0123866Y0041125D03*
X0123866Y0046125D03*
D27*
X0143827Y0053475D03*
X0158940Y0071350D03*
X0089715Y0070863D03*
X0145127Y0142038D03*
X0180715Y0171775D03*
D28*
X0169533Y0170638D03*
X0156147Y0170638D03*
D29*
X0155822Y0170313D01*
X0150977Y0170313D01*
X0151302Y0175025D02*
X0142690Y0166413D01*
X0126115Y0166413D01*
X0113440Y0153738D01*
X0113440Y0144313D01*
X0116527Y0144313D01*
X0113440Y0144313D02*
X0111154Y0142026D01*
X0106127Y0142026D01*
X0107904Y0142026D01*
X0110477Y0138988D02*
X0111690Y0138988D01*
X0114252Y0141550D01*
X0120886Y0141550D01*
X0127065Y0147729D01*
X0127065Y0154421D02*
X0127065Y0154850D01*
X0133265Y0161050D01*
X0149840Y0161050D01*
X0151590Y0159300D01*
X0154227Y0159300D01*
X0156727Y0154300D02*
X0164631Y0162204D01*
X0164631Y0163050D01*
X0170024Y0157657D01*
X0170024Y0154413D01*
X0174865Y0151625D02*
X0178765Y0155525D01*
X0178765Y0163000D01*
X0171127Y0170638D01*
X0169533Y0170638D01*
X0175352Y0170638D02*
X0176490Y0171775D01*
X0180715Y0171775D01*
X0181527Y0178275D02*
X0181527Y0187700D01*
X0178052Y0191175D01*
X0121727Y0191175D01*
X0119227Y0188675D01*
X0119227Y0177174D01*
X0106127Y0164074D01*
X0106127Y0160924D02*
X0110851Y0160924D01*
X0124227Y0174300D01*
X0124227Y0183050D01*
X0116727Y0178050D02*
X0116727Y0189925D01*
X0120477Y0193675D01*
X0179127Y0193675D01*
X0184127Y0188675D01*
X0184127Y0179575D01*
X0198602Y0165100D01*
X0198602Y0092425D01*
X0194152Y0087975D01*
X0175477Y0087975D01*
X0158940Y0071350D02*
X0153902Y0071350D01*
X0153902Y0066891D01*
X0153811Y0066800D01*
X0153902Y0071350D02*
X0148540Y0071350D01*
X0146224Y0073666D01*
X0138586Y0073666D01*
X0138586Y0069238D01*
X0138586Y0063537D01*
X0138917Y0063206D01*
X0143177Y0069166D02*
X0143177Y0071188D01*
X0143177Y0069166D02*
X0145543Y0066800D01*
X0145940Y0060625D02*
X0150243Y0060625D01*
X0150427Y0060809D01*
X0150427Y0052541D02*
X0144338Y0046452D01*
X0144338Y0046125D01*
X0143827Y0053475D02*
X0142758Y0054544D01*
X0135177Y0054544D01*
X0127577Y0054544D01*
X0127577Y0050550D01*
X0127577Y0054544D02*
X0124883Y0054544D01*
X0122606Y0056821D01*
X0118756Y0061554D02*
X0117873Y0061554D01*
X0118756Y0061554D02*
X0122215Y0065012D01*
X0117665Y0069400D02*
X0111165Y0075900D01*
X0104990Y0075900D01*
X0102877Y0078013D01*
X0092640Y0078013D01*
X0092802Y0078175D01*
X0092802Y0073950D01*
X0089715Y0070863D01*
X0084840Y0081750D02*
X0105193Y0081750D01*
X0106717Y0080225D01*
X0110739Y0080225D01*
X0115065Y0075900D01*
X0122077Y0075900D01*
X0126402Y0080225D01*
X0147662Y0080225D01*
X0138586Y0073666D02*
X0136190Y0076063D01*
X0126402Y0090225D02*
X0121727Y0085550D01*
X0115652Y0085550D01*
X0110977Y0090225D01*
X0106717Y0090225D01*
X0084390Y0090225D01*
X0079715Y0085550D01*
X0070448Y0085550D01*
X0065772Y0090225D01*
X0062240Y0090225D01*
X0057877Y0085863D01*
X0044852Y0085863D01*
X0038597Y0083050D02*
X0035772Y0080225D01*
X0031210Y0084788D01*
X0026599Y0084788D01*
X0026636Y0090237D02*
X0035760Y0090237D01*
X0035772Y0090225D01*
X0057652Y0090225D01*
X0062977Y0095550D01*
X0071393Y0095550D01*
X0076717Y0090225D01*
X0080152Y0090225D01*
X0082977Y0093050D01*
X0102977Y0093050D01*
X0105315Y0095387D01*
X0112500Y0095387D01*
X0117662Y0090225D01*
X0110577Y0085550D02*
X0115902Y0080225D01*
X0117662Y0080225D01*
X0110577Y0085550D02*
X0084015Y0085550D01*
X0078690Y0080225D01*
X0076717Y0080225D01*
X0071727Y0080225D01*
X0066402Y0085550D01*
X0063590Y0085550D01*
X0061090Y0083050D01*
X0038597Y0083050D01*
X0035365Y0066088D02*
X0024131Y0066088D01*
X0024115Y0066071D01*
X0024115Y0057804D02*
X0023927Y0057616D01*
X0023927Y0051334D01*
X0055590Y0077363D02*
X0061002Y0071950D01*
X0062131Y0071950D01*
X0068824Y0071950D02*
X0068824Y0075575D01*
X0078665Y0075575D01*
X0084840Y0081750D01*
X0068824Y0077174D02*
X0068824Y0075575D01*
X0068824Y0077174D02*
X0065772Y0080225D01*
X0065772Y0100225D02*
X0035772Y0100225D01*
X0037215Y0105237D02*
X0027261Y0105237D01*
X0028211Y0110225D02*
X0027261Y0111175D01*
X0028211Y0110225D02*
X0035772Y0110225D01*
X0038335Y0112787D01*
X0060427Y0112787D01*
X0063190Y0115550D01*
X0067977Y0115550D01*
X0073302Y0110225D01*
X0076717Y0110225D01*
X0078902Y0110225D01*
X0082277Y0113600D01*
X0103527Y0113600D01*
X0104827Y0114900D01*
X0108627Y0114900D01*
X0113302Y0110225D01*
X0117662Y0110225D01*
X0120477Y0115550D02*
X0113115Y0115550D01*
X0108439Y0120225D01*
X0106717Y0120225D01*
X0103667Y0117175D01*
X0080852Y0117175D01*
X0079227Y0115550D01*
X0074227Y0115550D01*
X0069552Y0120225D01*
X0065772Y0120225D01*
X0062965Y0120225D01*
X0058127Y0115387D01*
X0033140Y0115387D01*
X0031415Y0117112D01*
X0027261Y0117112D01*
X0022352Y0122112D02*
X0022352Y0128987D01*
X0020477Y0130862D01*
X0020477Y0138988D01*
X0022977Y0141488D01*
X0061102Y0141488D01*
X0067940Y0148326D01*
X0072327Y0148326D01*
X0072327Y0145176D02*
X0077103Y0145176D01*
X0077165Y0145238D01*
X0078491Y0142026D02*
X0072327Y0142026D01*
X0066954Y0142026D01*
X0058602Y0133675D01*
X0039540Y0133675D01*
X0041415Y0127112D02*
X0032040Y0127112D01*
X0031415Y0127737D01*
X0031415Y0138675D01*
X0027665Y0136175D02*
X0027665Y0127737D01*
X0030477Y0124925D01*
X0038915Y0124925D01*
X0041415Y0122425D01*
X0044902Y0122425D01*
X0051465Y0128987D01*
X0058915Y0128987D01*
X0066011Y0136084D01*
X0070477Y0136084D01*
X0078138Y0136084D01*
X0078204Y0136150D01*
X0078491Y0142026D02*
X0080452Y0143988D01*
X0080452Y0147138D01*
X0077365Y0150225D01*
X0077365Y0164625D01*
X0078179Y0169925D02*
X0074540Y0169925D01*
X0071415Y0166800D01*
X0063602Y0166800D01*
X0052352Y0155550D01*
X0049190Y0155550D01*
X0051727Y0158363D02*
X0062665Y0169300D01*
X0070152Y0169300D01*
X0072790Y0171938D01*
X0072815Y0171938D01*
X0077365Y0176487D01*
X0079540Y0176487D01*
X0081353Y0174674D01*
X0081353Y0169950D01*
X0078204Y0169950D02*
X0078179Y0169925D01*
X0072327Y0164074D02*
X0068526Y0164074D01*
X0067940Y0163488D01*
X0064601Y0160924D02*
X0072327Y0160924D01*
X0072327Y0157774D02*
X0066452Y0157774D01*
X0058402Y0149725D01*
X0059540Y0146175D02*
X0067989Y0154625D01*
X0072327Y0154625D01*
X0072327Y0151475D02*
X0068165Y0151475D01*
X0060677Y0143988D01*
X0021102Y0143988D01*
X0018290Y0141175D01*
X0018290Y0129925D01*
X0019540Y0128675D01*
X0019540Y0123987D01*
X0022352Y0122112D02*
X0020568Y0120329D01*
X0020568Y0117112D01*
X0016102Y0113050D02*
X0016102Y0142425D01*
X0019852Y0146175D01*
X0059540Y0146175D01*
X0053290Y0149613D02*
X0064601Y0160924D01*
X0063065Y0162675D02*
X0062915Y0162675D01*
X0052840Y0152600D01*
X0033652Y0152600D01*
X0044790Y0158363D02*
X0051727Y0158363D01*
X0048602Y0164300D02*
X0041202Y0164300D01*
X0048602Y0164300D02*
X0055477Y0171175D01*
X0055477Y0178050D01*
X0060477Y0183050D02*
X0065477Y0188050D01*
X0071727Y0188050D01*
X0082927Y0176850D01*
X0097101Y0169950D02*
X0097101Y0158538D01*
X0095875Y0157313D01*
X0095240Y0157313D01*
X0093702Y0154625D02*
X0098490Y0154625D01*
X0106127Y0154625D01*
X0106127Y0157774D02*
X0111452Y0157774D01*
X0124227Y0170550D01*
X0132977Y0170550D01*
X0134227Y0171800D01*
X0134227Y0183050D01*
X0141227Y0168363D02*
X0125302Y0168363D01*
X0111652Y0154713D01*
X0111652Y0146588D01*
X0110241Y0145176D01*
X0106127Y0145176D01*
X0106127Y0148326D02*
X0092702Y0148326D01*
X0082977Y0158050D01*
X0082977Y0160738D01*
X0086727Y0160713D02*
X0086727Y0158050D01*
X0093302Y0151475D01*
X0106127Y0151475D01*
X0101415Y0140575D02*
X0097690Y0140575D01*
X0097101Y0139987D01*
X0097101Y0136150D01*
X0100251Y0136150D02*
X0103002Y0136150D01*
X0103915Y0135238D01*
X0103002Y0138988D02*
X0101415Y0140575D01*
X0103002Y0138988D02*
X0110477Y0138988D01*
X0110477Y0135579D01*
X0110881Y0135175D01*
X0116852Y0139113D02*
X0117081Y0138884D01*
X0124977Y0138884D01*
X0124977Y0132191D02*
X0126181Y0130987D01*
X0129852Y0130987D01*
X0125152Y0120225D02*
X0120477Y0115550D01*
X0125152Y0110225D02*
X0120477Y0105550D01*
X0111393Y0105550D01*
X0106717Y0110225D01*
X0083902Y0110225D01*
X0079227Y0105550D01*
X0070448Y0105550D01*
X0065772Y0110225D01*
X0042202Y0110225D01*
X0037215Y0105237D01*
X0035772Y0120225D02*
X0058902Y0120225D01*
X0064227Y0125550D01*
X0070702Y0125550D01*
X0070477Y0125775D01*
X0070477Y0129391D01*
X0070702Y0125550D02*
X0071393Y0125550D01*
X0076717Y0120225D01*
X0076843Y0120100D01*
X0099302Y0120100D01*
X0104752Y0125550D01*
X0107977Y0125550D01*
X0113302Y0120225D01*
X0117662Y0120225D01*
X0125152Y0120225D02*
X0147662Y0120225D01*
X0147662Y0110225D02*
X0125152Y0110225D01*
X0117662Y0100225D02*
X0113302Y0100225D01*
X0107977Y0105550D01*
X0104590Y0105550D01*
X0102227Y0107912D01*
X0085340Y0107912D01*
X0081727Y0104300D01*
X0076717Y0100225D02*
X0072052Y0100225D01*
X0066240Y0106037D01*
X0059227Y0106037D01*
X0057977Y0107287D01*
X0076717Y0100225D02*
X0106717Y0100225D01*
X0117662Y0100225D02*
X0147662Y0100225D01*
X0147662Y0090225D02*
X0126402Y0090225D01*
X0096131Y0129587D02*
X0097101Y0130558D01*
X0087665Y0136162D02*
X0087652Y0136150D01*
X0087665Y0136162D02*
X0087665Y0142738D01*
X0100251Y0169950D02*
X0108627Y0169950D01*
X0116727Y0178050D01*
X0141227Y0168363D02*
X0151302Y0178437D01*
X0151302Y0180875D01*
X0153477Y0183050D01*
X0156727Y0183050D01*
X0181527Y0178275D02*
X0187977Y0171825D01*
X0187977Y0167425D01*
X0190465Y0163813D02*
X0191727Y0162550D01*
X0191727Y0158896D01*
X0191727Y0152204D02*
X0191324Y0151800D01*
X0180477Y0151800D01*
X0178381Y0149704D01*
X0178381Y0148050D01*
X0170349Y0148050D01*
X0170024Y0147725D01*
X0174865Y0151625D02*
X0176165Y0152925D01*
X0175677Y0143663D02*
X0175677Y0142525D01*
X0173702Y0140550D01*
X0176202Y0138050D01*
X0183977Y0138050D01*
X0173702Y0140550D02*
X0171324Y0140550D01*
X0153808Y0140969D02*
X0152740Y0142038D01*
X0145127Y0142038D01*
X0177352Y0116800D02*
X0192977Y0116800D01*
X0195477Y0119300D01*
X0194227Y0125550D02*
X0194227Y0126175D01*
X0131802Y0048762D02*
X0129165Y0046125D01*
X0123866Y0046125D01*
X0123866Y0031125D02*
X0123866Y0028261D01*
X0125302Y0026825D01*
X0104015Y0015612D02*
X0086952Y0015612D01*
X0084515Y0018050D01*
X0083377Y0050054D02*
X0083265Y0050166D01*
X0019906Y0084788D02*
X0017777Y0084788D01*
X0016415Y0086150D01*
X0016415Y0093362D01*
X0013915Y0095862D01*
X0013915Y0097112D01*
X0018290Y0095862D02*
X0019943Y0094209D01*
X0019943Y0090237D01*
X0020568Y0105237D02*
X0014540Y0105237D01*
X0013915Y0105862D01*
X0013915Y0159300D01*
X0018602Y0163988D01*
X0037665Y0175329D02*
X0042756Y0175329D01*
X0045477Y0178050D01*
X0038693Y0183050D02*
X0060477Y0183050D01*
X0038693Y0183050D02*
X0037665Y0182021D01*
X0041415Y0127112D02*
X0042665Y0125862D01*
X0020568Y0111175D02*
X0017977Y0111175D01*
X0016102Y0113050D01*
D30*
X0019540Y0123987D03*
X0025702Y0124687D03*
X0027977Y0121925D03*
X0035977Y0130725D03*
X0039540Y0133675D03*
X0031415Y0138675D03*
X0027665Y0136175D03*
X0023752Y0134925D03*
X0023752Y0138175D03*
X0010590Y0136550D03*
X0020665Y0154913D03*
X0018602Y0163988D03*
X0027240Y0174287D03*
X0035365Y0165513D03*
X0041202Y0164300D03*
X0044790Y0158363D03*
X0049190Y0155550D03*
X0053290Y0149613D03*
X0058402Y0149725D03*
X0054865Y0138050D03*
X0050965Y0138050D03*
X0046052Y0127800D03*
X0042665Y0125862D03*
X0052202Y0125375D03*
X0065165Y0129612D03*
X0075902Y0125787D03*
X0079152Y0125787D03*
X0087352Y0129925D03*
X0098977Y0123350D03*
X0108415Y0129887D03*
X0111177Y0127287D03*
X0119940Y0130500D03*
X0116852Y0139113D03*
X0116527Y0144313D03*
X0116540Y0149388D03*
X0116540Y0152638D03*
X0101102Y0144188D03*
X0103915Y0135238D03*
X0087665Y0142738D03*
X0088240Y0147088D03*
X0084990Y0147088D03*
X0084990Y0150338D03*
X0081102Y0151488D03*
X0077165Y0145238D03*
X0082977Y0160738D03*
X0086727Y0160713D03*
X0085740Y0163888D03*
X0091727Y0163050D03*
X0095240Y0157313D03*
X0093702Y0154625D03*
X0104915Y0167625D03*
X0106865Y0175750D03*
X0096627Y0175750D03*
X0077365Y0164625D03*
X0067940Y0163488D03*
X0063065Y0162675D03*
X0060552Y0172500D03*
X0051615Y0174287D03*
X0035852Y0187612D03*
X0050477Y0192162D03*
X0073227Y0179975D03*
X0038452Y0157063D03*
X0033652Y0152600D03*
X0057977Y0107287D03*
X0058377Y0103112D03*
X0059027Y0096612D03*
X0050740Y0095312D03*
X0044852Y0085863D03*
X0051527Y0077363D03*
X0055590Y0077363D03*
X0059652Y0077363D03*
X0052852Y0059075D03*
X0052852Y0051925D03*
X0063090Y0051437D03*
X0070215Y0040800D03*
X0073465Y0040800D03*
X0076715Y0040800D03*
X0076715Y0044050D03*
X0076715Y0047300D03*
X0077117Y0054365D03*
X0075440Y0060375D03*
X0082102Y0070775D03*
X0089902Y0075650D03*
X0092802Y0078175D03*
X0091365Y0064925D03*
X0117665Y0069400D03*
X0122215Y0065012D03*
X0126277Y0063012D03*
X0136190Y0076063D03*
X0143177Y0071188D03*
X0145940Y0060625D03*
X0156827Y0057700D03*
X0156827Y0054450D03*
X0156827Y0051200D03*
X0156827Y0047950D03*
X0156827Y0044700D03*
X0156827Y0041450D03*
X0156827Y0038200D03*
X0156827Y0034950D03*
X0156827Y0031700D03*
X0156827Y0028450D03*
X0156827Y0025200D03*
X0163327Y0025200D03*
X0166577Y0025200D03*
X0169827Y0025200D03*
X0173077Y0025200D03*
X0179577Y0025200D03*
X0182827Y0025200D03*
X0186077Y0025200D03*
X0189327Y0025200D03*
X0192577Y0025200D03*
X0195827Y0025200D03*
X0199077Y0025200D03*
X0202177Y0025200D03*
X0202177Y0028450D03*
X0202177Y0031700D03*
X0202177Y0034950D03*
X0202177Y0038200D03*
X0202177Y0041450D03*
X0202177Y0044700D03*
X0202177Y0047950D03*
X0202177Y0051200D03*
X0202177Y0054450D03*
X0202177Y0057700D03*
X0202177Y0060950D03*
X0202177Y0064200D03*
X0202177Y0067450D03*
X0195677Y0067450D03*
X0192427Y0067450D03*
X0189177Y0067450D03*
X0185927Y0067450D03*
X0182677Y0067450D03*
X0179427Y0067450D03*
X0176327Y0067450D03*
X0173077Y0067450D03*
X0169827Y0067450D03*
X0166577Y0067450D03*
X0163327Y0067450D03*
X0167565Y0055462D03*
X0170815Y0055462D03*
X0174065Y0055462D03*
X0183002Y0036450D03*
X0197615Y0057537D03*
X0175477Y0087975D03*
X0177352Y0116800D03*
X0178277Y0131638D03*
X0175027Y0131638D03*
X0171777Y0131638D03*
X0166427Y0135088D03*
X0175677Y0143663D03*
X0179752Y0142888D03*
X0174865Y0151625D03*
X0173252Y0158325D03*
X0180402Y0166613D03*
X0175352Y0170638D03*
X0186252Y0160275D03*
X0190465Y0163813D03*
X0187977Y0167425D03*
X0196815Y0176687D03*
X0200552Y0172300D03*
X0190965Y0144188D03*
X0202002Y0142525D03*
X0202002Y0139275D03*
X0202002Y0136025D03*
X0194227Y0125550D03*
X0195477Y0119300D03*
X0156727Y0154300D03*
X0154227Y0159300D03*
X0150977Y0170313D03*
X0151302Y0175025D03*
X0139290Y0175062D03*
X0129215Y0175062D03*
X0117515Y0171650D03*
X0131327Y0163525D03*
X0134227Y0151800D03*
X0135052Y0144313D03*
X0135052Y0139438D03*
X0133752Y0134238D03*
X0129852Y0130987D03*
X0139277Y0123187D03*
X0142202Y0123187D03*
X0145127Y0132450D03*
X0148052Y0132450D03*
X0153808Y0140969D03*
X0137027Y0105062D03*
X0137515Y0095312D03*
X0125627Y0084025D03*
X0122565Y0095312D03*
X0123377Y0103925D03*
X0100952Y0104412D03*
X0101115Y0096450D03*
X0090552Y0096450D03*
X0089415Y0104575D03*
X0081727Y0104300D03*
X0080477Y0095475D03*
X0050740Y0104737D03*
X0027002Y0099500D03*
X0027002Y0096250D03*
X0018290Y0095862D03*
X0013915Y0097112D03*
X0011727Y0081625D03*
X0031077Y0044937D03*
X0039202Y0044937D03*
X0056077Y0024225D03*
X0059327Y0024225D03*
X0062577Y0024225D03*
X0062577Y0027475D03*
X0062577Y0030725D03*
X0084515Y0018050D03*
X0100277Y0026012D03*
X0103527Y0026012D03*
X0106777Y0026012D03*
X0110027Y0026012D03*
X0113277Y0026012D03*
X0113277Y0029262D03*
X0110027Y0029262D03*
X0106777Y0029262D03*
X0103527Y0029262D03*
X0100277Y0029262D03*
X0125302Y0026825D03*
X0138627Y0025850D03*
X0138627Y0023087D03*
X0149352Y0023087D03*
X0149352Y0025850D03*
X0131802Y0048762D03*
X0127577Y0050550D03*
D31*
X0125627Y0084025D02*
X0127090Y0085488D01*
X0165765Y0085488D01*
X0180390Y0070863D01*
X0196802Y0070863D01*
X0198915Y0068750D01*
X0198915Y0058837D01*
X0197615Y0057537D01*
X0195665Y0062412D02*
X0189099Y0062412D01*
X0188611Y0061925D01*
X0188611Y0050734D01*
X0176327Y0038450D01*
X0176327Y0021950D01*
X0174015Y0019638D01*
X0174015Y0015612D01*
X0083377Y0046000D02*
X0083377Y0050054D01*
X0083265Y0050166D02*
X0082290Y0049192D01*
X0077117Y0054365D01*
X0075369Y0056112D01*
X0069415Y0056112D01*
X0062052Y0056112D01*
X0052077Y0066088D01*
X0035365Y0066088D01*
X0032374Y0039359D02*
X0044515Y0039359D01*
X0032374Y0039359D02*
X0028615Y0035600D01*
X0068515Y0066013D02*
X0069415Y0065112D01*
X0078318Y0065112D01*
X0078668Y0064762D01*
X0098977Y0123350D02*
X0098977Y0125741D01*
X0102824Y0129587D01*
X0097101Y0130558D02*
X0097101Y0136150D01*
X0087352Y0129925D02*
X0082977Y0129925D01*
X0081353Y0131549D01*
X0081353Y0136150D01*
X0081102Y0151488D02*
X0079852Y0152738D01*
X0079852Y0163213D01*
X0081265Y0164625D01*
X0082402Y0164625D01*
X0084503Y0166726D01*
X0084503Y0169950D01*
X0084503Y0175274D01*
X0089303Y0175274D01*
X0090802Y0173775D01*
X0090802Y0169950D01*
X0090802Y0163975D01*
X0091727Y0163050D01*
X0084503Y0175274D02*
X0082927Y0176850D01*
X0134227Y0151800D02*
X0135840Y0153413D01*
X0143990Y0153413D01*
X0146586Y0150816D01*
X0146586Y0149013D01*
X0147061Y0148538D01*
X0159590Y0148538D01*
X0159852Y0148275D01*
X0159852Y0136800D01*
X0164496Y0132156D01*
X0161215Y0128875D01*
X0133590Y0128875D01*
X0131152Y0126437D01*
X0124977Y0126437D01*
X0159590Y0148538D02*
X0162518Y0148538D01*
X0163331Y0147725D01*
X0163331Y0154413D01*
X0164496Y0132156D02*
X0168602Y0128050D01*
X0192352Y0128050D01*
X0194227Y0126175D01*
D32*
X0195665Y0062412D03*
X0124977Y0126437D03*
X0082927Y0176850D03*
X0083377Y0046000D03*
D33*
X0013727Y0009793D02*
X0012235Y0009793D01*
X0012659Y0009057D02*
X0010839Y0012210D01*
X0009896Y0015727D01*
X0009777Y0017548D01*
X0009777Y0185550D01*
X0009874Y0187025D01*
X0010637Y0189874D01*
X0012112Y0192429D01*
X0014198Y0194515D01*
X0016753Y0195990D01*
X0019603Y0196754D01*
X0021078Y0196850D01*
X0189080Y0196850D01*
X0190900Y0196731D01*
X0194417Y0195789D01*
X0197571Y0193968D01*
X0200145Y0191393D01*
X0201966Y0188240D01*
X0202908Y0184723D01*
X0203028Y0182902D01*
X0203028Y0017548D01*
X0202908Y0015727D01*
X0201966Y0012210D01*
X0200145Y0009057D01*
X0197571Y0006482D01*
X0194417Y0004662D01*
X0190900Y0003719D01*
X0189080Y0003600D01*
X0023725Y0003600D01*
X0021905Y0003719D01*
X0018388Y0004662D01*
X0015234Y0006482D01*
X0012659Y0009057D01*
X0013522Y0008194D02*
X0015326Y0008194D01*
X0015988Y0007532D02*
X0018965Y0006299D01*
X0022187Y0006299D01*
X0025163Y0007532D01*
X0027442Y0009811D01*
X0028675Y0012787D01*
X0028675Y0016009D01*
X0027442Y0018986D01*
X0025163Y0021265D01*
X0022187Y0022498D01*
X0018965Y0022498D01*
X0015988Y0021265D01*
X0013709Y0018986D01*
X0012476Y0016009D01*
X0012476Y0012787D01*
X0013709Y0009811D01*
X0015988Y0007532D01*
X0015121Y0006596D02*
X0018249Y0006596D01*
X0017807Y0004997D02*
X0194998Y0004997D01*
X0194556Y0006596D02*
X0197684Y0006596D01*
X0196817Y0007532D02*
X0199095Y0009811D01*
X0200328Y0012787D01*
X0200328Y0016009D01*
X0199095Y0018986D01*
X0196817Y0021265D01*
X0193840Y0022498D01*
X0190618Y0022498D01*
X0187641Y0021265D01*
X0185363Y0018986D01*
X0184130Y0016009D01*
X0184130Y0012787D01*
X0185363Y0009811D01*
X0187641Y0007532D01*
X0190618Y0006299D01*
X0193840Y0006299D01*
X0196817Y0007532D01*
X0197479Y0008194D02*
X0199282Y0008194D01*
X0199077Y0009793D02*
X0200570Y0009793D01*
X0199750Y0011391D02*
X0201493Y0011391D01*
X0202175Y0012990D02*
X0200328Y0012990D01*
X0200328Y0014588D02*
X0202603Y0014588D01*
X0202938Y0016187D02*
X0200255Y0016187D01*
X0199593Y0017785D02*
X0203028Y0017785D01*
X0203028Y0019384D02*
X0198698Y0019384D01*
X0197099Y0020982D02*
X0203028Y0020982D01*
X0203028Y0022581D02*
X0179096Y0022581D01*
X0179096Y0021399D02*
X0179096Y0037303D01*
X0190179Y0048387D01*
X0190958Y0049166D01*
X0191380Y0050183D01*
X0191380Y0058172D01*
X0191516Y0058172D01*
X0192561Y0059217D01*
X0192561Y0059644D01*
X0194060Y0059644D01*
X0195034Y0059241D01*
X0195083Y0059241D01*
X0195076Y0059234D01*
X0194620Y0058133D01*
X0194620Y0056942D01*
X0195076Y0055841D01*
X0195918Y0054999D01*
X0197019Y0054543D01*
X0198210Y0054543D01*
X0199311Y0054999D01*
X0200153Y0055841D01*
X0200379Y0056387D01*
X0201262Y0057269D01*
X0201683Y0058287D01*
X0201683Y0069301D01*
X0201262Y0070318D01*
X0200483Y0071097D01*
X0198370Y0073210D01*
X0197353Y0073631D01*
X0191077Y0073631D01*
X0192282Y0074836D01*
X0193010Y0076594D01*
X0193010Y0078497D01*
X0192282Y0080256D01*
X0190936Y0081602D01*
X0189178Y0082330D01*
X0181274Y0082330D01*
X0179516Y0081602D01*
X0178170Y0080256D01*
X0177442Y0078497D01*
X0177442Y0077726D01*
X0167333Y0087835D01*
X0166315Y0088256D01*
X0151592Y0088256D01*
X0152046Y0089353D01*
X0152046Y0091097D01*
X0151379Y0092709D01*
X0150146Y0093942D01*
X0148534Y0094609D01*
X0146790Y0094609D01*
X0145179Y0093942D01*
X0143945Y0092709D01*
X0143863Y0092509D01*
X0125456Y0092509D01*
X0121867Y0088920D01*
X0122046Y0089353D01*
X0122046Y0091097D01*
X0121379Y0092709D01*
X0120146Y0093942D01*
X0118534Y0094609D01*
X0116790Y0094609D01*
X0116591Y0094527D01*
X0113446Y0097672D01*
X0110364Y0097672D01*
X0110434Y0097742D01*
X0111055Y0099241D01*
X0112356Y0097941D01*
X0113863Y0097941D01*
X0113945Y0097742D01*
X0115179Y0096508D01*
X0116790Y0095841D01*
X0118534Y0095841D01*
X0120146Y0096508D01*
X0121379Y0097742D01*
X0121462Y0097941D01*
X0143863Y0097941D01*
X0143945Y0097742D01*
X0145179Y0096508D01*
X0146790Y0095841D01*
X0148534Y0095841D01*
X0150146Y0096508D01*
X0151379Y0097742D01*
X0152046Y0099353D01*
X0152046Y0101097D01*
X0151379Y0102709D01*
X0150146Y0103942D01*
X0148534Y0104609D01*
X0146790Y0104609D01*
X0145179Y0103942D01*
X0143945Y0102709D01*
X0143863Y0102509D01*
X0121462Y0102509D01*
X0121379Y0102709D01*
X0120822Y0103266D01*
X0121423Y0103266D01*
X0122761Y0104604D01*
X0126099Y0107941D01*
X0143863Y0107941D01*
X0143945Y0107742D01*
X0145179Y0106508D01*
X0146790Y0105841D01*
X0148534Y0105841D01*
X0150146Y0106508D01*
X0151379Y0107742D01*
X0152046Y0109353D01*
X0152046Y0111097D01*
X0151379Y0112709D01*
X0150146Y0113942D01*
X0148534Y0114609D01*
X0146790Y0114609D01*
X0145179Y0113942D01*
X0143945Y0112709D01*
X0143863Y0112509D01*
X0124206Y0112509D01*
X0122046Y0110350D01*
X0122046Y0111097D01*
X0121379Y0112709D01*
X0120822Y0113266D01*
X0121423Y0113266D01*
X0122761Y0114604D01*
X0126099Y0117941D01*
X0143863Y0117941D01*
X0143945Y0117742D01*
X0145179Y0116508D01*
X0146790Y0115841D01*
X0148534Y0115841D01*
X0150146Y0116508D01*
X0151379Y0117742D01*
X0152046Y0119353D01*
X0152046Y0121097D01*
X0151379Y0122709D01*
X0150146Y0123942D01*
X0148534Y0124609D01*
X0146790Y0124609D01*
X0145179Y0123942D01*
X0143945Y0122709D01*
X0143863Y0122509D01*
X0124206Y0122509D01*
X0122046Y0120350D01*
X0122046Y0121097D01*
X0121379Y0122709D01*
X0120146Y0123942D01*
X0118534Y0124609D01*
X0116790Y0124609D01*
X0115179Y0123942D01*
X0113997Y0122760D01*
X0110261Y0126496D01*
X0108923Y0127834D01*
X0106576Y0127834D01*
X0106576Y0132492D01*
X0105990Y0133078D01*
X0106453Y0133541D01*
X0106909Y0134642D01*
X0106909Y0135833D01*
X0106549Y0136703D01*
X0106931Y0136703D01*
X0106931Y0132467D01*
X0107976Y0131422D01*
X0113785Y0131422D01*
X0114216Y0131853D01*
X0114303Y0131766D01*
X0114713Y0131529D01*
X0115171Y0131406D01*
X0117389Y0131406D01*
X0117389Y0134991D01*
X0117758Y0134991D01*
X0117758Y0131406D01*
X0119976Y0131406D01*
X0120434Y0131529D01*
X0120844Y0131766D01*
X0121028Y0131950D01*
X0121028Y0129483D01*
X0122073Y0128438D01*
X0122493Y0128438D01*
X0122288Y0128234D01*
X0121806Y0127068D01*
X0121806Y0125807D01*
X0122288Y0124641D01*
X0123181Y0123749D01*
X0124346Y0123266D01*
X0125608Y0123266D01*
X0126581Y0123669D01*
X0131703Y0123669D01*
X0132720Y0124090D01*
X0133499Y0124869D01*
X0134736Y0126106D01*
X0153062Y0126106D01*
X0152570Y0125615D01*
X0151842Y0123856D01*
X0151842Y0121953D01*
X0152570Y0120195D01*
X0153916Y0118849D01*
X0155674Y0118120D01*
X0163578Y0118120D01*
X0165336Y0118849D01*
X0166682Y0120195D01*
X0167410Y0121953D01*
X0167410Y0123856D01*
X0166682Y0125615D01*
X0165336Y0126961D01*
X0163837Y0127582D01*
X0164496Y0128241D01*
X0167034Y0125703D01*
X0168051Y0125281D01*
X0178032Y0125281D01*
X0177442Y0123856D01*
X0177442Y0121953D01*
X0178170Y0120195D01*
X0179010Y0119354D01*
X0177948Y0119794D01*
X0176757Y0119794D01*
X0175656Y0119339D01*
X0174814Y0118496D01*
X0174358Y0117396D01*
X0174358Y0116204D01*
X0174814Y0115104D01*
X0175656Y0114261D01*
X0176757Y0113806D01*
X0177948Y0113806D01*
X0179048Y0114261D01*
X0179303Y0114516D01*
X0193923Y0114516D01*
X0195261Y0115854D01*
X0195713Y0116306D01*
X0196073Y0116306D01*
X0196318Y0116407D01*
X0196318Y0093371D01*
X0193206Y0090259D01*
X0177428Y0090259D01*
X0177173Y0090514D01*
X0176073Y0090969D01*
X0174882Y0090969D01*
X0173781Y0090514D01*
X0172939Y0089671D01*
X0172483Y0088571D01*
X0172483Y0087379D01*
X0172939Y0086279D01*
X0173781Y0085436D01*
X0174882Y0084981D01*
X0176073Y0084981D01*
X0177173Y0085436D01*
X0177428Y0085691D01*
X0195098Y0085691D01*
X0199548Y0090141D01*
X0199548Y0090141D01*
X0200886Y0091479D01*
X0200886Y0166046D01*
X0199548Y0167384D01*
X0187821Y0179111D01*
X0190618Y0177953D01*
X0193840Y0177953D01*
X0196817Y0179186D01*
X0199095Y0181464D01*
X0200328Y0184441D01*
X0200328Y0187663D01*
X0199095Y0190640D01*
X0196817Y0192918D01*
X0193840Y0194151D01*
X0190618Y0194151D01*
X0187641Y0192918D01*
X0185378Y0190655D01*
X0185073Y0190959D01*
X0180073Y0195959D01*
X0119531Y0195959D01*
X0114443Y0190871D01*
X0114443Y0190010D01*
X0114243Y0190155D01*
X0113570Y0190498D01*
X0112851Y0190732D01*
X0112105Y0190850D01*
X0111927Y0190850D01*
X0111927Y0183250D01*
X0111527Y0183250D01*
X0111527Y0182850D01*
X0106927Y0182850D01*
X0106927Y0179672D01*
X0107045Y0178926D01*
X0107279Y0178207D01*
X0107622Y0177534D01*
X0108066Y0176923D01*
X0108600Y0176389D01*
X0109211Y0175945D01*
X0109885Y0175602D01*
X0110603Y0175368D01*
X0110786Y0175339D01*
X0107681Y0172234D01*
X0103135Y0172234D01*
X0103135Y0173189D01*
X0102090Y0174234D01*
X0095347Y0174234D01*
X0095289Y0174250D01*
X0093952Y0174250D01*
X0093952Y0169950D01*
X0093952Y0169950D01*
X0093952Y0165650D01*
X0094817Y0165650D01*
X0094817Y0160307D01*
X0094644Y0160307D01*
X0093543Y0159851D01*
X0092701Y0159009D01*
X0092245Y0157908D01*
X0092245Y0157262D01*
X0092006Y0157163D01*
X0091425Y0156582D01*
X0089129Y0158879D01*
X0089266Y0159016D01*
X0089722Y0160117D01*
X0089722Y0160821D01*
X0090031Y0160511D01*
X0091132Y0160056D01*
X0092323Y0160056D01*
X0093423Y0160511D01*
X0094266Y0161354D01*
X0094722Y0162454D01*
X0094722Y0163646D01*
X0094266Y0164746D01*
X0093570Y0165442D01*
X0093570Y0165650D01*
X0093952Y0165650D01*
X0093952Y0169950D01*
X0093952Y0169950D01*
X0093952Y0174250D01*
X0093570Y0174250D01*
X0093570Y0174326D01*
X0093149Y0175343D01*
X0093066Y0175426D01*
X0094437Y0175994D01*
X0095783Y0177340D01*
X0096511Y0179098D01*
X0096511Y0187002D01*
X0095783Y0188760D01*
X0094437Y0190106D01*
X0092679Y0190834D01*
X0090776Y0190834D01*
X0089017Y0190106D01*
X0087671Y0188760D01*
X0086943Y0187002D01*
X0086943Y0179098D01*
X0087380Y0178043D01*
X0085866Y0178043D01*
X0085616Y0178647D01*
X0084724Y0179539D01*
X0083558Y0180022D01*
X0082986Y0180022D01*
X0072673Y0190334D01*
X0069959Y0190334D01*
X0067459Y0192834D01*
X0063495Y0192834D01*
X0060693Y0190032D01*
X0060693Y0186496D01*
X0059531Y0185334D01*
X0059527Y0185334D01*
X0060261Y0186068D01*
X0060261Y0190032D01*
X0057459Y0192834D01*
X0053495Y0192834D01*
X0050693Y0190032D01*
X0050693Y0186068D01*
X0051427Y0185334D01*
X0049550Y0185334D01*
X0050277Y0186062D01*
X0050277Y0187850D01*
X0045677Y0187850D01*
X0045677Y0188250D01*
X0045277Y0188250D01*
X0045277Y0187850D01*
X0040677Y0187850D01*
X0040677Y0186062D01*
X0041405Y0185334D01*
X0041009Y0185334D01*
X0040569Y0185774D01*
X0034760Y0185774D01*
X0033715Y0184729D01*
X0033715Y0179314D01*
X0034354Y0178675D01*
X0033715Y0178036D01*
X0033715Y0172621D01*
X0034760Y0171576D01*
X0040569Y0171576D01*
X0041614Y0172621D01*
X0041614Y0173044D01*
X0043702Y0173044D01*
X0043923Y0173266D01*
X0047459Y0173266D01*
X0050261Y0176068D01*
X0050261Y0180032D01*
X0049527Y0180766D01*
X0051427Y0180766D01*
X0050693Y0180032D01*
X0050693Y0176068D01*
X0053193Y0173568D01*
X0053193Y0172121D01*
X0047656Y0166584D01*
X0043153Y0166584D01*
X0042898Y0166839D01*
X0041798Y0167294D01*
X0040607Y0167294D01*
X0039506Y0166839D01*
X0038664Y0165996D01*
X0038208Y0164896D01*
X0038208Y0163704D01*
X0038664Y0162604D01*
X0039506Y0161761D01*
X0040607Y0161306D01*
X0041798Y0161306D01*
X0042898Y0161761D01*
X0043153Y0162016D01*
X0049548Y0162016D01*
X0050886Y0163354D01*
X0057761Y0170229D01*
X0057761Y0173568D01*
X0060261Y0176068D01*
X0060261Y0180032D01*
X0059527Y0180766D01*
X0060693Y0180766D01*
X0060693Y0174311D01*
X0061738Y0173266D01*
X0069216Y0173266D01*
X0070261Y0174311D01*
X0070261Y0181789D01*
X0069216Y0182834D01*
X0063492Y0182834D01*
X0063923Y0183266D01*
X0067459Y0183266D01*
X0069959Y0185766D01*
X0070781Y0185766D01*
X0077775Y0178772D01*
X0076419Y0178772D01*
X0075080Y0177434D01*
X0071869Y0174222D01*
X0071844Y0174222D01*
X0070505Y0172884D01*
X0070505Y0172884D01*
X0069206Y0171584D01*
X0061719Y0171584D01*
X0060380Y0170246D01*
X0050781Y0160647D01*
X0046740Y0160647D01*
X0046486Y0160901D01*
X0045385Y0161357D01*
X0044194Y0161357D01*
X0043093Y0160901D01*
X0042251Y0160059D01*
X0041795Y0158958D01*
X0041795Y0157767D01*
X0042251Y0156666D01*
X0043093Y0155824D01*
X0044194Y0155368D01*
X0045385Y0155368D01*
X0046195Y0155703D01*
X0046195Y0154954D01*
X0046224Y0154884D01*
X0035603Y0154884D01*
X0035348Y0155139D01*
X0034248Y0155594D01*
X0033057Y0155594D01*
X0031956Y0155139D01*
X0031114Y0154296D01*
X0030658Y0153196D01*
X0030658Y0152004D01*
X0031114Y0150904D01*
X0031956Y0150061D01*
X0033057Y0149606D01*
X0034248Y0149606D01*
X0035348Y0150061D01*
X0035603Y0150316D01*
X0050340Y0150316D01*
X0050295Y0150208D01*
X0050295Y0149017D01*
X0050526Y0148459D01*
X0018906Y0148459D01*
X0016199Y0145752D01*
X0016199Y0158354D01*
X0018838Y0160993D01*
X0019198Y0160993D01*
X0020298Y0161449D01*
X0021141Y0162291D01*
X0021597Y0163392D01*
X0021597Y0164583D01*
X0021141Y0165684D01*
X0020298Y0166526D01*
X0019198Y0166982D01*
X0018007Y0166982D01*
X0016906Y0166526D01*
X0016064Y0165684D01*
X0015608Y0164583D01*
X0015608Y0164223D01*
X0012969Y0161584D01*
X0011630Y0160246D01*
X0011630Y0104916D01*
X0012969Y0103578D01*
X0013594Y0102953D01*
X0016815Y0102953D01*
X0016815Y0102333D01*
X0017861Y0101288D01*
X0023276Y0101288D01*
X0023915Y0101927D01*
X0024554Y0101288D01*
X0029969Y0101288D01*
X0031014Y0102333D01*
X0031014Y0102953D01*
X0032300Y0102953D01*
X0032056Y0102709D01*
X0031388Y0101097D01*
X0031388Y0099353D01*
X0032056Y0097742D01*
X0033289Y0096508D01*
X0034900Y0095841D01*
X0036645Y0095841D01*
X0038256Y0096508D01*
X0039489Y0097742D01*
X0039572Y0097941D01*
X0061973Y0097941D01*
X0062021Y0097825D01*
X0060693Y0096496D01*
X0056706Y0092509D01*
X0039572Y0092509D01*
X0039489Y0092709D01*
X0038256Y0093942D01*
X0036645Y0094609D01*
X0034900Y0094609D01*
X0033289Y0093942D01*
X0032056Y0092709D01*
X0031978Y0092522D01*
X0030389Y0092522D01*
X0030389Y0093142D01*
X0029344Y0094187D01*
X0023929Y0094187D01*
X0023290Y0093548D01*
X0022651Y0094187D01*
X0022227Y0094187D01*
X0022227Y0095155D01*
X0021284Y0096098D01*
X0021284Y0096458D01*
X0020828Y0097559D01*
X0019986Y0098401D01*
X0018885Y0098857D01*
X0017694Y0098857D01*
X0016618Y0098411D01*
X0016453Y0098809D01*
X0015611Y0099651D01*
X0014510Y0100107D01*
X0013319Y0100107D01*
X0012218Y0099651D01*
X0011376Y0098809D01*
X0010920Y0097708D01*
X0010920Y0096517D01*
X0011376Y0095416D01*
X0011630Y0095162D01*
X0011630Y0094916D01*
X0012969Y0093578D01*
X0014130Y0092416D01*
X0014130Y0085204D01*
X0015493Y0083841D01*
X0016153Y0083181D01*
X0016153Y0081883D01*
X0017198Y0080838D01*
X0022613Y0080838D01*
X0023252Y0081477D01*
X0023891Y0080838D01*
X0029306Y0080838D01*
X0030351Y0081883D01*
X0030351Y0082416D01*
X0031471Y0081297D01*
X0031388Y0081097D01*
X0031388Y0079353D01*
X0032056Y0077742D01*
X0033289Y0076508D01*
X0034900Y0075841D01*
X0036645Y0075841D01*
X0038256Y0076508D01*
X0039489Y0077742D01*
X0040157Y0079353D01*
X0040157Y0080766D01*
X0061388Y0080766D01*
X0061388Y0079353D01*
X0062056Y0077742D01*
X0063289Y0076508D01*
X0064759Y0075900D01*
X0060283Y0075900D01*
X0058584Y0077598D01*
X0058584Y0077958D01*
X0058128Y0079059D01*
X0057286Y0079901D01*
X0056185Y0080357D01*
X0054994Y0080357D01*
X0053893Y0079901D01*
X0053051Y0079059D01*
X0052595Y0077958D01*
X0052595Y0076767D01*
X0053051Y0075666D01*
X0053893Y0074824D01*
X0054994Y0074368D01*
X0055354Y0074368D01*
X0058378Y0071344D01*
X0058378Y0069046D01*
X0059059Y0068364D01*
X0058833Y0068138D01*
X0058262Y0066759D01*
X0058262Y0065266D01*
X0058833Y0063887D01*
X0059889Y0062831D01*
X0061268Y0062260D01*
X0063680Y0062260D01*
X0063680Y0061423D01*
X0064491Y0060612D01*
X0063680Y0059802D01*
X0063680Y0058881D01*
X0063199Y0058881D01*
X0053645Y0068435D01*
X0052628Y0068856D01*
X0038796Y0068856D01*
X0037848Y0069804D01*
X0036237Y0070472D01*
X0034493Y0070472D01*
X0032881Y0069804D01*
X0031648Y0068571D01*
X0031565Y0068372D01*
X0028261Y0068372D01*
X0028261Y0069173D01*
X0027216Y0070218D01*
X0021013Y0070218D01*
X0019968Y0069173D01*
X0019968Y0062970D01*
X0021001Y0061937D01*
X0019968Y0060905D01*
X0019968Y0054702D01*
X0020303Y0054367D01*
X0019978Y0054042D01*
X0019978Y0048626D01*
X0020605Y0047999D01*
X0020321Y0047715D01*
X0020084Y0047304D01*
X0019962Y0046847D01*
X0019962Y0044825D01*
X0023743Y0044825D01*
X0023743Y0044457D01*
X0019962Y0044457D01*
X0019962Y0042436D01*
X0020084Y0041978D01*
X0020321Y0041567D01*
X0020657Y0041232D01*
X0021067Y0040995D01*
X0021525Y0040873D01*
X0023743Y0040873D01*
X0023743Y0044457D01*
X0024111Y0044457D01*
X0024111Y0040873D01*
X0026330Y0040873D01*
X0026787Y0040995D01*
X0027198Y0041232D01*
X0027533Y0041567D01*
X0027770Y0041978D01*
X0027893Y0042436D01*
X0027893Y0044457D01*
X0024112Y0044457D01*
X0024112Y0044825D01*
X0027893Y0044825D01*
X0027893Y0046847D01*
X0027770Y0047304D01*
X0027533Y0047715D01*
X0027249Y0047999D01*
X0027877Y0048626D01*
X0027877Y0054042D01*
X0027739Y0054180D01*
X0028261Y0054702D01*
X0028261Y0060905D01*
X0027229Y0061937D01*
X0028261Y0062970D01*
X0028261Y0063803D01*
X0031565Y0063803D01*
X0031648Y0063604D01*
X0032881Y0062371D01*
X0033266Y0062211D01*
X0030965Y0059910D01*
X0030965Y0058088D01*
X0035365Y0058088D01*
X0035365Y0058087D01*
X0035365Y0053687D01*
X0037187Y0053687D01*
X0038880Y0055381D01*
X0038880Y0047773D01*
X0039926Y0046728D01*
X0049304Y0046728D01*
X0050349Y0047773D01*
X0050349Y0063319D01*
X0050930Y0063319D01*
X0059705Y0054544D01*
X0060484Y0053765D01*
X0061501Y0053344D01*
X0063680Y0053344D01*
X0063680Y0052423D01*
X0064513Y0051591D01*
X0064359Y0051503D01*
X0064024Y0051168D01*
X0063787Y0050757D01*
X0063665Y0050299D01*
X0063665Y0047787D01*
X0068740Y0047787D01*
X0068740Y0046437D01*
X0070090Y0046437D01*
X0070090Y0042363D01*
X0073602Y0042363D01*
X0074059Y0042485D01*
X0074470Y0042722D01*
X0074805Y0043057D01*
X0075042Y0043468D01*
X0075165Y0043926D01*
X0075165Y0046437D01*
X0070090Y0046437D01*
X0070090Y0047787D01*
X0075165Y0047787D01*
X0075165Y0050299D01*
X0075042Y0050757D01*
X0074805Y0051168D01*
X0074470Y0051503D01*
X0074317Y0051591D01*
X0074986Y0052261D01*
X0075421Y0051826D01*
X0075966Y0051600D01*
X0079512Y0048055D01*
X0079512Y0047262D01*
X0080206Y0046568D01*
X0080206Y0045369D01*
X0080688Y0044203D01*
X0081581Y0043311D01*
X0082746Y0042828D01*
X0084008Y0042828D01*
X0085174Y0043311D01*
X0086066Y0044203D01*
X0086549Y0045369D01*
X0086549Y0046631D01*
X0086501Y0046746D01*
X0087017Y0047262D01*
X0087017Y0053070D01*
X0086587Y0053501D01*
X0086674Y0053588D01*
X0086911Y0053999D01*
X0087033Y0054457D01*
X0087033Y0056675D01*
X0083449Y0056675D01*
X0083449Y0057043D01*
X0087033Y0057043D01*
X0087033Y0059261D01*
X0086911Y0059719D01*
X0086674Y0060130D01*
X0086338Y0060465D01*
X0085928Y0060702D01*
X0085470Y0060824D01*
X0083449Y0060824D01*
X0083449Y0057043D01*
X0083080Y0057043D01*
X0083080Y0056675D01*
X0079496Y0056675D01*
X0079496Y0056221D01*
X0078813Y0056903D01*
X0078268Y0057129D01*
X0076938Y0058460D01*
X0075920Y0058881D01*
X0075149Y0058881D01*
X0075149Y0059802D01*
X0074338Y0060612D01*
X0075149Y0061423D01*
X0075149Y0061625D01*
X0075764Y0061010D01*
X0081573Y0061010D01*
X0082004Y0061441D01*
X0082091Y0061354D01*
X0082501Y0061117D01*
X0082959Y0060994D01*
X0085177Y0060994D01*
X0085177Y0064578D01*
X0085545Y0064578D01*
X0085545Y0060994D01*
X0087763Y0060994D01*
X0088221Y0061117D01*
X0088632Y0061354D01*
X0088967Y0061689D01*
X0089204Y0062099D01*
X0089326Y0062557D01*
X0089326Y0064578D01*
X0085545Y0064578D01*
X0085545Y0064947D01*
X0085177Y0064947D01*
X0085177Y0068531D01*
X0082959Y0068531D01*
X0082501Y0068408D01*
X0082091Y0068171D01*
X0082004Y0068084D01*
X0081573Y0068515D01*
X0075764Y0068515D01*
X0075149Y0067900D01*
X0075149Y0068802D01*
X0074104Y0069847D01*
X0072576Y0069847D01*
X0072576Y0073291D01*
X0079611Y0073291D01*
X0080949Y0074629D01*
X0085786Y0079466D01*
X0090096Y0079466D01*
X0089808Y0078771D01*
X0089808Y0077579D01*
X0090264Y0076479D01*
X0090518Y0076224D01*
X0090518Y0075147D01*
X0088862Y0075147D01*
X0087288Y0074495D01*
X0086083Y0073289D01*
X0085430Y0071715D01*
X0085430Y0070010D01*
X0086043Y0068531D01*
X0085545Y0068531D01*
X0085545Y0064947D01*
X0089326Y0064947D01*
X0089326Y0066578D01*
X0090567Y0066578D01*
X0092141Y0067230D01*
X0093347Y0068436D01*
X0093999Y0070010D01*
X0093999Y0071715D01*
X0093940Y0071857D01*
X0095086Y0073004D01*
X0095086Y0075728D01*
X0101931Y0075728D01*
X0102705Y0074954D01*
X0104044Y0073616D01*
X0110219Y0073616D01*
X0114670Y0069164D01*
X0114670Y0068804D01*
X0115126Y0067704D01*
X0115968Y0066861D01*
X0117069Y0066406D01*
X0118260Y0066406D01*
X0119361Y0066861D01*
X0120203Y0067704D01*
X0120659Y0068804D01*
X0120659Y0069996D01*
X0120203Y0071096D01*
X0119361Y0071939D01*
X0118260Y0072394D01*
X0117901Y0072394D01*
X0116679Y0073616D01*
X0123023Y0073616D01*
X0124361Y0074954D01*
X0127349Y0077941D01*
X0133833Y0077941D01*
X0133651Y0077759D01*
X0133195Y0076658D01*
X0133195Y0075467D01*
X0133651Y0074366D01*
X0134493Y0073524D01*
X0135594Y0073068D01*
X0135759Y0073068D01*
X0135251Y0072559D01*
X0134967Y0072843D01*
X0134556Y0073080D01*
X0134099Y0073203D01*
X0132077Y0073203D01*
X0132077Y0069422D01*
X0131709Y0069422D01*
X0131709Y0073203D01*
X0129688Y0073203D01*
X0129230Y0073080D01*
X0128819Y0072843D01*
X0128484Y0072508D01*
X0128247Y0072098D01*
X0128125Y0071640D01*
X0128125Y0069422D01*
X0131709Y0069422D01*
X0131709Y0069053D01*
X0128125Y0069053D01*
X0128125Y0067163D01*
X0128028Y0067067D01*
X0127791Y0066656D01*
X0127669Y0066199D01*
X0127669Y0063390D01*
X0131253Y0063390D01*
X0131253Y0063021D01*
X0131621Y0063021D01*
X0131621Y0058650D01*
X0132035Y0058650D01*
X0131424Y0058039D01*
X0131424Y0056829D01*
X0127313Y0056829D01*
X0127313Y0057699D01*
X0123484Y0061528D01*
X0122581Y0061528D01*
X0122581Y0062018D01*
X0122810Y0062018D01*
X0123911Y0062474D01*
X0124753Y0063316D01*
X0125209Y0064417D01*
X0125209Y0065608D01*
X0124753Y0066709D01*
X0123911Y0067551D01*
X0122810Y0068007D01*
X0121619Y0068007D01*
X0120518Y0067551D01*
X0119676Y0066709D01*
X0119274Y0065738D01*
X0118752Y0066261D01*
X0117273Y0066261D01*
X0113166Y0062154D01*
X0113166Y0061137D01*
X0110664Y0061137D01*
X0110664Y0061941D01*
X0111637Y0062344D01*
X0112983Y0063690D01*
X0113711Y0065448D01*
X0113711Y0067352D01*
X0112983Y0069110D01*
X0111637Y0070456D01*
X0109879Y0071184D01*
X0101976Y0071184D01*
X0100217Y0070456D01*
X0098871Y0069110D01*
X0098143Y0067352D01*
X0098143Y0065448D01*
X0098871Y0063690D01*
X0100217Y0062344D01*
X0101190Y0061941D01*
X0101190Y0061137D01*
X0097222Y0061137D01*
X0095481Y0060416D01*
X0089306Y0054241D01*
X0087974Y0052908D01*
X0087253Y0051167D01*
X0087253Y0040650D01*
X0083603Y0036999D01*
X0079372Y0036999D01*
X0078358Y0038014D01*
X0075864Y0039047D01*
X0073165Y0039047D01*
X0070672Y0038014D01*
X0068763Y0036105D01*
X0067730Y0033612D01*
X0067730Y0030913D01*
X0068763Y0028420D01*
X0070672Y0026511D01*
X0073165Y0025478D01*
X0075864Y0025478D01*
X0078358Y0026511D01*
X0079372Y0027525D01*
X0086507Y0027525D01*
X0088248Y0028247D01*
X0089581Y0029579D01*
X0096006Y0036004D01*
X0096727Y0037745D01*
X0096727Y0048263D01*
X0100127Y0051663D01*
X0101861Y0051663D01*
X0101976Y0051616D01*
X0109879Y0051616D01*
X0109993Y0051663D01*
X0111629Y0051663D01*
X0117751Y0045541D01*
X0117751Y0044205D01*
X0118331Y0043625D01*
X0117751Y0043045D01*
X0117751Y0039205D01*
X0118331Y0038625D01*
X0117751Y0038045D01*
X0117751Y0034205D01*
X0118331Y0033625D01*
X0117751Y0033045D01*
X0117751Y0029205D01*
X0118796Y0028160D01*
X0121582Y0028160D01*
X0121582Y0027315D01*
X0122308Y0026589D01*
X0122308Y0026229D01*
X0122764Y0025129D01*
X0123606Y0024286D01*
X0124707Y0023831D01*
X0125898Y0023831D01*
X0126998Y0024286D01*
X0127841Y0025129D01*
X0128297Y0026229D01*
X0128297Y0027421D01*
X0127991Y0028160D01*
X0128936Y0028160D01*
X0129981Y0029205D01*
X0129981Y0033045D01*
X0129401Y0033625D01*
X0129981Y0034205D01*
X0129981Y0038045D01*
X0129401Y0038625D01*
X0129981Y0039205D01*
X0129981Y0043045D01*
X0129401Y0043625D01*
X0129617Y0043841D01*
X0130111Y0043841D01*
X0131449Y0045179D01*
X0132038Y0045768D01*
X0132398Y0045768D01*
X0133498Y0046224D01*
X0134341Y0047066D01*
X0134797Y0048167D01*
X0134797Y0049358D01*
X0134529Y0050004D01*
X0137885Y0050004D01*
X0138930Y0051049D01*
X0138930Y0052260D01*
X0139693Y0052260D01*
X0140195Y0051048D01*
X0141379Y0049865D01*
X0140605Y0049090D01*
X0139269Y0049090D01*
X0138223Y0048045D01*
X0138223Y0044205D01*
X0138803Y0043625D01*
X0138223Y0043045D01*
X0138223Y0039205D01*
X0138803Y0038625D01*
X0138223Y0038045D01*
X0138223Y0034205D01*
X0138803Y0033625D01*
X0138223Y0033045D01*
X0138223Y0029205D01*
X0139269Y0028160D01*
X0139278Y0028160D01*
X0139278Y0019678D01*
X0139230Y0019564D01*
X0139230Y0011661D01*
X0139959Y0009902D01*
X0141305Y0008557D01*
X0143063Y0007828D01*
X0144966Y0007828D01*
X0146725Y0008557D01*
X0148071Y0009902D01*
X0148474Y0010875D01*
X0149556Y0010875D01*
X0149959Y0009902D01*
X0151305Y0008557D01*
X0153063Y0007828D01*
X0154966Y0007828D01*
X0156725Y0008557D01*
X0158071Y0009902D01*
X0158799Y0011661D01*
X0158799Y0019564D01*
X0158071Y0021323D01*
X0156725Y0022668D01*
X0154966Y0023397D01*
X0153063Y0023397D01*
X0151305Y0022668D01*
X0149959Y0021323D01*
X0149556Y0020349D01*
X0148752Y0020349D01*
X0148752Y0028160D01*
X0149408Y0028160D01*
X0150453Y0029205D01*
X0150453Y0033045D01*
X0149873Y0033625D01*
X0150453Y0034205D01*
X0150453Y0038045D01*
X0149873Y0038625D01*
X0150453Y0039205D01*
X0150453Y0043045D01*
X0149873Y0043625D01*
X0150453Y0044205D01*
X0150453Y0048045D01*
X0150104Y0048395D01*
X0153528Y0048395D01*
X0154574Y0049440D01*
X0154574Y0055642D01*
X0153541Y0056675D01*
X0154574Y0057708D01*
X0154574Y0062654D01*
X0156912Y0062654D01*
X0157957Y0063699D01*
X0157957Y0067120D01*
X0158087Y0067066D01*
X0159792Y0067066D01*
X0161366Y0067718D01*
X0162572Y0068923D01*
X0163224Y0070498D01*
X0163224Y0072202D01*
X0162992Y0072761D01*
X0163578Y0072761D01*
X0165336Y0073490D01*
X0166682Y0074836D01*
X0167410Y0076594D01*
X0167410Y0078497D01*
X0166682Y0080256D01*
X0165336Y0081602D01*
X0163578Y0082330D01*
X0155674Y0082330D01*
X0153916Y0081602D01*
X0152570Y0080256D01*
X0151842Y0078497D01*
X0151842Y0076594D01*
X0152570Y0074836D01*
X0153771Y0073634D01*
X0149486Y0073634D01*
X0147279Y0075841D01*
X0148534Y0075841D01*
X0150146Y0076508D01*
X0151379Y0077742D01*
X0152046Y0079353D01*
X0152046Y0081097D01*
X0151379Y0082709D01*
X0151369Y0082719D01*
X0164618Y0082719D01*
X0178043Y0069294D01*
X0178821Y0068515D01*
X0179839Y0068094D01*
X0195655Y0068094D01*
X0196146Y0067603D01*
X0196146Y0065584D01*
X0195034Y0065584D01*
X0194060Y0065181D01*
X0192012Y0065181D01*
X0191516Y0065678D01*
X0185707Y0065678D01*
X0185276Y0065247D01*
X0185189Y0065334D01*
X0184778Y0065571D01*
X0184321Y0065693D01*
X0182102Y0065693D01*
X0182102Y0062109D01*
X0181734Y0062109D01*
X0181734Y0061741D01*
X0177953Y0061741D01*
X0177953Y0059720D01*
X0178076Y0059262D01*
X0178312Y0058851D01*
X0178648Y0058516D01*
X0179058Y0058279D01*
X0179516Y0058156D01*
X0181734Y0058156D01*
X0181734Y0061741D01*
X0182102Y0061741D01*
X0182102Y0058156D01*
X0184321Y0058156D01*
X0184778Y0058279D01*
X0185189Y0058516D01*
X0185276Y0058603D01*
X0185707Y0058172D01*
X0185843Y0058172D01*
X0185843Y0051881D01*
X0173980Y0040018D01*
X0173559Y0039001D01*
X0173559Y0023397D01*
X0173063Y0023397D01*
X0171305Y0022668D01*
X0169959Y0021323D01*
X0169230Y0019564D01*
X0169230Y0011661D01*
X0169959Y0009902D01*
X0171305Y0008557D01*
X0173063Y0007828D01*
X0174966Y0007828D01*
X0176725Y0008557D01*
X0178071Y0009902D01*
X0178799Y0011661D01*
X0178799Y0019564D01*
X0178523Y0020230D01*
X0178674Y0020382D01*
X0179096Y0021399D01*
X0178923Y0020982D02*
X0187359Y0020982D01*
X0185760Y0019384D02*
X0178799Y0019384D01*
X0178799Y0017785D02*
X0184865Y0017785D01*
X0184203Y0016187D02*
X0178799Y0016187D01*
X0178799Y0014588D02*
X0184130Y0014588D01*
X0184130Y0012990D02*
X0178799Y0012990D01*
X0178687Y0011391D02*
X0184708Y0011391D01*
X0185381Y0009793D02*
X0177961Y0009793D01*
X0175849Y0008194D02*
X0186980Y0008194D01*
X0189903Y0006596D02*
X0022902Y0006596D01*
X0025825Y0008194D02*
X0102180Y0008194D01*
X0101305Y0008557D02*
X0103063Y0007828D01*
X0104966Y0007828D01*
X0106725Y0008557D01*
X0108071Y0009902D01*
X0108799Y0011661D01*
X0108799Y0019564D01*
X0108071Y0021323D01*
X0106725Y0022668D01*
X0104966Y0023397D01*
X0103063Y0023397D01*
X0101305Y0022668D01*
X0099959Y0021323D01*
X0099230Y0019564D01*
X0099230Y0017897D01*
X0087898Y0017897D01*
X0087509Y0018286D01*
X0087509Y0018646D01*
X0087053Y0019746D01*
X0086211Y0020589D01*
X0085110Y0021044D01*
X0083919Y0021044D01*
X0082818Y0020589D01*
X0081976Y0019746D01*
X0081520Y0018646D01*
X0081520Y0017454D01*
X0081976Y0016354D01*
X0082818Y0015511D01*
X0083919Y0015056D01*
X0084279Y0015056D01*
X0084668Y0014666D01*
X0086006Y0013328D01*
X0099230Y0013328D01*
X0099230Y0011661D01*
X0099959Y0009902D01*
X0101305Y0008557D01*
X0100069Y0009793D02*
X0027424Y0009793D01*
X0028096Y0011391D02*
X0099342Y0011391D01*
X0099230Y0012990D02*
X0028675Y0012990D01*
X0028675Y0014588D02*
X0084746Y0014588D01*
X0082143Y0016187D02*
X0028601Y0016187D01*
X0027939Y0017785D02*
X0081520Y0017785D01*
X0081826Y0019384D02*
X0027044Y0019384D01*
X0025446Y0020982D02*
X0083769Y0020982D01*
X0085261Y0020982D02*
X0099818Y0020982D01*
X0099230Y0019384D02*
X0087203Y0019384D01*
X0079223Y0027376D02*
X0121582Y0027376D01*
X0122495Y0025778D02*
X0076587Y0025778D01*
X0072442Y0025778D02*
X0057646Y0025778D01*
X0057331Y0025462D02*
X0061315Y0029446D01*
X0061315Y0032062D01*
X0054715Y0032062D01*
X0054715Y0025462D01*
X0057331Y0025462D01*
X0054715Y0025778D02*
X0054315Y0025778D01*
X0054315Y0025462D02*
X0054315Y0032062D01*
X0054715Y0032062D01*
X0054715Y0032462D01*
X0061315Y0032462D01*
X0061315Y0035079D01*
X0057331Y0039062D01*
X0054715Y0039062D01*
X0054715Y0032463D01*
X0054315Y0032463D01*
X0054315Y0039062D01*
X0051698Y0039062D01*
X0048161Y0035525D01*
X0048161Y0035526D01*
X0047924Y0035937D01*
X0047837Y0036024D01*
X0048267Y0036455D01*
X0048267Y0037805D01*
X0048973Y0038510D01*
X0050261Y0038510D01*
X0051640Y0039081D01*
X0052696Y0040137D01*
X0053267Y0041516D01*
X0053267Y0043009D01*
X0052696Y0044388D01*
X0051640Y0045444D01*
X0050261Y0046015D01*
X0046672Y0046015D01*
X0045292Y0045444D01*
X0044237Y0044388D01*
X0043157Y0043309D01*
X0041807Y0043309D01*
X0040762Y0042263D01*
X0040762Y0042127D01*
X0031823Y0042127D01*
X0030805Y0041706D01*
X0030027Y0040927D01*
X0029084Y0039984D01*
X0027743Y0039984D01*
X0026131Y0039317D01*
X0024898Y0038083D01*
X0024738Y0037699D01*
X0022437Y0040000D01*
X0020615Y0040000D01*
X0020615Y0035600D01*
X0020615Y0031200D01*
X0022437Y0031200D01*
X0024738Y0033501D01*
X0024898Y0033117D01*
X0026131Y0031883D01*
X0027743Y0031216D01*
X0029487Y0031216D01*
X0031098Y0031883D01*
X0032331Y0033117D01*
X0032999Y0034728D01*
X0032999Y0036069D01*
X0033520Y0036590D01*
X0040762Y0036590D01*
X0040762Y0036455D01*
X0041193Y0036024D01*
X0041106Y0035937D01*
X0040869Y0035526D01*
X0040746Y0035068D01*
X0040746Y0032850D01*
X0044330Y0032850D01*
X0044330Y0032482D01*
X0040746Y0032482D01*
X0040746Y0030264D01*
X0040869Y0029806D01*
X0041106Y0029395D01*
X0041441Y0029060D01*
X0041851Y0028823D01*
X0042309Y0028701D01*
X0044330Y0028701D01*
X0044330Y0032482D01*
X0044699Y0032482D01*
X0044699Y0028701D01*
X0046720Y0028701D01*
X0047178Y0028823D01*
X0047588Y0029060D01*
X0047844Y0029316D01*
X0051698Y0025462D01*
X0054315Y0025462D01*
X0054315Y0027376D02*
X0054715Y0027376D01*
X0054715Y0028975D02*
X0054315Y0028975D01*
X0054315Y0030573D02*
X0054715Y0030573D01*
X0054715Y0032172D02*
X0067730Y0032172D01*
X0067796Y0033770D02*
X0061315Y0033770D01*
X0061025Y0035369D02*
X0068458Y0035369D01*
X0069625Y0036967D02*
X0059427Y0036967D01*
X0057828Y0038566D02*
X0072004Y0038566D01*
X0068740Y0042362D02*
X0068740Y0046437D01*
X0063665Y0046437D01*
X0063665Y0043926D01*
X0063787Y0043468D01*
X0064024Y0043057D01*
X0064359Y0042722D01*
X0064770Y0042485D01*
X0065228Y0042363D01*
X0068740Y0042362D01*
X0068740Y0043361D02*
X0070090Y0043361D01*
X0070090Y0044960D02*
X0068740Y0044960D01*
X0068740Y0046558D02*
X0027893Y0046558D01*
X0027893Y0044960D02*
X0044808Y0044960D01*
X0043210Y0043361D02*
X0027893Y0043361D01*
X0027646Y0041763D02*
X0030943Y0041763D01*
X0029264Y0040164D02*
X0009777Y0040164D01*
X0009777Y0038566D02*
X0017358Y0038566D01*
X0016215Y0037423D02*
X0016215Y0035600D01*
X0020615Y0035600D01*
X0020615Y0035600D01*
X0020615Y0035600D01*
X0020615Y0031200D01*
X0018792Y0031200D01*
X0016215Y0033777D01*
X0016215Y0035600D01*
X0020615Y0035600D01*
X0020615Y0040000D01*
X0018792Y0040000D01*
X0016215Y0037423D01*
X0016215Y0036967D02*
X0009777Y0036967D01*
X0009777Y0035369D02*
X0016215Y0035369D01*
X0016222Y0033770D02*
X0009777Y0033770D01*
X0009777Y0032172D02*
X0017820Y0032172D01*
X0020615Y0032172D02*
X0020615Y0032172D01*
X0020615Y0033770D02*
X0020615Y0033770D01*
X0020615Y0035369D02*
X0020615Y0035369D01*
X0020615Y0035600D02*
X0020615Y0035600D01*
X0020615Y0036967D02*
X0020615Y0036967D01*
X0020615Y0038566D02*
X0020615Y0038566D01*
X0020209Y0041763D02*
X0009777Y0041763D01*
X0009777Y0043361D02*
X0019962Y0043361D01*
X0019962Y0044960D02*
X0009777Y0044960D01*
X0009777Y0046558D02*
X0019962Y0046558D01*
X0020447Y0048157D02*
X0009777Y0048157D01*
X0009777Y0049755D02*
X0019978Y0049755D01*
X0019978Y0051354D02*
X0009777Y0051354D01*
X0009777Y0052952D02*
X0019978Y0052952D01*
X0020120Y0054551D02*
X0009777Y0054551D01*
X0009777Y0056149D02*
X0019968Y0056149D01*
X0019968Y0057748D02*
X0009777Y0057748D01*
X0009777Y0059346D02*
X0019968Y0059346D01*
X0020008Y0060945D02*
X0009777Y0060945D01*
X0009777Y0062543D02*
X0020395Y0062543D01*
X0019968Y0064142D02*
X0009777Y0064142D01*
X0009777Y0065740D02*
X0019968Y0065740D01*
X0019968Y0067339D02*
X0009777Y0067339D01*
X0009777Y0068937D02*
X0019968Y0068937D01*
X0028261Y0068937D02*
X0032014Y0068937D01*
X0032708Y0062543D02*
X0027834Y0062543D01*
X0028221Y0060945D02*
X0032000Y0060945D01*
X0030965Y0059346D02*
X0028261Y0059346D01*
X0028261Y0057748D02*
X0030965Y0057748D01*
X0030965Y0058087D02*
X0030965Y0056265D01*
X0033542Y0053687D01*
X0035365Y0053687D01*
X0035365Y0058087D01*
X0035365Y0058087D01*
X0030965Y0058087D01*
X0031080Y0056149D02*
X0028261Y0056149D01*
X0028110Y0054551D02*
X0032679Y0054551D01*
X0035365Y0054551D02*
X0035365Y0054551D01*
X0035365Y0056149D02*
X0035365Y0056149D01*
X0035365Y0057748D02*
X0035365Y0057748D01*
X0038051Y0054551D02*
X0038880Y0054551D01*
X0038880Y0052952D02*
X0027877Y0052952D01*
X0027877Y0051354D02*
X0038880Y0051354D01*
X0038880Y0049755D02*
X0027877Y0049755D01*
X0027407Y0048157D02*
X0038880Y0048157D01*
X0048267Y0036967D02*
X0049603Y0036967D01*
X0050396Y0038566D02*
X0051201Y0038566D01*
X0052708Y0040164D02*
X0086767Y0040164D01*
X0087253Y0041763D02*
X0053267Y0041763D01*
X0053121Y0043361D02*
X0063849Y0043361D01*
X0063665Y0044960D02*
X0052125Y0044960D01*
X0050349Y0048157D02*
X0063665Y0048157D01*
X0063665Y0049755D02*
X0050349Y0049755D01*
X0050349Y0051354D02*
X0064210Y0051354D01*
X0063680Y0052952D02*
X0050349Y0052952D01*
X0050349Y0054551D02*
X0059699Y0054551D01*
X0058100Y0056149D02*
X0050349Y0056149D01*
X0050349Y0057748D02*
X0056502Y0057748D01*
X0054903Y0059346D02*
X0050349Y0059346D01*
X0050349Y0060945D02*
X0053305Y0060945D01*
X0051706Y0062543D02*
X0050349Y0062543D01*
X0054741Y0067339D02*
X0058502Y0067339D01*
X0058486Y0068937D02*
X0038715Y0068937D01*
X0038678Y0076930D02*
X0052595Y0076930D01*
X0052831Y0078529D02*
X0039815Y0078529D01*
X0040157Y0080127D02*
X0054439Y0080127D01*
X0056740Y0080127D02*
X0061388Y0080127D01*
X0061730Y0078529D02*
X0058348Y0078529D01*
X0059253Y0076930D02*
X0062867Y0076930D01*
X0057587Y0072134D02*
X0009777Y0072134D01*
X0009777Y0070536D02*
X0058378Y0070536D01*
X0055989Y0073733D02*
X0009777Y0073733D01*
X0009777Y0075332D02*
X0053386Y0075332D01*
X0056339Y0065740D02*
X0058262Y0065740D01*
X0057938Y0064142D02*
X0058728Y0064142D01*
X0059536Y0062543D02*
X0060583Y0062543D01*
X0061135Y0060945D02*
X0064159Y0060945D01*
X0063680Y0059346D02*
X0062734Y0059346D01*
X0074670Y0060945D02*
X0096759Y0060945D01*
X0094412Y0059346D02*
X0087010Y0059346D01*
X0087033Y0057748D02*
X0092813Y0057748D01*
X0091215Y0056149D02*
X0087033Y0056149D01*
X0087033Y0054551D02*
X0089616Y0054551D01*
X0088018Y0052952D02*
X0087017Y0052952D01*
X0087017Y0051354D02*
X0087330Y0051354D01*
X0087253Y0049755D02*
X0087017Y0049755D01*
X0087017Y0048157D02*
X0087253Y0048157D01*
X0087253Y0046558D02*
X0086549Y0046558D01*
X0086379Y0044960D02*
X0087253Y0044960D01*
X0087253Y0043361D02*
X0085224Y0043361D01*
X0081530Y0043361D02*
X0074981Y0043361D01*
X0075165Y0044960D02*
X0080375Y0044960D01*
X0080206Y0046558D02*
X0070090Y0046558D01*
X0075165Y0048157D02*
X0079410Y0048157D01*
X0077811Y0049755D02*
X0075165Y0049755D01*
X0074619Y0051354D02*
X0076213Y0051354D01*
X0077649Y0057748D02*
X0079496Y0057748D01*
X0079496Y0057043D02*
X0083080Y0057043D01*
X0083080Y0060824D01*
X0081059Y0060824D01*
X0080601Y0060702D01*
X0080191Y0060465D01*
X0079856Y0060130D01*
X0079619Y0059719D01*
X0079496Y0059261D01*
X0079496Y0057043D01*
X0079519Y0059346D02*
X0075149Y0059346D01*
X0083080Y0059346D02*
X0083449Y0059346D01*
X0083449Y0057748D02*
X0083080Y0057748D01*
X0085177Y0062543D02*
X0085545Y0062543D01*
X0085545Y0064142D02*
X0085177Y0064142D01*
X0085177Y0065740D02*
X0085545Y0065740D01*
X0085545Y0067339D02*
X0085177Y0067339D01*
X0085875Y0068937D02*
X0075013Y0068937D01*
X0072576Y0070536D02*
X0085430Y0070536D01*
X0085604Y0072134D02*
X0072576Y0072134D01*
X0080053Y0073733D02*
X0086526Y0073733D01*
X0090518Y0075332D02*
X0081652Y0075332D01*
X0083250Y0076930D02*
X0090077Y0076930D01*
X0089808Y0078529D02*
X0084849Y0078529D01*
X0095086Y0075332D02*
X0102328Y0075332D01*
X0103926Y0073733D02*
X0095086Y0073733D01*
X0094217Y0072134D02*
X0111700Y0072134D01*
X0111444Y0070536D02*
X0113298Y0070536D01*
X0113055Y0068937D02*
X0114670Y0068937D01*
X0115491Y0067339D02*
X0113711Y0067339D01*
X0113711Y0065740D02*
X0116753Y0065740D01*
X0115154Y0064142D02*
X0113170Y0064142D01*
X0113556Y0062543D02*
X0111837Y0062543D01*
X0119272Y0065740D02*
X0119275Y0065740D01*
X0119838Y0067339D02*
X0120306Y0067339D01*
X0120659Y0068937D02*
X0128125Y0068937D01*
X0128125Y0067339D02*
X0124123Y0067339D01*
X0125154Y0065740D02*
X0127669Y0065740D01*
X0127669Y0064142D02*
X0125095Y0064142D01*
X0123980Y0062543D02*
X0127669Y0062543D01*
X0127669Y0063021D02*
X0127669Y0060213D01*
X0127791Y0059755D01*
X0128028Y0059345D01*
X0128363Y0059009D01*
X0128774Y0058772D01*
X0129232Y0058650D01*
X0131253Y0058650D01*
X0131253Y0063021D01*
X0127669Y0063021D01*
X0131253Y0062543D02*
X0131621Y0062543D01*
X0131621Y0060945D02*
X0131253Y0060945D01*
X0131253Y0059346D02*
X0131621Y0059346D01*
X0131424Y0057748D02*
X0127265Y0057748D01*
X0128027Y0059346D02*
X0125666Y0059346D01*
X0124068Y0060945D02*
X0127669Y0060945D01*
X0128125Y0070536D02*
X0120435Y0070536D01*
X0118888Y0072134D02*
X0128269Y0072134D01*
X0131709Y0072134D02*
X0132077Y0072134D01*
X0132077Y0070536D02*
X0131709Y0070536D01*
X0134284Y0073733D02*
X0123141Y0073733D01*
X0124739Y0075332D02*
X0133251Y0075332D01*
X0133308Y0076930D02*
X0126338Y0076930D01*
X0122665Y0089718D02*
X0122046Y0089718D01*
X0121956Y0091317D02*
X0124263Y0091317D01*
X0121173Y0092915D02*
X0144152Y0092915D01*
X0146559Y0094514D02*
X0118766Y0094514D01*
X0119189Y0096112D02*
X0146135Y0096112D01*
X0143976Y0097711D02*
X0121348Y0097711D01*
X0116135Y0096112D02*
X0115006Y0096112D01*
X0113976Y0097711D02*
X0110403Y0097711D01*
X0103720Y0097023D02*
X0103030Y0096334D01*
X0103030Y0096334D01*
X0102031Y0095334D01*
X0082031Y0095334D01*
X0080693Y0093996D01*
X0079920Y0093223D01*
X0079201Y0093942D01*
X0077589Y0094609D01*
X0075845Y0094609D01*
X0075646Y0094527D01*
X0072339Y0097834D01*
X0069528Y0097834D01*
X0070021Y0099026D01*
X0071106Y0097941D01*
X0072918Y0097941D01*
X0073001Y0097742D01*
X0074234Y0096508D01*
X0075845Y0095841D01*
X0077589Y0095841D01*
X0079201Y0096508D01*
X0080434Y0097742D01*
X0080517Y0097941D01*
X0102918Y0097941D01*
X0103001Y0097742D01*
X0103720Y0097023D01*
X0103032Y0097711D02*
X0080403Y0097711D01*
X0078244Y0096112D02*
X0102809Y0096112D01*
X0102918Y0102509D02*
X0084171Y0102509D01*
X0084266Y0102604D01*
X0084722Y0103704D01*
X0084722Y0104064D01*
X0086286Y0105628D01*
X0101281Y0105628D01*
X0102305Y0104604D01*
X0103601Y0103309D01*
X0103001Y0102709D01*
X0102918Y0102509D01*
X0102805Y0104105D02*
X0084762Y0104105D01*
X0075190Y0096112D02*
X0074061Y0096112D01*
X0073032Y0097711D02*
X0072462Y0097711D01*
X0077821Y0094514D02*
X0081210Y0094514D01*
X0063100Y0103753D02*
X0062056Y0102709D01*
X0061973Y0102509D01*
X0039572Y0102509D01*
X0039489Y0102709D01*
X0038703Y0103495D01*
X0039499Y0104291D01*
X0039499Y0104291D01*
X0043149Y0107941D01*
X0055007Y0107941D01*
X0054983Y0107883D01*
X0054983Y0106692D01*
X0055439Y0105591D01*
X0056281Y0104749D01*
X0057382Y0104293D01*
X0057741Y0104293D01*
X0058281Y0103753D01*
X0063100Y0103753D01*
X0057930Y0104105D02*
X0039312Y0104105D01*
X0040911Y0105703D02*
X0055392Y0105703D01*
X0054983Y0107302D02*
X0042509Y0107302D01*
X0039458Y0097711D02*
X0061907Y0097711D01*
X0060309Y0096112D02*
X0037299Y0096112D01*
X0036876Y0094514D02*
X0058710Y0094514D01*
X0057112Y0092915D02*
X0039283Y0092915D01*
X0034669Y0094514D02*
X0022227Y0094514D01*
X0021284Y0096112D02*
X0034246Y0096112D01*
X0032087Y0097711D02*
X0020676Y0097711D01*
X0015953Y0099309D02*
X0031406Y0099309D01*
X0031388Y0100908D02*
X0009777Y0100908D01*
X0009777Y0102506D02*
X0016815Y0102506D01*
X0012969Y0103578D02*
X0012969Y0103578D01*
X0012442Y0104105D02*
X0009777Y0104105D01*
X0009777Y0105703D02*
X0011630Y0105703D01*
X0011630Y0107302D02*
X0009777Y0107302D01*
X0009777Y0108900D02*
X0011630Y0108900D01*
X0011630Y0110499D02*
X0009777Y0110499D01*
X0009777Y0112097D02*
X0011630Y0112097D01*
X0011630Y0113696D02*
X0009777Y0113696D01*
X0009777Y0115294D02*
X0011630Y0115294D01*
X0011630Y0116893D02*
X0009777Y0116893D01*
X0009777Y0118491D02*
X0011630Y0118491D01*
X0011630Y0120090D02*
X0009777Y0120090D01*
X0009777Y0121688D02*
X0011630Y0121688D01*
X0011630Y0123287D02*
X0009777Y0123287D01*
X0009777Y0124885D02*
X0011630Y0124885D01*
X0011630Y0126484D02*
X0009777Y0126484D01*
X0009777Y0128082D02*
X0011630Y0128082D01*
X0011630Y0129681D02*
X0009777Y0129681D01*
X0009777Y0131279D02*
X0011630Y0131279D01*
X0011630Y0132878D02*
X0009777Y0132878D01*
X0009777Y0134476D02*
X0011630Y0134476D01*
X0011630Y0136075D02*
X0009777Y0136075D01*
X0009777Y0137673D02*
X0011630Y0137673D01*
X0011630Y0139272D02*
X0009777Y0139272D01*
X0009777Y0140870D02*
X0011630Y0140870D01*
X0011630Y0142469D02*
X0009777Y0142469D01*
X0009777Y0144068D02*
X0011630Y0144068D01*
X0011630Y0145666D02*
X0009777Y0145666D01*
X0009777Y0147265D02*
X0011630Y0147265D01*
X0011630Y0148863D02*
X0009777Y0148863D01*
X0009777Y0150462D02*
X0011630Y0150462D01*
X0011630Y0152060D02*
X0009777Y0152060D01*
X0009777Y0153659D02*
X0011630Y0153659D01*
X0011630Y0155257D02*
X0009777Y0155257D01*
X0009777Y0156856D02*
X0011630Y0156856D01*
X0011630Y0158454D02*
X0009777Y0158454D01*
X0009777Y0160053D02*
X0011630Y0160053D01*
X0013035Y0161651D02*
X0009777Y0161651D01*
X0009777Y0163250D02*
X0014634Y0163250D01*
X0015717Y0164848D02*
X0009777Y0164848D01*
X0009777Y0166447D02*
X0016827Y0166447D01*
X0020378Y0166447D02*
X0039114Y0166447D01*
X0038208Y0164848D02*
X0021487Y0164848D01*
X0021538Y0163250D02*
X0038396Y0163250D01*
X0039772Y0161651D02*
X0020501Y0161651D01*
X0017898Y0160053D02*
X0042249Y0160053D01*
X0042632Y0161651D02*
X0051785Y0161651D01*
X0050782Y0163250D02*
X0053384Y0163250D01*
X0052381Y0164848D02*
X0054982Y0164848D01*
X0053979Y0166447D02*
X0056581Y0166447D01*
X0055578Y0168045D02*
X0058179Y0168045D01*
X0057176Y0169644D02*
X0059778Y0169644D01*
X0061376Y0171242D02*
X0057761Y0171242D01*
X0057761Y0172841D02*
X0070462Y0172841D01*
X0070261Y0174439D02*
X0072086Y0174439D01*
X0073684Y0176038D02*
X0070261Y0176038D01*
X0070261Y0177636D02*
X0075283Y0177636D01*
X0077312Y0179235D02*
X0070261Y0179235D01*
X0070261Y0180833D02*
X0075713Y0180833D01*
X0074115Y0182432D02*
X0069619Y0182432D01*
X0068223Y0184030D02*
X0072516Y0184030D01*
X0070918Y0185629D02*
X0069822Y0185629D01*
X0069869Y0190424D02*
X0089786Y0190424D01*
X0087737Y0188826D02*
X0074182Y0188826D01*
X0075780Y0187227D02*
X0087036Y0187227D01*
X0086943Y0185629D02*
X0077379Y0185629D01*
X0078977Y0184030D02*
X0086943Y0184030D01*
X0086943Y0182432D02*
X0080576Y0182432D01*
X0082174Y0180833D02*
X0086943Y0180833D01*
X0086943Y0179235D02*
X0085028Y0179235D01*
X0093524Y0174439D02*
X0109886Y0174439D01*
X0109083Y0176038D02*
X0104481Y0176038D01*
X0104437Y0175994D02*
X0105783Y0177340D01*
X0106511Y0179098D01*
X0106511Y0187002D01*
X0105783Y0188760D01*
X0104437Y0190106D01*
X0102679Y0190834D01*
X0100776Y0190834D01*
X0099017Y0190106D01*
X0097671Y0188760D01*
X0096943Y0187002D01*
X0096943Y0179098D01*
X0097671Y0177340D01*
X0099017Y0175994D01*
X0100776Y0175266D01*
X0102679Y0175266D01*
X0104437Y0175994D01*
X0105906Y0177636D02*
X0107570Y0177636D01*
X0106996Y0179235D02*
X0106511Y0179235D01*
X0106511Y0180833D02*
X0106927Y0180833D01*
X0106927Y0182432D02*
X0106511Y0182432D01*
X0106927Y0183250D02*
X0111527Y0183250D01*
X0111527Y0190850D01*
X0111349Y0190850D01*
X0110603Y0190732D01*
X0109885Y0190498D01*
X0109211Y0190155D01*
X0108600Y0189711D01*
X0108066Y0189177D01*
X0107622Y0188566D01*
X0107279Y0187893D01*
X0107045Y0187174D01*
X0106927Y0186428D01*
X0106927Y0183250D01*
X0106927Y0184030D02*
X0106511Y0184030D01*
X0106511Y0185629D02*
X0106927Y0185629D01*
X0107063Y0187227D02*
X0106418Y0187227D01*
X0105717Y0188826D02*
X0107811Y0188826D01*
X0109739Y0190424D02*
X0103668Y0190424D01*
X0099786Y0190424D02*
X0093668Y0190424D01*
X0095717Y0188826D02*
X0097737Y0188826D01*
X0097036Y0187227D02*
X0096418Y0187227D01*
X0096511Y0185629D02*
X0096943Y0185629D01*
X0096943Y0184030D02*
X0096511Y0184030D01*
X0096511Y0182432D02*
X0096943Y0182432D01*
X0096943Y0180833D02*
X0096511Y0180833D01*
X0096511Y0179235D02*
X0096943Y0179235D01*
X0097549Y0177636D02*
X0095906Y0177636D01*
X0094481Y0176038D02*
X0098973Y0176038D01*
X0103135Y0172841D02*
X0108287Y0172841D01*
X0106489Y0167666D02*
X0103135Y0167666D01*
X0103135Y0166958D01*
X0105781Y0166958D01*
X0106489Y0167666D01*
X0110411Y0165127D02*
X0110411Y0163715D01*
X0121943Y0175246D01*
X0121943Y0175818D01*
X0121517Y0175994D01*
X0121398Y0176114D01*
X0120173Y0174889D01*
X0110411Y0165127D01*
X0110411Y0164848D02*
X0111545Y0164848D01*
X0111731Y0166447D02*
X0113143Y0166447D01*
X0113329Y0168045D02*
X0114742Y0168045D01*
X0114928Y0169644D02*
X0116340Y0169644D01*
X0116526Y0171242D02*
X0117939Y0171242D01*
X0118125Y0172841D02*
X0119537Y0172841D01*
X0119723Y0174439D02*
X0121136Y0174439D01*
X0121322Y0176038D02*
X0121473Y0176038D01*
X0126511Y0175818D02*
X0126511Y0173354D01*
X0125992Y0172834D01*
X0131943Y0172834D01*
X0131943Y0175818D01*
X0131517Y0175994D01*
X0130171Y0177340D01*
X0129443Y0179098D01*
X0129443Y0187002D01*
X0130171Y0188760D01*
X0130302Y0188891D01*
X0128152Y0188891D01*
X0128283Y0188760D01*
X0129011Y0187002D01*
X0129011Y0179098D01*
X0128283Y0177340D01*
X0126937Y0175994D01*
X0126511Y0175818D01*
X0126981Y0176038D02*
X0131473Y0176038D01*
X0131943Y0174439D02*
X0126511Y0174439D01*
X0125998Y0172841D02*
X0131943Y0172841D01*
X0136511Y0172841D02*
X0142475Y0172841D01*
X0144073Y0174439D02*
X0136511Y0174439D01*
X0136511Y0175818D02*
X0136511Y0170854D01*
X0136304Y0170647D01*
X0140281Y0170647D01*
X0144937Y0175303D01*
X0144605Y0175250D01*
X0144427Y0175250D01*
X0144427Y0182850D01*
X0144027Y0182850D01*
X0139427Y0182850D01*
X0139427Y0179672D01*
X0139545Y0178926D01*
X0139779Y0178207D01*
X0140122Y0177534D01*
X0140566Y0176923D01*
X0141100Y0176389D01*
X0141711Y0175945D01*
X0142385Y0175602D01*
X0143103Y0175368D01*
X0143849Y0175250D01*
X0144027Y0175250D01*
X0144027Y0182850D01*
X0144027Y0183250D01*
X0139427Y0183250D01*
X0139427Y0186428D01*
X0139545Y0187174D01*
X0139779Y0187893D01*
X0140122Y0188566D01*
X0140358Y0188891D01*
X0138152Y0188891D01*
X0138283Y0188760D01*
X0139011Y0187002D01*
X0139011Y0179098D01*
X0138283Y0177340D01*
X0136937Y0175994D01*
X0136511Y0175818D01*
X0136981Y0176038D02*
X0141583Y0176038D01*
X0140070Y0177636D02*
X0138406Y0177636D01*
X0139011Y0179235D02*
X0139496Y0179235D01*
X0139427Y0180833D02*
X0139011Y0180833D01*
X0139011Y0182432D02*
X0139427Y0182432D01*
X0139427Y0184030D02*
X0139011Y0184030D01*
X0139011Y0185629D02*
X0139427Y0185629D01*
X0139563Y0187227D02*
X0138918Y0187227D01*
X0138217Y0188826D02*
X0140311Y0188826D01*
X0144427Y0183250D02*
X0149027Y0183250D01*
X0149027Y0186428D01*
X0148909Y0187174D01*
X0148676Y0187893D01*
X0148332Y0188566D01*
X0148096Y0188891D01*
X0152802Y0188891D01*
X0152671Y0188760D01*
X0151943Y0187002D01*
X0151943Y0184746D01*
X0150356Y0183159D01*
X0149027Y0181830D01*
X0149027Y0182850D01*
X0144427Y0182850D01*
X0144427Y0183250D01*
X0144427Y0182432D02*
X0144027Y0182432D01*
X0144027Y0180833D02*
X0144427Y0180833D01*
X0144427Y0179235D02*
X0144027Y0179235D01*
X0144027Y0177636D02*
X0144427Y0177636D01*
X0144427Y0176038D02*
X0144027Y0176038D01*
X0140876Y0171242D02*
X0136511Y0171242D01*
X0130049Y0177636D02*
X0128406Y0177636D01*
X0129011Y0179235D02*
X0129443Y0179235D01*
X0129443Y0180833D02*
X0129011Y0180833D01*
X0129011Y0182432D02*
X0129443Y0182432D01*
X0129443Y0184030D02*
X0129011Y0184030D01*
X0129011Y0185629D02*
X0129443Y0185629D01*
X0129536Y0187227D02*
X0128918Y0187227D01*
X0128217Y0188826D02*
X0130237Y0188826D01*
X0118792Y0195220D02*
X0015419Y0195220D01*
X0013304Y0193621D02*
X0017685Y0193621D01*
X0018965Y0194151D02*
X0015988Y0192918D01*
X0013709Y0190640D01*
X0012476Y0187663D01*
X0012476Y0184441D01*
X0013709Y0181464D01*
X0015988Y0179186D01*
X0018965Y0177953D01*
X0022187Y0177953D01*
X0025163Y0179186D01*
X0027442Y0181464D01*
X0028675Y0184441D01*
X0028675Y0187663D01*
X0027442Y0190640D01*
X0025163Y0192918D01*
X0022187Y0194151D01*
X0018965Y0194151D01*
X0020589Y0196818D02*
X0189568Y0196818D01*
X0189339Y0193621D02*
X0182411Y0193621D01*
X0184010Y0192023D02*
X0186746Y0192023D01*
X0180813Y0195220D02*
X0195402Y0195220D01*
X0195119Y0193621D02*
X0197917Y0193621D01*
X0197712Y0192023D02*
X0199516Y0192023D01*
X0199185Y0190424D02*
X0200705Y0190424D01*
X0199847Y0188826D02*
X0201628Y0188826D01*
X0202237Y0187227D02*
X0200328Y0187227D01*
X0200328Y0185629D02*
X0202666Y0185629D01*
X0202954Y0184030D02*
X0200158Y0184030D01*
X0199496Y0182432D02*
X0203028Y0182432D01*
X0203028Y0180833D02*
X0198464Y0180833D01*
X0196866Y0179235D02*
X0203028Y0179235D01*
X0203028Y0177636D02*
X0189296Y0177636D01*
X0190895Y0176038D02*
X0203028Y0176038D01*
X0203028Y0174439D02*
X0192493Y0174439D01*
X0194092Y0172841D02*
X0203028Y0172841D01*
X0203028Y0171242D02*
X0195690Y0171242D01*
X0197289Y0169644D02*
X0203028Y0169644D01*
X0203028Y0168045D02*
X0198887Y0168045D01*
X0199548Y0167384D02*
X0199548Y0167384D01*
X0200486Y0166447D02*
X0203028Y0166447D01*
X0203028Y0164848D02*
X0200886Y0164848D01*
X0200886Y0163250D02*
X0203028Y0163250D01*
X0203028Y0161651D02*
X0200886Y0161651D01*
X0200886Y0160053D02*
X0203028Y0160053D01*
X0203028Y0158454D02*
X0200886Y0158454D01*
X0200886Y0156856D02*
X0203028Y0156856D01*
X0203028Y0155257D02*
X0200886Y0155257D01*
X0200886Y0153659D02*
X0203028Y0153659D01*
X0203028Y0152060D02*
X0200886Y0152060D01*
X0200886Y0150462D02*
X0203028Y0150462D01*
X0203028Y0148863D02*
X0200886Y0148863D01*
X0200886Y0147265D02*
X0203028Y0147265D01*
X0203028Y0145666D02*
X0200886Y0145666D01*
X0200886Y0144068D02*
X0203028Y0144068D01*
X0203028Y0142469D02*
X0200886Y0142469D01*
X0200886Y0140870D02*
X0203028Y0140870D01*
X0203028Y0139272D02*
X0200886Y0139272D01*
X0200886Y0137673D02*
X0203028Y0137673D01*
X0203028Y0136075D02*
X0200886Y0136075D01*
X0200886Y0134476D02*
X0203028Y0134476D01*
X0203028Y0132878D02*
X0200886Y0132878D01*
X0200886Y0131279D02*
X0203028Y0131279D01*
X0203028Y0129681D02*
X0200886Y0129681D01*
X0200886Y0128082D02*
X0203028Y0128082D01*
X0203028Y0126484D02*
X0200886Y0126484D01*
X0200886Y0124885D02*
X0203028Y0124885D01*
X0203028Y0123287D02*
X0200886Y0123287D01*
X0200886Y0121688D02*
X0203028Y0121688D01*
X0203028Y0120090D02*
X0200886Y0120090D01*
X0200886Y0118491D02*
X0203028Y0118491D01*
X0203028Y0116893D02*
X0200886Y0116893D01*
X0200886Y0115294D02*
X0203028Y0115294D01*
X0203028Y0113696D02*
X0200886Y0113696D01*
X0200886Y0112097D02*
X0203028Y0112097D01*
X0203028Y0110499D02*
X0200886Y0110499D01*
X0200886Y0108900D02*
X0203028Y0108900D01*
X0203028Y0107302D02*
X0200886Y0107302D01*
X0200886Y0105703D02*
X0203028Y0105703D01*
X0203028Y0104105D02*
X0200886Y0104105D01*
X0200886Y0102506D02*
X0203028Y0102506D01*
X0203028Y0100908D02*
X0200886Y0100908D01*
X0200886Y0099309D02*
X0203028Y0099309D01*
X0203028Y0097711D02*
X0200886Y0097711D01*
X0200886Y0096112D02*
X0203028Y0096112D01*
X0203028Y0094514D02*
X0200886Y0094514D01*
X0200886Y0092915D02*
X0203028Y0092915D01*
X0203028Y0091317D02*
X0200724Y0091317D01*
X0199126Y0089718D02*
X0203028Y0089718D01*
X0203028Y0088120D02*
X0197527Y0088120D01*
X0195929Y0086521D02*
X0203028Y0086521D01*
X0203028Y0084923D02*
X0170245Y0084923D01*
X0168646Y0086521D02*
X0172838Y0086521D01*
X0172483Y0088120D02*
X0166645Y0088120D01*
X0165142Y0091240D02*
X0164469Y0090897D01*
X0163750Y0090664D01*
X0163004Y0090546D01*
X0159826Y0090546D01*
X0159826Y0095146D01*
X0159826Y0095546D01*
X0159426Y0095546D01*
X0159426Y0100146D01*
X0156248Y0100146D01*
X0155502Y0100027D01*
X0154783Y0099794D01*
X0154110Y0099451D01*
X0153499Y0099007D01*
X0152965Y0098473D01*
X0152521Y0097861D01*
X0152178Y0097188D01*
X0151944Y0096470D01*
X0151826Y0095723D01*
X0151826Y0095546D01*
X0159426Y0095546D01*
X0159426Y0095146D01*
X0151826Y0095146D01*
X0151826Y0094968D01*
X0151944Y0094222D01*
X0152178Y0093503D01*
X0152521Y0092830D01*
X0152965Y0092219D01*
X0153499Y0091684D01*
X0154110Y0091240D01*
X0154783Y0090897D01*
X0155502Y0090664D01*
X0156248Y0090546D01*
X0159426Y0090546D01*
X0159426Y0095146D01*
X0159826Y0095146D01*
X0167426Y0095146D01*
X0167426Y0094968D01*
X0167308Y0094222D01*
X0167074Y0093503D01*
X0166731Y0092830D01*
X0166287Y0092219D01*
X0165753Y0091684D01*
X0165142Y0091240D01*
X0165247Y0091317D02*
X0179605Y0091317D01*
X0179710Y0091240D02*
X0180383Y0090897D01*
X0181102Y0090664D01*
X0181848Y0090546D01*
X0185026Y0090546D01*
X0185026Y0095146D01*
X0177426Y0095146D01*
X0177426Y0094968D01*
X0177544Y0094222D01*
X0177778Y0093503D01*
X0178121Y0092830D01*
X0178565Y0092219D01*
X0179099Y0091684D01*
X0179710Y0091240D01*
X0178077Y0092915D02*
X0166775Y0092915D01*
X0167354Y0094514D02*
X0177498Y0094514D01*
X0177426Y0095546D02*
X0185026Y0095546D01*
X0185026Y0100146D01*
X0181848Y0100146D01*
X0181102Y0100027D01*
X0180383Y0099794D01*
X0179710Y0099451D01*
X0179099Y0099007D01*
X0178565Y0098473D01*
X0178121Y0097861D01*
X0177778Y0097188D01*
X0177544Y0096470D01*
X0177426Y0095723D01*
X0177426Y0095546D01*
X0177488Y0096112D02*
X0167364Y0096112D01*
X0167308Y0096470D02*
X0167074Y0097188D01*
X0166731Y0097861D01*
X0166287Y0098473D01*
X0165753Y0099007D01*
X0165142Y0099451D01*
X0164469Y0099794D01*
X0163750Y0100027D01*
X0163004Y0100146D01*
X0159826Y0100146D01*
X0159826Y0095546D01*
X0167426Y0095546D01*
X0167426Y0095723D01*
X0167308Y0096470D01*
X0166808Y0097711D02*
X0178044Y0097711D01*
X0179515Y0099309D02*
X0165337Y0099309D01*
X0164469Y0100656D02*
X0165142Y0100999D01*
X0165753Y0101443D01*
X0166287Y0101978D01*
X0166731Y0102589D01*
X0167074Y0103262D01*
X0167308Y0103981D01*
X0167426Y0104727D01*
X0167426Y0104905D01*
X0159826Y0104905D01*
X0159826Y0105305D01*
X0159426Y0105305D01*
X0159426Y0109905D01*
X0156248Y0109905D01*
X0155502Y0109787D01*
X0154783Y0109553D01*
X0154110Y0109210D01*
X0153499Y0108766D01*
X0152965Y0108232D01*
X0152521Y0107620D01*
X0152178Y0106947D01*
X0151944Y0106229D01*
X0151826Y0105482D01*
X0151826Y0105305D01*
X0159426Y0105305D01*
X0159426Y0104905D01*
X0151826Y0104905D01*
X0151826Y0104727D01*
X0151944Y0103981D01*
X0152178Y0103262D01*
X0152521Y0102589D01*
X0152965Y0101978D01*
X0153499Y0101443D01*
X0154110Y0100999D01*
X0154783Y0100656D01*
X0155502Y0100423D01*
X0156248Y0100305D01*
X0159426Y0100305D01*
X0159426Y0104905D01*
X0159826Y0104905D01*
X0159826Y0100305D01*
X0163004Y0100305D01*
X0163750Y0100423D01*
X0164469Y0100656D01*
X0164962Y0100908D02*
X0179890Y0100908D01*
X0179710Y0100999D02*
X0180383Y0100656D01*
X0181102Y0100423D01*
X0181848Y0100305D01*
X0185026Y0100305D01*
X0185026Y0104905D01*
X0177426Y0104905D01*
X0177426Y0104727D01*
X0177544Y0103981D01*
X0177778Y0103262D01*
X0178121Y0102589D01*
X0178565Y0101978D01*
X0179099Y0101443D01*
X0179710Y0100999D01*
X0178181Y0102506D02*
X0166671Y0102506D01*
X0167327Y0104105D02*
X0177525Y0104105D01*
X0177426Y0105305D02*
X0185026Y0105305D01*
X0185026Y0109905D01*
X0181848Y0109905D01*
X0181102Y0109787D01*
X0180383Y0109553D01*
X0179710Y0109210D01*
X0179099Y0108766D01*
X0178565Y0108232D01*
X0178121Y0107620D01*
X0177778Y0106947D01*
X0177544Y0106229D01*
X0177426Y0105482D01*
X0177426Y0105305D01*
X0177461Y0105703D02*
X0167391Y0105703D01*
X0167426Y0105482D02*
X0167308Y0106229D01*
X0167074Y0106947D01*
X0166731Y0107620D01*
X0166287Y0108232D01*
X0165753Y0108766D01*
X0165142Y0109210D01*
X0164469Y0109553D01*
X0163750Y0109787D01*
X0163004Y0109905D01*
X0159826Y0109905D01*
X0159826Y0105305D01*
X0167426Y0105305D01*
X0167426Y0105482D01*
X0166894Y0107302D02*
X0177958Y0107302D01*
X0179284Y0108900D02*
X0165568Y0108900D01*
X0159826Y0108900D02*
X0159426Y0108900D01*
X0159426Y0107302D02*
X0159826Y0107302D01*
X0159826Y0105703D02*
X0159426Y0105703D01*
X0159426Y0104105D02*
X0159826Y0104105D01*
X0159826Y0102506D02*
X0159426Y0102506D01*
X0159426Y0100908D02*
X0159826Y0100908D01*
X0159826Y0099309D02*
X0159426Y0099309D01*
X0159426Y0097711D02*
X0159826Y0097711D01*
X0159826Y0096112D02*
X0159426Y0096112D01*
X0159426Y0094514D02*
X0159826Y0094514D01*
X0159826Y0092915D02*
X0159426Y0092915D01*
X0159426Y0091317D02*
X0159826Y0091317D01*
X0154005Y0091317D02*
X0151956Y0091317D01*
X0152046Y0089718D02*
X0172985Y0089718D01*
X0171843Y0083324D02*
X0203028Y0083324D01*
X0203028Y0081726D02*
X0190637Y0081726D01*
X0192335Y0080127D02*
X0203028Y0080127D01*
X0203028Y0078529D02*
X0192997Y0078529D01*
X0193010Y0076930D02*
X0203028Y0076930D01*
X0203028Y0075332D02*
X0192487Y0075332D01*
X0191179Y0073733D02*
X0203028Y0073733D01*
X0203028Y0072134D02*
X0199445Y0072134D01*
X0201044Y0070536D02*
X0203028Y0070536D01*
X0203028Y0068937D02*
X0201683Y0068937D01*
X0201683Y0067339D02*
X0203028Y0067339D01*
X0203028Y0065740D02*
X0201683Y0065740D01*
X0201683Y0064142D02*
X0203028Y0064142D01*
X0203028Y0062543D02*
X0201683Y0062543D01*
X0201683Y0060945D02*
X0203028Y0060945D01*
X0203028Y0059346D02*
X0201683Y0059346D01*
X0201460Y0057748D02*
X0203028Y0057748D01*
X0203028Y0056149D02*
X0200281Y0056149D01*
X0198229Y0054551D02*
X0203028Y0054551D01*
X0203028Y0052952D02*
X0191380Y0052952D01*
X0191380Y0051354D02*
X0203028Y0051354D01*
X0203028Y0049755D02*
X0191202Y0049755D01*
X0189949Y0048157D02*
X0203028Y0048157D01*
X0203028Y0046558D02*
X0188351Y0046558D01*
X0186752Y0044960D02*
X0203028Y0044960D01*
X0203028Y0043361D02*
X0185154Y0043361D01*
X0183555Y0041763D02*
X0203028Y0041763D01*
X0203028Y0040164D02*
X0181957Y0040164D01*
X0180358Y0038566D02*
X0203028Y0038566D01*
X0203028Y0036967D02*
X0179096Y0036967D01*
X0179096Y0035369D02*
X0203028Y0035369D01*
X0203028Y0033770D02*
X0179096Y0033770D01*
X0179096Y0032172D02*
X0203028Y0032172D01*
X0203028Y0030573D02*
X0179096Y0030573D01*
X0179096Y0028975D02*
X0203028Y0028975D01*
X0203028Y0027376D02*
X0179096Y0027376D01*
X0179096Y0025778D02*
X0203028Y0025778D01*
X0203028Y0024179D02*
X0179096Y0024179D01*
X0173559Y0024179D02*
X0148752Y0024179D01*
X0148752Y0022581D02*
X0151217Y0022581D01*
X0149818Y0020982D02*
X0148752Y0020982D01*
X0148752Y0025778D02*
X0173559Y0025778D01*
X0173559Y0027376D02*
X0148752Y0027376D01*
X0150223Y0028975D02*
X0173559Y0028975D01*
X0173559Y0030573D02*
X0150453Y0030573D01*
X0150453Y0032172D02*
X0173559Y0032172D01*
X0173559Y0033770D02*
X0150019Y0033770D01*
X0150453Y0035369D02*
X0173559Y0035369D01*
X0173559Y0036967D02*
X0150453Y0036967D01*
X0149933Y0038566D02*
X0173559Y0038566D01*
X0174126Y0040164D02*
X0150453Y0040164D01*
X0150453Y0041763D02*
X0175725Y0041763D01*
X0177323Y0043361D02*
X0150137Y0043361D01*
X0150453Y0044960D02*
X0178922Y0044960D01*
X0180520Y0046558D02*
X0150453Y0046558D01*
X0150342Y0048157D02*
X0182119Y0048157D01*
X0183717Y0049755D02*
X0154574Y0049755D01*
X0154574Y0051354D02*
X0185316Y0051354D01*
X0185843Y0052952D02*
X0154574Y0052952D01*
X0154574Y0054551D02*
X0185843Y0054551D01*
X0185843Y0056149D02*
X0154067Y0056149D01*
X0154574Y0057748D02*
X0185843Y0057748D01*
X0182102Y0059346D02*
X0181734Y0059346D01*
X0181734Y0060945D02*
X0182102Y0060945D01*
X0181734Y0062109D02*
X0177953Y0062109D01*
X0177953Y0064130D01*
X0178076Y0064588D01*
X0178312Y0064999D01*
X0178648Y0065334D01*
X0179058Y0065571D01*
X0179516Y0065693D01*
X0181734Y0065693D01*
X0181734Y0062109D01*
X0181734Y0062543D02*
X0182102Y0062543D01*
X0182102Y0064142D02*
X0181734Y0064142D01*
X0177956Y0064142D02*
X0157957Y0064142D01*
X0157957Y0065740D02*
X0196146Y0065740D01*
X0196146Y0067339D02*
X0160451Y0067339D01*
X0162578Y0068937D02*
X0178399Y0068937D01*
X0176801Y0070536D02*
X0163224Y0070536D01*
X0163224Y0072134D02*
X0175202Y0072134D01*
X0173604Y0073733D02*
X0165579Y0073733D01*
X0166887Y0075332D02*
X0172005Y0075332D01*
X0170407Y0076930D02*
X0167410Y0076930D01*
X0167397Y0078529D02*
X0168808Y0078529D01*
X0167210Y0080127D02*
X0166735Y0080127D01*
X0165611Y0081726D02*
X0165037Y0081726D01*
X0173442Y0081726D02*
X0179815Y0081726D01*
X0178117Y0080127D02*
X0175040Y0080127D01*
X0176639Y0078529D02*
X0177455Y0078529D01*
X0185426Y0090546D02*
X0188604Y0090546D01*
X0189350Y0090664D01*
X0190069Y0090897D01*
X0190742Y0091240D01*
X0191353Y0091684D01*
X0191887Y0092219D01*
X0192331Y0092830D01*
X0192674Y0093503D01*
X0192908Y0094222D01*
X0193026Y0094968D01*
X0193026Y0095146D01*
X0185426Y0095146D01*
X0185426Y0095546D01*
X0185026Y0095546D01*
X0185026Y0095146D01*
X0185426Y0095146D01*
X0185426Y0090546D01*
X0185426Y0091317D02*
X0185026Y0091317D01*
X0185026Y0092915D02*
X0185426Y0092915D01*
X0185426Y0094514D02*
X0185026Y0094514D01*
X0185426Y0095546D02*
X0193026Y0095546D01*
X0193026Y0095723D01*
X0192908Y0096470D01*
X0192674Y0097188D01*
X0192331Y0097861D01*
X0191887Y0098473D01*
X0191353Y0099007D01*
X0190742Y0099451D01*
X0190069Y0099794D01*
X0189350Y0100027D01*
X0188604Y0100146D01*
X0185426Y0100146D01*
X0185426Y0095546D01*
X0185426Y0096112D02*
X0185026Y0096112D01*
X0185026Y0097711D02*
X0185426Y0097711D01*
X0185426Y0099309D02*
X0185026Y0099309D01*
X0185426Y0100305D02*
X0188604Y0100305D01*
X0189350Y0100423D01*
X0190069Y0100656D01*
X0190742Y0100999D01*
X0191353Y0101443D01*
X0191887Y0101978D01*
X0192331Y0102589D01*
X0192674Y0103262D01*
X0192908Y0103981D01*
X0193026Y0104727D01*
X0193026Y0104905D01*
X0185426Y0104905D01*
X0185426Y0105305D01*
X0185026Y0105305D01*
X0185026Y0104905D01*
X0185426Y0104905D01*
X0185426Y0100305D01*
X0185426Y0100908D02*
X0185026Y0100908D01*
X0185026Y0102506D02*
X0185426Y0102506D01*
X0185426Y0104105D02*
X0185026Y0104105D01*
X0185426Y0105305D02*
X0193026Y0105305D01*
X0193026Y0105482D01*
X0192908Y0106229D01*
X0192674Y0106947D01*
X0192331Y0107620D01*
X0191887Y0108232D01*
X0191353Y0108766D01*
X0190742Y0109210D01*
X0190069Y0109553D01*
X0189350Y0109787D01*
X0188604Y0109905D01*
X0185426Y0109905D01*
X0185426Y0105305D01*
X0185426Y0105703D02*
X0185026Y0105703D01*
X0185026Y0107302D02*
X0185426Y0107302D01*
X0185426Y0108900D02*
X0185026Y0108900D01*
X0191168Y0108900D02*
X0196318Y0108900D01*
X0196318Y0107302D02*
X0192494Y0107302D01*
X0192991Y0105703D02*
X0196318Y0105703D01*
X0196318Y0104105D02*
X0192927Y0104105D01*
X0192271Y0102506D02*
X0196318Y0102506D01*
X0196318Y0100908D02*
X0190562Y0100908D01*
X0190937Y0099309D02*
X0196318Y0099309D01*
X0196318Y0097711D02*
X0192408Y0097711D01*
X0192964Y0096112D02*
X0196318Y0096112D01*
X0196318Y0094514D02*
X0192954Y0094514D01*
X0192375Y0092915D02*
X0195862Y0092915D01*
X0194263Y0091317D02*
X0190847Y0091317D01*
X0196318Y0110499D02*
X0152046Y0110499D01*
X0151859Y0108900D02*
X0153684Y0108900D01*
X0152358Y0107302D02*
X0150939Y0107302D01*
X0151861Y0105703D02*
X0123861Y0105703D01*
X0122262Y0104105D02*
X0145572Y0104105D01*
X0144385Y0107302D02*
X0125459Y0107302D01*
X0122196Y0110499D02*
X0122046Y0110499D01*
X0121632Y0112097D02*
X0123794Y0112097D01*
X0121853Y0113696D02*
X0144933Y0113696D01*
X0144794Y0116893D02*
X0125050Y0116893D01*
X0123452Y0115294D02*
X0174735Y0115294D01*
X0174358Y0116893D02*
X0150530Y0116893D01*
X0151689Y0118491D02*
X0154779Y0118491D01*
X0152675Y0120090D02*
X0152046Y0120090D01*
X0151951Y0121688D02*
X0151802Y0121688D01*
X0151842Y0123287D02*
X0150801Y0123287D01*
X0152268Y0124885D02*
X0133515Y0124885D01*
X0132847Y0131564D02*
X0132847Y0131583D01*
X0132391Y0132684D01*
X0131548Y0133526D01*
X0130448Y0133982D01*
X0129257Y0133982D01*
X0128927Y0133845D01*
X0128927Y0134899D01*
X0128288Y0135537D01*
X0128927Y0136176D01*
X0128927Y0141592D01*
X0127882Y0142637D01*
X0125203Y0142637D01*
X0126542Y0143976D01*
X0129969Y0143976D01*
X0131014Y0145021D01*
X0131014Y0150436D01*
X0130375Y0151075D01*
X0131014Y0151714D01*
X0131014Y0155569D01*
X0134211Y0158766D01*
X0148894Y0158766D01*
X0149305Y0158354D01*
X0150644Y0157016D01*
X0152277Y0157016D01*
X0152531Y0156761D01*
X0153632Y0156306D01*
X0154498Y0156306D01*
X0154189Y0155996D01*
X0153733Y0154896D01*
X0153733Y0153704D01*
X0154189Y0152604D01*
X0155031Y0151761D01*
X0156130Y0151306D01*
X0150536Y0151306D01*
X0150536Y0151720D01*
X0149491Y0152765D01*
X0148552Y0152765D01*
X0148154Y0153163D01*
X0145558Y0155760D01*
X0144540Y0156181D01*
X0135289Y0156181D01*
X0134271Y0155760D01*
X0133493Y0154981D01*
X0133077Y0154565D01*
X0132531Y0154339D01*
X0131689Y0153496D01*
X0131233Y0152396D01*
X0131233Y0151204D01*
X0131689Y0150104D01*
X0132531Y0149261D01*
X0133632Y0148806D01*
X0134823Y0148806D01*
X0135923Y0149261D01*
X0135928Y0149266D01*
X0135928Y0149197D01*
X0139709Y0149197D01*
X0139709Y0148828D01*
X0140077Y0148828D01*
X0140077Y0145244D01*
X0142275Y0145244D01*
X0141495Y0144464D01*
X0140843Y0142890D01*
X0140843Y0141185D01*
X0141495Y0139611D01*
X0142700Y0138405D01*
X0144275Y0137753D01*
X0145979Y0137753D01*
X0147554Y0138405D01*
X0148759Y0139611D01*
X0148818Y0139753D01*
X0151071Y0139753D01*
X0151270Y0139273D01*
X0152112Y0138430D01*
X0153213Y0137974D01*
X0154404Y0137974D01*
X0155505Y0138430D01*
X0156347Y0139273D01*
X0156803Y0140373D01*
X0156803Y0141564D01*
X0156347Y0142665D01*
X0155505Y0143507D01*
X0154404Y0143963D01*
X0154044Y0143963D01*
X0153686Y0144322D01*
X0148818Y0144322D01*
X0148759Y0144464D01*
X0147964Y0145260D01*
X0149491Y0145260D01*
X0150000Y0145769D01*
X0157084Y0145769D01*
X0157084Y0136249D01*
X0157505Y0135232D01*
X0158284Y0134453D01*
X0160581Y0132156D01*
X0160068Y0131643D01*
X0133039Y0131643D01*
X0132847Y0131564D01*
X0132197Y0132878D02*
X0159859Y0132878D01*
X0158260Y0134476D02*
X0128927Y0134476D01*
X0128825Y0136075D02*
X0157156Y0136075D01*
X0157084Y0137673D02*
X0128927Y0137673D01*
X0128927Y0139272D02*
X0141834Y0139272D01*
X0140973Y0140870D02*
X0128927Y0140870D01*
X0128049Y0142469D02*
X0140843Y0142469D01*
X0141331Y0144068D02*
X0130061Y0144068D01*
X0131014Y0145666D02*
X0136560Y0145666D01*
X0136623Y0145604D02*
X0137033Y0145367D01*
X0137491Y0145244D01*
X0139709Y0145244D01*
X0139709Y0148828D01*
X0135928Y0148828D01*
X0135928Y0146807D01*
X0136051Y0146349D01*
X0136288Y0145939D01*
X0136623Y0145604D01*
X0135928Y0147265D02*
X0131014Y0147265D01*
X0131014Y0148863D02*
X0133493Y0148863D01*
X0134962Y0148863D02*
X0139709Y0148863D01*
X0139709Y0147265D02*
X0140077Y0147265D01*
X0140077Y0145666D02*
X0139709Y0145666D01*
X0131540Y0150462D02*
X0130989Y0150462D01*
X0131014Y0152060D02*
X0131233Y0152060D01*
X0131014Y0153659D02*
X0131851Y0153659D01*
X0131014Y0155257D02*
X0133769Y0155257D01*
X0132301Y0156856D02*
X0152437Y0156856D01*
X0153882Y0155257D02*
X0146060Y0155257D01*
X0147659Y0153659D02*
X0153752Y0153659D01*
X0154732Y0152060D02*
X0150196Y0152060D01*
X0149897Y0145666D02*
X0157084Y0145666D01*
X0157084Y0144068D02*
X0153940Y0144068D01*
X0156428Y0142469D02*
X0157084Y0142469D01*
X0157084Y0140870D02*
X0156803Y0140870D01*
X0157084Y0139272D02*
X0156346Y0139272D01*
X0151270Y0139272D02*
X0148420Y0139272D01*
X0163983Y0136585D02*
X0164446Y0136585D01*
X0164446Y0140366D01*
X0164815Y0140366D01*
X0164815Y0136585D01*
X0166836Y0136585D01*
X0167294Y0136707D01*
X0167704Y0136944D01*
X0167988Y0137228D01*
X0168616Y0136600D01*
X0174031Y0136600D01*
X0174226Y0136795D01*
X0175256Y0135766D01*
X0180178Y0135766D01*
X0180260Y0135567D01*
X0181494Y0134333D01*
X0183105Y0133666D01*
X0184849Y0133666D01*
X0186461Y0134333D01*
X0187694Y0135567D01*
X0187853Y0135951D01*
X0190155Y0133650D01*
X0191977Y0133650D01*
X0191977Y0138050D01*
X0191977Y0142450D01*
X0190155Y0142450D01*
X0187853Y0140149D01*
X0187694Y0140533D01*
X0186461Y0141767D01*
X0184849Y0142434D01*
X0183105Y0142434D01*
X0181494Y0141767D01*
X0180260Y0140533D01*
X0180178Y0140334D01*
X0177148Y0140334D01*
X0176933Y0140550D01*
X0177961Y0141579D01*
X0177961Y0141712D01*
X0178216Y0141966D01*
X0178672Y0143067D01*
X0178672Y0144100D01*
X0181088Y0144100D01*
X0181716Y0144728D01*
X0182000Y0144444D01*
X0182410Y0144207D01*
X0182868Y0144085D01*
X0184889Y0144085D01*
X0184889Y0147866D01*
X0185258Y0147866D01*
X0185258Y0148234D01*
X0188842Y0148234D01*
X0188842Y0148451D01*
X0194632Y0148451D01*
X0195677Y0149496D01*
X0195677Y0154911D01*
X0195038Y0155550D01*
X0195677Y0156189D01*
X0195677Y0161604D01*
X0194632Y0162649D01*
X0194011Y0162649D01*
X0194011Y0163496D01*
X0193459Y0164048D01*
X0193459Y0164408D01*
X0193003Y0165509D01*
X0192161Y0166351D01*
X0191060Y0166807D01*
X0190962Y0166807D01*
X0190972Y0166829D01*
X0190972Y0168021D01*
X0190516Y0169121D01*
X0190261Y0169376D01*
X0190261Y0170210D01*
X0196318Y0164154D01*
X0196318Y0139932D01*
X0193800Y0142450D01*
X0191977Y0142450D01*
X0191977Y0138050D01*
X0191977Y0138050D01*
X0191977Y0138050D01*
X0191977Y0133650D01*
X0193800Y0133650D01*
X0196318Y0136168D01*
X0196318Y0127999D01*
X0194699Y0129618D01*
X0193920Y0130397D01*
X0192903Y0130818D01*
X0169749Y0130818D01*
X0166843Y0133724D01*
X0166843Y0133724D01*
X0166064Y0134503D01*
X0163983Y0136585D01*
X0164492Y0136075D02*
X0174947Y0136075D01*
X0169288Y0131279D02*
X0196318Y0131279D01*
X0196318Y0129681D02*
X0194637Y0129681D01*
X0196235Y0128082D02*
X0196318Y0128082D01*
X0196318Y0132878D02*
X0167689Y0132878D01*
X0166091Y0134476D02*
X0181350Y0134476D01*
X0186604Y0134476D02*
X0189328Y0134476D01*
X0191977Y0134476D02*
X0191977Y0134476D01*
X0191977Y0136075D02*
X0191977Y0136075D01*
X0191977Y0137673D02*
X0191977Y0137673D01*
X0191977Y0139272D02*
X0191977Y0139272D01*
X0191977Y0140870D02*
X0191977Y0140870D01*
X0195379Y0140870D02*
X0196318Y0140870D01*
X0196318Y0142469D02*
X0178424Y0142469D01*
X0178672Y0144068D02*
X0196318Y0144068D01*
X0196318Y0145666D02*
X0188842Y0145666D01*
X0188842Y0145648D02*
X0188842Y0147866D01*
X0185258Y0147866D01*
X0185258Y0144085D01*
X0187279Y0144085D01*
X0187737Y0144207D01*
X0188147Y0144444D01*
X0188482Y0144779D01*
X0188719Y0145190D01*
X0188842Y0145648D01*
X0188842Y0147265D02*
X0196318Y0147265D01*
X0196318Y0148863D02*
X0195044Y0148863D01*
X0195677Y0150462D02*
X0196318Y0150462D01*
X0196318Y0152060D02*
X0195677Y0152060D01*
X0195677Y0153659D02*
X0196318Y0153659D01*
X0196318Y0155257D02*
X0195331Y0155257D01*
X0195677Y0156856D02*
X0196318Y0156856D01*
X0196318Y0158454D02*
X0195677Y0158454D01*
X0195677Y0160053D02*
X0196318Y0160053D01*
X0196318Y0161651D02*
X0195630Y0161651D01*
X0196318Y0163250D02*
X0194011Y0163250D01*
X0193277Y0164848D02*
X0195624Y0164848D01*
X0194025Y0166447D02*
X0191930Y0166447D01*
X0192427Y0168045D02*
X0190961Y0168045D01*
X0190828Y0169644D02*
X0190261Y0169644D01*
X0185693Y0169644D02*
X0184469Y0169644D01*
X0184347Y0169348D02*
X0184999Y0170923D01*
X0184999Y0171573D01*
X0185693Y0170879D01*
X0185693Y0169376D01*
X0185439Y0169121D01*
X0184983Y0168021D01*
X0184983Y0166829D01*
X0185439Y0165729D01*
X0186281Y0164886D01*
X0187382Y0164431D01*
X0187479Y0164431D01*
X0187470Y0164408D01*
X0187470Y0163217D01*
X0187926Y0162116D01*
X0188108Y0161934D01*
X0187778Y0161604D01*
X0187778Y0156189D01*
X0188416Y0155550D01*
X0187778Y0154911D01*
X0187778Y0154084D01*
X0180554Y0154084D01*
X0181049Y0154579D01*
X0181049Y0163946D01*
X0179711Y0165284D01*
X0176941Y0168054D01*
X0177048Y0168099D01*
X0177690Y0168741D01*
X0178288Y0168143D01*
X0179862Y0167491D01*
X0181567Y0167491D01*
X0183141Y0168143D01*
X0184347Y0169348D01*
X0184993Y0168045D02*
X0182905Y0168045D01*
X0185141Y0166447D02*
X0178548Y0166447D01*
X0178524Y0168045D02*
X0176950Y0168045D01*
X0179711Y0165284D02*
X0179711Y0165284D01*
X0180147Y0164848D02*
X0186373Y0164848D01*
X0187470Y0163250D02*
X0181049Y0163250D01*
X0181049Y0161651D02*
X0187825Y0161651D01*
X0187778Y0160053D02*
X0181049Y0160053D01*
X0181049Y0158454D02*
X0187778Y0158454D01*
X0187778Y0156856D02*
X0181049Y0156856D01*
X0181049Y0155257D02*
X0188124Y0155257D01*
X0185258Y0147265D02*
X0184889Y0147265D01*
X0184889Y0145666D02*
X0185258Y0145666D01*
X0187357Y0140870D02*
X0188575Y0140870D01*
X0194626Y0134476D02*
X0196318Y0134476D01*
X0196318Y0136075D02*
X0196225Y0136075D01*
X0180597Y0140870D02*
X0177253Y0140870D01*
X0164815Y0139272D02*
X0164446Y0139272D01*
X0164446Y0137673D02*
X0164815Y0137673D01*
X0166064Y0134503D02*
X0166064Y0134503D01*
X0164655Y0128082D02*
X0164337Y0128082D01*
X0165813Y0126484D02*
X0166253Y0126484D01*
X0166984Y0124885D02*
X0177868Y0124885D01*
X0177442Y0123287D02*
X0167410Y0123287D01*
X0167301Y0121688D02*
X0177551Y0121688D01*
X0178275Y0120090D02*
X0166577Y0120090D01*
X0164473Y0118491D02*
X0174812Y0118491D01*
X0194702Y0115294D02*
X0196318Y0115294D01*
X0196318Y0113696D02*
X0150392Y0113696D01*
X0151632Y0112097D02*
X0196318Y0112097D01*
X0174269Y0154619D02*
X0173776Y0154415D01*
X0173776Y0157317D01*
X0172731Y0158362D01*
X0172308Y0158362D01*
X0172308Y0158603D01*
X0171826Y0159085D01*
X0173529Y0159085D01*
X0173987Y0159207D01*
X0174397Y0159444D01*
X0174732Y0159779D01*
X0174969Y0160190D01*
X0175092Y0160648D01*
X0175092Y0162866D01*
X0171508Y0162866D01*
X0171508Y0163234D01*
X0175092Y0163234D01*
X0175092Y0163442D01*
X0176480Y0162054D01*
X0176480Y0156471D01*
X0174629Y0154619D01*
X0174269Y0154619D01*
X0173776Y0155257D02*
X0175266Y0155257D01*
X0176480Y0156856D02*
X0173776Y0156856D01*
X0172308Y0158454D02*
X0176480Y0158454D01*
X0176480Y0160053D02*
X0174890Y0160053D01*
X0175092Y0161651D02*
X0176480Y0161651D01*
X0175285Y0163250D02*
X0175092Y0163250D01*
X0164992Y0167000D02*
X0161923Y0167000D01*
X0160878Y0165954D01*
X0160878Y0161681D01*
X0156491Y0157294D01*
X0156456Y0157294D01*
X0156766Y0157604D01*
X0157222Y0158704D01*
X0157222Y0159896D01*
X0156766Y0160996D01*
X0155923Y0161839D01*
X0154823Y0162294D01*
X0153632Y0162294D01*
X0152531Y0161839D01*
X0152406Y0161714D01*
X0150786Y0163334D01*
X0132319Y0163334D01*
X0130980Y0161996D01*
X0127158Y0158174D01*
X0124160Y0158174D01*
X0123115Y0157129D01*
X0123115Y0151714D01*
X0123754Y0151075D01*
X0123115Y0150436D01*
X0123115Y0147009D01*
X0119940Y0143834D01*
X0119522Y0143834D01*
X0119522Y0144908D01*
X0119066Y0146009D01*
X0118223Y0146851D01*
X0117123Y0147307D01*
X0115932Y0147307D01*
X0115724Y0147221D01*
X0115724Y0152791D01*
X0127061Y0164128D01*
X0143636Y0164128D01*
X0148346Y0168839D01*
X0148439Y0168616D01*
X0149281Y0167774D01*
X0150382Y0167318D01*
X0151573Y0167318D01*
X0151607Y0167332D01*
X0151607Y0166355D01*
X0152652Y0165310D01*
X0159642Y0165310D01*
X0160687Y0166355D01*
X0160687Y0174920D01*
X0159642Y0175965D01*
X0159367Y0175965D01*
X0159437Y0175994D01*
X0160783Y0177340D01*
X0161511Y0179098D01*
X0161511Y0187002D01*
X0160783Y0188760D01*
X0160652Y0188891D01*
X0162802Y0188891D01*
X0162671Y0188760D01*
X0161943Y0187002D01*
X0161943Y0179098D01*
X0162671Y0177340D01*
X0164017Y0175994D01*
X0165466Y0175394D01*
X0164992Y0174920D01*
X0164992Y0167000D01*
X0164992Y0168045D02*
X0160687Y0168045D01*
X0160687Y0166447D02*
X0161370Y0166447D01*
X0160878Y0164848D02*
X0144356Y0164848D01*
X0145954Y0166447D02*
X0151607Y0166447D01*
X0149010Y0168045D02*
X0147553Y0168045D01*
X0150870Y0163250D02*
X0160878Y0163250D01*
X0160848Y0161651D02*
X0156111Y0161651D01*
X0157157Y0160053D02*
X0159249Y0160053D01*
X0157651Y0158454D02*
X0157118Y0158454D01*
X0149205Y0158454D02*
X0133899Y0158454D01*
X0130635Y0161651D02*
X0124584Y0161651D01*
X0126182Y0163250D02*
X0132234Y0163250D01*
X0129037Y0160053D02*
X0122985Y0160053D01*
X0121387Y0158454D02*
X0127438Y0158454D01*
X0123115Y0156856D02*
X0119788Y0156856D01*
X0118190Y0155257D02*
X0123115Y0155257D01*
X0123115Y0153659D02*
X0116591Y0153659D01*
X0115724Y0152060D02*
X0123115Y0152060D01*
X0123141Y0150462D02*
X0115724Y0150462D01*
X0115724Y0148863D02*
X0123115Y0148863D01*
X0123115Y0147265D02*
X0117225Y0147265D01*
X0115829Y0147265D02*
X0115724Y0147265D01*
X0119208Y0145666D02*
X0121772Y0145666D01*
X0120173Y0144068D02*
X0119522Y0144068D01*
X0117758Y0134476D02*
X0117389Y0134476D01*
X0117389Y0132878D02*
X0117758Y0132878D01*
X0121028Y0131279D02*
X0106576Y0131279D01*
X0106576Y0129681D02*
X0121028Y0129681D01*
X0122226Y0128082D02*
X0106576Y0128082D01*
X0110261Y0126496D02*
X0110261Y0126496D01*
X0110274Y0126484D02*
X0121806Y0126484D01*
X0122187Y0124885D02*
X0111872Y0124885D01*
X0113471Y0123287D02*
X0114524Y0123287D01*
X0120801Y0123287D02*
X0124296Y0123287D01*
X0125659Y0123287D02*
X0144524Y0123287D01*
X0149753Y0104105D02*
X0151925Y0104105D01*
X0151463Y0102506D02*
X0152581Y0102506D01*
X0152046Y0100908D02*
X0154290Y0100908D01*
X0153915Y0099309D02*
X0152028Y0099309D01*
X0152444Y0097711D02*
X0151348Y0097711D01*
X0151888Y0096112D02*
X0149189Y0096112D01*
X0148766Y0094514D02*
X0151898Y0094514D01*
X0152477Y0092915D02*
X0151173Y0092915D01*
X0151786Y0081726D02*
X0154215Y0081726D01*
X0152517Y0080127D02*
X0152046Y0080127D01*
X0151855Y0078529D02*
X0151705Y0078529D01*
X0151842Y0076930D02*
X0150567Y0076930D01*
X0152365Y0075332D02*
X0147789Y0075332D01*
X0149387Y0073733D02*
X0153673Y0073733D01*
X0154574Y0062543D02*
X0177953Y0062543D01*
X0177953Y0060945D02*
X0154574Y0060945D01*
X0154574Y0059346D02*
X0178053Y0059346D01*
X0191380Y0057748D02*
X0194620Y0057748D01*
X0194779Y0059346D02*
X0192561Y0059346D01*
X0191380Y0056149D02*
X0194948Y0056149D01*
X0197000Y0054551D02*
X0191380Y0054551D01*
X0171217Y0022581D02*
X0166812Y0022581D01*
X0166725Y0022668D02*
X0164966Y0023397D01*
X0163063Y0023397D01*
X0161305Y0022668D01*
X0159959Y0021323D01*
X0159230Y0019564D01*
X0159230Y0011661D01*
X0159959Y0009902D01*
X0161305Y0008557D01*
X0163063Y0007828D01*
X0164966Y0007828D01*
X0166725Y0008557D01*
X0168071Y0009902D01*
X0168799Y0011661D01*
X0168799Y0019564D01*
X0168071Y0021323D01*
X0166725Y0022668D01*
X0168212Y0020982D02*
X0169818Y0020982D01*
X0169230Y0019384D02*
X0168799Y0019384D01*
X0168799Y0017785D02*
X0169230Y0017785D01*
X0169230Y0016187D02*
X0168799Y0016187D01*
X0168799Y0014588D02*
X0169230Y0014588D01*
X0169230Y0012990D02*
X0168799Y0012990D01*
X0168687Y0011391D02*
X0169342Y0011391D01*
X0170069Y0009793D02*
X0167961Y0009793D01*
X0165849Y0008194D02*
X0172180Y0008194D01*
X0162180Y0008194D02*
X0155849Y0008194D01*
X0157961Y0009793D02*
X0160069Y0009793D01*
X0159342Y0011391D02*
X0158687Y0011391D01*
X0158799Y0012990D02*
X0159230Y0012990D01*
X0159230Y0014588D02*
X0158799Y0014588D01*
X0158799Y0016187D02*
X0159230Y0016187D01*
X0159230Y0017785D02*
X0158799Y0017785D01*
X0158799Y0019384D02*
X0159230Y0019384D01*
X0159818Y0020982D02*
X0158212Y0020982D01*
X0156812Y0022581D02*
X0161217Y0022581D01*
X0150069Y0009793D02*
X0147961Y0009793D01*
X0145849Y0008194D02*
X0152180Y0008194D01*
X0142180Y0008194D02*
X0135916Y0008194D01*
X0135857Y0008164D02*
X0136530Y0008507D01*
X0137142Y0008951D01*
X0137676Y0009486D01*
X0138120Y0010097D01*
X0138463Y0010770D01*
X0138696Y0011488D01*
X0138815Y0012235D01*
X0138815Y0015412D01*
X0134215Y0015412D01*
X0134215Y0007812D01*
X0134392Y0007812D01*
X0135139Y0007931D01*
X0135857Y0008164D01*
X0134215Y0008194D02*
X0133815Y0008194D01*
X0133815Y0007812D02*
X0133815Y0015412D01*
X0134215Y0015412D01*
X0134215Y0015812D01*
X0138815Y0015812D01*
X0138815Y0018990D01*
X0138696Y0019737D01*
X0138463Y0020455D01*
X0138120Y0021128D01*
X0137676Y0021739D01*
X0137142Y0022274D01*
X0136530Y0022718D01*
X0135857Y0023061D01*
X0135139Y0023294D01*
X0134392Y0023412D01*
X0134215Y0023412D01*
X0134215Y0015813D01*
X0133815Y0015813D01*
X0133815Y0023412D01*
X0133637Y0023412D01*
X0132891Y0023294D01*
X0132172Y0023061D01*
X0131499Y0022718D01*
X0130888Y0022274D01*
X0130353Y0021739D01*
X0129909Y0021128D01*
X0129566Y0020455D01*
X0129333Y0019737D01*
X0129215Y0018990D01*
X0129215Y0015812D01*
X0133815Y0015812D01*
X0133815Y0015412D01*
X0129215Y0015412D01*
X0129215Y0012235D01*
X0129333Y0011488D01*
X0129566Y0010770D01*
X0129909Y0010097D01*
X0130353Y0009486D01*
X0130888Y0008951D01*
X0131499Y0008507D01*
X0132172Y0008164D01*
X0132891Y0007931D01*
X0133637Y0007812D01*
X0133815Y0007812D01*
X0132113Y0008194D02*
X0125916Y0008194D01*
X0125857Y0008164D02*
X0126530Y0008507D01*
X0127142Y0008951D01*
X0127676Y0009486D01*
X0128120Y0010097D01*
X0128463Y0010770D01*
X0128696Y0011488D01*
X0128815Y0012235D01*
X0128815Y0015412D01*
X0124215Y0015412D01*
X0124215Y0007812D01*
X0124392Y0007812D01*
X0125139Y0007931D01*
X0125857Y0008164D01*
X0124215Y0008194D02*
X0123815Y0008194D01*
X0123815Y0007812D02*
X0123815Y0015412D01*
X0124215Y0015412D01*
X0124215Y0015812D01*
X0128815Y0015812D01*
X0128815Y0018990D01*
X0128696Y0019737D01*
X0128463Y0020455D01*
X0128120Y0021128D01*
X0127676Y0021739D01*
X0127142Y0022274D01*
X0126530Y0022718D01*
X0125857Y0023061D01*
X0125139Y0023294D01*
X0124392Y0023412D01*
X0124215Y0023412D01*
X0124215Y0015813D01*
X0123815Y0015813D01*
X0123815Y0023412D01*
X0123637Y0023412D01*
X0122891Y0023294D01*
X0122172Y0023061D01*
X0121499Y0022718D01*
X0120888Y0022274D01*
X0120353Y0021739D01*
X0119909Y0021128D01*
X0119566Y0020455D01*
X0119333Y0019737D01*
X0119215Y0018990D01*
X0119215Y0015812D01*
X0123815Y0015812D01*
X0123815Y0015412D01*
X0119215Y0015412D01*
X0119215Y0012235D01*
X0119333Y0011488D01*
X0119566Y0010770D01*
X0119909Y0010097D01*
X0120353Y0009486D01*
X0120888Y0008951D01*
X0121499Y0008507D01*
X0122172Y0008164D01*
X0122891Y0007931D01*
X0123637Y0007812D01*
X0123815Y0007812D01*
X0122113Y0008194D02*
X0115916Y0008194D01*
X0115857Y0008164D02*
X0116530Y0008507D01*
X0117142Y0008951D01*
X0117676Y0009486D01*
X0118120Y0010097D01*
X0118463Y0010770D01*
X0118696Y0011488D01*
X0118815Y0012235D01*
X0118815Y0015412D01*
X0114215Y0015412D01*
X0114215Y0007812D01*
X0114392Y0007812D01*
X0115139Y0007931D01*
X0115857Y0008164D01*
X0114215Y0008194D02*
X0113815Y0008194D01*
X0113815Y0007812D02*
X0113815Y0015412D01*
X0114215Y0015412D01*
X0114215Y0015812D01*
X0118815Y0015812D01*
X0118815Y0018990D01*
X0118696Y0019737D01*
X0118463Y0020455D01*
X0118120Y0021128D01*
X0117676Y0021739D01*
X0117142Y0022274D01*
X0116530Y0022718D01*
X0115857Y0023061D01*
X0115139Y0023294D01*
X0114392Y0023412D01*
X0114215Y0023412D01*
X0114215Y0015813D01*
X0113815Y0015813D01*
X0113815Y0023412D01*
X0113637Y0023412D01*
X0112891Y0023294D01*
X0112172Y0023061D01*
X0111499Y0022718D01*
X0110888Y0022274D01*
X0110353Y0021739D01*
X0109909Y0021128D01*
X0109566Y0020455D01*
X0109333Y0019737D01*
X0109215Y0018990D01*
X0109215Y0015812D01*
X0113815Y0015812D01*
X0113815Y0015412D01*
X0109215Y0015412D01*
X0109215Y0012235D01*
X0109333Y0011488D01*
X0109566Y0010770D01*
X0109909Y0010097D01*
X0110353Y0009486D01*
X0110888Y0008951D01*
X0111499Y0008507D01*
X0112172Y0008164D01*
X0112891Y0007931D01*
X0113637Y0007812D01*
X0113815Y0007812D01*
X0112113Y0008194D02*
X0105849Y0008194D01*
X0107961Y0009793D02*
X0110130Y0009793D01*
X0109365Y0011391D02*
X0108687Y0011391D01*
X0108799Y0012990D02*
X0109215Y0012990D01*
X0109215Y0014588D02*
X0108799Y0014588D01*
X0108799Y0016187D02*
X0109215Y0016187D01*
X0109215Y0017785D02*
X0108799Y0017785D01*
X0108799Y0019384D02*
X0109277Y0019384D01*
X0109835Y0020982D02*
X0108212Y0020982D01*
X0106812Y0022581D02*
X0111310Y0022581D01*
X0113815Y0022581D02*
X0114215Y0022581D01*
X0114215Y0020982D02*
X0113815Y0020982D01*
X0113815Y0019384D02*
X0114215Y0019384D01*
X0114215Y0017785D02*
X0113815Y0017785D01*
X0113815Y0016187D02*
X0114215Y0016187D01*
X0114215Y0014588D02*
X0113815Y0014588D01*
X0113815Y0012990D02*
X0114215Y0012990D01*
X0114215Y0011391D02*
X0113815Y0011391D01*
X0113815Y0009793D02*
X0114215Y0009793D01*
X0117899Y0009793D02*
X0120130Y0009793D01*
X0119365Y0011391D02*
X0118665Y0011391D01*
X0118815Y0012990D02*
X0119215Y0012990D01*
X0119215Y0014588D02*
X0118815Y0014588D01*
X0118815Y0016187D02*
X0119215Y0016187D01*
X0119215Y0017785D02*
X0118815Y0017785D01*
X0118752Y0019384D02*
X0119277Y0019384D01*
X0119835Y0020982D02*
X0118194Y0020982D01*
X0116719Y0022581D02*
X0121310Y0022581D01*
X0123815Y0022581D02*
X0124215Y0022581D01*
X0124215Y0020982D02*
X0123815Y0020982D01*
X0123815Y0019384D02*
X0124215Y0019384D01*
X0124215Y0017785D02*
X0123815Y0017785D01*
X0123815Y0016187D02*
X0124215Y0016187D01*
X0124215Y0014588D02*
X0123815Y0014588D01*
X0123815Y0012990D02*
X0124215Y0012990D01*
X0124215Y0011391D02*
X0123815Y0011391D01*
X0123815Y0009793D02*
X0124215Y0009793D01*
X0127899Y0009793D02*
X0130130Y0009793D01*
X0129365Y0011391D02*
X0128665Y0011391D01*
X0128815Y0012990D02*
X0129215Y0012990D01*
X0129215Y0014588D02*
X0128815Y0014588D01*
X0128815Y0016187D02*
X0129215Y0016187D01*
X0129215Y0017785D02*
X0128815Y0017785D01*
X0128752Y0019384D02*
X0129277Y0019384D01*
X0129835Y0020982D02*
X0128194Y0020982D01*
X0126719Y0022581D02*
X0131310Y0022581D01*
X0128110Y0025778D02*
X0139278Y0025778D01*
X0139278Y0027376D02*
X0128297Y0027376D01*
X0129751Y0028975D02*
X0138454Y0028975D01*
X0138223Y0030573D02*
X0129981Y0030573D01*
X0129981Y0032172D02*
X0138223Y0032172D01*
X0138658Y0033770D02*
X0129546Y0033770D01*
X0129981Y0035369D02*
X0138223Y0035369D01*
X0138223Y0036967D02*
X0129981Y0036967D01*
X0129460Y0038566D02*
X0138744Y0038566D01*
X0138223Y0040164D02*
X0129981Y0040164D01*
X0129981Y0041763D02*
X0138223Y0041763D01*
X0138540Y0043361D02*
X0129665Y0043361D01*
X0131230Y0044960D02*
X0138223Y0044960D01*
X0138223Y0046558D02*
X0133833Y0046558D01*
X0134792Y0048157D02*
X0138335Y0048157D01*
X0141270Y0049755D02*
X0134632Y0049755D01*
X0138930Y0051354D02*
X0140069Y0051354D01*
X0117751Y0044960D02*
X0113506Y0044960D01*
X0113609Y0045276D02*
X0113727Y0046022D01*
X0113727Y0046200D01*
X0106127Y0046200D01*
X0106127Y0041600D01*
X0109305Y0041600D01*
X0110051Y0041718D01*
X0110770Y0041952D01*
X0111443Y0042295D01*
X0112054Y0042739D01*
X0112588Y0043273D01*
X0113032Y0043884D01*
X0113376Y0044557D01*
X0113609Y0045276D01*
X0113727Y0046600D02*
X0113727Y0046778D01*
X0113609Y0047524D01*
X0113376Y0048243D01*
X0113032Y0048916D01*
X0112588Y0049527D01*
X0112054Y0050061D01*
X0111443Y0050505D01*
X0110770Y0050848D01*
X0110051Y0051082D01*
X0109305Y0051200D01*
X0106127Y0051200D01*
X0106127Y0046600D01*
X0105727Y0046600D01*
X0105727Y0046200D01*
X0098127Y0046200D01*
X0098127Y0046022D01*
X0098245Y0045276D01*
X0098479Y0044557D01*
X0098822Y0043884D01*
X0099266Y0043273D01*
X0099800Y0042739D01*
X0100411Y0042295D01*
X0101085Y0041952D01*
X0101803Y0041718D01*
X0102549Y0041600D01*
X0105727Y0041600D01*
X0105727Y0046200D01*
X0106127Y0046200D01*
X0106127Y0046600D01*
X0113727Y0046600D01*
X0113403Y0048157D02*
X0115135Y0048157D01*
X0113536Y0049755D02*
X0112360Y0049755D01*
X0111938Y0051354D02*
X0099818Y0051354D01*
X0100411Y0050505D02*
X0099800Y0050061D01*
X0099266Y0049527D01*
X0098822Y0048916D01*
X0098479Y0048243D01*
X0098245Y0047524D01*
X0098127Y0046778D01*
X0098127Y0046600D01*
X0105727Y0046600D01*
X0105727Y0051200D01*
X0102549Y0051200D01*
X0101803Y0051082D01*
X0101085Y0050848D01*
X0100411Y0050505D01*
X0099494Y0049755D02*
X0098219Y0049755D01*
X0098451Y0048157D02*
X0096727Y0048157D01*
X0096727Y0046558D02*
X0105727Y0046558D01*
X0106127Y0046558D02*
X0116733Y0046558D01*
X0118067Y0043361D02*
X0112653Y0043361D01*
X0110188Y0041763D02*
X0117751Y0041763D01*
X0117751Y0040164D02*
X0111912Y0040164D01*
X0112054Y0040061D02*
X0111443Y0040505D01*
X0110770Y0040848D01*
X0110051Y0041082D01*
X0109305Y0041200D01*
X0106127Y0041200D01*
X0106127Y0036600D01*
X0105727Y0036600D01*
X0105727Y0036200D01*
X0098127Y0036200D01*
X0098127Y0036022D01*
X0098245Y0035276D01*
X0098479Y0034557D01*
X0098822Y0033884D01*
X0099266Y0033273D01*
X0099800Y0032739D01*
X0100411Y0032295D01*
X0101085Y0031952D01*
X0101803Y0031718D01*
X0102549Y0031600D01*
X0105727Y0031600D01*
X0105727Y0036200D01*
X0106127Y0036200D01*
X0106127Y0031600D01*
X0109305Y0031600D01*
X0110051Y0031718D01*
X0110770Y0031952D01*
X0111443Y0032295D01*
X0112054Y0032739D01*
X0112588Y0033273D01*
X0113032Y0033884D01*
X0113376Y0034557D01*
X0113609Y0035276D01*
X0113727Y0036022D01*
X0113727Y0036200D01*
X0106127Y0036200D01*
X0106127Y0036600D01*
X0113727Y0036600D01*
X0113727Y0036778D01*
X0113609Y0037524D01*
X0113376Y0038243D01*
X0113032Y0038916D01*
X0112588Y0039527D01*
X0112054Y0040061D01*
X0113211Y0038566D02*
X0118272Y0038566D01*
X0117751Y0036967D02*
X0113697Y0036967D01*
X0113624Y0035369D02*
X0117751Y0035369D01*
X0118186Y0033770D02*
X0112950Y0033770D01*
X0111202Y0032172D02*
X0117751Y0032172D01*
X0117751Y0030573D02*
X0090575Y0030573D01*
X0092173Y0032172D02*
X0100653Y0032172D01*
X0098905Y0033770D02*
X0093772Y0033770D01*
X0095370Y0035369D02*
X0098231Y0035369D01*
X0098127Y0036600D02*
X0105727Y0036600D01*
X0105727Y0041200D01*
X0102549Y0041200D01*
X0101803Y0041082D01*
X0101085Y0040848D01*
X0100411Y0040505D01*
X0099800Y0040061D01*
X0099266Y0039527D01*
X0098822Y0038916D01*
X0098479Y0038243D01*
X0098245Y0037524D01*
X0098127Y0036778D01*
X0098127Y0036600D01*
X0098157Y0036967D02*
X0096404Y0036967D01*
X0096727Y0038566D02*
X0098644Y0038566D01*
X0099942Y0040164D02*
X0096727Y0040164D01*
X0096727Y0041763D02*
X0101666Y0041763D01*
X0099202Y0043361D02*
X0096727Y0043361D01*
X0096727Y0044960D02*
X0098348Y0044960D01*
X0105727Y0044960D02*
X0106127Y0044960D01*
X0106127Y0043361D02*
X0105727Y0043361D01*
X0105727Y0041763D02*
X0106127Y0041763D01*
X0106127Y0040164D02*
X0105727Y0040164D01*
X0105727Y0038566D02*
X0106127Y0038566D01*
X0106127Y0036967D02*
X0105727Y0036967D01*
X0105727Y0035369D02*
X0106127Y0035369D01*
X0106127Y0033770D02*
X0105727Y0033770D01*
X0105727Y0032172D02*
X0106127Y0032172D01*
X0101217Y0022581D02*
X0009777Y0022581D01*
X0009777Y0024179D02*
X0123865Y0024179D01*
X0126740Y0024179D02*
X0139278Y0024179D01*
X0139278Y0022581D02*
X0136719Y0022581D01*
X0138194Y0020982D02*
X0139278Y0020982D01*
X0139230Y0019384D02*
X0138752Y0019384D01*
X0138815Y0017785D02*
X0139230Y0017785D01*
X0139230Y0016187D02*
X0138815Y0016187D01*
X0138815Y0014588D02*
X0139230Y0014588D01*
X0139230Y0012990D02*
X0138815Y0012990D01*
X0138665Y0011391D02*
X0139342Y0011391D01*
X0140069Y0009793D02*
X0137899Y0009793D01*
X0134215Y0009793D02*
X0133815Y0009793D01*
X0133815Y0011391D02*
X0134215Y0011391D01*
X0134215Y0012990D02*
X0133815Y0012990D01*
X0133815Y0014588D02*
X0134215Y0014588D01*
X0134215Y0016187D02*
X0133815Y0016187D01*
X0133815Y0017785D02*
X0134215Y0017785D01*
X0134215Y0019384D02*
X0133815Y0019384D01*
X0133815Y0020982D02*
X0134215Y0020982D01*
X0134215Y0022581D02*
X0133815Y0022581D01*
X0117981Y0028975D02*
X0088976Y0028975D01*
X0085169Y0038566D02*
X0077025Y0038566D01*
X0067871Y0030573D02*
X0061315Y0030573D01*
X0060844Y0028975D02*
X0068533Y0028975D01*
X0069807Y0027376D02*
X0059245Y0027376D01*
X0054715Y0033770D02*
X0054315Y0033770D01*
X0054315Y0035369D02*
X0054715Y0035369D01*
X0054715Y0036967D02*
X0054315Y0036967D01*
X0054315Y0038566D02*
X0054715Y0038566D01*
X0048186Y0028975D02*
X0047440Y0028975D01*
X0044699Y0028975D02*
X0044330Y0028975D01*
X0044330Y0030573D02*
X0044699Y0030573D01*
X0044699Y0032172D02*
X0044330Y0032172D01*
X0040746Y0032172D02*
X0031387Y0032172D01*
X0032602Y0033770D02*
X0040746Y0033770D01*
X0040827Y0035369D02*
X0032999Y0035369D01*
X0025843Y0032172D02*
X0023409Y0032172D01*
X0023871Y0038566D02*
X0025380Y0038566D01*
X0024111Y0041763D02*
X0023743Y0041763D01*
X0023743Y0043361D02*
X0024111Y0043361D01*
X0009777Y0030573D02*
X0040746Y0030573D01*
X0041589Y0028975D02*
X0009777Y0028975D01*
X0009777Y0027376D02*
X0049784Y0027376D01*
X0051383Y0025778D02*
X0009777Y0025778D01*
X0009777Y0020982D02*
X0015705Y0020982D01*
X0014107Y0019384D02*
X0009777Y0019384D01*
X0009777Y0017785D02*
X0013212Y0017785D01*
X0012550Y0016187D02*
X0009866Y0016187D01*
X0010202Y0014588D02*
X0012476Y0014588D01*
X0012476Y0012990D02*
X0010630Y0012990D01*
X0011312Y0011391D02*
X0013055Y0011391D01*
X0018388Y0004662D02*
X0018388Y0004662D01*
X0089323Y0062543D02*
X0100018Y0062543D01*
X0098684Y0064142D02*
X0089326Y0064142D01*
X0089326Y0065740D02*
X0098143Y0065740D01*
X0098143Y0067339D02*
X0092250Y0067339D01*
X0093555Y0068937D02*
X0098800Y0068937D01*
X0100411Y0070536D02*
X0093999Y0070536D01*
X0105727Y0049755D02*
X0106127Y0049755D01*
X0106127Y0048157D02*
X0105727Y0048157D01*
X0122761Y0114604D02*
X0122761Y0114604D01*
X0123385Y0121688D02*
X0121802Y0121688D01*
X0106931Y0132878D02*
X0106190Y0132878D01*
X0106841Y0134476D02*
X0106931Y0134476D01*
X0106931Y0136075D02*
X0106809Y0136075D01*
X0101843Y0142859D02*
X0096744Y0142859D01*
X0095405Y0141521D01*
X0094817Y0140933D01*
X0094817Y0140434D01*
X0092198Y0140434D01*
X0092139Y0140450D01*
X0090802Y0140450D01*
X0090802Y0136150D01*
X0090802Y0136150D01*
X0090802Y0131850D01*
X0092139Y0131850D01*
X0092198Y0131866D01*
X0092378Y0131866D01*
X0092378Y0126683D01*
X0093423Y0125638D01*
X0096209Y0125638D01*
X0096209Y0124491D01*
X0095983Y0123946D01*
X0095983Y0122754D01*
X0096136Y0122384D01*
X0080568Y0122384D01*
X0080434Y0122709D01*
X0079201Y0123942D01*
X0077589Y0124609D01*
X0075845Y0124609D01*
X0075646Y0124527D01*
X0073958Y0126215D01*
X0074427Y0126683D01*
X0074427Y0132099D01*
X0073788Y0132737D01*
X0074427Y0133376D01*
X0074427Y0133800D01*
X0075319Y0133800D01*
X0075319Y0132911D01*
X0076364Y0131866D01*
X0078585Y0131866D01*
X0078585Y0130998D01*
X0079006Y0129981D01*
X0079785Y0129202D01*
X0081409Y0127578D01*
X0082426Y0127156D01*
X0086211Y0127156D01*
X0086757Y0126931D01*
X0087948Y0126931D01*
X0089048Y0127386D01*
X0089891Y0128229D01*
X0090347Y0129329D01*
X0090347Y0130521D01*
X0089891Y0131621D01*
X0089662Y0131850D01*
X0090802Y0131850D01*
X0090802Y0136150D01*
X0090802Y0136150D01*
X0090802Y0140450D01*
X0089949Y0140450D01*
X0089949Y0140787D01*
X0090203Y0141041D01*
X0090659Y0142142D01*
X0090659Y0143333D01*
X0090203Y0144434D01*
X0089361Y0145276D01*
X0088260Y0145732D01*
X0087069Y0145732D01*
X0085968Y0145276D01*
X0085126Y0144434D01*
X0084670Y0143333D01*
X0084670Y0142142D01*
X0085126Y0141041D01*
X0085380Y0140787D01*
X0085380Y0140434D01*
X0080129Y0140434D01*
X0080775Y0141080D01*
X0082736Y0143041D01*
X0082736Y0148084D01*
X0082143Y0148677D01*
X0082798Y0148949D01*
X0083641Y0149791D01*
X0084097Y0150892D01*
X0084097Y0152083D01*
X0083641Y0153184D01*
X0082798Y0154026D01*
X0082621Y0154100D01*
X0082621Y0155176D01*
X0091755Y0146041D01*
X0101843Y0146041D01*
X0101843Y0142859D01*
X0101843Y0144068D02*
X0090355Y0144068D01*
X0090659Y0142469D02*
X0096353Y0142469D01*
X0094817Y0140870D02*
X0090033Y0140870D01*
X0090802Y0139272D02*
X0090802Y0139272D01*
X0090802Y0137673D02*
X0090802Y0137673D01*
X0090802Y0136075D02*
X0090802Y0136075D01*
X0090802Y0134476D02*
X0090802Y0134476D01*
X0090802Y0132878D02*
X0090802Y0132878D01*
X0090032Y0131279D02*
X0092378Y0131279D01*
X0092378Y0129681D02*
X0090347Y0129681D01*
X0089744Y0128082D02*
X0092378Y0128082D01*
X0092577Y0126484D02*
X0074227Y0126484D01*
X0074427Y0128082D02*
X0080905Y0128082D01*
X0079306Y0129681D02*
X0074427Y0129681D01*
X0074427Y0131279D02*
X0078585Y0131279D01*
X0075352Y0132878D02*
X0073928Y0132878D01*
X0067166Y0132737D02*
X0066528Y0132099D01*
X0066528Y0127834D01*
X0065173Y0127834D01*
X0063281Y0127834D01*
X0057956Y0122509D01*
X0048217Y0122509D01*
X0052411Y0126703D01*
X0059861Y0126703D01*
X0066531Y0133373D01*
X0067166Y0132737D01*
X0067026Y0132878D02*
X0066036Y0132878D01*
X0066528Y0131279D02*
X0064437Y0131279D01*
X0062838Y0129681D02*
X0066528Y0129681D01*
X0066528Y0128082D02*
X0061240Y0128082D01*
X0061931Y0126484D02*
X0052191Y0126484D01*
X0050593Y0124885D02*
X0060332Y0124885D01*
X0058734Y0123287D02*
X0048994Y0123287D01*
X0045731Y0126484D02*
X0045648Y0126484D01*
X0045659Y0126458D02*
X0045203Y0127559D01*
X0044361Y0128401D01*
X0043260Y0128857D01*
X0042901Y0128857D01*
X0042361Y0129397D01*
X0033699Y0129397D01*
X0033699Y0136724D01*
X0033953Y0136979D01*
X0034409Y0138079D01*
X0034409Y0139203D01*
X0060900Y0139203D01*
X0057656Y0135959D01*
X0041490Y0135959D01*
X0041236Y0136214D01*
X0040135Y0136669D01*
X0038944Y0136669D01*
X0037843Y0136214D01*
X0037001Y0135371D01*
X0036545Y0134271D01*
X0036545Y0133079D01*
X0037001Y0131979D01*
X0037843Y0131136D01*
X0038944Y0130681D01*
X0040135Y0130681D01*
X0041236Y0131136D01*
X0041490Y0131391D01*
X0058088Y0131391D01*
X0057969Y0131272D01*
X0050519Y0131272D01*
X0049180Y0129934D01*
X0045659Y0126412D01*
X0045659Y0126458D01*
X0044680Y0128082D02*
X0047329Y0128082D01*
X0048928Y0129681D02*
X0033699Y0129681D01*
X0033699Y0131279D02*
X0037700Y0131279D01*
X0036629Y0132878D02*
X0033699Y0132878D01*
X0033699Y0134476D02*
X0036630Y0134476D01*
X0037705Y0136075D02*
X0033699Y0136075D01*
X0034241Y0137673D02*
X0059370Y0137673D01*
X0057772Y0136075D02*
X0041375Y0136075D01*
X0041379Y0131279D02*
X0057976Y0131279D01*
X0075288Y0124885D02*
X0096209Y0124885D01*
X0095983Y0123287D02*
X0079856Y0123287D01*
X0080566Y0140870D02*
X0085297Y0140870D01*
X0084670Y0142469D02*
X0082164Y0142469D01*
X0082736Y0144068D02*
X0084974Y0144068D01*
X0086910Y0145666D02*
X0082736Y0145666D01*
X0082736Y0147265D02*
X0090532Y0147265D01*
X0088934Y0148863D02*
X0082591Y0148863D01*
X0083918Y0150462D02*
X0087335Y0150462D01*
X0085737Y0152060D02*
X0084097Y0152060D01*
X0084138Y0153659D02*
X0083166Y0153659D01*
X0089553Y0158454D02*
X0092471Y0158454D01*
X0091698Y0156856D02*
X0091152Y0156856D01*
X0089695Y0160053D02*
X0094030Y0160053D01*
X0094389Y0161651D02*
X0094817Y0161651D01*
X0094817Y0163250D02*
X0094722Y0163250D01*
X0094817Y0164848D02*
X0094164Y0164848D01*
X0093952Y0166447D02*
X0093952Y0166447D01*
X0093952Y0168045D02*
X0093952Y0168045D01*
X0093952Y0169644D02*
X0093952Y0169644D01*
X0093952Y0171242D02*
X0093952Y0171242D01*
X0093952Y0172841D02*
X0093952Y0172841D01*
X0087652Y0169950D02*
X0087652Y0165650D01*
X0087652Y0169950D01*
X0087652Y0169950D01*
X0087652Y0169644D02*
X0087652Y0169644D01*
X0087652Y0168045D02*
X0087652Y0168045D01*
X0087652Y0166447D02*
X0087652Y0166447D01*
X0087652Y0165650D02*
X0087054Y0165650D01*
X0086850Y0165157D01*
X0084821Y0163129D01*
X0084865Y0163085D01*
X0085031Y0163251D01*
X0086132Y0163707D01*
X0087323Y0163707D01*
X0088039Y0163410D01*
X0088033Y0163424D01*
X0088033Y0165650D01*
X0087652Y0165650D01*
X0088033Y0164848D02*
X0086541Y0164848D01*
X0085029Y0163250D02*
X0084942Y0163250D01*
X0088420Y0145666D02*
X0101843Y0145666D01*
X0111527Y0184030D02*
X0111927Y0184030D01*
X0111927Y0185629D02*
X0111527Y0185629D01*
X0111527Y0187227D02*
X0111927Y0187227D01*
X0111927Y0188826D02*
X0111527Y0188826D01*
X0111527Y0190424D02*
X0111927Y0190424D01*
X0113715Y0190424D02*
X0114443Y0190424D01*
X0115595Y0192023D02*
X0068270Y0192023D01*
X0062684Y0192023D02*
X0058270Y0192023D01*
X0059869Y0190424D02*
X0061086Y0190424D01*
X0060693Y0188826D02*
X0060261Y0188826D01*
X0060261Y0187227D02*
X0060693Y0187227D01*
X0059826Y0185629D02*
X0059822Y0185629D01*
X0060261Y0179235D02*
X0060693Y0179235D01*
X0060693Y0177636D02*
X0060261Y0177636D01*
X0060231Y0176038D02*
X0060693Y0176038D01*
X0060693Y0174439D02*
X0058632Y0174439D01*
X0053193Y0172841D02*
X0041614Y0172841D01*
X0033715Y0172841D02*
X0009777Y0172841D01*
X0009777Y0174439D02*
X0033715Y0174439D01*
X0033715Y0176038D02*
X0009777Y0176038D01*
X0009777Y0177636D02*
X0033715Y0177636D01*
X0033794Y0179235D02*
X0025212Y0179235D01*
X0026811Y0180833D02*
X0033715Y0180833D01*
X0033715Y0182432D02*
X0027843Y0182432D01*
X0028505Y0184030D02*
X0033715Y0184030D01*
X0034615Y0185629D02*
X0028675Y0185629D01*
X0028675Y0187227D02*
X0040677Y0187227D01*
X0040677Y0188250D02*
X0045277Y0188250D01*
X0045277Y0192850D01*
X0043489Y0192850D01*
X0040677Y0190038D01*
X0040677Y0188250D01*
X0040677Y0188826D02*
X0028193Y0188826D01*
X0027531Y0190424D02*
X0041063Y0190424D01*
X0042662Y0192023D02*
X0026059Y0192023D01*
X0023466Y0193621D02*
X0117193Y0193621D01*
X0148144Y0188826D02*
X0152737Y0188826D01*
X0152036Y0187227D02*
X0148892Y0187227D01*
X0149027Y0185629D02*
X0151943Y0185629D01*
X0151227Y0184030D02*
X0149027Y0184030D01*
X0149027Y0182432D02*
X0149629Y0182432D01*
X0159481Y0176038D02*
X0163973Y0176038D01*
X0164992Y0174439D02*
X0160687Y0174439D01*
X0160687Y0172841D02*
X0164992Y0172841D01*
X0164992Y0171242D02*
X0160687Y0171242D01*
X0160687Y0169644D02*
X0164992Y0169644D01*
X0169367Y0175965D02*
X0169437Y0175994D01*
X0170783Y0177340D01*
X0171511Y0179098D01*
X0171511Y0187002D01*
X0170783Y0188760D01*
X0170652Y0188891D01*
X0172858Y0188891D01*
X0172622Y0188566D01*
X0172279Y0187893D01*
X0172045Y0187174D01*
X0171927Y0186428D01*
X0171927Y0183250D01*
X0176527Y0183250D01*
X0176527Y0182850D01*
X0171927Y0182850D01*
X0171927Y0179672D01*
X0172045Y0178926D01*
X0172279Y0178207D01*
X0172622Y0177534D01*
X0173066Y0176923D01*
X0173600Y0176389D01*
X0174211Y0175945D01*
X0174885Y0175602D01*
X0175603Y0175368D01*
X0176349Y0175250D01*
X0176527Y0175250D01*
X0176527Y0182850D01*
X0176927Y0182850D01*
X0176927Y0175250D01*
X0177105Y0175250D01*
X0177851Y0175368D01*
X0178570Y0175602D01*
X0179243Y0175945D01*
X0179854Y0176389D01*
X0180019Y0176553D01*
X0180513Y0176059D01*
X0179862Y0176059D01*
X0178288Y0175407D01*
X0177083Y0174202D01*
X0177024Y0174059D01*
X0175544Y0174059D01*
X0175116Y0173632D01*
X0174757Y0173632D01*
X0174073Y0173349D01*
X0174073Y0174920D01*
X0173028Y0175965D01*
X0169367Y0175965D01*
X0169481Y0176038D02*
X0174083Y0176038D01*
X0174073Y0174439D02*
X0177320Y0174439D01*
X0176927Y0176038D02*
X0176527Y0176038D01*
X0176527Y0177636D02*
X0176927Y0177636D01*
X0176927Y0179235D02*
X0176527Y0179235D01*
X0176527Y0180833D02*
X0176927Y0180833D01*
X0176927Y0182432D02*
X0176527Y0182432D01*
X0171927Y0182432D02*
X0171511Y0182432D01*
X0171511Y0184030D02*
X0171927Y0184030D01*
X0171927Y0185629D02*
X0171511Y0185629D01*
X0171418Y0187227D02*
X0172063Y0187227D01*
X0172811Y0188826D02*
X0170717Y0188826D01*
X0162737Y0188826D02*
X0160717Y0188826D01*
X0161418Y0187227D02*
X0162036Y0187227D01*
X0161943Y0185629D02*
X0161511Y0185629D01*
X0161511Y0184030D02*
X0161943Y0184030D01*
X0161943Y0182432D02*
X0161511Y0182432D01*
X0161511Y0180833D02*
X0161943Y0180833D01*
X0161943Y0179235D02*
X0161511Y0179235D01*
X0160906Y0177636D02*
X0162549Y0177636D01*
X0170906Y0177636D02*
X0172570Y0177636D01*
X0171996Y0179235D02*
X0171511Y0179235D01*
X0171511Y0180833D02*
X0171927Y0180833D01*
X0179371Y0176038D02*
X0179811Y0176038D01*
X0184999Y0171242D02*
X0185330Y0171242D01*
X0052314Y0171242D02*
X0009777Y0171242D01*
X0009777Y0169644D02*
X0050715Y0169644D01*
X0049117Y0168045D02*
X0009777Y0168045D01*
X0016299Y0158454D02*
X0041795Y0158454D01*
X0042173Y0156856D02*
X0016199Y0156856D01*
X0016199Y0155257D02*
X0032242Y0155257D01*
X0030849Y0153659D02*
X0016199Y0153659D01*
X0016199Y0152060D02*
X0030658Y0152060D01*
X0031556Y0150462D02*
X0016199Y0150462D01*
X0016199Y0148863D02*
X0050359Y0148863D01*
X0046195Y0155257D02*
X0035062Y0155257D01*
X0028420Y0139203D02*
X0023923Y0139203D01*
X0022761Y0138041D01*
X0022761Y0131809D01*
X0024636Y0129934D01*
X0024636Y0121166D01*
X0023904Y0120434D01*
X0023915Y0120423D01*
X0024554Y0121062D01*
X0029969Y0121062D01*
X0031014Y0120017D01*
X0031014Y0119397D01*
X0031388Y0119397D01*
X0031388Y0121097D01*
X0032028Y0122641D01*
X0029531Y0122641D01*
X0026719Y0125453D01*
X0025380Y0126791D01*
X0025380Y0134224D01*
X0025126Y0134479D01*
X0024670Y0135579D01*
X0024670Y0136771D01*
X0025126Y0137871D01*
X0025968Y0138714D01*
X0027069Y0139169D01*
X0028260Y0139169D01*
X0028420Y0139103D01*
X0028420Y0139203D01*
X0025044Y0137673D02*
X0022761Y0137673D01*
X0022761Y0136075D02*
X0024670Y0136075D01*
X0025128Y0134476D02*
X0022761Y0134476D01*
X0022761Y0132878D02*
X0025380Y0132878D01*
X0025380Y0131279D02*
X0023291Y0131279D01*
X0024636Y0129681D02*
X0025380Y0129681D01*
X0025380Y0128082D02*
X0024636Y0128082D01*
X0024636Y0126484D02*
X0025688Y0126484D01*
X0024636Y0124885D02*
X0027286Y0124885D01*
X0028885Y0123287D02*
X0024636Y0123287D01*
X0024636Y0121688D02*
X0031633Y0121688D01*
X0031388Y0120090D02*
X0030941Y0120090D01*
X0031014Y0102506D02*
X0031972Y0102506D01*
X0032262Y0092915D02*
X0030389Y0092915D01*
X0030194Y0081726D02*
X0031042Y0081726D01*
X0031388Y0080127D02*
X0009777Y0080127D01*
X0009777Y0078529D02*
X0031730Y0078529D01*
X0032867Y0076930D02*
X0009777Y0076930D01*
X0009777Y0081726D02*
X0016310Y0081726D01*
X0016010Y0083324D02*
X0009777Y0083324D01*
X0009777Y0084923D02*
X0014412Y0084923D01*
X0014130Y0086521D02*
X0009777Y0086521D01*
X0009777Y0088120D02*
X0014130Y0088120D01*
X0014130Y0089718D02*
X0009777Y0089718D01*
X0009777Y0091317D02*
X0014130Y0091317D01*
X0013632Y0092915D02*
X0009777Y0092915D01*
X0009777Y0094514D02*
X0012033Y0094514D01*
X0011088Y0096112D02*
X0009777Y0096112D01*
X0009777Y0097711D02*
X0010921Y0097711D01*
X0011877Y0099309D02*
X0009777Y0099309D01*
X0016199Y0147265D02*
X0017711Y0147265D01*
X0048632Y0174439D02*
X0052322Y0174439D01*
X0050723Y0176038D02*
X0050231Y0176038D01*
X0050261Y0177636D02*
X0050693Y0177636D01*
X0050693Y0179235D02*
X0050261Y0179235D01*
X0049844Y0185629D02*
X0051132Y0185629D01*
X0050693Y0187227D02*
X0050277Y0187227D01*
X0050277Y0188250D02*
X0050277Y0190038D01*
X0047465Y0192850D01*
X0045677Y0192850D01*
X0045677Y0188250D01*
X0050277Y0188250D01*
X0050277Y0188826D02*
X0050693Y0188826D01*
X0051086Y0190424D02*
X0049891Y0190424D01*
X0048293Y0192023D02*
X0052684Y0192023D01*
X0045677Y0192023D02*
X0045277Y0192023D01*
X0045277Y0190424D02*
X0045677Y0190424D01*
X0045677Y0188826D02*
X0045277Y0188826D01*
X0041110Y0185629D02*
X0040714Y0185629D01*
X0015939Y0179235D02*
X0009777Y0179235D01*
X0009777Y0180833D02*
X0014340Y0180833D01*
X0013309Y0182432D02*
X0009777Y0182432D01*
X0009777Y0184030D02*
X0012646Y0184030D01*
X0012476Y0185629D02*
X0009782Y0185629D01*
X0009928Y0187227D02*
X0012476Y0187227D01*
X0012958Y0188826D02*
X0010356Y0188826D01*
X0010955Y0190424D02*
X0013620Y0190424D01*
X0015092Y0192023D02*
X0011878Y0192023D01*
D34*
X0105927Y0066400D02*
X0105927Y0056400D01*
X0113591Y0056400D01*
X0123866Y0046125D01*
X0123866Y0041125D01*
X0123866Y0046125D02*
X0123828Y0046162D01*
X0105927Y0056400D02*
X0098165Y0056400D01*
X0091990Y0050225D01*
X0091990Y0038688D01*
X0085565Y0032262D01*
X0074515Y0032262D01*
X0144015Y0030801D02*
X0144015Y0015612D01*
X0154015Y0015612D01*
X0144015Y0030801D02*
X0144338Y0031125D01*
X0144338Y0036125D01*
X0144338Y0041125D01*
X0144338Y0046125D01*
D35*
X0123866Y0041125D02*
X0123866Y0036125D01*
X0068515Y0066013D02*
X0062015Y0066013D01*
X0049515Y0042263D02*
X0047418Y0042263D01*
X0044515Y0039359D01*
D36*
X0049515Y0042263D03*
X0062015Y0066013D03*
M02*
