G75*
%MOIN*%
%OFA0B0*%
%FSLAX25Y25*%
%IPPOS*%
%LPD*%
%AMOC8*
5,1,8,0,0,1.08239X$1,22.5*
%
%ADD10C,0.00000*%
%ADD11C,0.00700*%
D10*
X0007977Y0017548D02*
X0007977Y0185550D01*
X0014277Y0186052D02*
X0014279Y0186210D01*
X0014285Y0186368D01*
X0014295Y0186526D01*
X0014309Y0186684D01*
X0014327Y0186841D01*
X0014348Y0186998D01*
X0014374Y0187154D01*
X0014404Y0187310D01*
X0014437Y0187465D01*
X0014475Y0187618D01*
X0014516Y0187771D01*
X0014561Y0187923D01*
X0014610Y0188074D01*
X0014663Y0188223D01*
X0014719Y0188371D01*
X0014779Y0188517D01*
X0014843Y0188662D01*
X0014911Y0188805D01*
X0014982Y0188947D01*
X0015056Y0189087D01*
X0015134Y0189224D01*
X0015216Y0189360D01*
X0015300Y0189494D01*
X0015389Y0189625D01*
X0015480Y0189754D01*
X0015575Y0189881D01*
X0015672Y0190006D01*
X0015773Y0190128D01*
X0015877Y0190247D01*
X0015984Y0190364D01*
X0016094Y0190478D01*
X0016207Y0190589D01*
X0016322Y0190698D01*
X0016440Y0190803D01*
X0016561Y0190905D01*
X0016684Y0191005D01*
X0016810Y0191101D01*
X0016938Y0191194D01*
X0017068Y0191284D01*
X0017201Y0191370D01*
X0017336Y0191454D01*
X0017472Y0191533D01*
X0017611Y0191610D01*
X0017752Y0191682D01*
X0017894Y0191752D01*
X0018038Y0191817D01*
X0018184Y0191879D01*
X0018331Y0191937D01*
X0018480Y0191992D01*
X0018630Y0192043D01*
X0018781Y0192090D01*
X0018933Y0192133D01*
X0019086Y0192172D01*
X0019241Y0192208D01*
X0019396Y0192239D01*
X0019552Y0192267D01*
X0019708Y0192291D01*
X0019865Y0192311D01*
X0020023Y0192327D01*
X0020180Y0192339D01*
X0020339Y0192347D01*
X0020497Y0192351D01*
X0020655Y0192351D01*
X0020813Y0192347D01*
X0020972Y0192339D01*
X0021129Y0192327D01*
X0021287Y0192311D01*
X0021444Y0192291D01*
X0021600Y0192267D01*
X0021756Y0192239D01*
X0021911Y0192208D01*
X0022066Y0192172D01*
X0022219Y0192133D01*
X0022371Y0192090D01*
X0022522Y0192043D01*
X0022672Y0191992D01*
X0022821Y0191937D01*
X0022968Y0191879D01*
X0023114Y0191817D01*
X0023258Y0191752D01*
X0023400Y0191682D01*
X0023541Y0191610D01*
X0023680Y0191533D01*
X0023816Y0191454D01*
X0023951Y0191370D01*
X0024084Y0191284D01*
X0024214Y0191194D01*
X0024342Y0191101D01*
X0024468Y0191005D01*
X0024591Y0190905D01*
X0024712Y0190803D01*
X0024830Y0190698D01*
X0024945Y0190589D01*
X0025058Y0190478D01*
X0025168Y0190364D01*
X0025275Y0190247D01*
X0025379Y0190128D01*
X0025480Y0190006D01*
X0025577Y0189881D01*
X0025672Y0189754D01*
X0025763Y0189625D01*
X0025852Y0189494D01*
X0025936Y0189360D01*
X0026018Y0189224D01*
X0026096Y0189087D01*
X0026170Y0188947D01*
X0026241Y0188805D01*
X0026309Y0188662D01*
X0026373Y0188517D01*
X0026433Y0188371D01*
X0026489Y0188223D01*
X0026542Y0188074D01*
X0026591Y0187923D01*
X0026636Y0187771D01*
X0026677Y0187618D01*
X0026715Y0187465D01*
X0026748Y0187310D01*
X0026778Y0187154D01*
X0026804Y0186998D01*
X0026825Y0186841D01*
X0026843Y0186684D01*
X0026857Y0186526D01*
X0026867Y0186368D01*
X0026873Y0186210D01*
X0026875Y0186052D01*
X0026873Y0185894D01*
X0026867Y0185736D01*
X0026857Y0185578D01*
X0026843Y0185420D01*
X0026825Y0185263D01*
X0026804Y0185106D01*
X0026778Y0184950D01*
X0026748Y0184794D01*
X0026715Y0184639D01*
X0026677Y0184486D01*
X0026636Y0184333D01*
X0026591Y0184181D01*
X0026542Y0184030D01*
X0026489Y0183881D01*
X0026433Y0183733D01*
X0026373Y0183587D01*
X0026309Y0183442D01*
X0026241Y0183299D01*
X0026170Y0183157D01*
X0026096Y0183017D01*
X0026018Y0182880D01*
X0025936Y0182744D01*
X0025852Y0182610D01*
X0025763Y0182479D01*
X0025672Y0182350D01*
X0025577Y0182223D01*
X0025480Y0182098D01*
X0025379Y0181976D01*
X0025275Y0181857D01*
X0025168Y0181740D01*
X0025058Y0181626D01*
X0024945Y0181515D01*
X0024830Y0181406D01*
X0024712Y0181301D01*
X0024591Y0181199D01*
X0024468Y0181099D01*
X0024342Y0181003D01*
X0024214Y0180910D01*
X0024084Y0180820D01*
X0023951Y0180734D01*
X0023816Y0180650D01*
X0023680Y0180571D01*
X0023541Y0180494D01*
X0023400Y0180422D01*
X0023258Y0180352D01*
X0023114Y0180287D01*
X0022968Y0180225D01*
X0022821Y0180167D01*
X0022672Y0180112D01*
X0022522Y0180061D01*
X0022371Y0180014D01*
X0022219Y0179971D01*
X0022066Y0179932D01*
X0021911Y0179896D01*
X0021756Y0179865D01*
X0021600Y0179837D01*
X0021444Y0179813D01*
X0021287Y0179793D01*
X0021129Y0179777D01*
X0020972Y0179765D01*
X0020813Y0179757D01*
X0020655Y0179753D01*
X0020497Y0179753D01*
X0020339Y0179757D01*
X0020180Y0179765D01*
X0020023Y0179777D01*
X0019865Y0179793D01*
X0019708Y0179813D01*
X0019552Y0179837D01*
X0019396Y0179865D01*
X0019241Y0179896D01*
X0019086Y0179932D01*
X0018933Y0179971D01*
X0018781Y0180014D01*
X0018630Y0180061D01*
X0018480Y0180112D01*
X0018331Y0180167D01*
X0018184Y0180225D01*
X0018038Y0180287D01*
X0017894Y0180352D01*
X0017752Y0180422D01*
X0017611Y0180494D01*
X0017472Y0180571D01*
X0017336Y0180650D01*
X0017201Y0180734D01*
X0017068Y0180820D01*
X0016938Y0180910D01*
X0016810Y0181003D01*
X0016684Y0181099D01*
X0016561Y0181199D01*
X0016440Y0181301D01*
X0016322Y0181406D01*
X0016207Y0181515D01*
X0016094Y0181626D01*
X0015984Y0181740D01*
X0015877Y0181857D01*
X0015773Y0181976D01*
X0015672Y0182098D01*
X0015575Y0182223D01*
X0015480Y0182350D01*
X0015389Y0182479D01*
X0015300Y0182610D01*
X0015216Y0182744D01*
X0015134Y0182880D01*
X0015056Y0183017D01*
X0014982Y0183157D01*
X0014911Y0183299D01*
X0014843Y0183442D01*
X0014779Y0183587D01*
X0014719Y0183733D01*
X0014663Y0183881D01*
X0014610Y0184030D01*
X0014561Y0184181D01*
X0014516Y0184333D01*
X0014475Y0184486D01*
X0014437Y0184639D01*
X0014404Y0184794D01*
X0014374Y0184950D01*
X0014348Y0185106D01*
X0014327Y0185263D01*
X0014309Y0185420D01*
X0014295Y0185578D01*
X0014285Y0185736D01*
X0014279Y0185894D01*
X0014277Y0186052D01*
X0007978Y0185550D02*
X0007982Y0185867D01*
X0007993Y0186183D01*
X0008012Y0186499D01*
X0008039Y0186814D01*
X0008074Y0187129D01*
X0008115Y0187443D01*
X0008165Y0187755D01*
X0008222Y0188067D01*
X0008287Y0188377D01*
X0008359Y0188685D01*
X0008438Y0188991D01*
X0008525Y0189296D01*
X0008619Y0189598D01*
X0008721Y0189898D01*
X0008829Y0190195D01*
X0008945Y0190490D01*
X0009068Y0190782D01*
X0009198Y0191070D01*
X0009335Y0191356D01*
X0009479Y0191638D01*
X0009629Y0191916D01*
X0009786Y0192191D01*
X0009950Y0192462D01*
X0010120Y0192729D01*
X0010297Y0192992D01*
X0010480Y0193250D01*
X0010669Y0193504D01*
X0010864Y0193753D01*
X0011065Y0193997D01*
X0011273Y0194237D01*
X0011485Y0194471D01*
X0011704Y0194700D01*
X0011928Y0194924D01*
X0012157Y0195143D01*
X0012391Y0195355D01*
X0012631Y0195563D01*
X0012875Y0195764D01*
X0013124Y0195959D01*
X0013378Y0196148D01*
X0013636Y0196331D01*
X0013899Y0196508D01*
X0014166Y0196678D01*
X0014437Y0196842D01*
X0014712Y0196999D01*
X0014990Y0197149D01*
X0015272Y0197293D01*
X0015558Y0197430D01*
X0015846Y0197560D01*
X0016138Y0197683D01*
X0016433Y0197799D01*
X0016730Y0197907D01*
X0017030Y0198009D01*
X0017332Y0198103D01*
X0017637Y0198190D01*
X0017943Y0198269D01*
X0018251Y0198341D01*
X0018561Y0198406D01*
X0018873Y0198463D01*
X0019185Y0198513D01*
X0019499Y0198554D01*
X0019814Y0198589D01*
X0020129Y0198616D01*
X0020445Y0198635D01*
X0020761Y0198646D01*
X0021078Y0198650D01*
X0189080Y0198650D01*
X0185930Y0186052D02*
X0185932Y0186210D01*
X0185938Y0186368D01*
X0185948Y0186526D01*
X0185962Y0186684D01*
X0185980Y0186841D01*
X0186001Y0186998D01*
X0186027Y0187154D01*
X0186057Y0187310D01*
X0186090Y0187465D01*
X0186128Y0187618D01*
X0186169Y0187771D01*
X0186214Y0187923D01*
X0186263Y0188074D01*
X0186316Y0188223D01*
X0186372Y0188371D01*
X0186432Y0188517D01*
X0186496Y0188662D01*
X0186564Y0188805D01*
X0186635Y0188947D01*
X0186709Y0189087D01*
X0186787Y0189224D01*
X0186869Y0189360D01*
X0186953Y0189494D01*
X0187042Y0189625D01*
X0187133Y0189754D01*
X0187228Y0189881D01*
X0187325Y0190006D01*
X0187426Y0190128D01*
X0187530Y0190247D01*
X0187637Y0190364D01*
X0187747Y0190478D01*
X0187860Y0190589D01*
X0187975Y0190698D01*
X0188093Y0190803D01*
X0188214Y0190905D01*
X0188337Y0191005D01*
X0188463Y0191101D01*
X0188591Y0191194D01*
X0188721Y0191284D01*
X0188854Y0191370D01*
X0188989Y0191454D01*
X0189125Y0191533D01*
X0189264Y0191610D01*
X0189405Y0191682D01*
X0189547Y0191752D01*
X0189691Y0191817D01*
X0189837Y0191879D01*
X0189984Y0191937D01*
X0190133Y0191992D01*
X0190283Y0192043D01*
X0190434Y0192090D01*
X0190586Y0192133D01*
X0190739Y0192172D01*
X0190894Y0192208D01*
X0191049Y0192239D01*
X0191205Y0192267D01*
X0191361Y0192291D01*
X0191518Y0192311D01*
X0191676Y0192327D01*
X0191833Y0192339D01*
X0191992Y0192347D01*
X0192150Y0192351D01*
X0192308Y0192351D01*
X0192466Y0192347D01*
X0192625Y0192339D01*
X0192782Y0192327D01*
X0192940Y0192311D01*
X0193097Y0192291D01*
X0193253Y0192267D01*
X0193409Y0192239D01*
X0193564Y0192208D01*
X0193719Y0192172D01*
X0193872Y0192133D01*
X0194024Y0192090D01*
X0194175Y0192043D01*
X0194325Y0191992D01*
X0194474Y0191937D01*
X0194621Y0191879D01*
X0194767Y0191817D01*
X0194911Y0191752D01*
X0195053Y0191682D01*
X0195194Y0191610D01*
X0195333Y0191533D01*
X0195469Y0191454D01*
X0195604Y0191370D01*
X0195737Y0191284D01*
X0195867Y0191194D01*
X0195995Y0191101D01*
X0196121Y0191005D01*
X0196244Y0190905D01*
X0196365Y0190803D01*
X0196483Y0190698D01*
X0196598Y0190589D01*
X0196711Y0190478D01*
X0196821Y0190364D01*
X0196928Y0190247D01*
X0197032Y0190128D01*
X0197133Y0190006D01*
X0197230Y0189881D01*
X0197325Y0189754D01*
X0197416Y0189625D01*
X0197505Y0189494D01*
X0197589Y0189360D01*
X0197671Y0189224D01*
X0197749Y0189087D01*
X0197823Y0188947D01*
X0197894Y0188805D01*
X0197962Y0188662D01*
X0198026Y0188517D01*
X0198086Y0188371D01*
X0198142Y0188223D01*
X0198195Y0188074D01*
X0198244Y0187923D01*
X0198289Y0187771D01*
X0198330Y0187618D01*
X0198368Y0187465D01*
X0198401Y0187310D01*
X0198431Y0187154D01*
X0198457Y0186998D01*
X0198478Y0186841D01*
X0198496Y0186684D01*
X0198510Y0186526D01*
X0198520Y0186368D01*
X0198526Y0186210D01*
X0198528Y0186052D01*
X0198526Y0185894D01*
X0198520Y0185736D01*
X0198510Y0185578D01*
X0198496Y0185420D01*
X0198478Y0185263D01*
X0198457Y0185106D01*
X0198431Y0184950D01*
X0198401Y0184794D01*
X0198368Y0184639D01*
X0198330Y0184486D01*
X0198289Y0184333D01*
X0198244Y0184181D01*
X0198195Y0184030D01*
X0198142Y0183881D01*
X0198086Y0183733D01*
X0198026Y0183587D01*
X0197962Y0183442D01*
X0197894Y0183299D01*
X0197823Y0183157D01*
X0197749Y0183017D01*
X0197671Y0182880D01*
X0197589Y0182744D01*
X0197505Y0182610D01*
X0197416Y0182479D01*
X0197325Y0182350D01*
X0197230Y0182223D01*
X0197133Y0182098D01*
X0197032Y0181976D01*
X0196928Y0181857D01*
X0196821Y0181740D01*
X0196711Y0181626D01*
X0196598Y0181515D01*
X0196483Y0181406D01*
X0196365Y0181301D01*
X0196244Y0181199D01*
X0196121Y0181099D01*
X0195995Y0181003D01*
X0195867Y0180910D01*
X0195737Y0180820D01*
X0195604Y0180734D01*
X0195469Y0180650D01*
X0195333Y0180571D01*
X0195194Y0180494D01*
X0195053Y0180422D01*
X0194911Y0180352D01*
X0194767Y0180287D01*
X0194621Y0180225D01*
X0194474Y0180167D01*
X0194325Y0180112D01*
X0194175Y0180061D01*
X0194024Y0180014D01*
X0193872Y0179971D01*
X0193719Y0179932D01*
X0193564Y0179896D01*
X0193409Y0179865D01*
X0193253Y0179837D01*
X0193097Y0179813D01*
X0192940Y0179793D01*
X0192782Y0179777D01*
X0192625Y0179765D01*
X0192466Y0179757D01*
X0192308Y0179753D01*
X0192150Y0179753D01*
X0191992Y0179757D01*
X0191833Y0179765D01*
X0191676Y0179777D01*
X0191518Y0179793D01*
X0191361Y0179813D01*
X0191205Y0179837D01*
X0191049Y0179865D01*
X0190894Y0179896D01*
X0190739Y0179932D01*
X0190586Y0179971D01*
X0190434Y0180014D01*
X0190283Y0180061D01*
X0190133Y0180112D01*
X0189984Y0180167D01*
X0189837Y0180225D01*
X0189691Y0180287D01*
X0189547Y0180352D01*
X0189405Y0180422D01*
X0189264Y0180494D01*
X0189125Y0180571D01*
X0188989Y0180650D01*
X0188854Y0180734D01*
X0188721Y0180820D01*
X0188591Y0180910D01*
X0188463Y0181003D01*
X0188337Y0181099D01*
X0188214Y0181199D01*
X0188093Y0181301D01*
X0187975Y0181406D01*
X0187860Y0181515D01*
X0187747Y0181626D01*
X0187637Y0181740D01*
X0187530Y0181857D01*
X0187426Y0181976D01*
X0187325Y0182098D01*
X0187228Y0182223D01*
X0187133Y0182350D01*
X0187042Y0182479D01*
X0186953Y0182610D01*
X0186869Y0182744D01*
X0186787Y0182880D01*
X0186709Y0183017D01*
X0186635Y0183157D01*
X0186564Y0183299D01*
X0186496Y0183442D01*
X0186432Y0183587D01*
X0186372Y0183733D01*
X0186316Y0183881D01*
X0186263Y0184030D01*
X0186214Y0184181D01*
X0186169Y0184333D01*
X0186128Y0184486D01*
X0186090Y0184639D01*
X0186057Y0184794D01*
X0186027Y0184950D01*
X0186001Y0185106D01*
X0185980Y0185263D01*
X0185962Y0185420D01*
X0185948Y0185578D01*
X0185938Y0185736D01*
X0185932Y0185894D01*
X0185930Y0186052D01*
X0189080Y0198650D02*
X0189461Y0198645D01*
X0189841Y0198632D01*
X0190221Y0198609D01*
X0190600Y0198576D01*
X0190978Y0198535D01*
X0191355Y0198485D01*
X0191731Y0198425D01*
X0192106Y0198357D01*
X0192478Y0198279D01*
X0192849Y0198192D01*
X0193217Y0198097D01*
X0193583Y0197992D01*
X0193946Y0197879D01*
X0194307Y0197757D01*
X0194664Y0197627D01*
X0195018Y0197487D01*
X0195369Y0197340D01*
X0195716Y0197183D01*
X0196059Y0197019D01*
X0196398Y0196846D01*
X0196733Y0196665D01*
X0197064Y0196476D01*
X0197389Y0196279D01*
X0197710Y0196075D01*
X0198026Y0195862D01*
X0198336Y0195642D01*
X0198642Y0195415D01*
X0198941Y0195180D01*
X0199235Y0194938D01*
X0199523Y0194690D01*
X0199805Y0194434D01*
X0200080Y0194171D01*
X0200349Y0193902D01*
X0200612Y0193627D01*
X0200868Y0193345D01*
X0201116Y0193057D01*
X0201358Y0192763D01*
X0201593Y0192464D01*
X0201820Y0192158D01*
X0202040Y0191848D01*
X0202253Y0191532D01*
X0202457Y0191211D01*
X0202654Y0190886D01*
X0202843Y0190555D01*
X0203024Y0190220D01*
X0203197Y0189881D01*
X0203361Y0189538D01*
X0203518Y0189191D01*
X0203665Y0188840D01*
X0203805Y0188486D01*
X0203935Y0188129D01*
X0204057Y0187768D01*
X0204170Y0187405D01*
X0204275Y0187039D01*
X0204370Y0186671D01*
X0204457Y0186300D01*
X0204535Y0185928D01*
X0204603Y0185553D01*
X0204663Y0185177D01*
X0204713Y0184800D01*
X0204754Y0184422D01*
X0204787Y0184043D01*
X0204810Y0183663D01*
X0204823Y0183283D01*
X0204828Y0182902D01*
X0204828Y0017548D01*
X0185930Y0014398D02*
X0185932Y0014556D01*
X0185938Y0014714D01*
X0185948Y0014872D01*
X0185962Y0015030D01*
X0185980Y0015187D01*
X0186001Y0015344D01*
X0186027Y0015500D01*
X0186057Y0015656D01*
X0186090Y0015811D01*
X0186128Y0015964D01*
X0186169Y0016117D01*
X0186214Y0016269D01*
X0186263Y0016420D01*
X0186316Y0016569D01*
X0186372Y0016717D01*
X0186432Y0016863D01*
X0186496Y0017008D01*
X0186564Y0017151D01*
X0186635Y0017293D01*
X0186709Y0017433D01*
X0186787Y0017570D01*
X0186869Y0017706D01*
X0186953Y0017840D01*
X0187042Y0017971D01*
X0187133Y0018100D01*
X0187228Y0018227D01*
X0187325Y0018352D01*
X0187426Y0018474D01*
X0187530Y0018593D01*
X0187637Y0018710D01*
X0187747Y0018824D01*
X0187860Y0018935D01*
X0187975Y0019044D01*
X0188093Y0019149D01*
X0188214Y0019251D01*
X0188337Y0019351D01*
X0188463Y0019447D01*
X0188591Y0019540D01*
X0188721Y0019630D01*
X0188854Y0019716D01*
X0188989Y0019800D01*
X0189125Y0019879D01*
X0189264Y0019956D01*
X0189405Y0020028D01*
X0189547Y0020098D01*
X0189691Y0020163D01*
X0189837Y0020225D01*
X0189984Y0020283D01*
X0190133Y0020338D01*
X0190283Y0020389D01*
X0190434Y0020436D01*
X0190586Y0020479D01*
X0190739Y0020518D01*
X0190894Y0020554D01*
X0191049Y0020585D01*
X0191205Y0020613D01*
X0191361Y0020637D01*
X0191518Y0020657D01*
X0191676Y0020673D01*
X0191833Y0020685D01*
X0191992Y0020693D01*
X0192150Y0020697D01*
X0192308Y0020697D01*
X0192466Y0020693D01*
X0192625Y0020685D01*
X0192782Y0020673D01*
X0192940Y0020657D01*
X0193097Y0020637D01*
X0193253Y0020613D01*
X0193409Y0020585D01*
X0193564Y0020554D01*
X0193719Y0020518D01*
X0193872Y0020479D01*
X0194024Y0020436D01*
X0194175Y0020389D01*
X0194325Y0020338D01*
X0194474Y0020283D01*
X0194621Y0020225D01*
X0194767Y0020163D01*
X0194911Y0020098D01*
X0195053Y0020028D01*
X0195194Y0019956D01*
X0195333Y0019879D01*
X0195469Y0019800D01*
X0195604Y0019716D01*
X0195737Y0019630D01*
X0195867Y0019540D01*
X0195995Y0019447D01*
X0196121Y0019351D01*
X0196244Y0019251D01*
X0196365Y0019149D01*
X0196483Y0019044D01*
X0196598Y0018935D01*
X0196711Y0018824D01*
X0196821Y0018710D01*
X0196928Y0018593D01*
X0197032Y0018474D01*
X0197133Y0018352D01*
X0197230Y0018227D01*
X0197325Y0018100D01*
X0197416Y0017971D01*
X0197505Y0017840D01*
X0197589Y0017706D01*
X0197671Y0017570D01*
X0197749Y0017433D01*
X0197823Y0017293D01*
X0197894Y0017151D01*
X0197962Y0017008D01*
X0198026Y0016863D01*
X0198086Y0016717D01*
X0198142Y0016569D01*
X0198195Y0016420D01*
X0198244Y0016269D01*
X0198289Y0016117D01*
X0198330Y0015964D01*
X0198368Y0015811D01*
X0198401Y0015656D01*
X0198431Y0015500D01*
X0198457Y0015344D01*
X0198478Y0015187D01*
X0198496Y0015030D01*
X0198510Y0014872D01*
X0198520Y0014714D01*
X0198526Y0014556D01*
X0198528Y0014398D01*
X0198526Y0014240D01*
X0198520Y0014082D01*
X0198510Y0013924D01*
X0198496Y0013766D01*
X0198478Y0013609D01*
X0198457Y0013452D01*
X0198431Y0013296D01*
X0198401Y0013140D01*
X0198368Y0012985D01*
X0198330Y0012832D01*
X0198289Y0012679D01*
X0198244Y0012527D01*
X0198195Y0012376D01*
X0198142Y0012227D01*
X0198086Y0012079D01*
X0198026Y0011933D01*
X0197962Y0011788D01*
X0197894Y0011645D01*
X0197823Y0011503D01*
X0197749Y0011363D01*
X0197671Y0011226D01*
X0197589Y0011090D01*
X0197505Y0010956D01*
X0197416Y0010825D01*
X0197325Y0010696D01*
X0197230Y0010569D01*
X0197133Y0010444D01*
X0197032Y0010322D01*
X0196928Y0010203D01*
X0196821Y0010086D01*
X0196711Y0009972D01*
X0196598Y0009861D01*
X0196483Y0009752D01*
X0196365Y0009647D01*
X0196244Y0009545D01*
X0196121Y0009445D01*
X0195995Y0009349D01*
X0195867Y0009256D01*
X0195737Y0009166D01*
X0195604Y0009080D01*
X0195469Y0008996D01*
X0195333Y0008917D01*
X0195194Y0008840D01*
X0195053Y0008768D01*
X0194911Y0008698D01*
X0194767Y0008633D01*
X0194621Y0008571D01*
X0194474Y0008513D01*
X0194325Y0008458D01*
X0194175Y0008407D01*
X0194024Y0008360D01*
X0193872Y0008317D01*
X0193719Y0008278D01*
X0193564Y0008242D01*
X0193409Y0008211D01*
X0193253Y0008183D01*
X0193097Y0008159D01*
X0192940Y0008139D01*
X0192782Y0008123D01*
X0192625Y0008111D01*
X0192466Y0008103D01*
X0192308Y0008099D01*
X0192150Y0008099D01*
X0191992Y0008103D01*
X0191833Y0008111D01*
X0191676Y0008123D01*
X0191518Y0008139D01*
X0191361Y0008159D01*
X0191205Y0008183D01*
X0191049Y0008211D01*
X0190894Y0008242D01*
X0190739Y0008278D01*
X0190586Y0008317D01*
X0190434Y0008360D01*
X0190283Y0008407D01*
X0190133Y0008458D01*
X0189984Y0008513D01*
X0189837Y0008571D01*
X0189691Y0008633D01*
X0189547Y0008698D01*
X0189405Y0008768D01*
X0189264Y0008840D01*
X0189125Y0008917D01*
X0188989Y0008996D01*
X0188854Y0009080D01*
X0188721Y0009166D01*
X0188591Y0009256D01*
X0188463Y0009349D01*
X0188337Y0009445D01*
X0188214Y0009545D01*
X0188093Y0009647D01*
X0187975Y0009752D01*
X0187860Y0009861D01*
X0187747Y0009972D01*
X0187637Y0010086D01*
X0187530Y0010203D01*
X0187426Y0010322D01*
X0187325Y0010444D01*
X0187228Y0010569D01*
X0187133Y0010696D01*
X0187042Y0010825D01*
X0186953Y0010956D01*
X0186869Y0011090D01*
X0186787Y0011226D01*
X0186709Y0011363D01*
X0186635Y0011503D01*
X0186564Y0011645D01*
X0186496Y0011788D01*
X0186432Y0011933D01*
X0186372Y0012079D01*
X0186316Y0012227D01*
X0186263Y0012376D01*
X0186214Y0012527D01*
X0186169Y0012679D01*
X0186128Y0012832D01*
X0186090Y0012985D01*
X0186057Y0013140D01*
X0186027Y0013296D01*
X0186001Y0013452D01*
X0185980Y0013609D01*
X0185962Y0013766D01*
X0185948Y0013924D01*
X0185938Y0014082D01*
X0185932Y0014240D01*
X0185930Y0014398D01*
X0189080Y0001800D02*
X0189461Y0001805D01*
X0189841Y0001818D01*
X0190221Y0001841D01*
X0190600Y0001874D01*
X0190978Y0001915D01*
X0191355Y0001965D01*
X0191731Y0002025D01*
X0192106Y0002093D01*
X0192478Y0002171D01*
X0192849Y0002258D01*
X0193217Y0002353D01*
X0193583Y0002458D01*
X0193946Y0002571D01*
X0194307Y0002693D01*
X0194664Y0002823D01*
X0195018Y0002963D01*
X0195369Y0003110D01*
X0195716Y0003267D01*
X0196059Y0003431D01*
X0196398Y0003604D01*
X0196733Y0003785D01*
X0197064Y0003974D01*
X0197389Y0004171D01*
X0197710Y0004375D01*
X0198026Y0004588D01*
X0198336Y0004808D01*
X0198642Y0005035D01*
X0198941Y0005270D01*
X0199235Y0005512D01*
X0199523Y0005760D01*
X0199805Y0006016D01*
X0200080Y0006279D01*
X0200349Y0006548D01*
X0200612Y0006823D01*
X0200868Y0007105D01*
X0201116Y0007393D01*
X0201358Y0007687D01*
X0201593Y0007986D01*
X0201820Y0008292D01*
X0202040Y0008602D01*
X0202253Y0008918D01*
X0202457Y0009239D01*
X0202654Y0009564D01*
X0202843Y0009895D01*
X0203024Y0010230D01*
X0203197Y0010569D01*
X0203361Y0010912D01*
X0203518Y0011259D01*
X0203665Y0011610D01*
X0203805Y0011964D01*
X0203935Y0012321D01*
X0204057Y0012682D01*
X0204170Y0013045D01*
X0204275Y0013411D01*
X0204370Y0013779D01*
X0204457Y0014150D01*
X0204535Y0014522D01*
X0204603Y0014897D01*
X0204663Y0015273D01*
X0204713Y0015650D01*
X0204754Y0016028D01*
X0204787Y0016407D01*
X0204810Y0016787D01*
X0204823Y0017167D01*
X0204828Y0017548D01*
X0189080Y0001800D02*
X0023725Y0001800D01*
X0014277Y0014398D02*
X0014279Y0014556D01*
X0014285Y0014714D01*
X0014295Y0014872D01*
X0014309Y0015030D01*
X0014327Y0015187D01*
X0014348Y0015344D01*
X0014374Y0015500D01*
X0014404Y0015656D01*
X0014437Y0015811D01*
X0014475Y0015964D01*
X0014516Y0016117D01*
X0014561Y0016269D01*
X0014610Y0016420D01*
X0014663Y0016569D01*
X0014719Y0016717D01*
X0014779Y0016863D01*
X0014843Y0017008D01*
X0014911Y0017151D01*
X0014982Y0017293D01*
X0015056Y0017433D01*
X0015134Y0017570D01*
X0015216Y0017706D01*
X0015300Y0017840D01*
X0015389Y0017971D01*
X0015480Y0018100D01*
X0015575Y0018227D01*
X0015672Y0018352D01*
X0015773Y0018474D01*
X0015877Y0018593D01*
X0015984Y0018710D01*
X0016094Y0018824D01*
X0016207Y0018935D01*
X0016322Y0019044D01*
X0016440Y0019149D01*
X0016561Y0019251D01*
X0016684Y0019351D01*
X0016810Y0019447D01*
X0016938Y0019540D01*
X0017068Y0019630D01*
X0017201Y0019716D01*
X0017336Y0019800D01*
X0017472Y0019879D01*
X0017611Y0019956D01*
X0017752Y0020028D01*
X0017894Y0020098D01*
X0018038Y0020163D01*
X0018184Y0020225D01*
X0018331Y0020283D01*
X0018480Y0020338D01*
X0018630Y0020389D01*
X0018781Y0020436D01*
X0018933Y0020479D01*
X0019086Y0020518D01*
X0019241Y0020554D01*
X0019396Y0020585D01*
X0019552Y0020613D01*
X0019708Y0020637D01*
X0019865Y0020657D01*
X0020023Y0020673D01*
X0020180Y0020685D01*
X0020339Y0020693D01*
X0020497Y0020697D01*
X0020655Y0020697D01*
X0020813Y0020693D01*
X0020972Y0020685D01*
X0021129Y0020673D01*
X0021287Y0020657D01*
X0021444Y0020637D01*
X0021600Y0020613D01*
X0021756Y0020585D01*
X0021911Y0020554D01*
X0022066Y0020518D01*
X0022219Y0020479D01*
X0022371Y0020436D01*
X0022522Y0020389D01*
X0022672Y0020338D01*
X0022821Y0020283D01*
X0022968Y0020225D01*
X0023114Y0020163D01*
X0023258Y0020098D01*
X0023400Y0020028D01*
X0023541Y0019956D01*
X0023680Y0019879D01*
X0023816Y0019800D01*
X0023951Y0019716D01*
X0024084Y0019630D01*
X0024214Y0019540D01*
X0024342Y0019447D01*
X0024468Y0019351D01*
X0024591Y0019251D01*
X0024712Y0019149D01*
X0024830Y0019044D01*
X0024945Y0018935D01*
X0025058Y0018824D01*
X0025168Y0018710D01*
X0025275Y0018593D01*
X0025379Y0018474D01*
X0025480Y0018352D01*
X0025577Y0018227D01*
X0025672Y0018100D01*
X0025763Y0017971D01*
X0025852Y0017840D01*
X0025936Y0017706D01*
X0026018Y0017570D01*
X0026096Y0017433D01*
X0026170Y0017293D01*
X0026241Y0017151D01*
X0026309Y0017008D01*
X0026373Y0016863D01*
X0026433Y0016717D01*
X0026489Y0016569D01*
X0026542Y0016420D01*
X0026591Y0016269D01*
X0026636Y0016117D01*
X0026677Y0015964D01*
X0026715Y0015811D01*
X0026748Y0015656D01*
X0026778Y0015500D01*
X0026804Y0015344D01*
X0026825Y0015187D01*
X0026843Y0015030D01*
X0026857Y0014872D01*
X0026867Y0014714D01*
X0026873Y0014556D01*
X0026875Y0014398D01*
X0026873Y0014240D01*
X0026867Y0014082D01*
X0026857Y0013924D01*
X0026843Y0013766D01*
X0026825Y0013609D01*
X0026804Y0013452D01*
X0026778Y0013296D01*
X0026748Y0013140D01*
X0026715Y0012985D01*
X0026677Y0012832D01*
X0026636Y0012679D01*
X0026591Y0012527D01*
X0026542Y0012376D01*
X0026489Y0012227D01*
X0026433Y0012079D01*
X0026373Y0011933D01*
X0026309Y0011788D01*
X0026241Y0011645D01*
X0026170Y0011503D01*
X0026096Y0011363D01*
X0026018Y0011226D01*
X0025936Y0011090D01*
X0025852Y0010956D01*
X0025763Y0010825D01*
X0025672Y0010696D01*
X0025577Y0010569D01*
X0025480Y0010444D01*
X0025379Y0010322D01*
X0025275Y0010203D01*
X0025168Y0010086D01*
X0025058Y0009972D01*
X0024945Y0009861D01*
X0024830Y0009752D01*
X0024712Y0009647D01*
X0024591Y0009545D01*
X0024468Y0009445D01*
X0024342Y0009349D01*
X0024214Y0009256D01*
X0024084Y0009166D01*
X0023951Y0009080D01*
X0023816Y0008996D01*
X0023680Y0008917D01*
X0023541Y0008840D01*
X0023400Y0008768D01*
X0023258Y0008698D01*
X0023114Y0008633D01*
X0022968Y0008571D01*
X0022821Y0008513D01*
X0022672Y0008458D01*
X0022522Y0008407D01*
X0022371Y0008360D01*
X0022219Y0008317D01*
X0022066Y0008278D01*
X0021911Y0008242D01*
X0021756Y0008211D01*
X0021600Y0008183D01*
X0021444Y0008159D01*
X0021287Y0008139D01*
X0021129Y0008123D01*
X0020972Y0008111D01*
X0020813Y0008103D01*
X0020655Y0008099D01*
X0020497Y0008099D01*
X0020339Y0008103D01*
X0020180Y0008111D01*
X0020023Y0008123D01*
X0019865Y0008139D01*
X0019708Y0008159D01*
X0019552Y0008183D01*
X0019396Y0008211D01*
X0019241Y0008242D01*
X0019086Y0008278D01*
X0018933Y0008317D01*
X0018781Y0008360D01*
X0018630Y0008407D01*
X0018480Y0008458D01*
X0018331Y0008513D01*
X0018184Y0008571D01*
X0018038Y0008633D01*
X0017894Y0008698D01*
X0017752Y0008768D01*
X0017611Y0008840D01*
X0017472Y0008917D01*
X0017336Y0008996D01*
X0017201Y0009080D01*
X0017068Y0009166D01*
X0016938Y0009256D01*
X0016810Y0009349D01*
X0016684Y0009445D01*
X0016561Y0009545D01*
X0016440Y0009647D01*
X0016322Y0009752D01*
X0016207Y0009861D01*
X0016094Y0009972D01*
X0015984Y0010086D01*
X0015877Y0010203D01*
X0015773Y0010322D01*
X0015672Y0010444D01*
X0015575Y0010569D01*
X0015480Y0010696D01*
X0015389Y0010825D01*
X0015300Y0010956D01*
X0015216Y0011090D01*
X0015134Y0011226D01*
X0015056Y0011363D01*
X0014982Y0011503D01*
X0014911Y0011645D01*
X0014843Y0011788D01*
X0014779Y0011933D01*
X0014719Y0012079D01*
X0014663Y0012227D01*
X0014610Y0012376D01*
X0014561Y0012527D01*
X0014516Y0012679D01*
X0014475Y0012832D01*
X0014437Y0012985D01*
X0014404Y0013140D01*
X0014374Y0013296D01*
X0014348Y0013452D01*
X0014327Y0013609D01*
X0014309Y0013766D01*
X0014295Y0013924D01*
X0014285Y0014082D01*
X0014279Y0014240D01*
X0014277Y0014398D01*
X0007977Y0017548D02*
X0007982Y0017167D01*
X0007995Y0016787D01*
X0008018Y0016407D01*
X0008051Y0016028D01*
X0008092Y0015650D01*
X0008142Y0015273D01*
X0008202Y0014897D01*
X0008270Y0014522D01*
X0008348Y0014150D01*
X0008435Y0013779D01*
X0008530Y0013411D01*
X0008635Y0013045D01*
X0008748Y0012682D01*
X0008870Y0012321D01*
X0009000Y0011964D01*
X0009140Y0011610D01*
X0009287Y0011259D01*
X0009444Y0010912D01*
X0009608Y0010569D01*
X0009781Y0010230D01*
X0009962Y0009895D01*
X0010151Y0009564D01*
X0010348Y0009239D01*
X0010552Y0008918D01*
X0010765Y0008602D01*
X0010985Y0008292D01*
X0011212Y0007986D01*
X0011447Y0007687D01*
X0011689Y0007393D01*
X0011937Y0007105D01*
X0012193Y0006823D01*
X0012456Y0006548D01*
X0012725Y0006279D01*
X0013000Y0006016D01*
X0013282Y0005760D01*
X0013570Y0005512D01*
X0013864Y0005270D01*
X0014163Y0005035D01*
X0014469Y0004808D01*
X0014779Y0004588D01*
X0015095Y0004375D01*
X0015416Y0004171D01*
X0015741Y0003974D01*
X0016072Y0003785D01*
X0016407Y0003604D01*
X0016746Y0003431D01*
X0017089Y0003267D01*
X0017436Y0003110D01*
X0017787Y0002963D01*
X0018141Y0002823D01*
X0018498Y0002693D01*
X0018859Y0002571D01*
X0019222Y0002458D01*
X0019588Y0002353D01*
X0019956Y0002258D01*
X0020327Y0002171D01*
X0020699Y0002093D01*
X0021074Y0002025D01*
X0021450Y0001965D01*
X0021827Y0001915D01*
X0022205Y0001874D01*
X0022584Y0001841D01*
X0022964Y0001818D01*
X0023344Y0001805D01*
X0023725Y0001800D01*
D11*
X0038603Y0008613D02*
X0037335Y0011148D01*
X0039871Y0011148D02*
X0038603Y0008613D01*
X0041479Y0008613D02*
X0044014Y0008613D01*
X0042747Y0008613D02*
X0042747Y0012416D01*
X0041479Y0011148D01*
X0042113Y0015362D02*
X0041479Y0015996D01*
X0044014Y0018532D01*
X0044014Y0015996D01*
X0043380Y0015362D01*
X0042113Y0015362D01*
X0041479Y0015996D02*
X0041479Y0018532D01*
X0042113Y0019166D01*
X0043380Y0019166D01*
X0044014Y0018532D01*
X0047694Y0018532D02*
X0048328Y0019166D01*
X0049596Y0019166D01*
X0050230Y0018532D01*
X0047694Y0015996D01*
X0048328Y0015362D01*
X0049596Y0015362D01*
X0050230Y0015996D01*
X0050230Y0018532D01*
X0051838Y0017264D02*
X0054373Y0017264D01*
X0053739Y0015362D02*
X0053739Y0019166D01*
X0051838Y0017264D01*
X0055981Y0015996D02*
X0056615Y0015996D01*
X0056615Y0015362D01*
X0055981Y0015362D01*
X0055981Y0015996D01*
X0058053Y0015362D02*
X0060588Y0017898D01*
X0060588Y0018532D01*
X0059955Y0019166D01*
X0058687Y0019166D01*
X0058053Y0018532D01*
X0058053Y0015362D02*
X0060588Y0015362D01*
X0062197Y0015996D02*
X0064732Y0018532D01*
X0064732Y0015996D01*
X0064098Y0015362D01*
X0062830Y0015362D01*
X0062197Y0015996D01*
X0062197Y0018532D01*
X0062830Y0019166D01*
X0064098Y0019166D01*
X0064732Y0018532D01*
X0066340Y0017898D02*
X0067608Y0019166D01*
X0067608Y0015362D01*
X0066340Y0015362D02*
X0068876Y0015362D01*
X0070484Y0015996D02*
X0071117Y0015362D01*
X0072385Y0015362D01*
X0073019Y0015996D01*
X0073019Y0017264D01*
X0072385Y0017898D01*
X0071751Y0017898D01*
X0070484Y0017264D01*
X0070484Y0019166D01*
X0073019Y0019166D01*
X0061485Y0038625D02*
X0060218Y0038625D01*
X0059584Y0039259D01*
X0059584Y0041794D01*
X0060218Y0042428D01*
X0061485Y0042428D01*
X0062119Y0041794D01*
X0062119Y0039259D01*
X0061485Y0038625D01*
X0057976Y0039259D02*
X0057976Y0041794D01*
X0057342Y0042428D01*
X0055440Y0042428D01*
X0055440Y0038625D01*
X0057342Y0038625D01*
X0057976Y0039259D01*
X0053832Y0038625D02*
X0051297Y0038625D01*
X0051297Y0042428D01*
X0040652Y0040508D02*
X0040652Y0039240D01*
X0040018Y0038606D01*
X0038751Y0038606D02*
X0038117Y0039874D01*
X0038117Y0040508D01*
X0038751Y0041142D01*
X0040018Y0041142D01*
X0040652Y0040508D01*
X0038751Y0038606D02*
X0036849Y0038606D01*
X0036849Y0041142D01*
X0040652Y0036998D02*
X0040652Y0034463D01*
X0040652Y0035731D02*
X0036849Y0035731D01*
X0038117Y0034463D01*
X0037483Y0032855D02*
X0036849Y0032221D01*
X0036849Y0030953D01*
X0037483Y0030319D01*
X0040018Y0030319D01*
X0040652Y0030953D01*
X0040652Y0032221D01*
X0040018Y0032855D01*
X0039237Y0019166D02*
X0039871Y0018532D01*
X0039871Y0017898D01*
X0039237Y0017264D01*
X0039871Y0016630D01*
X0039871Y0015996D01*
X0039237Y0015362D01*
X0037969Y0015362D01*
X0037335Y0015996D01*
X0038603Y0017264D02*
X0039237Y0017264D01*
X0039237Y0019166D02*
X0037969Y0019166D01*
X0037335Y0018532D01*
X0045622Y0015996D02*
X0046256Y0015996D01*
X0046256Y0015362D01*
X0045622Y0015362D01*
X0045622Y0015996D01*
X0047694Y0015996D02*
X0047694Y0018532D01*
X0048328Y0012416D02*
X0047694Y0011782D01*
X0048328Y0012416D02*
X0049596Y0012416D01*
X0050230Y0011782D01*
X0050230Y0011148D01*
X0047694Y0008613D01*
X0050230Y0008613D01*
X0046256Y0008613D02*
X0045622Y0008613D01*
X0045622Y0009246D01*
X0046256Y0009246D01*
X0046256Y0008613D01*
X0019940Y0041613D02*
X0016136Y0041613D01*
X0016136Y0043514D01*
X0016770Y0044148D01*
X0018038Y0044148D01*
X0018672Y0043514D01*
X0018672Y0041613D01*
X0018672Y0042880D02*
X0019940Y0044148D01*
X0019940Y0045756D02*
X0019940Y0048292D01*
X0019940Y0047024D02*
X0016136Y0047024D01*
X0017404Y0045756D01*
X0017404Y0049900D02*
X0016770Y0049900D01*
X0016136Y0050533D01*
X0016136Y0051801D01*
X0016770Y0052435D01*
X0017404Y0052435D01*
X0018038Y0051801D01*
X0018038Y0050533D01*
X0017404Y0049900D01*
X0018038Y0050533D02*
X0018672Y0049900D01*
X0019306Y0049900D01*
X0019940Y0050533D01*
X0019940Y0051801D01*
X0019306Y0052435D01*
X0018672Y0052435D01*
X0018038Y0051801D01*
X0016624Y0056238D02*
X0020427Y0056238D01*
X0020427Y0058774D01*
X0020427Y0060382D02*
X0020427Y0062917D01*
X0020427Y0064525D02*
X0020427Y0066427D01*
X0019793Y0067061D01*
X0017258Y0067061D01*
X0016624Y0066427D01*
X0016624Y0064525D01*
X0020427Y0064525D01*
X0018526Y0061650D02*
X0018526Y0060382D01*
X0020427Y0060382D02*
X0016624Y0060382D01*
X0016624Y0062917D01*
X0017258Y0068669D02*
X0016624Y0069303D01*
X0016624Y0070571D01*
X0017258Y0071204D01*
X0017892Y0071204D01*
X0020427Y0068669D01*
X0020427Y0071204D01*
X0016060Y0083013D02*
X0014793Y0083013D01*
X0014159Y0083646D01*
X0014159Y0084914D02*
X0015426Y0085548D01*
X0016060Y0085548D01*
X0016694Y0084914D01*
X0016694Y0083646D01*
X0016060Y0083013D01*
X0014159Y0084914D02*
X0014159Y0086816D01*
X0016694Y0086816D01*
X0016098Y0088462D02*
X0016098Y0092266D01*
X0014196Y0090364D01*
X0016732Y0090364D01*
X0012588Y0090364D02*
X0011954Y0089730D01*
X0010053Y0089730D01*
X0011320Y0089730D02*
X0012588Y0088462D01*
X0011917Y0086816D02*
X0012551Y0086182D01*
X0012551Y0084914D01*
X0011917Y0084280D01*
X0010015Y0084280D01*
X0010015Y0083013D02*
X0010015Y0086816D01*
X0011917Y0086816D01*
X0010053Y0088462D02*
X0010053Y0092266D01*
X0011954Y0092266D01*
X0012588Y0091632D01*
X0012588Y0090364D01*
X0011283Y0084280D02*
X0012551Y0083013D01*
X0013213Y0103462D02*
X0011945Y0104730D01*
X0012579Y0104730D02*
X0010678Y0104730D01*
X0010678Y0103462D02*
X0010678Y0107266D01*
X0012579Y0107266D01*
X0013213Y0106632D01*
X0013213Y0105364D01*
X0012579Y0104730D01*
X0014821Y0104096D02*
X0015455Y0103462D01*
X0016723Y0103462D01*
X0017357Y0104096D01*
X0017357Y0104730D01*
X0016723Y0105364D01*
X0016089Y0105364D01*
X0016723Y0105364D02*
X0017357Y0105998D01*
X0017357Y0106632D01*
X0016723Y0107266D01*
X0015455Y0107266D01*
X0014821Y0106632D01*
X0014821Y0109400D02*
X0017357Y0111935D01*
X0017357Y0112569D01*
X0016723Y0113203D01*
X0015455Y0113203D01*
X0014821Y0112569D01*
X0013213Y0112569D02*
X0013213Y0111302D01*
X0012579Y0110668D01*
X0010678Y0110668D01*
X0011945Y0110668D02*
X0013213Y0109400D01*
X0014821Y0109400D02*
X0017357Y0109400D01*
X0013213Y0112569D02*
X0012579Y0113203D01*
X0010678Y0113203D01*
X0010678Y0109400D01*
X0010678Y0115337D02*
X0010678Y0119141D01*
X0012579Y0119141D01*
X0013213Y0118507D01*
X0013213Y0117239D01*
X0012579Y0116605D01*
X0010678Y0116605D01*
X0011945Y0116605D02*
X0013213Y0115337D01*
X0014821Y0115337D02*
X0017357Y0115337D01*
X0016089Y0115337D02*
X0016089Y0119141D01*
X0014821Y0117873D01*
X0062361Y0132863D02*
X0062361Y0134764D01*
X0062995Y0135398D01*
X0064263Y0135398D01*
X0064897Y0134764D01*
X0064897Y0132863D01*
X0064897Y0134130D02*
X0066165Y0135398D01*
X0066165Y0137006D02*
X0065531Y0137006D01*
X0062995Y0139542D01*
X0062361Y0139542D01*
X0062361Y0137006D01*
X0062361Y0132863D02*
X0066165Y0132863D01*
X0081702Y0128153D02*
X0081702Y0124350D01*
X0081702Y0125618D02*
X0083604Y0125618D01*
X0084238Y0126252D01*
X0084238Y0127519D01*
X0083604Y0128153D01*
X0081702Y0128153D01*
X0082970Y0125618D02*
X0084238Y0124350D01*
X0085846Y0124984D02*
X0086480Y0124350D01*
X0087747Y0124350D01*
X0088381Y0124984D01*
X0088381Y0125618D01*
X0087747Y0126252D01*
X0087113Y0126252D01*
X0087747Y0126252D02*
X0088381Y0126885D01*
X0088381Y0127519D01*
X0087747Y0128153D01*
X0086480Y0128153D01*
X0085846Y0127519D01*
X0089989Y0127519D02*
X0090623Y0128153D01*
X0091891Y0128153D01*
X0092525Y0127519D01*
X0092525Y0126885D01*
X0091891Y0126252D01*
X0092525Y0125618D01*
X0092525Y0124984D01*
X0091891Y0124350D01*
X0090623Y0124350D01*
X0089989Y0124984D01*
X0091257Y0126252D02*
X0091891Y0126252D01*
X0109477Y0138659D02*
X0110111Y0138025D01*
X0111379Y0138025D01*
X0112013Y0138659D01*
X0113621Y0138025D02*
X0116156Y0138025D01*
X0114888Y0138025D02*
X0114888Y0141828D01*
X0113621Y0140560D01*
X0112013Y0141194D02*
X0111379Y0141828D01*
X0110111Y0141828D01*
X0109477Y0141194D01*
X0109477Y0138659D01*
X0117764Y0138659D02*
X0118398Y0138025D01*
X0119666Y0138025D01*
X0120300Y0138659D01*
X0120300Y0141194D01*
X0117764Y0138659D01*
X0117764Y0141194D01*
X0118398Y0141828D01*
X0119666Y0141828D01*
X0120300Y0141194D01*
X0119836Y0148157D02*
X0119836Y0150059D01*
X0120470Y0150692D01*
X0121738Y0150692D01*
X0122372Y0150059D01*
X0122372Y0148157D01*
X0122372Y0149425D02*
X0123640Y0150692D01*
X0123006Y0152300D02*
X0123640Y0152934D01*
X0123640Y0154202D01*
X0123006Y0154836D01*
X0122372Y0154836D01*
X0121738Y0154202D01*
X0121738Y0153568D01*
X0121738Y0154202D02*
X0121104Y0154836D01*
X0120470Y0154836D01*
X0119836Y0154202D01*
X0119836Y0152934D01*
X0120470Y0152300D01*
X0119836Y0148157D02*
X0123640Y0148157D01*
X0123640Y0156444D02*
X0123640Y0158979D01*
X0123640Y0157712D02*
X0119836Y0157712D01*
X0121104Y0156444D01*
X0113377Y0158207D02*
X0110842Y0158207D01*
X0109574Y0159475D01*
X0110842Y0160742D01*
X0113377Y0160742D01*
X0111476Y0160742D02*
X0111476Y0158207D01*
X0112109Y0162350D02*
X0109574Y0162350D01*
X0112109Y0162350D02*
X0113377Y0163618D01*
X0112109Y0164886D01*
X0109574Y0164886D01*
X0109574Y0166494D02*
X0109574Y0168396D01*
X0110208Y0169029D01*
X0111476Y0169029D01*
X0112109Y0168396D01*
X0112109Y0166494D01*
X0112109Y0167762D02*
X0113377Y0169029D01*
X0113377Y0166494D02*
X0109574Y0166494D01*
X0106697Y0190187D02*
X0104161Y0190187D01*
X0104161Y0193991D01*
X0102553Y0193357D02*
X0101920Y0193991D01*
X0100652Y0193991D01*
X0100018Y0193357D01*
X0100018Y0190821D01*
X0100652Y0190187D01*
X0101920Y0190187D01*
X0102553Y0190821D01*
X0098410Y0192089D02*
X0095874Y0192089D01*
X0094266Y0192089D02*
X0091731Y0192089D01*
X0091731Y0192723D02*
X0092999Y0193991D01*
X0094266Y0192723D01*
X0094266Y0190187D01*
X0091731Y0190187D02*
X0091731Y0192723D01*
X0090123Y0193357D02*
X0089489Y0193991D01*
X0087587Y0193991D01*
X0087587Y0190187D01*
X0089489Y0190187D01*
X0090123Y0190821D01*
X0090123Y0193357D01*
X0108305Y0192089D02*
X0110840Y0192089D01*
X0112449Y0190821D02*
X0113082Y0190187D01*
X0114350Y0190187D01*
X0114984Y0190821D01*
X0114984Y0192089D01*
X0113716Y0192089D01*
X0112449Y0193357D02*
X0112449Y0190821D01*
X0112449Y0193357D02*
X0113082Y0193991D01*
X0114350Y0193991D01*
X0114984Y0193357D01*
X0120087Y0193991D02*
X0122623Y0193991D01*
X0121355Y0193991D02*
X0121355Y0190187D01*
X0124231Y0190187D02*
X0126766Y0193991D01*
X0128374Y0192089D02*
X0130910Y0192089D01*
X0132518Y0191455D02*
X0134420Y0191455D01*
X0135053Y0192089D01*
X0135053Y0193357D01*
X0134420Y0193991D01*
X0132518Y0193991D01*
X0132518Y0190187D01*
X0133786Y0191455D02*
X0135053Y0190187D01*
X0136661Y0190187D02*
X0139197Y0193991D01*
X0140805Y0192089D02*
X0143340Y0192089D01*
X0144949Y0190821D02*
X0145582Y0190187D01*
X0146850Y0190187D01*
X0147484Y0190821D01*
X0147484Y0192089D01*
X0146216Y0192089D01*
X0144949Y0193357D02*
X0144949Y0190821D01*
X0144949Y0193357D02*
X0145582Y0193991D01*
X0146850Y0193991D01*
X0147484Y0193357D01*
X0152587Y0193357D02*
X0152587Y0190821D01*
X0153221Y0190187D01*
X0154489Y0190187D01*
X0155123Y0190821D01*
X0156731Y0190821D02*
X0157365Y0190187D01*
X0158632Y0190187D01*
X0159266Y0190821D01*
X0159266Y0191455D01*
X0158632Y0192089D01*
X0157999Y0192089D01*
X0158632Y0192089D02*
X0159266Y0192723D01*
X0159266Y0193357D01*
X0158632Y0193991D01*
X0157365Y0193991D01*
X0156731Y0193357D01*
X0155123Y0193357D02*
X0154489Y0193991D01*
X0153221Y0193991D01*
X0152587Y0193357D01*
X0160874Y0192089D02*
X0163410Y0192089D01*
X0165018Y0190821D02*
X0165652Y0190187D01*
X0166920Y0190187D01*
X0167553Y0190821D01*
X0169161Y0190187D02*
X0171697Y0192723D01*
X0171697Y0193357D01*
X0171063Y0193991D01*
X0169795Y0193991D01*
X0169161Y0193357D01*
X0167553Y0193357D02*
X0166920Y0193991D01*
X0165652Y0193991D01*
X0165018Y0193357D01*
X0165018Y0190821D01*
X0169161Y0190187D02*
X0171697Y0190187D01*
X0173305Y0192089D02*
X0175840Y0192089D01*
X0177449Y0190821D02*
X0178082Y0190187D01*
X0179350Y0190187D01*
X0179984Y0190821D01*
X0179984Y0192089D01*
X0178716Y0192089D01*
X0177449Y0193357D02*
X0177449Y0190821D01*
X0177449Y0193357D02*
X0178082Y0193991D01*
X0179350Y0193991D01*
X0179984Y0193357D01*
X0191387Y0177108D02*
X0194076Y0174419D01*
X0194972Y0175315D02*
X0193179Y0173522D01*
X0191594Y0172833D02*
X0191594Y0171937D01*
X0190698Y0171041D01*
X0189801Y0171041D01*
X0189353Y0172385D02*
X0190250Y0173282D01*
X0191146Y0173282D01*
X0191594Y0172833D01*
X0189353Y0172385D02*
X0188457Y0172385D01*
X0188008Y0172833D01*
X0188008Y0173730D01*
X0188905Y0174626D01*
X0189801Y0174626D01*
X0191387Y0175315D02*
X0191387Y0177108D01*
X0186871Y0171696D02*
X0187768Y0170800D01*
X0187768Y0169903D01*
X0186423Y0168559D01*
X0187320Y0167662D02*
X0184630Y0170352D01*
X0185975Y0171696D01*
X0186871Y0171696D01*
X0183493Y0169215D02*
X0181700Y0167422D01*
X0182597Y0168318D02*
X0185286Y0165629D01*
X0186382Y0154791D02*
X0183846Y0154791D01*
X0183846Y0152889D01*
X0185114Y0153523D01*
X0185748Y0153523D01*
X0186382Y0152889D01*
X0186382Y0151621D01*
X0185748Y0150988D01*
X0184480Y0150988D01*
X0183846Y0151621D01*
X0182238Y0150988D02*
X0179703Y0150988D01*
X0182238Y0153523D01*
X0182238Y0154157D01*
X0181604Y0154791D01*
X0180336Y0154791D01*
X0179703Y0154157D01*
X0178095Y0154157D02*
X0177461Y0154791D01*
X0175559Y0154791D01*
X0175559Y0150988D01*
X0175559Y0152255D02*
X0177461Y0152255D01*
X0178095Y0152889D01*
X0178095Y0154157D01*
X0176827Y0152255D02*
X0178095Y0150988D01*
X0173444Y0137053D02*
X0172176Y0136419D01*
X0170909Y0135152D01*
X0172810Y0135152D01*
X0173444Y0134518D01*
X0173444Y0133884D01*
X0172810Y0133250D01*
X0171543Y0133250D01*
X0170909Y0133884D01*
X0170909Y0135152D01*
X0169301Y0135785D02*
X0169301Y0136419D01*
X0168667Y0137053D01*
X0167399Y0137053D01*
X0166765Y0136419D01*
X0165157Y0136419D02*
X0165157Y0135152D01*
X0164523Y0134518D01*
X0162622Y0134518D01*
X0163889Y0134518D02*
X0165157Y0133250D01*
X0166765Y0133250D02*
X0169301Y0135785D01*
X0169301Y0133250D02*
X0166765Y0133250D01*
X0165157Y0136419D02*
X0164523Y0137053D01*
X0162622Y0137053D01*
X0162622Y0133250D01*
X0153718Y0135175D02*
X0151183Y0135175D01*
X0153718Y0137710D01*
X0153718Y0138344D01*
X0153084Y0138978D01*
X0151817Y0138978D01*
X0151183Y0138344D01*
X0149575Y0138344D02*
X0148941Y0138978D01*
X0147673Y0138978D01*
X0147039Y0138344D01*
X0147039Y0137710D01*
X0147673Y0137077D01*
X0148941Y0137077D01*
X0149575Y0136443D01*
X0149575Y0135809D01*
X0148941Y0135175D01*
X0147673Y0135175D01*
X0147039Y0135809D01*
X0145431Y0137077D02*
X0144797Y0136443D01*
X0142896Y0136443D01*
X0142896Y0135175D02*
X0142896Y0138978D01*
X0144797Y0138978D01*
X0145431Y0138344D01*
X0145431Y0137077D01*
X0141288Y0138978D02*
X0138752Y0138978D01*
X0140020Y0138978D02*
X0140020Y0135175D01*
X0139028Y0132116D02*
X0137761Y0132116D01*
X0137127Y0131482D01*
X0135519Y0131482D02*
X0134885Y0132116D01*
X0133617Y0132116D01*
X0132983Y0131482D01*
X0131375Y0131482D02*
X0130741Y0132116D01*
X0128840Y0132116D01*
X0128840Y0128312D01*
X0128840Y0129580D02*
X0130741Y0129580D01*
X0131375Y0130214D01*
X0131375Y0131482D01*
X0130107Y0129580D02*
X0131375Y0128312D01*
X0132983Y0128946D02*
X0133617Y0128312D01*
X0134885Y0128312D01*
X0135519Y0128946D01*
X0135519Y0129580D01*
X0134885Y0130214D01*
X0134251Y0130214D01*
X0134885Y0130214D02*
X0135519Y0130848D01*
X0135519Y0131482D01*
X0137127Y0128312D02*
X0139662Y0130848D01*
X0139662Y0131482D01*
X0139028Y0132116D01*
X0139662Y0128312D02*
X0137127Y0128312D01*
X0149577Y0146188D02*
X0149577Y0149991D01*
X0151479Y0149991D01*
X0152113Y0149357D01*
X0152113Y0148089D01*
X0151479Y0147455D01*
X0149577Y0147455D01*
X0150845Y0147455D02*
X0152113Y0146188D01*
X0153721Y0146188D02*
X0156256Y0148723D01*
X0156256Y0149357D01*
X0155622Y0149991D01*
X0154355Y0149991D01*
X0153721Y0149357D01*
X0153396Y0152388D02*
X0155931Y0154923D01*
X0155931Y0155557D01*
X0155297Y0156191D01*
X0154030Y0156191D01*
X0153396Y0155557D01*
X0151788Y0155557D02*
X0151788Y0154289D01*
X0151154Y0153655D01*
X0149252Y0153655D01*
X0149252Y0152388D02*
X0149252Y0156191D01*
X0151154Y0156191D01*
X0151788Y0155557D01*
X0150520Y0153655D02*
X0151788Y0152388D01*
X0153396Y0152388D02*
X0155931Y0152388D01*
X0157539Y0153021D02*
X0158173Y0152388D01*
X0159441Y0152388D01*
X0160075Y0153021D01*
X0160075Y0155557D01*
X0159441Y0156191D01*
X0158173Y0156191D01*
X0157539Y0155557D01*
X0157539Y0154923D01*
X0158173Y0154289D01*
X0160075Y0154289D01*
X0160400Y0149991D02*
X0157864Y0149991D01*
X0160400Y0149991D02*
X0160400Y0149357D01*
X0157864Y0146821D01*
X0157864Y0146188D01*
X0156256Y0146188D02*
X0153721Y0146188D01*
X0145782Y0152746D02*
X0145782Y0155282D01*
X0145148Y0155916D01*
X0143880Y0155916D01*
X0143246Y0155282D01*
X0143246Y0154648D01*
X0143880Y0154014D01*
X0145782Y0154014D01*
X0145782Y0152746D02*
X0145148Y0152113D01*
X0143880Y0152113D01*
X0143246Y0152746D01*
X0141638Y0152746D02*
X0141004Y0152113D01*
X0139736Y0152113D01*
X0139103Y0152746D01*
X0139103Y0155282D01*
X0139736Y0155916D01*
X0141004Y0155916D01*
X0141638Y0155282D01*
X0149415Y0161025D02*
X0149415Y0164828D01*
X0151316Y0164828D01*
X0151950Y0164194D01*
X0151950Y0162927D01*
X0151316Y0162293D01*
X0149415Y0162293D01*
X0150682Y0162293D02*
X0151950Y0161025D01*
X0153558Y0161659D02*
X0154192Y0161025D01*
X0155460Y0161025D01*
X0156094Y0161659D01*
X0156094Y0162293D01*
X0155460Y0162927D01*
X0154826Y0162927D01*
X0155460Y0162927D02*
X0156094Y0163560D01*
X0156094Y0164194D01*
X0155460Y0164828D01*
X0154192Y0164828D01*
X0153558Y0164194D01*
X0157702Y0164194D02*
X0157702Y0161659D01*
X0160237Y0164194D01*
X0160237Y0161659D01*
X0159603Y0161025D01*
X0158336Y0161025D01*
X0157702Y0161659D01*
X0157702Y0164194D02*
X0158336Y0164828D01*
X0159603Y0164828D01*
X0160237Y0164194D01*
X0150132Y0168963D02*
X0147596Y0168963D01*
X0148864Y0168963D02*
X0148864Y0172766D01*
X0147596Y0171498D01*
X0145988Y0172132D02*
X0145988Y0169596D01*
X0145354Y0168963D01*
X0143453Y0168963D01*
X0143453Y0172766D01*
X0145354Y0172766D01*
X0145988Y0172132D01*
X0139197Y0190187D02*
X0136661Y0193991D01*
X0126766Y0190187D02*
X0124231Y0193991D01*
X0195061Y0160383D02*
X0196963Y0158481D01*
X0196963Y0161017D01*
X0198865Y0160383D02*
X0195061Y0160383D01*
X0195695Y0156873D02*
X0195061Y0156240D01*
X0195061Y0154972D01*
X0195695Y0154338D01*
X0195695Y0152730D02*
X0196963Y0152730D01*
X0197597Y0152096D01*
X0197597Y0150194D01*
X0198865Y0150194D02*
X0195061Y0150194D01*
X0195061Y0152096D01*
X0195695Y0152730D01*
X0197597Y0151462D02*
X0198865Y0152730D01*
X0198865Y0154338D02*
X0196329Y0156873D01*
X0195695Y0156873D01*
X0198865Y0156873D02*
X0198865Y0154338D01*
X0177622Y0073653D02*
X0176354Y0073653D01*
X0175720Y0073019D01*
X0174112Y0073019D02*
X0173478Y0073653D01*
X0172211Y0073653D01*
X0171577Y0073019D01*
X0171577Y0072385D01*
X0172211Y0071752D01*
X0173478Y0071752D01*
X0174112Y0071118D01*
X0174112Y0070484D01*
X0173478Y0069850D01*
X0172211Y0069850D01*
X0171577Y0070484D01*
X0169969Y0071752D02*
X0169335Y0071118D01*
X0167433Y0071118D01*
X0167433Y0069850D02*
X0167433Y0073653D01*
X0169335Y0073653D01*
X0169969Y0073019D01*
X0169969Y0071752D01*
X0165825Y0073653D02*
X0163290Y0073653D01*
X0164557Y0073653D02*
X0164557Y0069850D01*
X0164381Y0065553D02*
X0161846Y0065553D01*
X0161846Y0061750D01*
X0164381Y0061750D01*
X0165989Y0061750D02*
X0167891Y0061750D01*
X0168525Y0062384D01*
X0168525Y0064919D01*
X0167891Y0065553D01*
X0165989Y0065553D01*
X0165989Y0061750D01*
X0165241Y0059928D02*
X0163339Y0059928D01*
X0163339Y0056125D01*
X0165241Y0056125D01*
X0165875Y0056759D01*
X0165875Y0059294D01*
X0165241Y0059928D01*
X0167483Y0058660D02*
X0168751Y0059928D01*
X0168751Y0056125D01*
X0170018Y0056125D02*
X0167483Y0056125D01*
X0161731Y0056125D02*
X0159196Y0056125D01*
X0159196Y0059928D01*
X0161731Y0059928D01*
X0160463Y0058027D02*
X0159196Y0058027D01*
X0157588Y0056125D02*
X0155052Y0056125D01*
X0155052Y0059928D01*
X0157702Y0061750D02*
X0160238Y0061750D01*
X0161846Y0063652D02*
X0163113Y0063652D01*
X0157702Y0065553D02*
X0157702Y0061750D01*
X0170133Y0062384D02*
X0170767Y0061750D01*
X0172034Y0061750D01*
X0172668Y0062384D01*
X0172668Y0063018D01*
X0172034Y0063652D01*
X0171401Y0063652D01*
X0172034Y0063652D02*
X0172668Y0064285D01*
X0172668Y0064919D01*
X0172034Y0065553D01*
X0170767Y0065553D01*
X0170133Y0064919D01*
X0175720Y0070484D02*
X0176354Y0069850D01*
X0177622Y0069850D01*
X0178256Y0070484D01*
X0178256Y0071118D01*
X0177622Y0071752D01*
X0176988Y0071752D01*
X0177622Y0071752D02*
X0178256Y0072385D01*
X0178256Y0073019D01*
X0177622Y0073653D01*
X0184074Y0058016D02*
X0183440Y0057382D01*
X0183440Y0054846D01*
X0184074Y0054212D01*
X0185341Y0054212D01*
X0185975Y0054846D01*
X0187583Y0054846D02*
X0188217Y0054212D01*
X0189485Y0054212D01*
X0190119Y0054846D01*
X0190119Y0055480D01*
X0189485Y0056114D01*
X0187583Y0056114D01*
X0187583Y0054846D01*
X0187583Y0056114D02*
X0188851Y0057382D01*
X0190119Y0058016D01*
X0185975Y0057382D02*
X0185341Y0058016D01*
X0184074Y0058016D01*
X0168749Y0047507D02*
X0168749Y0046239D01*
X0168115Y0045605D01*
X0166214Y0045605D01*
X0166214Y0044337D02*
X0166214Y0048141D01*
X0168115Y0048141D01*
X0168749Y0047507D01*
X0167482Y0045605D02*
X0168749Y0044337D01*
X0164606Y0044337D02*
X0164606Y0048141D01*
X0162070Y0048141D02*
X0162070Y0044337D01*
X0163338Y0045605D01*
X0164606Y0044337D01*
X0160462Y0046239D02*
X0160462Y0047507D01*
X0159828Y0048141D01*
X0157927Y0048141D01*
X0157927Y0044337D01*
X0157927Y0045605D02*
X0159828Y0045605D01*
X0160462Y0046239D01*
X0156319Y0046239D02*
X0155685Y0045605D01*
X0153783Y0045605D01*
X0153783Y0044337D02*
X0153783Y0048141D01*
X0155685Y0048141D01*
X0156319Y0047507D01*
X0156319Y0046239D01*
X0152175Y0048141D02*
X0149640Y0048141D01*
X0150907Y0048141D02*
X0150907Y0044337D01*
X0127597Y0068838D02*
X0126330Y0068838D01*
X0125696Y0069471D01*
X0126330Y0070739D02*
X0128231Y0070739D01*
X0128231Y0069471D02*
X0128231Y0072007D01*
X0127597Y0072641D01*
X0126330Y0072641D01*
X0125696Y0072007D01*
X0125696Y0071373D01*
X0126330Y0070739D01*
X0124088Y0070739D02*
X0124088Y0072007D01*
X0123454Y0072641D01*
X0121552Y0072641D01*
X0121552Y0068838D01*
X0121552Y0070105D02*
X0123454Y0070105D01*
X0124088Y0070739D01*
X0122820Y0070105D02*
X0124088Y0068838D01*
X0127597Y0068838D02*
X0128231Y0069471D01*
X0117318Y0071638D02*
X0116050Y0072905D01*
X0116684Y0072905D02*
X0114782Y0072905D01*
X0114782Y0071638D02*
X0114782Y0075441D01*
X0116684Y0075441D01*
X0117318Y0074807D01*
X0117318Y0073539D01*
X0116684Y0072905D01*
X0113174Y0072271D02*
X0113174Y0074807D01*
X0112540Y0075441D01*
X0110639Y0075441D01*
X0110639Y0071638D01*
X0112540Y0071638D01*
X0113174Y0072271D01*
X0109031Y0071638D02*
X0106495Y0071638D01*
X0106495Y0075441D01*
X0104887Y0074807D02*
X0104253Y0075441D01*
X0102986Y0075441D01*
X0102352Y0074807D01*
X0102352Y0074173D01*
X0102986Y0073539D01*
X0104253Y0073539D01*
X0104887Y0072905D01*
X0104887Y0072271D01*
X0104253Y0071638D01*
X0102986Y0071638D01*
X0102352Y0072271D01*
X0100744Y0073539D02*
X0100110Y0072905D01*
X0098208Y0072905D01*
X0098208Y0071638D02*
X0098208Y0075441D01*
X0100110Y0075441D01*
X0100744Y0074807D01*
X0100744Y0073539D01*
X0096600Y0075441D02*
X0094065Y0075441D01*
X0095332Y0075441D02*
X0095332Y0071638D01*
X0083944Y0068100D02*
X0081408Y0068100D01*
X0082676Y0068100D02*
X0082676Y0071903D01*
X0081408Y0070635D01*
X0079800Y0071269D02*
X0079166Y0071903D01*
X0077899Y0071903D01*
X0077265Y0071269D01*
X0077265Y0068734D01*
X0077899Y0068100D01*
X0079166Y0068100D01*
X0079800Y0068734D01*
X0087395Y0054917D02*
X0086761Y0054283D01*
X0086761Y0053015D01*
X0087395Y0052381D01*
X0087395Y0050773D02*
X0086761Y0050140D01*
X0086761Y0048872D01*
X0087395Y0048238D01*
X0089931Y0048238D01*
X0090565Y0048872D01*
X0090565Y0050140D01*
X0089931Y0050773D01*
X0090565Y0052381D02*
X0088029Y0054917D01*
X0087395Y0054917D01*
X0090565Y0054917D02*
X0090565Y0052381D01*
X0113313Y0055735D02*
X0116002Y0058424D01*
X0117347Y0057079D01*
X0117347Y0056183D01*
X0116450Y0055287D01*
X0115554Y0055287D01*
X0114209Y0056631D01*
X0115106Y0055735D02*
X0115106Y0053942D01*
X0116243Y0052805D02*
X0118036Y0051012D01*
X0117139Y0051908D02*
X0119829Y0054598D01*
X0118036Y0054598D01*
X0121414Y0052116D02*
X0119621Y0050323D01*
X0123207Y0050323D01*
X0121414Y0048530D01*
X0120517Y0048530D01*
X0119621Y0049427D01*
X0119621Y0050323D01*
X0121414Y0052116D02*
X0122310Y0052116D01*
X0123207Y0051220D01*
X0123207Y0050323D01*
X0115538Y0038761D02*
X0115538Y0037493D01*
X0115538Y0035885D02*
X0114270Y0035885D01*
X0113636Y0035251D01*
X0113636Y0033350D01*
X0117440Y0033350D01*
X0116172Y0033350D02*
X0116172Y0035251D01*
X0115538Y0035885D01*
X0116172Y0034618D02*
X0117440Y0035885D01*
X0117440Y0037493D02*
X0113636Y0037493D01*
X0113636Y0040029D01*
X0113636Y0031855D02*
X0113636Y0030587D01*
X0113636Y0031221D02*
X0117440Y0031221D01*
X0117440Y0030587D02*
X0117440Y0031855D01*
X0058594Y0070646D02*
X0058594Y0071280D01*
X0057960Y0071914D01*
X0056059Y0071914D01*
X0056059Y0070646D01*
X0056693Y0070013D01*
X0057960Y0070013D01*
X0058594Y0070646D01*
X0056059Y0071914D02*
X0057326Y0073182D01*
X0058594Y0073816D01*
X0054451Y0073182D02*
X0054451Y0071914D01*
X0053817Y0071280D01*
X0051915Y0071280D01*
X0051915Y0070013D02*
X0051915Y0073816D01*
X0053817Y0073816D01*
X0054451Y0073182D01*
X0053183Y0071280D02*
X0054451Y0070013D01*
X0034240Y0172832D02*
X0030436Y0172832D01*
X0030436Y0174734D01*
X0031070Y0175367D01*
X0032338Y0175367D01*
X0032972Y0174734D01*
X0032972Y0172832D01*
X0032972Y0174100D02*
X0034240Y0175367D01*
X0033606Y0176975D02*
X0034240Y0177609D01*
X0034240Y0178877D01*
X0033606Y0179511D01*
X0032972Y0179511D01*
X0032338Y0178877D01*
X0032338Y0178243D01*
X0032338Y0178877D02*
X0031704Y0179511D01*
X0031070Y0179511D01*
X0030436Y0178877D01*
X0030436Y0177609D01*
X0031070Y0176975D01*
X0032338Y0181119D02*
X0032338Y0183654D01*
X0030436Y0183021D02*
X0032338Y0181119D01*
X0034240Y0183021D02*
X0030436Y0183021D01*
M02*
