%
M48
M72
T01C0.01220
T02C0.01575
T03C0.02362
T04C0.03200
T05C0.04000
T06C0.12598
%
T01
X134227Y151800
X91727Y163050
X194227Y125550
X81102Y151488
X77117Y54365
X166427Y135088
X175027Y131638
X84990Y147088
X75902Y125787
X65165Y129612
X52202Y125375
X35977Y130725
X50965Y138050
X46052Y127800
X96627Y175750
X178277Y131638
X179752Y142888
X180402Y166613
X139290Y175062
X129215Y175062
X117515Y171650
X101102Y144188
X108415Y129887
X119940Y130500
X133752Y134238
X23752Y134925
X27977Y121925
X10590Y136550
X20665Y154913
X11727Y81625
X73227Y179975
X60552Y172500
X51615Y174287
X35365Y165513
X156827Y47950
X202177Y41450
X50740Y104737
X50740Y95312
X51527Y77363
X156827Y44700
X156827Y41450
X156827Y38200
X156827Y34950
X156827Y31700
X156827Y28450
X156827Y51200
X156827Y54450
X183002Y36450
X126277Y63012
X156827Y57700
X163327Y67450
X166577Y67450
X169827Y67450
X173077Y67450
X176327Y67450
X131327Y163525
X116540Y149388
X135052Y144313
X135052Y139438
X116540Y152638
X202177Y44700
X202177Y47950
X202177Y51200
X202177Y54450
X202177Y57700
X202177Y60950
X202177Y64200
X202177Y67450
X195677Y67450
X189177Y67450
X192427Y67450
X179427Y67450
X185927Y67450
X182677Y67450
X202177Y38200
X202177Y34950
X202177Y31700
X202177Y28450
X202177Y25200
X156827Y25200
X163327Y25200
X166577Y25200
X169827Y25200
X173077Y25200
X179577Y25200
X182827Y25200
X186077Y25200
X189327Y25200
X192577Y25200
X195827Y25200
X199077Y25200
X76715Y40800
X73465Y40800
X70215Y40800
X76715Y47300
X76715Y44050
X167565Y55462
X170815Y55462
X174065Y55462
X100277Y29262
X103527Y29262
X106777Y29262
X110027Y29262
X113277Y29262
X100277Y26012
X103527Y26012
X106777Y26012
X110027Y26012
X113277Y26012
X138627Y23087
X149352Y23087
X138627Y25850
X149352Y25850
X111177Y127287
X82102Y70775
X91365Y64925
X52852Y59075
X52852Y51925
X90552Y96450
X80477Y95475
X101115Y96450
X106865Y175750
X50477Y192162
X35852Y187612
X27240Y174287
X62577Y24225
X59327Y24225
X56077Y24225
X62577Y30725
X62577Y27475
X54865Y138050
X88240Y147088
X84990Y150338
X38452Y157063
X196815Y176687
X200552Y172300
X186252Y160275
X75440Y60375
X63090Y51437
X39202Y44937
X31077Y44937
X25702Y124687
X23752Y138175
X27002Y99500
X27002Y96250
X142202Y123187
X145127Y132450
X173252Y158325
X190965Y144188
X202002Y142525
X202002Y139275
X202002Y136025
X171777Y131638
X148052Y132450
X79152Y125787
X122565Y95312
X137515Y95312
X123377Y103925
X137027Y105062
X89415Y104575
X100952Y104412
X58377Y103112
X59027Y96612
X139277Y123187
X104915Y167625
X85740Y163888
X89902Y75650
X59652Y77363
X57977Y107287
X81727Y104300
X122215Y65012
X117665Y69400
X92802Y78175
X67940Y163488
X77165Y145238
X18602Y163988
X39540Y133675
X77365Y164625
X55590Y77363
X27665Y136175
X41202Y164300
X93702Y154625
X131802Y48762
X175477Y87975
X187977Y167425
X195477Y119300
X177352Y116800
X13915Y97112
X44790Y158363
X18290Y95862
X49190Y155550
X58402Y149725
X42665Y125862
X31415Y138675
X33652Y152600
X63065Y162675
X95240Y157313
X87352Y129925
X125302Y26825
X53290Y149613
X127577Y50550
X87665Y142738
X145940Y60625
X103915Y135238
X84515Y18050
X98977Y123350
X125627Y84025
X197615Y57537
X44852Y85863
X136190Y76063
X129852Y130987
X154227Y159300
X150977Y170313
X175352Y170638
X156727Y154300
X174865Y151625
X175677Y143663
X153808Y140969
X190465Y163813
X82977Y160738
X86727Y160713
X19540Y123987
X151302Y175025
X116527Y144313
X116852Y139113
X143177Y71188
T02
X83377Y46000
X195665Y62412
X124977Y126437
X82927Y176850
T03
X62015Y66013
X49515Y42263
T04
X117662Y120225
X117662Y110225
X117662Y100225
X117662Y90225
X117662Y80225
X147662Y80225
X147662Y90225
X147662Y100225
X147662Y110225
X147662Y120225
X76717Y120225
X76717Y110225
X76717Y100225
X76717Y90225
X76717Y80225
X106717Y80225
X106717Y90225
X106717Y100225
X106717Y110225
X106717Y120225
X35772Y120225
X35772Y110225
X35772Y100225
X35772Y90225
X35772Y80225
X65772Y80225
X65772Y90225
X65772Y100225
X65772Y110225
X65772Y120225
X35365Y58087
X35365Y66088
X20615Y35600
X28615Y35600
X191977Y138050
X183977Y138050
T05
X111727Y183050
X101727Y183050
X91727Y183050
X104015Y15612
X114015Y15612
X124015Y15612
X154015Y15612
X164015Y15612
X174015Y15612
X134015Y15612
X144015Y15612
X105927Y36400
X105927Y46400
X105927Y56400
X105927Y66400
X65477Y178050
X65477Y188050
X55477Y178050
X55477Y188050
X45477Y178050
X45477Y188050
X74515Y32262
X54515Y32262
X185226Y105105
X185226Y122905
X159626Y105105
X159626Y122905
X159626Y95346
X159626Y77546
X185226Y95346
X185226Y77546
X144227Y183050
X134227Y183050
X124227Y183050
X176727Y183050
X166727Y183050
X156727Y183050
T06
X192229Y186052
X20576Y186052
X192229Y14398
X20576Y14398
M30
