G75*
%MOIN*%
%OFA0B0*%
%FSLAX25Y25*%
%IPPOS*%
%LPD*%
%AMOC8*
5,1,8,0,0,1.08239X$1,22.5*
%
%ADD10C,0.00000*%
%ADD11R,0.26813X0.08775*%
%ADD12R,0.04331X0.03937*%
%ADD13C,0.04800*%
%ADD14R,0.03937X0.04331*%
%ADD15R,0.02200X0.05000*%
%ADD16R,0.05000X0.02200*%
%ADD17R,0.07900X0.05900*%
%ADD18R,0.07900X0.15000*%
%ADD19C,0.06000*%
%ADD20R,0.06000X0.06000*%
%ADD21OC8,0.06000*%
%ADD22OC8,0.05000*%
%ADD23C,0.05000*%
%ADD24R,0.04724X0.04724*%
%ADD25C,0.10000*%
%ADD26OC8,0.10000*%
%ADD27R,0.03937X0.05512*%
%ADD28R,0.08661X0.02362*%
%ADD29R,0.05512X0.07087*%
%ADD30C,0.02000*%
%ADD31C,0.02420*%
%ADD32C,0.01000*%
%ADD33C,0.01969*%
%ADD34C,0.02775*%
%ADD35C,0.01800*%
%ADD36C,0.03150*%
%ADD37C,0.01600*%
%ADD38C,0.03937*%
%ADD39C,0.03562*%
%ADD40C,0.05906*%
D10*
X0012796Y0013611D02*
X0012796Y0186839D01*
X0018308Y0186839D02*
X0018310Y0186997D01*
X0018316Y0187155D01*
X0018326Y0187313D01*
X0018340Y0187471D01*
X0018358Y0187628D01*
X0018379Y0187785D01*
X0018405Y0187941D01*
X0018435Y0188097D01*
X0018468Y0188252D01*
X0018506Y0188405D01*
X0018547Y0188558D01*
X0018592Y0188710D01*
X0018641Y0188861D01*
X0018694Y0189010D01*
X0018750Y0189158D01*
X0018810Y0189304D01*
X0018874Y0189449D01*
X0018942Y0189592D01*
X0019013Y0189734D01*
X0019087Y0189874D01*
X0019165Y0190011D01*
X0019247Y0190147D01*
X0019331Y0190281D01*
X0019420Y0190412D01*
X0019511Y0190541D01*
X0019606Y0190668D01*
X0019703Y0190793D01*
X0019804Y0190915D01*
X0019908Y0191034D01*
X0020015Y0191151D01*
X0020125Y0191265D01*
X0020238Y0191376D01*
X0020353Y0191485D01*
X0020471Y0191590D01*
X0020592Y0191692D01*
X0020715Y0191792D01*
X0020841Y0191888D01*
X0020969Y0191981D01*
X0021099Y0192071D01*
X0021232Y0192157D01*
X0021367Y0192241D01*
X0021503Y0192320D01*
X0021642Y0192397D01*
X0021783Y0192469D01*
X0021925Y0192539D01*
X0022069Y0192604D01*
X0022215Y0192666D01*
X0022362Y0192724D01*
X0022511Y0192779D01*
X0022661Y0192830D01*
X0022812Y0192877D01*
X0022964Y0192920D01*
X0023117Y0192959D01*
X0023272Y0192995D01*
X0023427Y0193026D01*
X0023583Y0193054D01*
X0023739Y0193078D01*
X0023896Y0193098D01*
X0024054Y0193114D01*
X0024211Y0193126D01*
X0024370Y0193134D01*
X0024528Y0193138D01*
X0024686Y0193138D01*
X0024844Y0193134D01*
X0025003Y0193126D01*
X0025160Y0193114D01*
X0025318Y0193098D01*
X0025475Y0193078D01*
X0025631Y0193054D01*
X0025787Y0193026D01*
X0025942Y0192995D01*
X0026097Y0192959D01*
X0026250Y0192920D01*
X0026402Y0192877D01*
X0026553Y0192830D01*
X0026703Y0192779D01*
X0026852Y0192724D01*
X0026999Y0192666D01*
X0027145Y0192604D01*
X0027289Y0192539D01*
X0027431Y0192469D01*
X0027572Y0192397D01*
X0027711Y0192320D01*
X0027847Y0192241D01*
X0027982Y0192157D01*
X0028115Y0192071D01*
X0028245Y0191981D01*
X0028373Y0191888D01*
X0028499Y0191792D01*
X0028622Y0191692D01*
X0028743Y0191590D01*
X0028861Y0191485D01*
X0028976Y0191376D01*
X0029089Y0191265D01*
X0029199Y0191151D01*
X0029306Y0191034D01*
X0029410Y0190915D01*
X0029511Y0190793D01*
X0029608Y0190668D01*
X0029703Y0190541D01*
X0029794Y0190412D01*
X0029883Y0190281D01*
X0029967Y0190147D01*
X0030049Y0190011D01*
X0030127Y0189874D01*
X0030201Y0189734D01*
X0030272Y0189592D01*
X0030340Y0189449D01*
X0030404Y0189304D01*
X0030464Y0189158D01*
X0030520Y0189010D01*
X0030573Y0188861D01*
X0030622Y0188710D01*
X0030667Y0188558D01*
X0030708Y0188405D01*
X0030746Y0188252D01*
X0030779Y0188097D01*
X0030809Y0187941D01*
X0030835Y0187785D01*
X0030856Y0187628D01*
X0030874Y0187471D01*
X0030888Y0187313D01*
X0030898Y0187155D01*
X0030904Y0186997D01*
X0030906Y0186839D01*
X0030904Y0186681D01*
X0030898Y0186523D01*
X0030888Y0186365D01*
X0030874Y0186207D01*
X0030856Y0186050D01*
X0030835Y0185893D01*
X0030809Y0185737D01*
X0030779Y0185581D01*
X0030746Y0185426D01*
X0030708Y0185273D01*
X0030667Y0185120D01*
X0030622Y0184968D01*
X0030573Y0184817D01*
X0030520Y0184668D01*
X0030464Y0184520D01*
X0030404Y0184374D01*
X0030340Y0184229D01*
X0030272Y0184086D01*
X0030201Y0183944D01*
X0030127Y0183804D01*
X0030049Y0183667D01*
X0029967Y0183531D01*
X0029883Y0183397D01*
X0029794Y0183266D01*
X0029703Y0183137D01*
X0029608Y0183010D01*
X0029511Y0182885D01*
X0029410Y0182763D01*
X0029306Y0182644D01*
X0029199Y0182527D01*
X0029089Y0182413D01*
X0028976Y0182302D01*
X0028861Y0182193D01*
X0028743Y0182088D01*
X0028622Y0181986D01*
X0028499Y0181886D01*
X0028373Y0181790D01*
X0028245Y0181697D01*
X0028115Y0181607D01*
X0027982Y0181521D01*
X0027847Y0181437D01*
X0027711Y0181358D01*
X0027572Y0181281D01*
X0027431Y0181209D01*
X0027289Y0181139D01*
X0027145Y0181074D01*
X0026999Y0181012D01*
X0026852Y0180954D01*
X0026703Y0180899D01*
X0026553Y0180848D01*
X0026402Y0180801D01*
X0026250Y0180758D01*
X0026097Y0180719D01*
X0025942Y0180683D01*
X0025787Y0180652D01*
X0025631Y0180624D01*
X0025475Y0180600D01*
X0025318Y0180580D01*
X0025160Y0180564D01*
X0025003Y0180552D01*
X0024844Y0180544D01*
X0024686Y0180540D01*
X0024528Y0180540D01*
X0024370Y0180544D01*
X0024211Y0180552D01*
X0024054Y0180564D01*
X0023896Y0180580D01*
X0023739Y0180600D01*
X0023583Y0180624D01*
X0023427Y0180652D01*
X0023272Y0180683D01*
X0023117Y0180719D01*
X0022964Y0180758D01*
X0022812Y0180801D01*
X0022661Y0180848D01*
X0022511Y0180899D01*
X0022362Y0180954D01*
X0022215Y0181012D01*
X0022069Y0181074D01*
X0021925Y0181139D01*
X0021783Y0181209D01*
X0021642Y0181281D01*
X0021503Y0181358D01*
X0021367Y0181437D01*
X0021232Y0181521D01*
X0021099Y0181607D01*
X0020969Y0181697D01*
X0020841Y0181790D01*
X0020715Y0181886D01*
X0020592Y0181986D01*
X0020471Y0182088D01*
X0020353Y0182193D01*
X0020238Y0182302D01*
X0020125Y0182413D01*
X0020015Y0182527D01*
X0019908Y0182644D01*
X0019804Y0182763D01*
X0019703Y0182885D01*
X0019606Y0183010D01*
X0019511Y0183137D01*
X0019420Y0183266D01*
X0019331Y0183397D01*
X0019247Y0183531D01*
X0019165Y0183667D01*
X0019087Y0183804D01*
X0019013Y0183944D01*
X0018942Y0184086D01*
X0018874Y0184229D01*
X0018810Y0184374D01*
X0018750Y0184520D01*
X0018694Y0184668D01*
X0018641Y0184817D01*
X0018592Y0184968D01*
X0018547Y0185120D01*
X0018506Y0185273D01*
X0018468Y0185426D01*
X0018435Y0185581D01*
X0018405Y0185737D01*
X0018379Y0185893D01*
X0018358Y0186050D01*
X0018340Y0186207D01*
X0018326Y0186365D01*
X0018316Y0186523D01*
X0018310Y0186681D01*
X0018308Y0186839D01*
X0012796Y0186839D02*
X0012799Y0187124D01*
X0012810Y0187410D01*
X0012827Y0187695D01*
X0012851Y0187979D01*
X0012882Y0188263D01*
X0012920Y0188546D01*
X0012965Y0188827D01*
X0013016Y0189108D01*
X0013074Y0189388D01*
X0013139Y0189666D01*
X0013211Y0189942D01*
X0013289Y0190216D01*
X0013374Y0190489D01*
X0013466Y0190759D01*
X0013564Y0191027D01*
X0013668Y0191293D01*
X0013779Y0191556D01*
X0013896Y0191816D01*
X0014019Y0192074D01*
X0014149Y0192328D01*
X0014285Y0192579D01*
X0014426Y0192827D01*
X0014574Y0193071D01*
X0014727Y0193312D01*
X0014887Y0193548D01*
X0015052Y0193781D01*
X0015222Y0194010D01*
X0015398Y0194235D01*
X0015580Y0194455D01*
X0015766Y0194671D01*
X0015958Y0194882D01*
X0016155Y0195089D01*
X0016357Y0195291D01*
X0016564Y0195488D01*
X0016775Y0195680D01*
X0016991Y0195866D01*
X0017211Y0196048D01*
X0017436Y0196224D01*
X0017665Y0196394D01*
X0017898Y0196559D01*
X0018134Y0196719D01*
X0018375Y0196872D01*
X0018619Y0197020D01*
X0018867Y0197161D01*
X0019118Y0197297D01*
X0019372Y0197427D01*
X0019630Y0197550D01*
X0019890Y0197667D01*
X0020153Y0197778D01*
X0020419Y0197882D01*
X0020687Y0197980D01*
X0020957Y0198072D01*
X0021230Y0198157D01*
X0021504Y0198235D01*
X0021780Y0198307D01*
X0022058Y0198372D01*
X0022338Y0198430D01*
X0022619Y0198481D01*
X0022900Y0198526D01*
X0023183Y0198564D01*
X0023467Y0198595D01*
X0023751Y0198619D01*
X0024036Y0198636D01*
X0024322Y0198647D01*
X0024607Y0198650D01*
X0197835Y0198650D01*
X0191536Y0186839D02*
X0191538Y0186997D01*
X0191544Y0187155D01*
X0191554Y0187313D01*
X0191568Y0187471D01*
X0191586Y0187628D01*
X0191607Y0187785D01*
X0191633Y0187941D01*
X0191663Y0188097D01*
X0191696Y0188252D01*
X0191734Y0188405D01*
X0191775Y0188558D01*
X0191820Y0188710D01*
X0191869Y0188861D01*
X0191922Y0189010D01*
X0191978Y0189158D01*
X0192038Y0189304D01*
X0192102Y0189449D01*
X0192170Y0189592D01*
X0192241Y0189734D01*
X0192315Y0189874D01*
X0192393Y0190011D01*
X0192475Y0190147D01*
X0192559Y0190281D01*
X0192648Y0190412D01*
X0192739Y0190541D01*
X0192834Y0190668D01*
X0192931Y0190793D01*
X0193032Y0190915D01*
X0193136Y0191034D01*
X0193243Y0191151D01*
X0193353Y0191265D01*
X0193466Y0191376D01*
X0193581Y0191485D01*
X0193699Y0191590D01*
X0193820Y0191692D01*
X0193943Y0191792D01*
X0194069Y0191888D01*
X0194197Y0191981D01*
X0194327Y0192071D01*
X0194460Y0192157D01*
X0194595Y0192241D01*
X0194731Y0192320D01*
X0194870Y0192397D01*
X0195011Y0192469D01*
X0195153Y0192539D01*
X0195297Y0192604D01*
X0195443Y0192666D01*
X0195590Y0192724D01*
X0195739Y0192779D01*
X0195889Y0192830D01*
X0196040Y0192877D01*
X0196192Y0192920D01*
X0196345Y0192959D01*
X0196500Y0192995D01*
X0196655Y0193026D01*
X0196811Y0193054D01*
X0196967Y0193078D01*
X0197124Y0193098D01*
X0197282Y0193114D01*
X0197439Y0193126D01*
X0197598Y0193134D01*
X0197756Y0193138D01*
X0197914Y0193138D01*
X0198072Y0193134D01*
X0198231Y0193126D01*
X0198388Y0193114D01*
X0198546Y0193098D01*
X0198703Y0193078D01*
X0198859Y0193054D01*
X0199015Y0193026D01*
X0199170Y0192995D01*
X0199325Y0192959D01*
X0199478Y0192920D01*
X0199630Y0192877D01*
X0199781Y0192830D01*
X0199931Y0192779D01*
X0200080Y0192724D01*
X0200227Y0192666D01*
X0200373Y0192604D01*
X0200517Y0192539D01*
X0200659Y0192469D01*
X0200800Y0192397D01*
X0200939Y0192320D01*
X0201075Y0192241D01*
X0201210Y0192157D01*
X0201343Y0192071D01*
X0201473Y0191981D01*
X0201601Y0191888D01*
X0201727Y0191792D01*
X0201850Y0191692D01*
X0201971Y0191590D01*
X0202089Y0191485D01*
X0202204Y0191376D01*
X0202317Y0191265D01*
X0202427Y0191151D01*
X0202534Y0191034D01*
X0202638Y0190915D01*
X0202739Y0190793D01*
X0202836Y0190668D01*
X0202931Y0190541D01*
X0203022Y0190412D01*
X0203111Y0190281D01*
X0203195Y0190147D01*
X0203277Y0190011D01*
X0203355Y0189874D01*
X0203429Y0189734D01*
X0203500Y0189592D01*
X0203568Y0189449D01*
X0203632Y0189304D01*
X0203692Y0189158D01*
X0203748Y0189010D01*
X0203801Y0188861D01*
X0203850Y0188710D01*
X0203895Y0188558D01*
X0203936Y0188405D01*
X0203974Y0188252D01*
X0204007Y0188097D01*
X0204037Y0187941D01*
X0204063Y0187785D01*
X0204084Y0187628D01*
X0204102Y0187471D01*
X0204116Y0187313D01*
X0204126Y0187155D01*
X0204132Y0186997D01*
X0204134Y0186839D01*
X0204132Y0186681D01*
X0204126Y0186523D01*
X0204116Y0186365D01*
X0204102Y0186207D01*
X0204084Y0186050D01*
X0204063Y0185893D01*
X0204037Y0185737D01*
X0204007Y0185581D01*
X0203974Y0185426D01*
X0203936Y0185273D01*
X0203895Y0185120D01*
X0203850Y0184968D01*
X0203801Y0184817D01*
X0203748Y0184668D01*
X0203692Y0184520D01*
X0203632Y0184374D01*
X0203568Y0184229D01*
X0203500Y0184086D01*
X0203429Y0183944D01*
X0203355Y0183804D01*
X0203277Y0183667D01*
X0203195Y0183531D01*
X0203111Y0183397D01*
X0203022Y0183266D01*
X0202931Y0183137D01*
X0202836Y0183010D01*
X0202739Y0182885D01*
X0202638Y0182763D01*
X0202534Y0182644D01*
X0202427Y0182527D01*
X0202317Y0182413D01*
X0202204Y0182302D01*
X0202089Y0182193D01*
X0201971Y0182088D01*
X0201850Y0181986D01*
X0201727Y0181886D01*
X0201601Y0181790D01*
X0201473Y0181697D01*
X0201343Y0181607D01*
X0201210Y0181521D01*
X0201075Y0181437D01*
X0200939Y0181358D01*
X0200800Y0181281D01*
X0200659Y0181209D01*
X0200517Y0181139D01*
X0200373Y0181074D01*
X0200227Y0181012D01*
X0200080Y0180954D01*
X0199931Y0180899D01*
X0199781Y0180848D01*
X0199630Y0180801D01*
X0199478Y0180758D01*
X0199325Y0180719D01*
X0199170Y0180683D01*
X0199015Y0180652D01*
X0198859Y0180624D01*
X0198703Y0180600D01*
X0198546Y0180580D01*
X0198388Y0180564D01*
X0198231Y0180552D01*
X0198072Y0180544D01*
X0197914Y0180540D01*
X0197756Y0180540D01*
X0197598Y0180544D01*
X0197439Y0180552D01*
X0197282Y0180564D01*
X0197124Y0180580D01*
X0196967Y0180600D01*
X0196811Y0180624D01*
X0196655Y0180652D01*
X0196500Y0180683D01*
X0196345Y0180719D01*
X0196192Y0180758D01*
X0196040Y0180801D01*
X0195889Y0180848D01*
X0195739Y0180899D01*
X0195590Y0180954D01*
X0195443Y0181012D01*
X0195297Y0181074D01*
X0195153Y0181139D01*
X0195011Y0181209D01*
X0194870Y0181281D01*
X0194731Y0181358D01*
X0194595Y0181437D01*
X0194460Y0181521D01*
X0194327Y0181607D01*
X0194197Y0181697D01*
X0194069Y0181790D01*
X0193943Y0181886D01*
X0193820Y0181986D01*
X0193699Y0182088D01*
X0193581Y0182193D01*
X0193466Y0182302D01*
X0193353Y0182413D01*
X0193243Y0182527D01*
X0193136Y0182644D01*
X0193032Y0182763D01*
X0192931Y0182885D01*
X0192834Y0183010D01*
X0192739Y0183137D01*
X0192648Y0183266D01*
X0192559Y0183397D01*
X0192475Y0183531D01*
X0192393Y0183667D01*
X0192315Y0183804D01*
X0192241Y0183944D01*
X0192170Y0184086D01*
X0192102Y0184229D01*
X0192038Y0184374D01*
X0191978Y0184520D01*
X0191922Y0184668D01*
X0191869Y0184817D01*
X0191820Y0184968D01*
X0191775Y0185120D01*
X0191734Y0185273D01*
X0191696Y0185426D01*
X0191663Y0185581D01*
X0191633Y0185737D01*
X0191607Y0185893D01*
X0191586Y0186050D01*
X0191568Y0186207D01*
X0191554Y0186365D01*
X0191544Y0186523D01*
X0191538Y0186681D01*
X0191536Y0186839D01*
X0197835Y0198650D02*
X0198120Y0198647D01*
X0198406Y0198636D01*
X0198691Y0198619D01*
X0198975Y0198595D01*
X0199259Y0198564D01*
X0199542Y0198526D01*
X0199823Y0198481D01*
X0200104Y0198430D01*
X0200384Y0198372D01*
X0200662Y0198307D01*
X0200938Y0198235D01*
X0201212Y0198157D01*
X0201485Y0198072D01*
X0201755Y0197980D01*
X0202023Y0197882D01*
X0202289Y0197778D01*
X0202552Y0197667D01*
X0202812Y0197550D01*
X0203070Y0197427D01*
X0203324Y0197297D01*
X0203575Y0197161D01*
X0203823Y0197020D01*
X0204067Y0196872D01*
X0204308Y0196719D01*
X0204544Y0196559D01*
X0204777Y0196394D01*
X0205006Y0196224D01*
X0205231Y0196048D01*
X0205451Y0195866D01*
X0205667Y0195680D01*
X0205878Y0195488D01*
X0206085Y0195291D01*
X0206287Y0195089D01*
X0206484Y0194882D01*
X0206676Y0194671D01*
X0206862Y0194455D01*
X0207044Y0194235D01*
X0207220Y0194010D01*
X0207390Y0193781D01*
X0207555Y0193548D01*
X0207715Y0193312D01*
X0207868Y0193071D01*
X0208016Y0192827D01*
X0208157Y0192579D01*
X0208293Y0192328D01*
X0208423Y0192074D01*
X0208546Y0191816D01*
X0208663Y0191556D01*
X0208774Y0191293D01*
X0208878Y0191027D01*
X0208976Y0190759D01*
X0209068Y0190489D01*
X0209153Y0190216D01*
X0209231Y0189942D01*
X0209303Y0189666D01*
X0209368Y0189388D01*
X0209426Y0189108D01*
X0209477Y0188827D01*
X0209522Y0188546D01*
X0209560Y0188263D01*
X0209591Y0187979D01*
X0209615Y0187695D01*
X0209632Y0187410D01*
X0209643Y0187124D01*
X0209646Y0186839D01*
X0209646Y0013611D01*
X0191536Y0013611D02*
X0191538Y0013769D01*
X0191544Y0013927D01*
X0191554Y0014085D01*
X0191568Y0014243D01*
X0191586Y0014400D01*
X0191607Y0014557D01*
X0191633Y0014713D01*
X0191663Y0014869D01*
X0191696Y0015024D01*
X0191734Y0015177D01*
X0191775Y0015330D01*
X0191820Y0015482D01*
X0191869Y0015633D01*
X0191922Y0015782D01*
X0191978Y0015930D01*
X0192038Y0016076D01*
X0192102Y0016221D01*
X0192170Y0016364D01*
X0192241Y0016506D01*
X0192315Y0016646D01*
X0192393Y0016783D01*
X0192475Y0016919D01*
X0192559Y0017053D01*
X0192648Y0017184D01*
X0192739Y0017313D01*
X0192834Y0017440D01*
X0192931Y0017565D01*
X0193032Y0017687D01*
X0193136Y0017806D01*
X0193243Y0017923D01*
X0193353Y0018037D01*
X0193466Y0018148D01*
X0193581Y0018257D01*
X0193699Y0018362D01*
X0193820Y0018464D01*
X0193943Y0018564D01*
X0194069Y0018660D01*
X0194197Y0018753D01*
X0194327Y0018843D01*
X0194460Y0018929D01*
X0194595Y0019013D01*
X0194731Y0019092D01*
X0194870Y0019169D01*
X0195011Y0019241D01*
X0195153Y0019311D01*
X0195297Y0019376D01*
X0195443Y0019438D01*
X0195590Y0019496D01*
X0195739Y0019551D01*
X0195889Y0019602D01*
X0196040Y0019649D01*
X0196192Y0019692D01*
X0196345Y0019731D01*
X0196500Y0019767D01*
X0196655Y0019798D01*
X0196811Y0019826D01*
X0196967Y0019850D01*
X0197124Y0019870D01*
X0197282Y0019886D01*
X0197439Y0019898D01*
X0197598Y0019906D01*
X0197756Y0019910D01*
X0197914Y0019910D01*
X0198072Y0019906D01*
X0198231Y0019898D01*
X0198388Y0019886D01*
X0198546Y0019870D01*
X0198703Y0019850D01*
X0198859Y0019826D01*
X0199015Y0019798D01*
X0199170Y0019767D01*
X0199325Y0019731D01*
X0199478Y0019692D01*
X0199630Y0019649D01*
X0199781Y0019602D01*
X0199931Y0019551D01*
X0200080Y0019496D01*
X0200227Y0019438D01*
X0200373Y0019376D01*
X0200517Y0019311D01*
X0200659Y0019241D01*
X0200800Y0019169D01*
X0200939Y0019092D01*
X0201075Y0019013D01*
X0201210Y0018929D01*
X0201343Y0018843D01*
X0201473Y0018753D01*
X0201601Y0018660D01*
X0201727Y0018564D01*
X0201850Y0018464D01*
X0201971Y0018362D01*
X0202089Y0018257D01*
X0202204Y0018148D01*
X0202317Y0018037D01*
X0202427Y0017923D01*
X0202534Y0017806D01*
X0202638Y0017687D01*
X0202739Y0017565D01*
X0202836Y0017440D01*
X0202931Y0017313D01*
X0203022Y0017184D01*
X0203111Y0017053D01*
X0203195Y0016919D01*
X0203277Y0016783D01*
X0203355Y0016646D01*
X0203429Y0016506D01*
X0203500Y0016364D01*
X0203568Y0016221D01*
X0203632Y0016076D01*
X0203692Y0015930D01*
X0203748Y0015782D01*
X0203801Y0015633D01*
X0203850Y0015482D01*
X0203895Y0015330D01*
X0203936Y0015177D01*
X0203974Y0015024D01*
X0204007Y0014869D01*
X0204037Y0014713D01*
X0204063Y0014557D01*
X0204084Y0014400D01*
X0204102Y0014243D01*
X0204116Y0014085D01*
X0204126Y0013927D01*
X0204132Y0013769D01*
X0204134Y0013611D01*
X0204132Y0013453D01*
X0204126Y0013295D01*
X0204116Y0013137D01*
X0204102Y0012979D01*
X0204084Y0012822D01*
X0204063Y0012665D01*
X0204037Y0012509D01*
X0204007Y0012353D01*
X0203974Y0012198D01*
X0203936Y0012045D01*
X0203895Y0011892D01*
X0203850Y0011740D01*
X0203801Y0011589D01*
X0203748Y0011440D01*
X0203692Y0011292D01*
X0203632Y0011146D01*
X0203568Y0011001D01*
X0203500Y0010858D01*
X0203429Y0010716D01*
X0203355Y0010576D01*
X0203277Y0010439D01*
X0203195Y0010303D01*
X0203111Y0010169D01*
X0203022Y0010038D01*
X0202931Y0009909D01*
X0202836Y0009782D01*
X0202739Y0009657D01*
X0202638Y0009535D01*
X0202534Y0009416D01*
X0202427Y0009299D01*
X0202317Y0009185D01*
X0202204Y0009074D01*
X0202089Y0008965D01*
X0201971Y0008860D01*
X0201850Y0008758D01*
X0201727Y0008658D01*
X0201601Y0008562D01*
X0201473Y0008469D01*
X0201343Y0008379D01*
X0201210Y0008293D01*
X0201075Y0008209D01*
X0200939Y0008130D01*
X0200800Y0008053D01*
X0200659Y0007981D01*
X0200517Y0007911D01*
X0200373Y0007846D01*
X0200227Y0007784D01*
X0200080Y0007726D01*
X0199931Y0007671D01*
X0199781Y0007620D01*
X0199630Y0007573D01*
X0199478Y0007530D01*
X0199325Y0007491D01*
X0199170Y0007455D01*
X0199015Y0007424D01*
X0198859Y0007396D01*
X0198703Y0007372D01*
X0198546Y0007352D01*
X0198388Y0007336D01*
X0198231Y0007324D01*
X0198072Y0007316D01*
X0197914Y0007312D01*
X0197756Y0007312D01*
X0197598Y0007316D01*
X0197439Y0007324D01*
X0197282Y0007336D01*
X0197124Y0007352D01*
X0196967Y0007372D01*
X0196811Y0007396D01*
X0196655Y0007424D01*
X0196500Y0007455D01*
X0196345Y0007491D01*
X0196192Y0007530D01*
X0196040Y0007573D01*
X0195889Y0007620D01*
X0195739Y0007671D01*
X0195590Y0007726D01*
X0195443Y0007784D01*
X0195297Y0007846D01*
X0195153Y0007911D01*
X0195011Y0007981D01*
X0194870Y0008053D01*
X0194731Y0008130D01*
X0194595Y0008209D01*
X0194460Y0008293D01*
X0194327Y0008379D01*
X0194197Y0008469D01*
X0194069Y0008562D01*
X0193943Y0008658D01*
X0193820Y0008758D01*
X0193699Y0008860D01*
X0193581Y0008965D01*
X0193466Y0009074D01*
X0193353Y0009185D01*
X0193243Y0009299D01*
X0193136Y0009416D01*
X0193032Y0009535D01*
X0192931Y0009657D01*
X0192834Y0009782D01*
X0192739Y0009909D01*
X0192648Y0010038D01*
X0192559Y0010169D01*
X0192475Y0010303D01*
X0192393Y0010439D01*
X0192315Y0010576D01*
X0192241Y0010716D01*
X0192170Y0010858D01*
X0192102Y0011001D01*
X0192038Y0011146D01*
X0191978Y0011292D01*
X0191922Y0011440D01*
X0191869Y0011589D01*
X0191820Y0011740D01*
X0191775Y0011892D01*
X0191734Y0012045D01*
X0191696Y0012198D01*
X0191663Y0012353D01*
X0191633Y0012509D01*
X0191607Y0012665D01*
X0191586Y0012822D01*
X0191568Y0012979D01*
X0191554Y0013137D01*
X0191544Y0013295D01*
X0191538Y0013453D01*
X0191536Y0013611D01*
X0197835Y0001800D02*
X0198120Y0001803D01*
X0198406Y0001814D01*
X0198691Y0001831D01*
X0198975Y0001855D01*
X0199259Y0001886D01*
X0199542Y0001924D01*
X0199823Y0001969D01*
X0200104Y0002020D01*
X0200384Y0002078D01*
X0200662Y0002143D01*
X0200938Y0002215D01*
X0201212Y0002293D01*
X0201485Y0002378D01*
X0201755Y0002470D01*
X0202023Y0002568D01*
X0202289Y0002672D01*
X0202552Y0002783D01*
X0202812Y0002900D01*
X0203070Y0003023D01*
X0203324Y0003153D01*
X0203575Y0003289D01*
X0203823Y0003430D01*
X0204067Y0003578D01*
X0204308Y0003731D01*
X0204544Y0003891D01*
X0204777Y0004056D01*
X0205006Y0004226D01*
X0205231Y0004402D01*
X0205451Y0004584D01*
X0205667Y0004770D01*
X0205878Y0004962D01*
X0206085Y0005159D01*
X0206287Y0005361D01*
X0206484Y0005568D01*
X0206676Y0005779D01*
X0206862Y0005995D01*
X0207044Y0006215D01*
X0207220Y0006440D01*
X0207390Y0006669D01*
X0207555Y0006902D01*
X0207715Y0007138D01*
X0207868Y0007379D01*
X0208016Y0007623D01*
X0208157Y0007871D01*
X0208293Y0008122D01*
X0208423Y0008376D01*
X0208546Y0008634D01*
X0208663Y0008894D01*
X0208774Y0009157D01*
X0208878Y0009423D01*
X0208976Y0009691D01*
X0209068Y0009961D01*
X0209153Y0010234D01*
X0209231Y0010508D01*
X0209303Y0010784D01*
X0209368Y0011062D01*
X0209426Y0011342D01*
X0209477Y0011623D01*
X0209522Y0011904D01*
X0209560Y0012187D01*
X0209591Y0012471D01*
X0209615Y0012755D01*
X0209632Y0013040D01*
X0209643Y0013326D01*
X0209646Y0013611D01*
X0197835Y0001800D02*
X0024607Y0001800D01*
X0018308Y0013611D02*
X0018310Y0013769D01*
X0018316Y0013927D01*
X0018326Y0014085D01*
X0018340Y0014243D01*
X0018358Y0014400D01*
X0018379Y0014557D01*
X0018405Y0014713D01*
X0018435Y0014869D01*
X0018468Y0015024D01*
X0018506Y0015177D01*
X0018547Y0015330D01*
X0018592Y0015482D01*
X0018641Y0015633D01*
X0018694Y0015782D01*
X0018750Y0015930D01*
X0018810Y0016076D01*
X0018874Y0016221D01*
X0018942Y0016364D01*
X0019013Y0016506D01*
X0019087Y0016646D01*
X0019165Y0016783D01*
X0019247Y0016919D01*
X0019331Y0017053D01*
X0019420Y0017184D01*
X0019511Y0017313D01*
X0019606Y0017440D01*
X0019703Y0017565D01*
X0019804Y0017687D01*
X0019908Y0017806D01*
X0020015Y0017923D01*
X0020125Y0018037D01*
X0020238Y0018148D01*
X0020353Y0018257D01*
X0020471Y0018362D01*
X0020592Y0018464D01*
X0020715Y0018564D01*
X0020841Y0018660D01*
X0020969Y0018753D01*
X0021099Y0018843D01*
X0021232Y0018929D01*
X0021367Y0019013D01*
X0021503Y0019092D01*
X0021642Y0019169D01*
X0021783Y0019241D01*
X0021925Y0019311D01*
X0022069Y0019376D01*
X0022215Y0019438D01*
X0022362Y0019496D01*
X0022511Y0019551D01*
X0022661Y0019602D01*
X0022812Y0019649D01*
X0022964Y0019692D01*
X0023117Y0019731D01*
X0023272Y0019767D01*
X0023427Y0019798D01*
X0023583Y0019826D01*
X0023739Y0019850D01*
X0023896Y0019870D01*
X0024054Y0019886D01*
X0024211Y0019898D01*
X0024370Y0019906D01*
X0024528Y0019910D01*
X0024686Y0019910D01*
X0024844Y0019906D01*
X0025003Y0019898D01*
X0025160Y0019886D01*
X0025318Y0019870D01*
X0025475Y0019850D01*
X0025631Y0019826D01*
X0025787Y0019798D01*
X0025942Y0019767D01*
X0026097Y0019731D01*
X0026250Y0019692D01*
X0026402Y0019649D01*
X0026553Y0019602D01*
X0026703Y0019551D01*
X0026852Y0019496D01*
X0026999Y0019438D01*
X0027145Y0019376D01*
X0027289Y0019311D01*
X0027431Y0019241D01*
X0027572Y0019169D01*
X0027711Y0019092D01*
X0027847Y0019013D01*
X0027982Y0018929D01*
X0028115Y0018843D01*
X0028245Y0018753D01*
X0028373Y0018660D01*
X0028499Y0018564D01*
X0028622Y0018464D01*
X0028743Y0018362D01*
X0028861Y0018257D01*
X0028976Y0018148D01*
X0029089Y0018037D01*
X0029199Y0017923D01*
X0029306Y0017806D01*
X0029410Y0017687D01*
X0029511Y0017565D01*
X0029608Y0017440D01*
X0029703Y0017313D01*
X0029794Y0017184D01*
X0029883Y0017053D01*
X0029967Y0016919D01*
X0030049Y0016783D01*
X0030127Y0016646D01*
X0030201Y0016506D01*
X0030272Y0016364D01*
X0030340Y0016221D01*
X0030404Y0016076D01*
X0030464Y0015930D01*
X0030520Y0015782D01*
X0030573Y0015633D01*
X0030622Y0015482D01*
X0030667Y0015330D01*
X0030708Y0015177D01*
X0030746Y0015024D01*
X0030779Y0014869D01*
X0030809Y0014713D01*
X0030835Y0014557D01*
X0030856Y0014400D01*
X0030874Y0014243D01*
X0030888Y0014085D01*
X0030898Y0013927D01*
X0030904Y0013769D01*
X0030906Y0013611D01*
X0030904Y0013453D01*
X0030898Y0013295D01*
X0030888Y0013137D01*
X0030874Y0012979D01*
X0030856Y0012822D01*
X0030835Y0012665D01*
X0030809Y0012509D01*
X0030779Y0012353D01*
X0030746Y0012198D01*
X0030708Y0012045D01*
X0030667Y0011892D01*
X0030622Y0011740D01*
X0030573Y0011589D01*
X0030520Y0011440D01*
X0030464Y0011292D01*
X0030404Y0011146D01*
X0030340Y0011001D01*
X0030272Y0010858D01*
X0030201Y0010716D01*
X0030127Y0010576D01*
X0030049Y0010439D01*
X0029967Y0010303D01*
X0029883Y0010169D01*
X0029794Y0010038D01*
X0029703Y0009909D01*
X0029608Y0009782D01*
X0029511Y0009657D01*
X0029410Y0009535D01*
X0029306Y0009416D01*
X0029199Y0009299D01*
X0029089Y0009185D01*
X0028976Y0009074D01*
X0028861Y0008965D01*
X0028743Y0008860D01*
X0028622Y0008758D01*
X0028499Y0008658D01*
X0028373Y0008562D01*
X0028245Y0008469D01*
X0028115Y0008379D01*
X0027982Y0008293D01*
X0027847Y0008209D01*
X0027711Y0008130D01*
X0027572Y0008053D01*
X0027431Y0007981D01*
X0027289Y0007911D01*
X0027145Y0007846D01*
X0026999Y0007784D01*
X0026852Y0007726D01*
X0026703Y0007671D01*
X0026553Y0007620D01*
X0026402Y0007573D01*
X0026250Y0007530D01*
X0026097Y0007491D01*
X0025942Y0007455D01*
X0025787Y0007424D01*
X0025631Y0007396D01*
X0025475Y0007372D01*
X0025318Y0007352D01*
X0025160Y0007336D01*
X0025003Y0007324D01*
X0024844Y0007316D01*
X0024686Y0007312D01*
X0024528Y0007312D01*
X0024370Y0007316D01*
X0024211Y0007324D01*
X0024054Y0007336D01*
X0023896Y0007352D01*
X0023739Y0007372D01*
X0023583Y0007396D01*
X0023427Y0007424D01*
X0023272Y0007455D01*
X0023117Y0007491D01*
X0022964Y0007530D01*
X0022812Y0007573D01*
X0022661Y0007620D01*
X0022511Y0007671D01*
X0022362Y0007726D01*
X0022215Y0007784D01*
X0022069Y0007846D01*
X0021925Y0007911D01*
X0021783Y0007981D01*
X0021642Y0008053D01*
X0021503Y0008130D01*
X0021367Y0008209D01*
X0021232Y0008293D01*
X0021099Y0008379D01*
X0020969Y0008469D01*
X0020841Y0008562D01*
X0020715Y0008658D01*
X0020592Y0008758D01*
X0020471Y0008860D01*
X0020353Y0008965D01*
X0020238Y0009074D01*
X0020125Y0009185D01*
X0020015Y0009299D01*
X0019908Y0009416D01*
X0019804Y0009535D01*
X0019703Y0009657D01*
X0019606Y0009782D01*
X0019511Y0009909D01*
X0019420Y0010038D01*
X0019331Y0010169D01*
X0019247Y0010303D01*
X0019165Y0010439D01*
X0019087Y0010576D01*
X0019013Y0010716D01*
X0018942Y0010858D01*
X0018874Y0011001D01*
X0018810Y0011146D01*
X0018750Y0011292D01*
X0018694Y0011440D01*
X0018641Y0011589D01*
X0018592Y0011740D01*
X0018547Y0011892D01*
X0018506Y0012045D01*
X0018468Y0012198D01*
X0018435Y0012353D01*
X0018405Y0012509D01*
X0018379Y0012665D01*
X0018358Y0012822D01*
X0018340Y0012979D01*
X0018326Y0013137D01*
X0018316Y0013295D01*
X0018310Y0013453D01*
X0018308Y0013611D01*
X0012796Y0013611D02*
X0012799Y0013326D01*
X0012810Y0013040D01*
X0012827Y0012755D01*
X0012851Y0012471D01*
X0012882Y0012187D01*
X0012920Y0011904D01*
X0012965Y0011623D01*
X0013016Y0011342D01*
X0013074Y0011062D01*
X0013139Y0010784D01*
X0013211Y0010508D01*
X0013289Y0010234D01*
X0013374Y0009961D01*
X0013466Y0009691D01*
X0013564Y0009423D01*
X0013668Y0009157D01*
X0013779Y0008894D01*
X0013896Y0008634D01*
X0014019Y0008376D01*
X0014149Y0008122D01*
X0014285Y0007871D01*
X0014426Y0007623D01*
X0014574Y0007379D01*
X0014727Y0007138D01*
X0014887Y0006902D01*
X0015052Y0006669D01*
X0015222Y0006440D01*
X0015398Y0006215D01*
X0015580Y0005995D01*
X0015766Y0005779D01*
X0015958Y0005568D01*
X0016155Y0005361D01*
X0016357Y0005159D01*
X0016564Y0004962D01*
X0016775Y0004770D01*
X0016991Y0004584D01*
X0017211Y0004402D01*
X0017436Y0004226D01*
X0017665Y0004056D01*
X0017898Y0003891D01*
X0018134Y0003731D01*
X0018375Y0003578D01*
X0018619Y0003430D01*
X0018867Y0003289D01*
X0019118Y0003153D01*
X0019372Y0003023D01*
X0019630Y0002900D01*
X0019890Y0002783D01*
X0020153Y0002672D01*
X0020419Y0002568D01*
X0020687Y0002470D01*
X0020957Y0002378D01*
X0021230Y0002293D01*
X0021504Y0002215D01*
X0021780Y0002143D01*
X0022058Y0002078D01*
X0022338Y0002020D01*
X0022619Y0001969D01*
X0022900Y0001924D01*
X0023183Y0001886D01*
X0023467Y0001855D01*
X0023751Y0001831D01*
X0024036Y0001814D01*
X0024322Y0001803D01*
X0024607Y0001800D01*
D11*
X0039202Y0055912D03*
D12*
X0040574Y0034488D03*
X0047267Y0034488D03*
X0047083Y0016359D03*
X0047083Y0009666D03*
X0062683Y0009666D03*
X0062683Y0016359D03*
X0078283Y0016359D03*
X0078283Y0009666D03*
X0098758Y0019091D03*
X0098758Y0025784D03*
X0092392Y0057162D03*
X0085699Y0057162D03*
X0083487Y0064762D03*
X0090180Y0064762D03*
X0032071Y0122729D03*
X0032071Y0129421D03*
X0041671Y0168341D03*
X0041671Y0175034D03*
X0044699Y0194612D03*
X0051392Y0194612D03*
X0078121Y0186496D03*
X0078121Y0179804D03*
X0115699Y0134850D03*
X0122392Y0134850D03*
X0143574Y0149013D03*
X0150267Y0149013D03*
X0186737Y0061925D03*
X0193430Y0061925D03*
D13*
X0152481Y0080225D03*
X0152481Y0090225D03*
X0152481Y0100225D03*
X0152481Y0110225D03*
X0152481Y0120225D03*
X0122481Y0120225D03*
X0122481Y0110225D03*
X0122481Y0100225D03*
X0122481Y0090225D03*
X0122481Y0080225D03*
X0111536Y0080225D03*
X0111536Y0090225D03*
X0111536Y0100225D03*
X0111536Y0110225D03*
X0111536Y0120225D03*
X0081536Y0120225D03*
X0081536Y0110225D03*
X0081536Y0100225D03*
X0081536Y0090225D03*
X0081536Y0080225D03*
X0070591Y0080225D03*
X0070591Y0090225D03*
X0070591Y0100225D03*
X0070591Y0110225D03*
X0070591Y0120225D03*
X0040591Y0120225D03*
X0040591Y0110225D03*
X0040591Y0100225D03*
X0040591Y0090225D03*
X0040591Y0080225D03*
D14*
X0032392Y0083213D03*
X0032392Y0088900D03*
X0032392Y0094587D03*
X0032392Y0100275D03*
X0032392Y0105962D03*
X0032392Y0111650D03*
X0032392Y0117337D03*
X0025699Y0117337D03*
X0025699Y0111650D03*
X0025699Y0105962D03*
X0025699Y0100275D03*
X0025699Y0094587D03*
X0025699Y0088900D03*
X0025699Y0083213D03*
X0100949Y0129587D03*
X0107642Y0129587D03*
X0128562Y0141388D03*
X0135255Y0141388D03*
X0137467Y0159125D03*
X0130774Y0159125D03*
X0168149Y0154413D03*
X0168149Y0147725D03*
X0174842Y0147725D03*
X0174842Y0154413D03*
X0176142Y0163050D03*
X0169449Y0163050D03*
X0183199Y0148050D03*
X0189892Y0148050D03*
X0189687Y0155400D03*
X0196380Y0155400D03*
X0194630Y0132150D03*
X0187937Y0132150D03*
X0143405Y0069238D03*
X0136712Y0069238D03*
X0128080Y0063087D03*
X0121387Y0063087D03*
X0066517Y0194362D03*
X0059824Y0194362D03*
D15*
X0083022Y0169950D03*
X0086172Y0169950D03*
X0089321Y0169950D03*
X0092471Y0169950D03*
X0095621Y0169950D03*
X0098770Y0169950D03*
X0101920Y0169950D03*
X0105069Y0169950D03*
X0105069Y0136150D03*
X0101920Y0136150D03*
X0098770Y0136150D03*
X0095621Y0136150D03*
X0092471Y0136150D03*
X0089321Y0136150D03*
X0086172Y0136150D03*
X0083022Y0136150D03*
D16*
X0077146Y0142026D03*
X0077146Y0145176D03*
X0077146Y0148326D03*
X0077146Y0151475D03*
X0077146Y0154625D03*
X0077146Y0157774D03*
X0077146Y0160924D03*
X0077146Y0164074D03*
X0110946Y0164074D03*
X0110946Y0160924D03*
X0110946Y0157774D03*
X0110946Y0154625D03*
X0110946Y0151475D03*
X0110946Y0148326D03*
X0110946Y0145176D03*
X0110946Y0142026D03*
D17*
X0073783Y0065175D03*
X0073783Y0056175D03*
X0073783Y0047175D03*
D18*
X0048983Y0056075D03*
D19*
X0107746Y0056400D02*
X0113746Y0056400D01*
X0113746Y0046400D02*
X0107746Y0046400D01*
X0107746Y0036400D02*
X0113746Y0036400D01*
X0108833Y0018613D02*
X0108833Y0012612D01*
X0118833Y0012612D02*
X0118833Y0018613D01*
X0128833Y0018613D02*
X0128833Y0012612D01*
X0138833Y0012612D02*
X0138833Y0018613D01*
X0148833Y0018613D02*
X0148833Y0012612D01*
X0158833Y0012612D02*
X0158833Y0018613D01*
X0168833Y0018613D02*
X0168833Y0012612D01*
X0178833Y0012612D02*
X0178833Y0018613D01*
X0187045Y0077546D02*
X0193045Y0077546D01*
X0193045Y0095346D02*
X0187045Y0095346D01*
X0187045Y0105105D02*
X0193045Y0105105D01*
X0193045Y0122905D02*
X0187045Y0122905D01*
X0171846Y0133513D02*
X0171846Y0139513D01*
X0161846Y0139513D02*
X0161846Y0133513D01*
X0161445Y0122905D02*
X0167445Y0122905D01*
X0167445Y0105105D02*
X0161445Y0105105D01*
X0161445Y0095346D02*
X0167445Y0095346D01*
X0167445Y0077546D02*
X0161445Y0077546D01*
X0113746Y0066400D02*
X0107746Y0066400D01*
X0105221Y0180312D02*
X0105221Y0186312D01*
X0115221Y0186312D02*
X0115221Y0180312D01*
X0127096Y0180312D02*
X0127096Y0186312D01*
X0137096Y0186312D02*
X0137096Y0180312D01*
X0147096Y0180312D02*
X0147096Y0186312D01*
X0158946Y0186312D02*
X0158946Y0180312D01*
X0168946Y0180312D02*
X0168946Y0186312D01*
X0178946Y0186312D02*
X0178946Y0180312D01*
X0095221Y0180312D02*
X0095221Y0186312D01*
X0085221Y0186312D02*
X0085221Y0180312D01*
D20*
X0070296Y0177887D03*
D21*
X0060296Y0177887D03*
X0050296Y0177887D03*
X0050296Y0187887D03*
X0060296Y0187887D03*
X0070296Y0187887D03*
D22*
X0033983Y0066150D03*
X0024621Y0042425D03*
X0196796Y0138050D03*
D23*
X0188796Y0138050D03*
X0184558Y0167713D03*
X0148646Y0141875D03*
X0094533Y0070863D03*
X0041983Y0066150D03*
X0032621Y0042425D03*
X0148646Y0053475D03*
X0153358Y0067450D03*
D24*
X0084133Y0017146D03*
X0084133Y0008879D03*
X0068533Y0008879D03*
X0068533Y0017146D03*
X0052933Y0017146D03*
X0052933Y0008879D03*
D25*
X0079333Y0032262D03*
D26*
X0059333Y0032262D03*
D27*
X0136256Y0063206D03*
X0143736Y0063206D03*
X0139996Y0054544D03*
D28*
X0149157Y0046125D03*
X0149157Y0041125D03*
X0149157Y0036125D03*
X0149157Y0031125D03*
X0128685Y0031125D03*
X0128685Y0036125D03*
X0128685Y0041125D03*
X0128685Y0046125D03*
D29*
X0159178Y0170313D03*
X0172564Y0170313D03*
D30*
X0150267Y0150816D02*
X0150267Y0149013D01*
X0151555Y0147725D01*
X0168149Y0147725D01*
X0166846Y0146421D01*
X0166846Y0128050D01*
X0159521Y0128050D01*
X0157908Y0126437D01*
X0129796Y0126437D01*
X0107642Y0129587D02*
X0103796Y0125741D01*
X0103796Y0123350D01*
X0100949Y0129587D02*
X0101920Y0130558D01*
X0101920Y0136150D01*
X0085921Y0151488D02*
X0084671Y0152738D01*
X0084671Y0163213D01*
X0086083Y0164625D01*
X0087221Y0164625D01*
X0089321Y0166726D01*
X0089321Y0169950D01*
X0089321Y0175274D01*
X0089321Y0179212D01*
X0085221Y0183312D01*
X0089321Y0175274D02*
X0094121Y0175274D01*
X0095621Y0173775D01*
X0095621Y0169950D01*
X0095621Y0163975D01*
X0096546Y0163050D01*
X0140683Y0153413D02*
X0147671Y0153413D01*
X0150267Y0150816D01*
X0166846Y0128050D02*
X0197171Y0128050D01*
X0170583Y0085488D02*
X0185208Y0070863D01*
X0200158Y0070863D01*
X0202433Y0068588D01*
X0202433Y0057537D01*
X0199183Y0062412D02*
X0193917Y0062412D01*
X0193430Y0061925D02*
X0193430Y0050734D01*
X0181146Y0038450D01*
X0181146Y0021950D01*
X0178833Y0019638D01*
X0178833Y0015612D01*
X0130446Y0084025D02*
X0131908Y0085488D01*
X0170583Y0085488D01*
X0088196Y0048105D02*
X0088196Y0046000D01*
X0088196Y0048105D02*
X0081936Y0054365D01*
X0084733Y0057162D01*
X0085699Y0057162D01*
X0081936Y0054365D02*
X0080126Y0056175D01*
X0073783Y0056175D01*
D31*
X0067908Y0051437D03*
X0057671Y0051925D03*
X0057671Y0059075D03*
X0044021Y0044937D03*
X0037683Y0046237D03*
X0037496Y0056075D03*
X0034246Y0056075D03*
X0030996Y0056075D03*
X0027746Y0056075D03*
X0040746Y0056075D03*
X0052608Y0077850D03*
X0049683Y0080450D03*
X0049671Y0085863D03*
X0045783Y0093125D03*
X0036521Y0086787D03*
X0020271Y0086138D03*
X0016546Y0081625D03*
X0018808Y0095725D03*
X0020921Y0103012D03*
X0024358Y0123987D03*
X0028571Y0134925D03*
X0028571Y0138175D03*
X0032483Y0136175D03*
X0036233Y0138675D03*
X0040796Y0130725D03*
X0044358Y0133675D03*
X0050871Y0127800D03*
X0047483Y0125862D03*
X0057021Y0125375D03*
X0055783Y0138050D03*
X0059683Y0138050D03*
X0058108Y0149613D03*
X0063221Y0149725D03*
X0054008Y0155550D03*
X0049608Y0158363D03*
X0045533Y0163813D03*
X0043271Y0157063D03*
X0038471Y0152600D03*
X0035471Y0163238D03*
X0032058Y0174287D03*
X0023421Y0163988D03*
X0027596Y0153450D03*
X0016058Y0136550D03*
X0055558Y0104737D03*
X0062796Y0107287D03*
X0063196Y0103112D03*
X0063846Y0096612D03*
X0055558Y0095312D03*
X0056508Y0076388D03*
X0063983Y0076713D03*
X0080258Y0060375D03*
X0081936Y0054365D03*
X0081533Y0047300D03*
X0081533Y0044050D03*
X0081533Y0040800D03*
X0078283Y0040800D03*
X0075033Y0040800D03*
X0067396Y0030725D03*
X0067396Y0027475D03*
X0067396Y0024225D03*
X0064146Y0024225D03*
X0060896Y0024225D03*
X0057158Y0005213D03*
X0089333Y0018050D03*
X0091283Y0012525D03*
X0094371Y0009763D03*
X0101683Y0012687D03*
X0103796Y0010413D03*
X0105096Y0026012D03*
X0108346Y0026012D03*
X0111596Y0026012D03*
X0114846Y0026012D03*
X0118096Y0026012D03*
X0118096Y0029262D03*
X0114846Y0029262D03*
X0111596Y0029262D03*
X0108346Y0029262D03*
X0105096Y0029262D03*
X0130121Y0026825D03*
X0143446Y0025850D03*
X0143446Y0023087D03*
X0154171Y0023087D03*
X0154171Y0025850D03*
X0161646Y0028450D03*
X0161646Y0031700D03*
X0161646Y0034950D03*
X0161646Y0038200D03*
X0161646Y0041450D03*
X0161646Y0044700D03*
X0161646Y0047950D03*
X0161646Y0051200D03*
X0161646Y0054450D03*
X0161646Y0057700D03*
X0161646Y0060950D03*
X0161646Y0064200D03*
X0161646Y0067450D03*
X0164896Y0067450D03*
X0168146Y0067450D03*
X0171396Y0067450D03*
X0174646Y0067450D03*
X0177896Y0067450D03*
X0181146Y0067450D03*
X0184246Y0067450D03*
X0187496Y0067450D03*
X0190746Y0067450D03*
X0193996Y0067450D03*
X0197246Y0067450D03*
X0206021Y0067450D03*
X0206021Y0064200D03*
X0206021Y0060950D03*
X0206021Y0057700D03*
X0206021Y0054450D03*
X0206021Y0051200D03*
X0206021Y0047950D03*
X0206021Y0044700D03*
X0206021Y0041450D03*
X0206021Y0038200D03*
X0206021Y0034950D03*
X0206021Y0031700D03*
X0206021Y0028450D03*
X0206021Y0025200D03*
X0187646Y0025200D03*
X0184396Y0025200D03*
X0177896Y0025200D03*
X0174646Y0025200D03*
X0171396Y0025200D03*
X0168146Y0025200D03*
X0187821Y0036450D03*
X0178883Y0055462D03*
X0175633Y0055462D03*
X0172383Y0055462D03*
X0202433Y0057537D03*
X0180296Y0087975D03*
X0182171Y0116800D03*
X0183096Y0131638D03*
X0179846Y0131638D03*
X0188308Y0143375D03*
X0195783Y0144188D03*
X0206171Y0142525D03*
X0206171Y0139275D03*
X0206171Y0136025D03*
X0200171Y0130212D03*
X0199046Y0125550D03*
X0200621Y0118975D03*
X0179033Y0150163D03*
X0176121Y0158813D03*
X0165058Y0158938D03*
X0159371Y0159425D03*
X0152708Y0170150D03*
X0144108Y0175062D03*
X0137608Y0173112D03*
X0140683Y0153413D03*
X0139871Y0144313D03*
X0142471Y0141713D03*
X0139871Y0139438D03*
X0136946Y0136838D03*
X0138571Y0134238D03*
X0144096Y0123187D03*
X0147021Y0123187D03*
X0149946Y0132450D03*
X0152871Y0132450D03*
X0124758Y0130500D03*
X0121671Y0139113D03*
X0121346Y0144313D03*
X0108733Y0135238D03*
X0113233Y0129887D03*
X0115996Y0127287D03*
X0103796Y0123350D03*
X0092171Y0129925D03*
X0083971Y0125787D03*
X0080721Y0125787D03*
X0069983Y0129612D03*
X0081983Y0145238D03*
X0085921Y0151488D03*
X0089808Y0150338D03*
X0089808Y0147088D03*
X0093058Y0147088D03*
X0092483Y0142738D03*
X0098521Y0154625D03*
X0100058Y0157313D03*
X0096546Y0163050D03*
X0091546Y0160713D03*
X0090558Y0163888D03*
X0087796Y0160738D03*
X0082183Y0164625D03*
X0072758Y0163488D03*
X0067883Y0162675D03*
X0065371Y0172500D03*
X0056433Y0174287D03*
X0040671Y0187612D03*
X0055296Y0191187D03*
X0078933Y0191112D03*
X0101446Y0175750D03*
X0109733Y0167625D03*
X0111683Y0175750D03*
X0105921Y0144188D03*
X0141846Y0105062D03*
X0142333Y0095312D03*
X0130446Y0084025D03*
X0130283Y0074388D03*
X0122483Y0069400D03*
X0141008Y0076063D03*
X0127383Y0095312D03*
X0128196Y0103925D03*
X0105771Y0104412D03*
X0105933Y0096450D03*
X0095371Y0096450D03*
X0094233Y0104575D03*
X0086546Y0104300D03*
X0085296Y0095475D03*
X0097621Y0078175D03*
X0094721Y0075650D03*
X0086921Y0070775D03*
X0096183Y0064925D03*
X0132396Y0050550D03*
X0136621Y0048762D03*
X0191071Y0160275D03*
X0195283Y0163813D03*
X0189283Y0167263D03*
X0180171Y0170638D03*
X0173021Y0190300D03*
X0201633Y0172300D03*
X0205371Y0172300D03*
D32*
X0203421Y0163150D02*
X0192846Y0173725D01*
X0178871Y0173725D01*
X0174158Y0178437D01*
X0174158Y0187700D01*
X0176271Y0189812D01*
X0176271Y0191275D01*
X0173871Y0193675D01*
X0123671Y0193675D01*
X0119921Y0189925D01*
X0119921Y0176425D01*
X0113446Y0169950D01*
X0105069Y0169950D01*
X0101920Y0169950D02*
X0101920Y0158538D01*
X0100694Y0157313D01*
X0100058Y0157313D01*
X0098521Y0154625D02*
X0110946Y0154625D01*
X0110946Y0157774D02*
X0116270Y0157774D01*
X0137096Y0178600D01*
X0137096Y0183312D01*
X0127096Y0183312D02*
X0127096Y0172350D01*
X0115670Y0160924D01*
X0110946Y0160924D01*
X0110946Y0164074D02*
X0115269Y0164074D01*
X0122421Y0171225D01*
X0122421Y0188675D01*
X0124921Y0191175D01*
X0172146Y0191175D01*
X0173021Y0190300D01*
X0168946Y0183312D02*
X0168946Y0181512D01*
X0165221Y0177787D01*
X0165221Y0167063D01*
X0161646Y0163488D01*
X0128008Y0163488D01*
X0118258Y0153738D01*
X0118258Y0144313D01*
X0121346Y0144313D01*
X0122483Y0141550D02*
X0119071Y0141550D01*
X0116508Y0138988D01*
X0115296Y0138988D01*
X0115296Y0135579D01*
X0115699Y0135175D01*
X0115699Y0134850D01*
X0115296Y0138988D02*
X0107821Y0138988D01*
X0106233Y0140575D01*
X0102508Y0140575D01*
X0101920Y0139987D01*
X0101920Y0136150D01*
X0105069Y0136150D02*
X0107821Y0136150D01*
X0108733Y0135238D01*
X0110946Y0142026D02*
X0115972Y0142026D01*
X0118258Y0144313D01*
X0116471Y0146588D02*
X0115059Y0145176D01*
X0110946Y0145176D01*
X0110946Y0142026D02*
X0112722Y0142026D01*
X0116471Y0146588D02*
X0116471Y0154713D01*
X0130121Y0168363D01*
X0146046Y0168363D01*
X0158946Y0181262D01*
X0158946Y0183312D01*
X0159178Y0170313D02*
X0159015Y0170150D01*
X0152708Y0170150D01*
X0159371Y0159425D02*
X0137767Y0159425D01*
X0137467Y0159125D01*
X0130774Y0159125D02*
X0126221Y0154571D01*
X0126221Y0145288D01*
X0122483Y0141550D01*
X0121671Y0139113D02*
X0126287Y0139113D01*
X0128562Y0141388D01*
X0135255Y0141388D02*
X0136946Y0139696D01*
X0136946Y0136838D01*
X0142471Y0141713D02*
X0148483Y0141713D01*
X0148646Y0141875D01*
X0165058Y0158938D02*
X0169283Y0158938D01*
X0169449Y0159104D01*
X0169449Y0163050D01*
X0169283Y0158938D02*
X0170317Y0158938D01*
X0174842Y0154413D01*
X0179033Y0150975D02*
X0179033Y0150163D01*
X0179033Y0150975D02*
X0183583Y0155525D01*
X0183583Y0163000D01*
X0176271Y0170313D01*
X0172564Y0170313D01*
X0180171Y0170638D02*
X0181633Y0170638D01*
X0184558Y0167713D01*
X0195283Y0163813D02*
X0196380Y0162716D01*
X0196380Y0155400D01*
X0189687Y0155400D02*
X0188896Y0155400D01*
X0183199Y0149704D01*
X0183199Y0148050D01*
X0182874Y0147725D01*
X0174842Y0147725D01*
X0187937Y0137191D02*
X0187937Y0132150D01*
X0187937Y0137191D02*
X0188796Y0138050D01*
X0199046Y0126175D02*
X0199046Y0125550D01*
X0200621Y0118975D02*
X0198446Y0116800D01*
X0182171Y0116800D01*
X0203421Y0092425D02*
X0198971Y0087975D01*
X0180296Y0087975D01*
X0203421Y0092425D02*
X0203421Y0163150D01*
X0152481Y0120225D02*
X0129971Y0120225D01*
X0125296Y0115550D01*
X0117933Y0115550D01*
X0113258Y0120225D01*
X0111536Y0120225D01*
X0108486Y0117175D01*
X0085671Y0117175D01*
X0084046Y0115550D01*
X0079046Y0115550D01*
X0074371Y0120225D01*
X0070591Y0120225D01*
X0067783Y0120225D01*
X0062946Y0115387D01*
X0037958Y0115387D01*
X0036008Y0117337D01*
X0032392Y0117337D01*
X0032071Y0122729D02*
X0035355Y0122729D01*
X0037858Y0120225D01*
X0040591Y0120225D01*
X0063721Y0120225D01*
X0069046Y0125550D01*
X0076211Y0125550D01*
X0081536Y0120225D01*
X0081661Y0120100D01*
X0104121Y0120100D01*
X0109571Y0125550D01*
X0112796Y0125550D01*
X0118121Y0120225D01*
X0122481Y0120225D01*
X0113446Y0114900D02*
X0118121Y0110225D01*
X0122481Y0110225D01*
X0125296Y0105550D02*
X0116211Y0105550D01*
X0111536Y0110225D01*
X0088721Y0110225D01*
X0084046Y0105550D01*
X0075266Y0105550D01*
X0070591Y0110225D01*
X0047021Y0110225D01*
X0042033Y0105237D01*
X0033117Y0105237D01*
X0032392Y0105962D01*
X0032392Y0100275D02*
X0034408Y0100275D01*
X0038633Y0096050D01*
X0038796Y0096050D01*
X0040746Y0096050D01*
X0048221Y0096050D01*
X0050333Y0093937D01*
X0050333Y0090388D01*
X0050171Y0090225D01*
X0062471Y0090225D01*
X0067796Y0095550D01*
X0076211Y0095550D01*
X0081536Y0090225D01*
X0084971Y0090225D01*
X0087796Y0093050D01*
X0107796Y0093050D01*
X0110133Y0095387D01*
X0117319Y0095387D01*
X0122481Y0090225D01*
X0120471Y0085550D02*
X0126546Y0085550D01*
X0131221Y0090225D01*
X0152481Y0090225D01*
X0152481Y0080225D02*
X0131221Y0080225D01*
X0126896Y0075900D01*
X0119883Y0075900D01*
X0115558Y0080225D01*
X0111536Y0080225D01*
X0110011Y0081750D01*
X0089658Y0081750D01*
X0083483Y0075575D01*
X0075241Y0075575D01*
X0070591Y0080225D01*
X0049908Y0080225D01*
X0049683Y0080450D01*
X0052608Y0077850D02*
X0043996Y0077850D01*
X0042208Y0076063D01*
X0037008Y0076063D01*
X0033596Y0079475D01*
X0022221Y0079475D01*
X0017671Y0084025D01*
X0017671Y0087437D01*
X0019133Y0088900D01*
X0025699Y0088900D01*
X0025699Y0094587D02*
X0019946Y0094587D01*
X0018808Y0095725D01*
X0023658Y0100275D02*
X0025699Y0100275D01*
X0023658Y0100275D02*
X0020921Y0103012D01*
X0022546Y0105962D02*
X0025699Y0105962D01*
X0022546Y0105962D02*
X0018733Y0109775D01*
X0018733Y0159300D01*
X0023421Y0163988D01*
X0024671Y0146175D02*
X0020921Y0142425D01*
X0020921Y0113050D01*
X0022321Y0111650D01*
X0025699Y0111650D01*
X0025699Y0117337D02*
X0027171Y0118809D01*
X0027171Y0128987D01*
X0025296Y0130862D01*
X0025296Y0138988D01*
X0027796Y0141488D01*
X0065921Y0141488D01*
X0072759Y0148326D01*
X0077146Y0148326D01*
X0077146Y0151475D02*
X0072983Y0151475D01*
X0065496Y0143988D01*
X0025921Y0143988D01*
X0023108Y0141175D01*
X0023108Y0129925D01*
X0024358Y0128675D01*
X0024358Y0123987D01*
X0032071Y0129421D02*
X0036567Y0124925D01*
X0043733Y0124925D01*
X0046233Y0122425D01*
X0049721Y0122425D01*
X0056283Y0128987D01*
X0063733Y0128987D01*
X0070896Y0136150D01*
X0083022Y0136150D01*
X0082956Y0136084D01*
X0083310Y0142026D02*
X0077146Y0142026D01*
X0071772Y0142026D01*
X0063421Y0133675D01*
X0044358Y0133675D01*
X0045933Y0127412D02*
X0040421Y0127412D01*
X0036233Y0131600D01*
X0036233Y0138675D01*
X0032483Y0136175D02*
X0032483Y0129834D01*
X0032071Y0129421D01*
X0045933Y0127412D02*
X0047483Y0125862D01*
X0046233Y0127112D01*
X0043153Y0112787D02*
X0065246Y0112787D01*
X0068008Y0115550D01*
X0072796Y0115550D01*
X0078121Y0110225D01*
X0081536Y0110225D01*
X0083721Y0110225D01*
X0087096Y0113600D01*
X0108346Y0113600D01*
X0109646Y0114900D01*
X0113446Y0114900D01*
X0107046Y0107912D02*
X0109408Y0105550D01*
X0112796Y0105550D01*
X0118121Y0100225D01*
X0122481Y0100225D01*
X0152481Y0100225D01*
X0152481Y0110225D02*
X0129971Y0110225D01*
X0125296Y0105550D01*
X0111536Y0100225D02*
X0081536Y0100225D01*
X0076871Y0100225D01*
X0071058Y0106037D01*
X0064046Y0106037D01*
X0062796Y0107287D01*
X0070591Y0100225D02*
X0040591Y0100225D01*
X0044483Y0094425D02*
X0032555Y0094425D01*
X0032392Y0094587D01*
X0032392Y0088900D02*
X0034408Y0088900D01*
X0036521Y0086787D01*
X0039358Y0085863D02*
X0049671Y0085863D01*
X0062696Y0085863D01*
X0067058Y0090225D01*
X0070591Y0090225D01*
X0075266Y0085550D01*
X0084533Y0085550D01*
X0089208Y0090225D01*
X0111536Y0090225D01*
X0115796Y0090225D01*
X0120471Y0085550D01*
X0115396Y0085550D02*
X0120721Y0080225D01*
X0122481Y0080225D01*
X0115983Y0075900D02*
X0109808Y0075900D01*
X0107696Y0078013D01*
X0097458Y0078013D01*
X0097621Y0078175D01*
X0097621Y0073950D01*
X0094533Y0070863D01*
X0083487Y0064762D02*
X0083137Y0065112D01*
X0083508Y0080225D02*
X0081536Y0080225D01*
X0076546Y0080225D01*
X0071221Y0085550D01*
X0068408Y0085550D01*
X0065908Y0083050D01*
X0043416Y0083050D01*
X0040591Y0080225D01*
X0036708Y0083213D02*
X0039358Y0085863D01*
X0036708Y0083213D02*
X0032392Y0083213D01*
X0025699Y0083213D02*
X0021408Y0083213D01*
X0020271Y0084350D01*
X0020271Y0086138D01*
X0040579Y0090237D02*
X0040591Y0090225D01*
X0050171Y0090225D01*
X0045783Y0093125D02*
X0044483Y0094425D01*
X0040591Y0110225D02*
X0039166Y0111650D01*
X0032392Y0111650D01*
X0040591Y0110225D02*
X0043153Y0112787D01*
X0070366Y0080450D02*
X0070591Y0080225D01*
X0083508Y0080225D02*
X0088833Y0085550D01*
X0115396Y0085550D01*
X0115983Y0075900D02*
X0122483Y0069400D01*
X0121387Y0068304D01*
X0121387Y0063087D01*
X0128080Y0063087D02*
X0132396Y0058771D01*
X0132396Y0054544D01*
X0132396Y0050550D01*
X0132396Y0054544D02*
X0139996Y0054544D01*
X0147576Y0054544D01*
X0148646Y0053475D01*
X0149157Y0046452D02*
X0149157Y0046125D01*
X0136621Y0048762D02*
X0133983Y0046125D01*
X0128685Y0046125D01*
X0128685Y0031125D02*
X0128685Y0028261D01*
X0130121Y0026825D01*
X0148833Y0015612D02*
X0148833Y0010113D01*
X0144908Y0006187D01*
X0086824Y0006187D01*
X0084133Y0008879D01*
X0083346Y0016359D02*
X0078283Y0016359D01*
X0083346Y0016359D02*
X0084133Y0017146D01*
X0089333Y0018050D02*
X0091771Y0015612D01*
X0098758Y0015612D01*
X0098758Y0019091D01*
X0098758Y0015612D02*
X0108833Y0015612D01*
X0073012Y0004400D02*
X0068533Y0008879D01*
X0073012Y0004400D02*
X0162296Y0004400D01*
X0163921Y0006025D01*
X0163921Y0020163D01*
X0158233Y0025850D01*
X0158233Y0056562D01*
X0151259Y0063537D01*
X0149445Y0063537D01*
X0149133Y0063537D01*
X0143405Y0063537D01*
X0143405Y0069238D01*
X0143405Y0073666D01*
X0141008Y0076063D01*
X0153358Y0067450D02*
X0149445Y0063537D01*
X0143736Y0063206D02*
X0143405Y0063537D01*
X0107046Y0107912D02*
X0090158Y0107912D01*
X0086546Y0104300D01*
X0092471Y0136150D02*
X0092483Y0136162D01*
X0092483Y0142738D01*
X0097520Y0148326D02*
X0087796Y0158050D01*
X0087796Y0160738D01*
X0091546Y0160713D02*
X0091546Y0158050D01*
X0098121Y0151475D01*
X0110946Y0151475D01*
X0110946Y0148326D02*
X0097520Y0148326D01*
X0085271Y0147138D02*
X0085271Y0143988D01*
X0083310Y0142026D01*
X0081922Y0145176D02*
X0077146Y0145176D01*
X0081922Y0145176D02*
X0081983Y0145238D01*
X0085271Y0147138D02*
X0082183Y0150225D01*
X0082183Y0164625D01*
X0077146Y0164074D02*
X0073344Y0164074D01*
X0072758Y0163488D01*
X0069420Y0160924D02*
X0077146Y0160924D01*
X0077146Y0157774D02*
X0071270Y0157774D01*
X0063221Y0149725D01*
X0064358Y0146175D02*
X0072808Y0154625D01*
X0077146Y0154625D01*
X0069420Y0160924D02*
X0058108Y0149613D01*
X0057658Y0152600D02*
X0067733Y0162675D01*
X0067883Y0162675D01*
X0068421Y0166800D02*
X0076233Y0166800D01*
X0079358Y0169925D01*
X0082997Y0169925D01*
X0083022Y0169950D01*
X0086172Y0169950D02*
X0086172Y0174674D01*
X0084846Y0176000D01*
X0081696Y0176000D01*
X0077633Y0171938D01*
X0077608Y0171938D01*
X0074971Y0169300D01*
X0067483Y0169300D01*
X0056546Y0158363D01*
X0049608Y0158363D01*
X0054008Y0155550D02*
X0057171Y0155550D01*
X0068421Y0166800D01*
X0060296Y0171175D02*
X0060296Y0177887D01*
X0060296Y0171175D02*
X0052933Y0163813D01*
X0045533Y0163813D01*
X0045274Y0168341D02*
X0041671Y0168341D01*
X0045274Y0168341D02*
X0050296Y0173362D01*
X0050296Y0177887D01*
X0042962Y0183050D02*
X0041671Y0181759D01*
X0041671Y0175034D01*
X0042962Y0183050D02*
X0065296Y0183050D01*
X0070133Y0187887D01*
X0070296Y0187887D01*
X0070296Y0188050D01*
X0073358Y0191112D01*
X0078933Y0191112D01*
X0082737Y0191112D02*
X0078121Y0186496D01*
X0082737Y0191112D02*
X0087421Y0191112D01*
X0095221Y0183312D01*
X0105221Y0183312D02*
X0105221Y0189362D01*
X0099408Y0195175D01*
X0067005Y0195175D01*
X0066517Y0194687D01*
X0066517Y0194362D01*
X0060408Y0194362D02*
X0066883Y0187887D01*
X0070296Y0187887D01*
X0078121Y0179804D02*
X0081712Y0179804D01*
X0085221Y0183312D01*
X0060408Y0194362D02*
X0059824Y0194362D01*
X0051642Y0194362D01*
X0051392Y0194612D01*
X0057658Y0152600D02*
X0038471Y0152600D01*
X0024671Y0146175D02*
X0064358Y0146175D01*
X0068533Y0017146D02*
X0067746Y0016359D01*
X0062683Y0016359D01*
X0053492Y0008879D02*
X0057158Y0005213D01*
X0053492Y0008879D02*
X0052933Y0008879D01*
X0052146Y0016359D02*
X0047083Y0016359D01*
X0052146Y0016359D02*
X0052933Y0017146D01*
D33*
X0048604Y0038629D02*
X0036416Y0038629D01*
X0032621Y0042425D01*
X0073783Y0065175D02*
X0074196Y0064762D01*
X0087796Y0129925D02*
X0086172Y0131549D01*
X0086172Y0136150D01*
X0087796Y0129925D02*
X0092171Y0129925D01*
X0193430Y0061925D02*
X0193917Y0062412D01*
X0199046Y0126175D02*
X0197171Y0128050D01*
D34*
X0199183Y0062412D03*
X0129796Y0126437D03*
X0088196Y0046000D03*
D35*
X0168149Y0147725D02*
X0168149Y0154413D01*
D36*
X0083487Y0064762D02*
X0074196Y0064762D01*
X0073783Y0065175D02*
X0073333Y0065625D01*
X0073333Y0066013D01*
X0073783Y0056175D02*
X0066808Y0056175D01*
X0056833Y0066150D01*
X0041983Y0066150D01*
D37*
X0038712Y0068937D02*
X0037277Y0068937D01*
X0038351Y0068577D02*
X0038142Y0068072D01*
X0035764Y0070450D01*
X0033983Y0070450D01*
X0032202Y0070450D01*
X0029683Y0067931D01*
X0029683Y0066150D01*
X0029683Y0064369D01*
X0031968Y0062084D01*
X0025057Y0062084D01*
X0024012Y0061039D01*
X0024012Y0050786D01*
X0025057Y0049741D01*
X0043249Y0049741D01*
X0043249Y0047836D01*
X0044294Y0046791D01*
X0053672Y0046791D01*
X0054718Y0047836D01*
X0054718Y0062791D01*
X0055442Y0062791D01*
X0063961Y0054272D01*
X0064906Y0053327D01*
X0066140Y0052816D01*
X0068049Y0052816D01*
X0068049Y0052486D01*
X0068881Y0051654D01*
X0068728Y0051565D01*
X0068393Y0051230D01*
X0068156Y0050820D01*
X0068033Y0050362D01*
X0068033Y0047850D01*
X0073108Y0047850D01*
X0073108Y0046500D01*
X0068033Y0046500D01*
X0068033Y0043988D01*
X0068156Y0043530D01*
X0068393Y0043120D01*
X0068728Y0042785D01*
X0069138Y0042548D01*
X0069596Y0042425D01*
X0073108Y0042425D01*
X0073108Y0046500D01*
X0074458Y0046500D01*
X0074458Y0042425D01*
X0077970Y0042425D01*
X0078428Y0042548D01*
X0078838Y0042785D01*
X0079174Y0043120D01*
X0079411Y0043530D01*
X0079533Y0043988D01*
X0079533Y0046500D01*
X0074458Y0046500D01*
X0074458Y0047850D01*
X0079533Y0047850D01*
X0079533Y0050362D01*
X0079411Y0050820D01*
X0079174Y0051230D01*
X0078838Y0051565D01*
X0078685Y0051654D01*
X0079518Y0052486D01*
X0079518Y0052548D01*
X0080239Y0051826D01*
X0080747Y0051616D01*
X0085231Y0047131D01*
X0085024Y0046631D01*
X0085024Y0045369D01*
X0085507Y0044203D01*
X0086399Y0043311D01*
X0087565Y0042828D01*
X0088827Y0042828D01*
X0089992Y0043311D01*
X0090885Y0044203D01*
X0091367Y0045369D01*
X0091367Y0046631D01*
X0090980Y0047566D01*
X0090980Y0048659D01*
X0090556Y0049682D01*
X0089773Y0050465D01*
X0086828Y0053410D01*
X0088604Y0053410D01*
X0089035Y0053841D01*
X0089122Y0053754D01*
X0089532Y0053517D01*
X0089990Y0053394D01*
X0092208Y0053394D01*
X0092208Y0056978D01*
X0092576Y0056978D01*
X0092576Y0053394D01*
X0093441Y0053394D01*
X0092630Y0052583D01*
X0091909Y0050842D01*
X0091909Y0040650D01*
X0088346Y0037087D01*
X0084103Y0037087D01*
X0083176Y0038014D01*
X0080683Y0039047D01*
X0077984Y0039047D01*
X0075490Y0038014D01*
X0073582Y0036105D01*
X0072549Y0033612D01*
X0072549Y0030913D01*
X0073582Y0028420D01*
X0075490Y0026511D01*
X0077984Y0025478D01*
X0080683Y0025478D01*
X0083176Y0026511D01*
X0084278Y0027613D01*
X0091251Y0027613D01*
X0092992Y0028334D01*
X0094324Y0029667D01*
X0100662Y0036004D01*
X0101383Y0037745D01*
X0101383Y0047938D01*
X0105108Y0051663D01*
X0106680Y0051663D01*
X0106794Y0051616D01*
X0114697Y0051616D01*
X0114811Y0051663D01*
X0116447Y0051663D01*
X0122570Y0045541D01*
X0122570Y0044205D01*
X0123149Y0043625D01*
X0122570Y0043045D01*
X0122570Y0039205D01*
X0123149Y0038625D01*
X0122570Y0038045D01*
X0122570Y0034205D01*
X0123149Y0033625D01*
X0122570Y0033045D01*
X0122570Y0029205D01*
X0123615Y0028160D01*
X0126400Y0028160D01*
X0126400Y0027315D01*
X0127126Y0026589D01*
X0127126Y0026229D01*
X0127582Y0025129D01*
X0128425Y0024286D01*
X0129525Y0023831D01*
X0130716Y0023831D01*
X0131817Y0024286D01*
X0132659Y0025129D01*
X0133115Y0026229D01*
X0133115Y0027421D01*
X0132809Y0028160D01*
X0133754Y0028160D01*
X0134800Y0029205D01*
X0134800Y0033045D01*
X0134220Y0033625D01*
X0134800Y0034205D01*
X0134800Y0038045D01*
X0134220Y0038625D01*
X0134800Y0039205D01*
X0134800Y0043045D01*
X0134220Y0043625D01*
X0134435Y0043841D01*
X0134929Y0043841D01*
X0136268Y0045179D01*
X0136857Y0045768D01*
X0137216Y0045768D01*
X0138317Y0046224D01*
X0139159Y0047066D01*
X0139615Y0048167D01*
X0139615Y0049358D01*
X0139348Y0050004D01*
X0142703Y0050004D01*
X0143749Y0051049D01*
X0143749Y0052260D01*
X0144512Y0052260D01*
X0145014Y0051048D01*
X0146197Y0049865D01*
X0145423Y0049090D01*
X0144087Y0049090D01*
X0143042Y0048045D01*
X0143042Y0044205D01*
X0143622Y0043625D01*
X0143042Y0043045D01*
X0143042Y0039205D01*
X0143622Y0038625D01*
X0143042Y0038045D01*
X0143042Y0034205D01*
X0143622Y0033625D01*
X0143042Y0033045D01*
X0143042Y0029205D01*
X0144087Y0028160D01*
X0144096Y0028160D01*
X0144096Y0019678D01*
X0144049Y0019564D01*
X0144049Y0011661D01*
X0144777Y0009902D01*
X0145085Y0009595D01*
X0143962Y0008472D01*
X0141279Y0008472D01*
X0141349Y0008507D01*
X0141960Y0008951D01*
X0142495Y0009486D01*
X0142939Y0010097D01*
X0143282Y0010770D01*
X0143515Y0011488D01*
X0143633Y0012235D01*
X0143633Y0015412D01*
X0139033Y0015412D01*
X0139033Y0015812D01*
X0143633Y0015812D01*
X0143633Y0018990D01*
X0143515Y0019737D01*
X0143282Y0020455D01*
X0142939Y0021128D01*
X0142495Y0021739D01*
X0141960Y0022274D01*
X0141349Y0022718D01*
X0140676Y0023061D01*
X0139957Y0023294D01*
X0139211Y0023412D01*
X0139033Y0023412D01*
X0139033Y0015813D01*
X0138633Y0015813D01*
X0138633Y0023412D01*
X0138455Y0023412D01*
X0137709Y0023294D01*
X0136991Y0023061D01*
X0136318Y0022718D01*
X0135706Y0022274D01*
X0135172Y0021739D01*
X0134728Y0021128D01*
X0134385Y0020455D01*
X0134151Y0019737D01*
X0134033Y0018990D01*
X0134033Y0015812D01*
X0138633Y0015812D01*
X0138633Y0015412D01*
X0134033Y0015412D01*
X0134033Y0012235D01*
X0134151Y0011488D01*
X0134385Y0010770D01*
X0134728Y0010097D01*
X0135172Y0009486D01*
X0135706Y0008951D01*
X0136318Y0008507D01*
X0136387Y0008472D01*
X0131279Y0008472D01*
X0131349Y0008507D01*
X0131960Y0008951D01*
X0132495Y0009486D01*
X0132939Y0010097D01*
X0133282Y0010770D01*
X0133515Y0011488D01*
X0133633Y0012235D01*
X0133633Y0015412D01*
X0129033Y0015412D01*
X0129033Y0015812D01*
X0133633Y0015812D01*
X0133633Y0018990D01*
X0133515Y0019737D01*
X0133282Y0020455D01*
X0132939Y0021128D01*
X0132495Y0021739D01*
X0131960Y0022274D01*
X0131349Y0022718D01*
X0130676Y0023061D01*
X0129957Y0023294D01*
X0129211Y0023412D01*
X0129033Y0023412D01*
X0129033Y0015813D01*
X0128633Y0015813D01*
X0128633Y0023412D01*
X0128455Y0023412D01*
X0127709Y0023294D01*
X0126991Y0023061D01*
X0126318Y0022718D01*
X0125706Y0022274D01*
X0125172Y0021739D01*
X0124728Y0021128D01*
X0124385Y0020455D01*
X0124151Y0019737D01*
X0124033Y0018990D01*
X0124033Y0015812D01*
X0128633Y0015812D01*
X0128633Y0015412D01*
X0124033Y0015412D01*
X0124033Y0012235D01*
X0124151Y0011488D01*
X0124385Y0010770D01*
X0124728Y0010097D01*
X0125172Y0009486D01*
X0125706Y0008951D01*
X0126318Y0008507D01*
X0126387Y0008472D01*
X0121279Y0008472D01*
X0121349Y0008507D01*
X0121960Y0008951D01*
X0122495Y0009486D01*
X0122939Y0010097D01*
X0123282Y0010770D01*
X0123515Y0011488D01*
X0123633Y0012235D01*
X0123633Y0015412D01*
X0119033Y0015412D01*
X0119033Y0015812D01*
X0123633Y0015812D01*
X0123633Y0018990D01*
X0123515Y0019737D01*
X0123282Y0020455D01*
X0122939Y0021128D01*
X0122495Y0021739D01*
X0121960Y0022274D01*
X0121349Y0022718D01*
X0120676Y0023061D01*
X0119957Y0023294D01*
X0119211Y0023412D01*
X0119033Y0023412D01*
X0119033Y0015813D01*
X0118633Y0015813D01*
X0118633Y0023412D01*
X0118455Y0023412D01*
X0117709Y0023294D01*
X0116991Y0023061D01*
X0116318Y0022718D01*
X0115706Y0022274D01*
X0115172Y0021739D01*
X0114728Y0021128D01*
X0114385Y0020455D01*
X0114151Y0019737D01*
X0114033Y0018990D01*
X0114033Y0015812D01*
X0118633Y0015812D01*
X0118633Y0015412D01*
X0114033Y0015412D01*
X0114033Y0012235D01*
X0114151Y0011488D01*
X0114385Y0010770D01*
X0114728Y0010097D01*
X0115172Y0009486D01*
X0115706Y0008951D01*
X0116318Y0008507D01*
X0116387Y0008472D01*
X0111338Y0008472D01*
X0111543Y0008557D01*
X0112889Y0009902D01*
X0113618Y0011661D01*
X0113618Y0019564D01*
X0112889Y0021323D01*
X0111543Y0022668D01*
X0109785Y0023397D01*
X0107882Y0023397D01*
X0106123Y0022668D01*
X0104777Y0021323D01*
X0104049Y0019564D01*
X0104049Y0017897D01*
X0102708Y0017897D01*
X0102708Y0021799D01*
X0102080Y0022426D01*
X0102364Y0022710D01*
X0102601Y0023121D01*
X0102724Y0023578D01*
X0102724Y0025600D01*
X0098943Y0025600D01*
X0098943Y0025968D01*
X0102724Y0025968D01*
X0102724Y0027989D01*
X0102601Y0028447D01*
X0102364Y0028858D01*
X0102029Y0029193D01*
X0101618Y0029430D01*
X0101161Y0029552D01*
X0098943Y0029552D01*
X0098943Y0025968D01*
X0098574Y0025968D01*
X0098574Y0025600D01*
X0094793Y0025600D01*
X0094793Y0023578D01*
X0094916Y0023121D01*
X0095153Y0022710D01*
X0095436Y0022426D01*
X0094809Y0021799D01*
X0094809Y0017897D01*
X0092717Y0017897D01*
X0092328Y0018286D01*
X0092328Y0018646D01*
X0091872Y0019746D01*
X0091030Y0020589D01*
X0089929Y0021044D01*
X0088738Y0021044D01*
X0087850Y0020677D01*
X0087235Y0021293D01*
X0081032Y0021293D01*
X0079987Y0020248D01*
X0079987Y0020112D01*
X0075379Y0020112D01*
X0074334Y0019067D01*
X0074334Y0013651D01*
X0074961Y0013024D01*
X0074678Y0012740D01*
X0074441Y0012329D01*
X0074318Y0011872D01*
X0074318Y0009850D01*
X0078099Y0009850D01*
X0078099Y0009482D01*
X0074318Y0009482D01*
X0074318Y0007461D01*
X0074441Y0007003D01*
X0074624Y0006684D01*
X0073958Y0006684D01*
X0072680Y0007963D01*
X0072680Y0011980D01*
X0071647Y0013012D01*
X0072680Y0014045D01*
X0072680Y0020248D01*
X0071635Y0021293D01*
X0065432Y0021293D01*
X0064387Y0020248D01*
X0064387Y0020112D01*
X0059779Y0020112D01*
X0058734Y0019067D01*
X0058734Y0013651D01*
X0059361Y0013024D01*
X0059078Y0012740D01*
X0058841Y0012329D01*
X0058718Y0011872D01*
X0058718Y0009850D01*
X0062499Y0009850D01*
X0062499Y0009482D01*
X0058718Y0009482D01*
X0058718Y0007808D01*
X0057754Y0008207D01*
X0057394Y0008207D01*
X0057080Y0008521D01*
X0057080Y0011980D01*
X0056047Y0013012D01*
X0057080Y0014045D01*
X0057080Y0020248D01*
X0056035Y0021293D01*
X0049832Y0021293D01*
X0048787Y0020248D01*
X0048787Y0020112D01*
X0044179Y0020112D01*
X0043134Y0019067D01*
X0043134Y0013651D01*
X0043761Y0013024D01*
X0043478Y0012740D01*
X0043241Y0012329D01*
X0043118Y0011872D01*
X0043118Y0009850D01*
X0046899Y0009850D01*
X0046899Y0009482D01*
X0043118Y0009482D01*
X0043118Y0007461D01*
X0043241Y0007003D01*
X0043478Y0006592D01*
X0043813Y0006257D01*
X0044223Y0006020D01*
X0044681Y0005898D01*
X0046899Y0005898D01*
X0046899Y0009482D01*
X0047268Y0009482D01*
X0047268Y0005898D01*
X0048787Y0005898D01*
X0048787Y0005777D01*
X0049832Y0004732D01*
X0054164Y0004732D01*
X0054164Y0004617D01*
X0054171Y0004600D01*
X0034822Y0004600D01*
X0035486Y0005263D01*
X0037276Y0008363D01*
X0038202Y0011821D01*
X0038202Y0015401D01*
X0037276Y0018859D01*
X0035486Y0021959D01*
X0032954Y0024490D01*
X0029854Y0026280D01*
X0026397Y0027206D01*
X0022817Y0027206D01*
X0019359Y0026280D01*
X0016259Y0024490D01*
X0015596Y0023827D01*
X0015596Y0082870D01*
X0019937Y0078529D01*
X0015596Y0078529D01*
X0015596Y0080127D02*
X0018338Y0080127D01*
X0019937Y0078529D02*
X0021275Y0077191D01*
X0032650Y0077191D01*
X0034724Y0075116D01*
X0036062Y0073778D01*
X0043154Y0073778D01*
X0044942Y0075566D01*
X0050658Y0075566D01*
X0050912Y0075311D01*
X0052013Y0074856D01*
X0053204Y0074856D01*
X0054305Y0075311D01*
X0055147Y0076154D01*
X0055603Y0077254D01*
X0055603Y0077941D01*
X0067008Y0077941D01*
X0067044Y0077855D01*
X0068221Y0076678D01*
X0069759Y0076041D01*
X0071423Y0076041D01*
X0071509Y0076077D01*
X0072957Y0074629D01*
X0072957Y0074629D01*
X0074295Y0073291D01*
X0084429Y0073291D01*
X0085768Y0074629D01*
X0090604Y0079466D01*
X0094914Y0079466D01*
X0094626Y0078771D01*
X0094626Y0077579D01*
X0095082Y0076479D01*
X0095337Y0076224D01*
X0095337Y0075147D01*
X0093681Y0075147D01*
X0092106Y0074495D01*
X0090901Y0073289D01*
X0090249Y0071715D01*
X0090249Y0070010D01*
X0090862Y0068531D01*
X0090364Y0068531D01*
X0090364Y0064947D01*
X0089995Y0064947D01*
X0089995Y0068531D01*
X0087777Y0068531D01*
X0087320Y0068408D01*
X0086909Y0068171D01*
X0086822Y0068084D01*
X0086391Y0068515D01*
X0080582Y0068515D01*
X0080189Y0068122D01*
X0079518Y0068122D01*
X0079518Y0068864D01*
X0078472Y0069909D01*
X0069094Y0069909D01*
X0068950Y0069765D01*
X0066087Y0069765D01*
X0064708Y0069194D01*
X0063652Y0068138D01*
X0063081Y0066759D01*
X0063081Y0065266D01*
X0063514Y0064220D01*
X0058736Y0068998D01*
X0057501Y0069509D01*
X0044683Y0069509D01*
X0044410Y0069782D01*
X0042835Y0070434D01*
X0041131Y0070434D01*
X0039556Y0069782D01*
X0038351Y0068577D01*
X0033983Y0068937D02*
X0033983Y0068937D01*
X0033983Y0070450D02*
X0033983Y0066150D01*
X0033983Y0066150D01*
X0029683Y0066150D01*
X0033983Y0066150D01*
X0033983Y0066150D01*
X0033983Y0070450D01*
X0030690Y0068937D02*
X0015596Y0068937D01*
X0015596Y0067339D02*
X0029683Y0067339D01*
X0029683Y0065740D02*
X0015596Y0065740D01*
X0015596Y0064142D02*
X0029910Y0064142D01*
X0031509Y0062543D02*
X0015596Y0062543D01*
X0015596Y0060945D02*
X0024012Y0060945D01*
X0024012Y0059346D02*
X0015596Y0059346D01*
X0015596Y0057748D02*
X0024012Y0057748D01*
X0024012Y0056149D02*
X0015596Y0056149D01*
X0015596Y0054551D02*
X0024012Y0054551D01*
X0024012Y0052952D02*
X0015596Y0052952D01*
X0015596Y0051354D02*
X0024012Y0051354D01*
X0025042Y0049755D02*
X0015596Y0049755D01*
X0015596Y0048157D02*
X0043249Y0048157D01*
X0048028Y0043361D02*
X0036870Y0043361D01*
X0036905Y0043277D02*
X0036253Y0044852D01*
X0035048Y0046057D01*
X0033473Y0046709D01*
X0031769Y0046709D01*
X0030194Y0046057D01*
X0028989Y0044852D01*
X0028780Y0044347D01*
X0026402Y0046725D01*
X0024621Y0046725D01*
X0024621Y0042425D01*
X0024621Y0038125D01*
X0026402Y0038125D01*
X0028780Y0040503D01*
X0028989Y0039998D01*
X0030194Y0038793D01*
X0031769Y0038141D01*
X0032990Y0038141D01*
X0034069Y0037061D01*
X0034848Y0036282D01*
X0035866Y0035861D01*
X0036609Y0035861D01*
X0036609Y0034672D01*
X0040390Y0034672D01*
X0040390Y0034303D01*
X0040759Y0034303D01*
X0040759Y0030719D01*
X0042977Y0030719D01*
X0043434Y0030842D01*
X0043845Y0031079D01*
X0043932Y0031166D01*
X0044363Y0030735D01*
X0050172Y0030735D01*
X0051217Y0031780D01*
X0051217Y0035935D01*
X0051785Y0036504D01*
X0053791Y0038510D01*
X0055080Y0038510D01*
X0056459Y0039081D01*
X0057515Y0040137D01*
X0058086Y0041516D01*
X0058086Y0043009D01*
X0057515Y0044388D01*
X0056459Y0045444D01*
X0055080Y0046015D01*
X0051490Y0046015D01*
X0050111Y0045444D01*
X0049055Y0044388D01*
X0046478Y0041811D01*
X0046065Y0041398D01*
X0037563Y0041398D01*
X0036905Y0042056D01*
X0036905Y0043277D01*
X0037198Y0041763D02*
X0046430Y0041763D01*
X0049055Y0044388D02*
X0049055Y0044388D01*
X0049627Y0044960D02*
X0036145Y0044960D01*
X0033837Y0046558D02*
X0073108Y0046558D01*
X0074458Y0046558D02*
X0085024Y0046558D01*
X0085194Y0044960D02*
X0079533Y0044960D01*
X0079313Y0043361D02*
X0086349Y0043361D01*
X0090042Y0043361D02*
X0091909Y0043361D01*
X0091909Y0041763D02*
X0058086Y0041763D01*
X0057940Y0043361D02*
X0068253Y0043361D01*
X0068033Y0044960D02*
X0056943Y0044960D01*
X0054718Y0048157D02*
X0068033Y0048157D01*
X0068033Y0049755D02*
X0054718Y0049755D01*
X0054718Y0051354D02*
X0068517Y0051354D01*
X0065811Y0052952D02*
X0054718Y0052952D01*
X0054718Y0054551D02*
X0063682Y0054551D01*
X0062083Y0056149D02*
X0054718Y0056149D01*
X0054718Y0057748D02*
X0060485Y0057748D01*
X0058886Y0059346D02*
X0054718Y0059346D01*
X0054718Y0060945D02*
X0057288Y0060945D01*
X0055689Y0062543D02*
X0054718Y0062543D01*
X0060395Y0067339D02*
X0063321Y0067339D01*
X0063081Y0065740D02*
X0061993Y0065740D01*
X0064451Y0068937D02*
X0058796Y0068937D01*
X0054325Y0075332D02*
X0072254Y0075332D01*
X0073853Y0073733D02*
X0015596Y0073733D01*
X0015596Y0072134D02*
X0090423Y0072134D01*
X0090249Y0070536D02*
X0015596Y0070536D01*
X0015596Y0075332D02*
X0034509Y0075332D01*
X0032910Y0076930D02*
X0015596Y0076930D01*
X0015596Y0081726D02*
X0016740Y0081726D01*
X0015596Y0088593D02*
X0015596Y0176624D01*
X0016259Y0175960D01*
X0019359Y0174171D01*
X0022817Y0173244D01*
X0026397Y0173244D01*
X0029854Y0174171D01*
X0032954Y0175960D01*
X0035486Y0178492D01*
X0037276Y0181592D01*
X0038202Y0185050D01*
X0038202Y0188629D01*
X0037276Y0192087D01*
X0035486Y0195187D01*
X0034822Y0195850D01*
X0040734Y0195850D01*
X0040734Y0194797D01*
X0044515Y0194797D01*
X0044515Y0194428D01*
X0044884Y0194428D01*
X0044884Y0190844D01*
X0046464Y0190844D01*
X0045496Y0189876D01*
X0045496Y0188087D01*
X0050096Y0188087D01*
X0050096Y0187687D01*
X0045496Y0187687D01*
X0045496Y0185899D01*
X0046061Y0185334D01*
X0042016Y0185334D01*
X0040725Y0184043D01*
X0039387Y0182705D01*
X0039387Y0178787D01*
X0038766Y0178787D01*
X0037721Y0177742D01*
X0037721Y0172326D01*
X0038360Y0171688D01*
X0037721Y0171049D01*
X0037721Y0165633D01*
X0038766Y0164588D01*
X0042613Y0164588D01*
X0042539Y0164408D01*
X0042539Y0163217D01*
X0042995Y0162116D01*
X0043837Y0161274D01*
X0044938Y0160818D01*
X0046129Y0160818D01*
X0047230Y0161274D01*
X0047484Y0161528D01*
X0053879Y0161528D01*
X0055218Y0162866D01*
X0061242Y0168891D01*
X0062580Y0170229D01*
X0062580Y0173406D01*
X0065080Y0175906D01*
X0065080Y0179869D01*
X0064183Y0180766D01*
X0065512Y0180766D01*
X0065512Y0174148D01*
X0066557Y0173103D01*
X0074035Y0173103D01*
X0075080Y0174148D01*
X0075080Y0176187D01*
X0075216Y0176051D01*
X0078516Y0176051D01*
X0076687Y0174222D01*
X0076662Y0174222D01*
X0075324Y0172884D01*
X0074025Y0171584D01*
X0066537Y0171584D01*
X0065199Y0170246D01*
X0055600Y0160647D01*
X0051559Y0160647D01*
X0051305Y0160901D01*
X0050204Y0161357D01*
X0049013Y0161357D01*
X0047912Y0160901D01*
X0047070Y0160059D01*
X0046614Y0158958D01*
X0046614Y0157767D01*
X0047070Y0156666D01*
X0047912Y0155824D01*
X0049013Y0155368D01*
X0050204Y0155368D01*
X0051014Y0155703D01*
X0051014Y0154954D01*
X0051043Y0154884D01*
X0040421Y0154884D01*
X0040167Y0155139D01*
X0039066Y0155594D01*
X0037875Y0155594D01*
X0036775Y0155139D01*
X0035932Y0154296D01*
X0035476Y0153196D01*
X0035476Y0152004D01*
X0035932Y0150904D01*
X0036775Y0150061D01*
X0037875Y0149606D01*
X0039066Y0149606D01*
X0040167Y0150061D01*
X0040421Y0150316D01*
X0055158Y0150316D01*
X0055114Y0150208D01*
X0055114Y0149017D01*
X0055345Y0148459D01*
X0023725Y0148459D01*
X0021018Y0145752D01*
X0021018Y0158354D01*
X0023657Y0160993D01*
X0024016Y0160993D01*
X0025117Y0161449D01*
X0025959Y0162291D01*
X0026415Y0163392D01*
X0026415Y0164583D01*
X0025959Y0165684D01*
X0025117Y0166526D01*
X0024016Y0166982D01*
X0022825Y0166982D01*
X0021725Y0166526D01*
X0020882Y0165684D01*
X0020426Y0164583D01*
X0020426Y0164223D01*
X0017787Y0161584D01*
X0016449Y0160246D01*
X0016449Y0108829D01*
X0019580Y0105698D01*
X0019225Y0105551D01*
X0018382Y0104709D01*
X0017926Y0103608D01*
X0017926Y0102417D01*
X0018382Y0101316D01*
X0019225Y0100474D01*
X0020325Y0100018D01*
X0020685Y0100018D01*
X0021374Y0099329D01*
X0021947Y0098756D01*
X0021947Y0096872D01*
X0021574Y0096872D01*
X0021347Y0097421D01*
X0020505Y0098264D01*
X0019404Y0098719D01*
X0018213Y0098719D01*
X0017112Y0098264D01*
X0016270Y0097421D01*
X0015814Y0096321D01*
X0015814Y0095129D01*
X0016270Y0094029D01*
X0017112Y0093186D01*
X0018213Y0092731D01*
X0018572Y0092731D01*
X0019000Y0092303D01*
X0021947Y0092303D01*
X0021947Y0091184D01*
X0018187Y0091184D01*
X0016725Y0089722D01*
X0015596Y0088593D01*
X0015596Y0089718D02*
X0016721Y0089718D01*
X0015596Y0091317D02*
X0021947Y0091317D01*
X0017767Y0092915D02*
X0015596Y0092915D01*
X0015596Y0094514D02*
X0016069Y0094514D01*
X0015814Y0096112D02*
X0015596Y0096112D01*
X0015596Y0097711D02*
X0016559Y0097711D01*
X0015596Y0099309D02*
X0021394Y0099309D01*
X0021057Y0097711D02*
X0021947Y0097711D01*
X0018791Y0100908D02*
X0015596Y0100908D01*
X0015596Y0102506D02*
X0017926Y0102506D01*
X0018132Y0104105D02*
X0015596Y0104105D01*
X0015596Y0105703D02*
X0019575Y0105703D01*
X0017976Y0107302D02*
X0015596Y0107302D01*
X0015596Y0108900D02*
X0016449Y0108900D01*
X0016449Y0110499D02*
X0015596Y0110499D01*
X0015596Y0112097D02*
X0016449Y0112097D01*
X0016449Y0113696D02*
X0015596Y0113696D01*
X0015596Y0115294D02*
X0016449Y0115294D01*
X0016449Y0116893D02*
X0015596Y0116893D01*
X0015596Y0118491D02*
X0016449Y0118491D01*
X0016449Y0120090D02*
X0015596Y0120090D01*
X0015596Y0121688D02*
X0016449Y0121688D01*
X0016449Y0123287D02*
X0015596Y0123287D01*
X0015596Y0124885D02*
X0016449Y0124885D01*
X0016449Y0126484D02*
X0015596Y0126484D01*
X0015596Y0128082D02*
X0016449Y0128082D01*
X0016449Y0129681D02*
X0015596Y0129681D01*
X0015596Y0131279D02*
X0016449Y0131279D01*
X0016449Y0132878D02*
X0015596Y0132878D01*
X0015596Y0134476D02*
X0016449Y0134476D01*
X0016449Y0136075D02*
X0015596Y0136075D01*
X0015596Y0137673D02*
X0016449Y0137673D01*
X0016449Y0139272D02*
X0015596Y0139272D01*
X0015596Y0140870D02*
X0016449Y0140870D01*
X0016449Y0142469D02*
X0015596Y0142469D01*
X0015596Y0144068D02*
X0016449Y0144068D01*
X0016449Y0145666D02*
X0015596Y0145666D01*
X0015596Y0147265D02*
X0016449Y0147265D01*
X0016449Y0148863D02*
X0015596Y0148863D01*
X0015596Y0150462D02*
X0016449Y0150462D01*
X0016449Y0152060D02*
X0015596Y0152060D01*
X0015596Y0153659D02*
X0016449Y0153659D01*
X0016449Y0155257D02*
X0015596Y0155257D01*
X0015596Y0156856D02*
X0016449Y0156856D01*
X0016449Y0158454D02*
X0015596Y0158454D01*
X0015596Y0160053D02*
X0016449Y0160053D01*
X0015596Y0161651D02*
X0017854Y0161651D01*
X0019453Y0163250D02*
X0015596Y0163250D01*
X0015596Y0164848D02*
X0020536Y0164848D01*
X0021645Y0166447D02*
X0015596Y0166447D01*
X0015596Y0168045D02*
X0037721Y0168045D01*
X0037721Y0166447D02*
X0025196Y0166447D01*
X0026305Y0164848D02*
X0038506Y0164848D01*
X0042539Y0163250D02*
X0026356Y0163250D01*
X0025319Y0161651D02*
X0043460Y0161651D01*
X0046614Y0158454D02*
X0021118Y0158454D01*
X0021018Y0156856D02*
X0046991Y0156856D01*
X0051014Y0155257D02*
X0039881Y0155257D01*
X0037061Y0155257D02*
X0021018Y0155257D01*
X0021018Y0153659D02*
X0035668Y0153659D01*
X0035476Y0152060D02*
X0021018Y0152060D01*
X0021018Y0150462D02*
X0036374Y0150462D01*
X0047067Y0160053D02*
X0022716Y0160053D01*
X0015596Y0169644D02*
X0037721Y0169644D01*
X0037915Y0171242D02*
X0015596Y0171242D01*
X0015596Y0172841D02*
X0037721Y0172841D01*
X0037721Y0174439D02*
X0030320Y0174439D01*
X0033032Y0176038D02*
X0037721Y0176038D01*
X0037721Y0177636D02*
X0034630Y0177636D01*
X0035915Y0179235D02*
X0039387Y0179235D01*
X0039387Y0180833D02*
X0036838Y0180833D01*
X0037501Y0182432D02*
X0039387Y0182432D01*
X0040712Y0184030D02*
X0037929Y0184030D01*
X0038202Y0185629D02*
X0045766Y0185629D01*
X0045496Y0187227D02*
X0038202Y0187227D01*
X0038149Y0188826D02*
X0045496Y0188826D01*
X0046044Y0190424D02*
X0037721Y0190424D01*
X0037293Y0192023D02*
X0040837Y0192023D01*
X0040857Y0191949D02*
X0041094Y0191539D01*
X0041429Y0191204D01*
X0041839Y0190967D01*
X0042297Y0190844D01*
X0044515Y0190844D01*
X0044515Y0194428D01*
X0040734Y0194428D01*
X0040734Y0192407D01*
X0040857Y0191949D01*
X0040734Y0193621D02*
X0036390Y0193621D01*
X0035453Y0195220D02*
X0040734Y0195220D01*
X0044515Y0193621D02*
X0044884Y0193621D01*
X0044884Y0192023D02*
X0044515Y0192023D01*
X0050496Y0188087D02*
X0055096Y0188087D01*
X0055096Y0189876D01*
X0054112Y0190860D01*
X0054297Y0190860D01*
X0055342Y0191905D01*
X0055342Y0192078D01*
X0056072Y0192078D01*
X0056072Y0191458D01*
X0056586Y0190944D01*
X0055512Y0189869D01*
X0055512Y0185906D01*
X0056083Y0185334D01*
X0054531Y0185334D01*
X0055096Y0185899D01*
X0055096Y0187687D01*
X0050496Y0187687D01*
X0050496Y0188087D01*
X0055096Y0188826D02*
X0055512Y0188826D01*
X0055512Y0187227D02*
X0055096Y0187227D01*
X0054825Y0185629D02*
X0055789Y0185629D01*
X0056067Y0190424D02*
X0054547Y0190424D01*
X0055342Y0192023D02*
X0056072Y0192023D01*
X0056408Y0180766D02*
X0054183Y0180766D01*
X0055080Y0179869D01*
X0055080Y0175906D01*
X0052580Y0173406D01*
X0052580Y0172416D01*
X0051242Y0171078D01*
X0046724Y0166560D01*
X0047230Y0166351D01*
X0047484Y0166097D01*
X0051987Y0166097D01*
X0058012Y0172121D01*
X0058012Y0173406D01*
X0055512Y0175906D01*
X0055512Y0179869D01*
X0056408Y0180766D01*
X0055512Y0179235D02*
X0055080Y0179235D01*
X0055080Y0177636D02*
X0055512Y0177636D01*
X0055512Y0176038D02*
X0055080Y0176038D01*
X0053613Y0174439D02*
X0056978Y0174439D01*
X0058012Y0172841D02*
X0052580Y0172841D01*
X0051406Y0171242D02*
X0057133Y0171242D01*
X0055534Y0169644D02*
X0049807Y0169644D01*
X0048209Y0168045D02*
X0053936Y0168045D01*
X0052337Y0166447D02*
X0046999Y0166447D01*
X0054002Y0161651D02*
X0056604Y0161651D01*
X0055601Y0163250D02*
X0058203Y0163250D01*
X0057199Y0164848D02*
X0059801Y0164848D01*
X0058798Y0166447D02*
X0061400Y0166447D01*
X0060396Y0168045D02*
X0062998Y0168045D01*
X0061995Y0169644D02*
X0064597Y0169644D01*
X0066195Y0171242D02*
X0062580Y0171242D01*
X0062580Y0172841D02*
X0075281Y0172841D01*
X0075080Y0174439D02*
X0076905Y0174439D01*
X0078503Y0176038D02*
X0075080Y0176038D01*
X0065512Y0176038D02*
X0065080Y0176038D01*
X0065080Y0177636D02*
X0065512Y0177636D01*
X0065512Y0179235D02*
X0065080Y0179235D01*
X0065512Y0174439D02*
X0063613Y0174439D01*
X0087455Y0155160D02*
X0096574Y0146041D01*
X0106662Y0146041D01*
X0106662Y0142859D01*
X0101562Y0142859D01*
X0100224Y0141521D01*
X0099636Y0140933D01*
X0099636Y0140434D01*
X0097016Y0140434D01*
X0096958Y0140450D01*
X0095621Y0140450D01*
X0095621Y0136150D01*
X0095621Y0136150D01*
X0095621Y0131850D01*
X0096958Y0131850D01*
X0097016Y0131866D01*
X0097197Y0131866D01*
X0097197Y0126683D01*
X0098242Y0125638D01*
X0101012Y0125638D01*
X0101012Y0124453D01*
X0100801Y0123946D01*
X0100801Y0122754D01*
X0100955Y0122384D01*
X0085171Y0122384D01*
X0085083Y0122595D01*
X0083906Y0123772D01*
X0082368Y0124409D01*
X0080704Y0124409D01*
X0080618Y0124374D01*
X0077157Y0127834D01*
X0075265Y0127834D01*
X0068100Y0127834D01*
X0066762Y0126496D01*
X0062775Y0122509D01*
X0053036Y0122509D01*
X0057229Y0126703D01*
X0064679Y0126703D01*
X0071842Y0133866D01*
X0080138Y0133866D01*
X0080138Y0132911D01*
X0081183Y0131866D01*
X0083403Y0131866D01*
X0083403Y0130998D01*
X0083825Y0129981D01*
X0084604Y0129202D01*
X0086228Y0127578D01*
X0087245Y0127156D01*
X0091030Y0127156D01*
X0091575Y0126931D01*
X0092766Y0126931D01*
X0093867Y0127386D01*
X0094709Y0128229D01*
X0095165Y0129329D01*
X0095165Y0130521D01*
X0094709Y0131621D01*
X0094481Y0131850D01*
X0095621Y0131850D01*
X0095621Y0136150D01*
X0095621Y0136150D01*
X0095621Y0140450D01*
X0094768Y0140450D01*
X0094768Y0140787D01*
X0095022Y0141041D01*
X0095478Y0142142D01*
X0095478Y0143333D01*
X0095022Y0144434D01*
X0094180Y0145276D01*
X0093079Y0145732D01*
X0091888Y0145732D01*
X0090787Y0145276D01*
X0089945Y0144434D01*
X0089489Y0143333D01*
X0089489Y0142142D01*
X0089945Y0141041D01*
X0090199Y0140787D01*
X0090199Y0140434D01*
X0084948Y0140434D01*
X0085594Y0141080D01*
X0087555Y0143041D01*
X0087555Y0148084D01*
X0086961Y0148677D01*
X0087617Y0148949D01*
X0088459Y0149791D01*
X0088915Y0150892D01*
X0088915Y0152083D01*
X0088459Y0153184D01*
X0087617Y0154026D01*
X0087455Y0154093D01*
X0087455Y0155160D01*
X0087985Y0153659D02*
X0088957Y0153659D01*
X0088915Y0152060D02*
X0090555Y0152060D01*
X0092154Y0150462D02*
X0088737Y0150462D01*
X0087410Y0148863D02*
X0093752Y0148863D01*
X0095351Y0147265D02*
X0087555Y0147265D01*
X0087555Y0145666D02*
X0091728Y0145666D01*
X0093238Y0145666D02*
X0106662Y0145666D01*
X0106662Y0144068D02*
X0095174Y0144068D01*
X0095478Y0142469D02*
X0101172Y0142469D01*
X0099636Y0140870D02*
X0094851Y0140870D01*
X0095621Y0139272D02*
X0095621Y0139272D01*
X0095621Y0137673D02*
X0095621Y0137673D01*
X0095621Y0136075D02*
X0095621Y0136075D01*
X0095621Y0134476D02*
X0095621Y0134476D01*
X0095621Y0132878D02*
X0095621Y0132878D01*
X0094851Y0131279D02*
X0097197Y0131279D01*
X0097197Y0129681D02*
X0095165Y0129681D01*
X0094563Y0128082D02*
X0097197Y0128082D01*
X0097396Y0126484D02*
X0078508Y0126484D01*
X0080106Y0124885D02*
X0101012Y0124885D01*
X0100801Y0123287D02*
X0084392Y0123287D01*
X0085723Y0128082D02*
X0066059Y0128082D01*
X0066762Y0126496D02*
X0066762Y0126496D01*
X0066749Y0126484D02*
X0057010Y0126484D01*
X0055412Y0124885D02*
X0065151Y0124885D01*
X0063552Y0123287D02*
X0053813Y0123287D01*
X0050549Y0126484D02*
X0050467Y0126484D01*
X0050478Y0126458D02*
X0050022Y0127559D01*
X0049180Y0128401D01*
X0048079Y0128857D01*
X0047719Y0128857D01*
X0046879Y0129697D01*
X0041367Y0129697D01*
X0038518Y0132546D01*
X0038518Y0136724D01*
X0038772Y0136979D01*
X0039228Y0138079D01*
X0039228Y0139203D01*
X0065719Y0139203D01*
X0062475Y0135959D01*
X0046309Y0135959D01*
X0046055Y0136214D01*
X0044954Y0136669D01*
X0043763Y0136669D01*
X0042662Y0136214D01*
X0041820Y0135371D01*
X0041364Y0134271D01*
X0041364Y0133079D01*
X0041820Y0131979D01*
X0042662Y0131136D01*
X0043763Y0130681D01*
X0044954Y0130681D01*
X0046055Y0131136D01*
X0046309Y0131391D01*
X0062906Y0131391D01*
X0062787Y0131272D01*
X0055337Y0131272D01*
X0053999Y0129934D01*
X0050478Y0126412D01*
X0050478Y0126458D01*
X0049498Y0128082D02*
X0052148Y0128082D01*
X0053746Y0129681D02*
X0046895Y0129681D01*
X0046198Y0131279D02*
X0062795Y0131279D01*
X0062590Y0136075D02*
X0046193Y0136075D01*
X0042523Y0136075D02*
X0038518Y0136075D01*
X0038518Y0134476D02*
X0041449Y0134476D01*
X0041447Y0132878D02*
X0038518Y0132878D01*
X0039784Y0131279D02*
X0042519Y0131279D01*
X0039060Y0137673D02*
X0064189Y0137673D01*
X0069256Y0131279D02*
X0083403Y0131279D01*
X0084125Y0129681D02*
X0067657Y0129681D01*
X0070854Y0132878D02*
X0080171Y0132878D01*
X0085384Y0140870D02*
X0090115Y0140870D01*
X0089489Y0142469D02*
X0086983Y0142469D01*
X0087555Y0144068D02*
X0089793Y0144068D01*
X0096244Y0156582D02*
X0093947Y0158879D01*
X0094084Y0159016D01*
X0094540Y0160117D01*
X0094540Y0160821D01*
X0094850Y0160511D01*
X0095950Y0160056D01*
X0097141Y0160056D01*
X0098242Y0160511D01*
X0099084Y0161354D01*
X0099540Y0162454D01*
X0099540Y0163646D01*
X0099084Y0164746D01*
X0098405Y0165426D01*
X0098405Y0165650D01*
X0098770Y0165650D01*
X0098770Y0169950D01*
X0098770Y0174250D01*
X0098405Y0174250D01*
X0098405Y0174329D01*
X0097981Y0175352D01*
X0097327Y0176006D01*
X0097931Y0176257D01*
X0099277Y0177602D01*
X0100005Y0179361D01*
X0100005Y0187264D01*
X0099277Y0189023D01*
X0097931Y0190368D01*
X0096172Y0191097D01*
X0094269Y0191097D01*
X0092511Y0190368D01*
X0091953Y0189811D01*
X0088873Y0192891D01*
X0098462Y0192891D01*
X0101748Y0189605D01*
X0101165Y0189023D01*
X0100437Y0187264D01*
X0100437Y0179361D01*
X0101165Y0177602D01*
X0102511Y0176257D01*
X0104269Y0175528D01*
X0106172Y0175528D01*
X0107931Y0176257D01*
X0109277Y0177602D01*
X0110005Y0179361D01*
X0110005Y0187264D01*
X0109277Y0189023D01*
X0107931Y0190368D01*
X0107102Y0190712D01*
X0106167Y0191647D01*
X0101963Y0195850D01*
X0122616Y0195850D01*
X0121387Y0194621D01*
X0117637Y0190871D01*
X0117637Y0190469D01*
X0117063Y0190761D01*
X0116345Y0190994D01*
X0115599Y0191112D01*
X0115421Y0191112D01*
X0115421Y0183513D01*
X0115021Y0183513D01*
X0115021Y0191112D01*
X0114843Y0191112D01*
X0114097Y0190994D01*
X0113378Y0190761D01*
X0112705Y0190418D01*
X0112094Y0189974D01*
X0111560Y0189439D01*
X0111115Y0188828D01*
X0110772Y0188155D01*
X0110539Y0187437D01*
X0110421Y0186690D01*
X0110421Y0183512D01*
X0115021Y0183512D01*
X0115021Y0183112D01*
X0115421Y0183112D01*
X0115421Y0175512D01*
X0115599Y0175512D01*
X0115812Y0175546D01*
X0112500Y0172234D01*
X0107954Y0172234D01*
X0107954Y0173189D01*
X0106908Y0174234D01*
X0100166Y0174234D01*
X0100107Y0174250D01*
X0098770Y0174250D01*
X0098770Y0169950D01*
X0098770Y0169950D01*
X0098770Y0169950D01*
X0098770Y0165650D01*
X0099636Y0165650D01*
X0099636Y0160307D01*
X0099463Y0160307D01*
X0098362Y0159851D01*
X0097520Y0159009D01*
X0097064Y0157908D01*
X0097064Y0157262D01*
X0096825Y0157163D01*
X0096244Y0156582D01*
X0095971Y0156856D02*
X0096517Y0156856D01*
X0097290Y0158454D02*
X0094372Y0158454D01*
X0094514Y0160053D02*
X0098849Y0160053D01*
X0099208Y0161651D02*
X0099636Y0161651D01*
X0099636Y0163250D02*
X0099540Y0163250D01*
X0099636Y0164848D02*
X0098982Y0164848D01*
X0098770Y0166447D02*
X0098770Y0166447D01*
X0098770Y0168045D02*
X0098770Y0168045D01*
X0098770Y0169644D02*
X0098770Y0169644D01*
X0098770Y0171242D02*
X0098770Y0171242D01*
X0098770Y0172841D02*
X0098770Y0172841D01*
X0098359Y0174439D02*
X0114705Y0174439D01*
X0114843Y0175512D02*
X0115021Y0175512D01*
X0115021Y0183112D01*
X0110421Y0183112D01*
X0110421Y0179935D01*
X0110539Y0179188D01*
X0110772Y0178470D01*
X0111115Y0177797D01*
X0111560Y0177186D01*
X0112094Y0176651D01*
X0112705Y0176207D01*
X0113378Y0175864D01*
X0114097Y0175631D01*
X0114843Y0175512D01*
X0115021Y0176038D02*
X0115421Y0176038D01*
X0115421Y0177636D02*
X0115021Y0177636D01*
X0115021Y0179235D02*
X0115421Y0179235D01*
X0115421Y0180833D02*
X0115021Y0180833D01*
X0115021Y0182432D02*
X0115421Y0182432D01*
X0115421Y0184030D02*
X0115021Y0184030D01*
X0115021Y0185629D02*
X0115421Y0185629D01*
X0115421Y0187227D02*
X0115021Y0187227D01*
X0115021Y0188826D02*
X0115421Y0188826D01*
X0115421Y0190424D02*
X0115021Y0190424D01*
X0112718Y0190424D02*
X0107796Y0190424D01*
X0109358Y0188826D02*
X0111114Y0188826D01*
X0110506Y0187227D02*
X0110005Y0187227D01*
X0110005Y0185629D02*
X0110421Y0185629D01*
X0110421Y0184030D02*
X0110005Y0184030D01*
X0110005Y0182432D02*
X0110421Y0182432D01*
X0110421Y0180833D02*
X0110005Y0180833D01*
X0109953Y0179235D02*
X0110532Y0179235D01*
X0111232Y0177636D02*
X0109291Y0177636D01*
X0107402Y0176038D02*
X0113038Y0176038D01*
X0113106Y0172841D02*
X0107954Y0172841D01*
X0103039Y0176038D02*
X0097402Y0176038D01*
X0099291Y0177636D02*
X0101151Y0177636D01*
X0100489Y0179235D02*
X0099953Y0179235D01*
X0100005Y0180833D02*
X0100437Y0180833D01*
X0100437Y0182432D02*
X0100005Y0182432D01*
X0100005Y0184030D02*
X0100437Y0184030D01*
X0100437Y0185629D02*
X0100005Y0185629D01*
X0100005Y0187227D02*
X0100437Y0187227D01*
X0101083Y0188826D02*
X0099358Y0188826D01*
X0097796Y0190424D02*
X0100929Y0190424D01*
X0099330Y0192023D02*
X0089741Y0192023D01*
X0091339Y0190424D02*
X0092646Y0190424D01*
X0102594Y0195220D02*
X0121985Y0195220D01*
X0120387Y0193621D02*
X0104192Y0193621D01*
X0105791Y0192023D02*
X0118788Y0192023D01*
X0136165Y0174439D02*
X0148892Y0174439D01*
X0148220Y0175631D02*
X0148938Y0175864D01*
X0149612Y0176207D01*
X0150223Y0176651D01*
X0150757Y0177186D01*
X0151201Y0177797D01*
X0151544Y0178470D01*
X0151778Y0179188D01*
X0151896Y0179935D01*
X0151896Y0183112D01*
X0147296Y0183112D01*
X0147296Y0175512D01*
X0147474Y0175512D01*
X0148220Y0175631D01*
X0147296Y0176038D02*
X0146896Y0176038D01*
X0146896Y0175512D02*
X0146896Y0183112D01*
X0147296Y0183112D01*
X0147296Y0183512D01*
X0151896Y0183512D01*
X0151896Y0186690D01*
X0151778Y0187437D01*
X0151544Y0188155D01*
X0151201Y0188828D01*
X0151156Y0188891D01*
X0154835Y0188891D01*
X0154162Y0187264D01*
X0154162Y0179709D01*
X0145100Y0170647D01*
X0132373Y0170647D01*
X0137254Y0175528D01*
X0138047Y0175528D01*
X0139806Y0176257D01*
X0141152Y0177602D01*
X0141880Y0179361D01*
X0141880Y0187264D01*
X0141206Y0188891D01*
X0143036Y0188891D01*
X0142990Y0188828D01*
X0142647Y0188155D01*
X0142414Y0187437D01*
X0142296Y0186690D01*
X0142296Y0183512D01*
X0146896Y0183512D01*
X0146896Y0183112D01*
X0142296Y0183112D01*
X0142296Y0179935D01*
X0142414Y0179188D01*
X0142647Y0178470D01*
X0142990Y0177797D01*
X0143435Y0177186D01*
X0143969Y0176651D01*
X0144580Y0176207D01*
X0145253Y0175864D01*
X0145972Y0175631D01*
X0146718Y0175512D01*
X0146896Y0175512D01*
X0144913Y0176038D02*
X0139277Y0176038D01*
X0141166Y0177636D02*
X0143107Y0177636D01*
X0142407Y0179235D02*
X0141828Y0179235D01*
X0141880Y0180833D02*
X0142296Y0180833D01*
X0142296Y0182432D02*
X0141880Y0182432D01*
X0141880Y0184030D02*
X0142296Y0184030D01*
X0142296Y0185629D02*
X0141880Y0185629D01*
X0141880Y0187227D02*
X0142381Y0187227D01*
X0142989Y0188826D02*
X0141233Y0188826D01*
X0146896Y0182432D02*
X0147296Y0182432D01*
X0147296Y0180833D02*
X0146896Y0180833D01*
X0146896Y0179235D02*
X0147296Y0179235D01*
X0147296Y0177636D02*
X0146896Y0177636D01*
X0149279Y0176038D02*
X0150491Y0176038D01*
X0151084Y0177636D02*
X0152089Y0177636D01*
X0151785Y0179235D02*
X0153688Y0179235D01*
X0154162Y0180833D02*
X0151896Y0180833D01*
X0151896Y0182432D02*
X0154162Y0182432D01*
X0154162Y0184030D02*
X0151896Y0184030D01*
X0151896Y0185629D02*
X0154162Y0185629D01*
X0154162Y0187227D02*
X0151811Y0187227D01*
X0151202Y0188826D02*
X0154808Y0188826D01*
X0147294Y0172841D02*
X0134567Y0172841D01*
X0132968Y0171242D02*
X0145695Y0171242D01*
X0138211Y0155175D02*
X0134760Y0155175D01*
X0134121Y0155814D01*
X0133482Y0155175D01*
X0130055Y0155175D01*
X0128505Y0153625D01*
X0128505Y0145337D01*
X0131269Y0145337D01*
X0131908Y0144698D01*
X0132547Y0145337D01*
X0137962Y0145337D01*
X0139007Y0144292D01*
X0139007Y0140865D01*
X0139230Y0140643D01*
X0139230Y0138788D01*
X0139484Y0138534D01*
X0139940Y0137433D01*
X0139940Y0136242D01*
X0139484Y0135141D01*
X0138642Y0134299D01*
X0137541Y0133843D01*
X0136350Y0133843D01*
X0135250Y0134299D01*
X0134407Y0135141D01*
X0133951Y0136242D01*
X0133951Y0137433D01*
X0133953Y0137438D01*
X0132547Y0137438D01*
X0131908Y0138077D01*
X0131269Y0137438D01*
X0127843Y0137438D01*
X0127233Y0136828D01*
X0126358Y0136828D01*
X0126358Y0135034D01*
X0122577Y0135034D01*
X0122577Y0134666D01*
X0126358Y0134666D01*
X0126358Y0132645D01*
X0126235Y0132187D01*
X0125998Y0131776D01*
X0125663Y0131441D01*
X0125252Y0131204D01*
X0124795Y0131081D01*
X0122576Y0131081D01*
X0122576Y0134666D01*
X0122208Y0134666D01*
X0122208Y0131081D01*
X0119990Y0131081D01*
X0119532Y0131204D01*
X0119122Y0131441D01*
X0119035Y0131528D01*
X0118604Y0131097D01*
X0112795Y0131097D01*
X0111750Y0132142D01*
X0111750Y0136703D01*
X0111367Y0136703D01*
X0111728Y0135833D01*
X0111728Y0134642D01*
X0111272Y0133541D01*
X0110809Y0133078D01*
X0111395Y0132492D01*
X0111395Y0127834D01*
X0113742Y0127834D01*
X0115080Y0126496D01*
X0118957Y0122619D01*
X0120111Y0123772D01*
X0121649Y0124409D01*
X0123313Y0124409D01*
X0124851Y0123772D01*
X0126028Y0122595D01*
X0126665Y0121057D01*
X0126665Y0120150D01*
X0129025Y0122509D01*
X0148898Y0122509D01*
X0148934Y0122595D01*
X0149991Y0123653D01*
X0131362Y0123653D01*
X0130427Y0123266D01*
X0129165Y0123266D01*
X0127999Y0123749D01*
X0127107Y0124641D01*
X0126624Y0125807D01*
X0126624Y0127068D01*
X0127107Y0128234D01*
X0127999Y0129126D01*
X0129165Y0129609D01*
X0130427Y0129609D01*
X0131362Y0129222D01*
X0156755Y0129222D01*
X0157944Y0130410D01*
X0158112Y0130480D01*
X0157790Y0130802D01*
X0157062Y0132561D01*
X0157062Y0140464D01*
X0157790Y0142223D01*
X0159136Y0143568D01*
X0160894Y0144297D01*
X0162797Y0144297D01*
X0164062Y0143773D01*
X0164062Y0144941D01*
X0151639Y0144941D01*
X0152278Y0144302D01*
X0152930Y0142727D01*
X0152930Y0141023D01*
X0152278Y0139448D01*
X0151073Y0138243D01*
X0149498Y0137591D01*
X0147794Y0137591D01*
X0146219Y0138243D01*
X0145034Y0139428D01*
X0144421Y0139428D01*
X0144167Y0139174D01*
X0143066Y0138718D01*
X0141875Y0138718D01*
X0140775Y0139174D01*
X0139932Y0140016D01*
X0139476Y0141117D01*
X0139476Y0142308D01*
X0139932Y0143409D01*
X0140775Y0144251D01*
X0141875Y0144707D01*
X0143066Y0144707D01*
X0144167Y0144251D01*
X0144421Y0143997D01*
X0144887Y0143997D01*
X0145014Y0144302D01*
X0145956Y0145244D01*
X0143759Y0145244D01*
X0143759Y0148828D01*
X0143390Y0148828D01*
X0143390Y0145244D01*
X0141172Y0145244D01*
X0140714Y0145367D01*
X0140304Y0145604D01*
X0139969Y0145939D01*
X0139732Y0146349D01*
X0139609Y0146807D01*
X0139609Y0148828D01*
X0143390Y0148828D01*
X0143390Y0149197D01*
X0139609Y0149197D01*
X0139609Y0150616D01*
X0138987Y0150874D01*
X0138145Y0151716D01*
X0137689Y0152817D01*
X0137689Y0154008D01*
X0138145Y0155109D01*
X0138211Y0155175D01*
X0137689Y0153659D02*
X0128538Y0153659D01*
X0128505Y0152060D02*
X0138002Y0152060D01*
X0139609Y0150462D02*
X0128505Y0150462D01*
X0128505Y0148863D02*
X0143390Y0148863D01*
X0143390Y0147265D02*
X0143759Y0147265D01*
X0143759Y0145666D02*
X0143390Y0145666D01*
X0144351Y0144068D02*
X0144917Y0144068D01*
X0140591Y0144068D02*
X0139007Y0144068D01*
X0139007Y0142469D02*
X0139543Y0142469D01*
X0139578Y0140870D02*
X0139007Y0140870D01*
X0139230Y0139272D02*
X0140676Y0139272D01*
X0139841Y0137673D02*
X0147594Y0137673D01*
X0149698Y0137673D02*
X0157062Y0137673D01*
X0157062Y0136075D02*
X0139871Y0136075D01*
X0138820Y0134476D02*
X0157062Y0134476D01*
X0157062Y0132878D02*
X0126358Y0132878D01*
X0126358Y0134476D02*
X0135072Y0134476D01*
X0134020Y0136075D02*
X0126358Y0136075D01*
X0122576Y0134476D02*
X0122208Y0134476D01*
X0122208Y0132878D02*
X0122576Y0132878D01*
X0122576Y0131279D02*
X0122208Y0131279D01*
X0125383Y0131279D02*
X0157592Y0131279D01*
X0157214Y0129681D02*
X0111395Y0129681D01*
X0111395Y0131279D02*
X0112613Y0131279D01*
X0111750Y0132878D02*
X0111009Y0132878D01*
X0111659Y0134476D02*
X0111750Y0134476D01*
X0111750Y0136075D02*
X0111628Y0136075D01*
X0118786Y0131279D02*
X0119402Y0131279D01*
X0115092Y0126484D02*
X0126624Y0126484D01*
X0127006Y0124885D02*
X0116691Y0124885D01*
X0118289Y0123287D02*
X0119625Y0123287D01*
X0125337Y0123287D02*
X0129114Y0123287D01*
X0130477Y0123287D02*
X0149625Y0123287D01*
X0154970Y0123653D02*
X0156660Y0123653D01*
X0156660Y0121953D01*
X0157389Y0120195D01*
X0158735Y0118849D01*
X0160493Y0118120D01*
X0168396Y0118120D01*
X0170155Y0118849D01*
X0171500Y0120195D01*
X0172229Y0121953D01*
X0172229Y0123856D01*
X0171645Y0125266D01*
X0182844Y0125266D01*
X0182260Y0123856D01*
X0182260Y0121953D01*
X0182989Y0120195D01*
X0183829Y0119354D01*
X0182766Y0119794D01*
X0181575Y0119794D01*
X0180475Y0119339D01*
X0179632Y0118496D01*
X0179176Y0117396D01*
X0179176Y0116204D01*
X0179632Y0115104D01*
X0180475Y0114261D01*
X0181575Y0113806D01*
X0182766Y0113806D01*
X0183867Y0114261D01*
X0184121Y0114516D01*
X0199392Y0114516D01*
X0200857Y0115981D01*
X0201137Y0115981D01*
X0201137Y0093371D01*
X0198025Y0090259D01*
X0182246Y0090259D01*
X0181992Y0090514D01*
X0180891Y0090969D01*
X0179700Y0090969D01*
X0178600Y0090514D01*
X0177757Y0089671D01*
X0177301Y0088571D01*
X0177301Y0087379D01*
X0177757Y0086279D01*
X0178600Y0085436D01*
X0179700Y0084981D01*
X0180891Y0084981D01*
X0181992Y0085436D01*
X0182246Y0085691D01*
X0199917Y0085691D01*
X0205705Y0091479D01*
X0205705Y0164096D01*
X0196557Y0173244D01*
X0199625Y0173244D01*
X0203083Y0174171D01*
X0206183Y0175960D01*
X0206846Y0176624D01*
X0206846Y0023827D01*
X0206183Y0024490D01*
X0203083Y0026280D01*
X0199625Y0027206D01*
X0196045Y0027206D01*
X0192588Y0026280D01*
X0189487Y0024490D01*
X0186956Y0021959D01*
X0185166Y0018859D01*
X0184240Y0015401D01*
X0184240Y0011821D01*
X0185166Y0008363D01*
X0186956Y0005263D01*
X0187620Y0004600D01*
X0165726Y0004600D01*
X0166205Y0005079D01*
X0166205Y0008523D01*
X0167882Y0007828D01*
X0169785Y0007828D01*
X0171543Y0008557D01*
X0172889Y0009902D01*
X0173618Y0011661D01*
X0173618Y0019564D01*
X0172889Y0021323D01*
X0171543Y0022668D01*
X0169785Y0023397D01*
X0167882Y0023397D01*
X0166123Y0022668D01*
X0165384Y0021929D01*
X0164867Y0022447D01*
X0160518Y0026796D01*
X0160518Y0057509D01*
X0159179Y0058847D01*
X0154670Y0063356D01*
X0155785Y0063818D01*
X0156990Y0065023D01*
X0157643Y0066598D01*
X0157643Y0068302D01*
X0156990Y0069877D01*
X0155785Y0071082D01*
X0154210Y0071734D01*
X0152506Y0071734D01*
X0150931Y0071082D01*
X0149726Y0069877D01*
X0149074Y0068302D01*
X0149074Y0066598D01*
X0149133Y0066455D01*
X0148499Y0065821D01*
X0147489Y0065821D01*
X0147489Y0066701D01*
X0147157Y0067032D01*
X0147157Y0072142D01*
X0146112Y0073187D01*
X0145689Y0073187D01*
X0145689Y0074612D01*
X0144351Y0075950D01*
X0144003Y0076298D01*
X0144003Y0076658D01*
X0143547Y0077759D01*
X0143365Y0077941D01*
X0148898Y0077941D01*
X0148934Y0077855D01*
X0150111Y0076678D01*
X0151649Y0076041D01*
X0153313Y0076041D01*
X0154851Y0076678D01*
X0156028Y0077855D01*
X0156665Y0079393D01*
X0156665Y0081057D01*
X0156028Y0082595D01*
X0155920Y0082703D01*
X0169430Y0082703D01*
X0182848Y0069285D01*
X0183631Y0068502D01*
X0184654Y0068078D01*
X0199005Y0068078D01*
X0199649Y0067434D01*
X0199649Y0065584D01*
X0198552Y0065584D01*
X0197617Y0065197D01*
X0196815Y0065197D01*
X0196334Y0065678D01*
X0190525Y0065678D01*
X0190094Y0065247D01*
X0190007Y0065334D01*
X0189597Y0065571D01*
X0189139Y0065693D01*
X0186921Y0065693D01*
X0186921Y0062109D01*
X0186553Y0062109D01*
X0186553Y0065693D01*
X0184334Y0065693D01*
X0183877Y0065571D01*
X0183466Y0065334D01*
X0183131Y0064999D01*
X0182894Y0064588D01*
X0182771Y0064130D01*
X0182771Y0062109D01*
X0186552Y0062109D01*
X0186552Y0061741D01*
X0182771Y0061741D01*
X0182771Y0059720D01*
X0182894Y0059262D01*
X0183131Y0058851D01*
X0183466Y0058516D01*
X0183877Y0058279D01*
X0184334Y0058156D01*
X0186553Y0058156D01*
X0186553Y0061741D01*
X0186921Y0061741D01*
X0186921Y0058156D01*
X0189139Y0058156D01*
X0189597Y0058279D01*
X0190007Y0058516D01*
X0190094Y0058603D01*
X0190525Y0058172D01*
X0190645Y0058172D01*
X0190645Y0051887D01*
X0178785Y0040027D01*
X0178362Y0039004D01*
X0178362Y0023397D01*
X0177882Y0023397D01*
X0176123Y0022668D01*
X0174777Y0021323D01*
X0174049Y0019564D01*
X0174049Y0011661D01*
X0174777Y0009902D01*
X0176123Y0008557D01*
X0177882Y0007828D01*
X0179785Y0007828D01*
X0181543Y0008557D01*
X0182889Y0009902D01*
X0183618Y0011661D01*
X0183618Y0019564D01*
X0183348Y0020215D01*
X0183506Y0020373D01*
X0183930Y0021396D01*
X0183930Y0037297D01*
X0195007Y0048374D01*
X0195790Y0049157D01*
X0196214Y0050180D01*
X0196214Y0058172D01*
X0196334Y0058172D01*
X0197379Y0059217D01*
X0197379Y0059628D01*
X0197617Y0059628D01*
X0198552Y0059241D01*
X0199649Y0059241D01*
X0199649Y0058641D01*
X0199439Y0058133D01*
X0199439Y0056942D01*
X0199895Y0055841D01*
X0200737Y0054999D01*
X0201838Y0054543D01*
X0203029Y0054543D01*
X0204130Y0054999D01*
X0204972Y0055841D01*
X0205428Y0056942D01*
X0205428Y0058133D01*
X0205218Y0058641D01*
X0205218Y0069141D01*
X0204794Y0070165D01*
X0204010Y0070948D01*
X0201735Y0073223D01*
X0200712Y0073647D01*
X0195912Y0073647D01*
X0197100Y0074836D01*
X0197829Y0076594D01*
X0197829Y0078497D01*
X0197100Y0080256D01*
X0195755Y0081602D01*
X0193996Y0082330D01*
X0186093Y0082330D01*
X0184335Y0081602D01*
X0182989Y0080256D01*
X0182260Y0078497D01*
X0182260Y0077748D01*
X0172160Y0087848D01*
X0171137Y0088272D01*
X0156201Y0088272D01*
X0156665Y0089393D01*
X0156665Y0091057D01*
X0156028Y0092595D01*
X0154851Y0093772D01*
X0153313Y0094409D01*
X0151649Y0094409D01*
X0150111Y0093772D01*
X0148934Y0092595D01*
X0148898Y0092509D01*
X0130275Y0092509D01*
X0126316Y0088551D01*
X0126665Y0089393D01*
X0126665Y0091057D01*
X0126028Y0092595D01*
X0124851Y0093772D01*
X0123313Y0094409D01*
X0121649Y0094409D01*
X0121563Y0094374D01*
X0118265Y0097672D01*
X0114900Y0097672D01*
X0115083Y0097855D01*
X0115720Y0099393D01*
X0115720Y0099395D01*
X0117174Y0097941D01*
X0118898Y0097941D01*
X0118934Y0097855D01*
X0120111Y0096678D01*
X0121649Y0096041D01*
X0123313Y0096041D01*
X0124851Y0096678D01*
X0126028Y0097855D01*
X0126064Y0097941D01*
X0148898Y0097941D01*
X0148934Y0097855D01*
X0150111Y0096678D01*
X0151649Y0096041D01*
X0153313Y0096041D01*
X0154851Y0096678D01*
X0156028Y0097855D01*
X0156665Y0099393D01*
X0156665Y0101057D01*
X0156028Y0102595D01*
X0154851Y0103772D01*
X0153313Y0104409D01*
X0151649Y0104409D01*
X0150111Y0103772D01*
X0148934Y0102595D01*
X0148898Y0102509D01*
X0126064Y0102509D01*
X0126028Y0102595D01*
X0125358Y0103266D01*
X0126242Y0103266D01*
X0130917Y0107941D01*
X0148898Y0107941D01*
X0148934Y0107855D01*
X0150111Y0106678D01*
X0151649Y0106041D01*
X0153313Y0106041D01*
X0154851Y0106678D01*
X0156028Y0107855D01*
X0156665Y0109393D01*
X0156665Y0111057D01*
X0156028Y0112595D01*
X0154851Y0113772D01*
X0153313Y0114409D01*
X0151649Y0114409D01*
X0150111Y0113772D01*
X0148934Y0112595D01*
X0148898Y0112509D01*
X0129025Y0112509D01*
X0126665Y0110150D01*
X0126665Y0111057D01*
X0126028Y0112595D01*
X0125358Y0113266D01*
X0126242Y0113266D01*
X0127580Y0114604D01*
X0130917Y0117941D01*
X0148898Y0117941D01*
X0148934Y0117855D01*
X0150111Y0116678D01*
X0151649Y0116041D01*
X0153313Y0116041D01*
X0154851Y0116678D01*
X0156028Y0117855D01*
X0156665Y0119393D01*
X0156665Y0121057D01*
X0156028Y0122595D01*
X0154970Y0123653D01*
X0155337Y0123287D02*
X0156660Y0123287D01*
X0156770Y0121688D02*
X0156404Y0121688D01*
X0156665Y0120090D02*
X0157494Y0120090D01*
X0156292Y0118491D02*
X0159598Y0118491D01*
X0155066Y0116893D02*
X0179176Y0116893D01*
X0179553Y0115294D02*
X0128270Y0115294D01*
X0127580Y0114604D02*
X0127580Y0114604D01*
X0126672Y0113696D02*
X0150034Y0113696D01*
X0149896Y0116893D02*
X0129869Y0116893D01*
X0128613Y0112097D02*
X0126234Y0112097D01*
X0126665Y0110499D02*
X0127014Y0110499D01*
X0130278Y0107302D02*
X0149487Y0107302D01*
X0150913Y0104105D02*
X0127081Y0104105D01*
X0128679Y0105703D02*
X0156680Y0105703D01*
X0156645Y0105482D02*
X0156763Y0106229D01*
X0156996Y0106947D01*
X0157339Y0107620D01*
X0157783Y0108232D01*
X0158318Y0108766D01*
X0158929Y0109210D01*
X0159602Y0109553D01*
X0160321Y0109787D01*
X0161067Y0109905D01*
X0164245Y0109905D01*
X0164245Y0105305D01*
X0164645Y0105305D01*
X0172245Y0105305D01*
X0172245Y0105482D01*
X0172126Y0106229D01*
X0171893Y0106947D01*
X0171550Y0107620D01*
X0171106Y0108232D01*
X0170572Y0108766D01*
X0169960Y0109210D01*
X0169287Y0109553D01*
X0168569Y0109787D01*
X0167822Y0109905D01*
X0164645Y0109905D01*
X0164645Y0105305D01*
X0164645Y0104905D01*
X0172245Y0104905D01*
X0172245Y0104727D01*
X0172126Y0103981D01*
X0171893Y0103262D01*
X0171550Y0102589D01*
X0171106Y0101978D01*
X0170572Y0101443D01*
X0169960Y0100999D01*
X0169287Y0100656D01*
X0168569Y0100423D01*
X0167822Y0100305D01*
X0164645Y0100305D01*
X0164645Y0104905D01*
X0164245Y0104905D01*
X0164245Y0100305D01*
X0161067Y0100305D01*
X0160321Y0100423D01*
X0159602Y0100656D01*
X0158929Y0100999D01*
X0158318Y0101443D01*
X0157783Y0101978D01*
X0157339Y0102589D01*
X0156996Y0103262D01*
X0156763Y0103981D01*
X0156645Y0104727D01*
X0156645Y0104905D01*
X0164245Y0104905D01*
X0164245Y0105305D01*
X0156645Y0105305D01*
X0156645Y0105482D01*
X0156743Y0104105D02*
X0154049Y0104105D01*
X0156065Y0102506D02*
X0157399Y0102506D01*
X0156665Y0100908D02*
X0159109Y0100908D01*
X0159602Y0099794D02*
X0158929Y0099451D01*
X0158318Y0099007D01*
X0157783Y0098473D01*
X0157339Y0097861D01*
X0156996Y0097188D01*
X0156763Y0096470D01*
X0156645Y0095723D01*
X0156645Y0095546D01*
X0164245Y0095546D01*
X0164245Y0100146D01*
X0161067Y0100146D01*
X0160321Y0100027D01*
X0159602Y0099794D01*
X0158734Y0099309D02*
X0156630Y0099309D01*
X0157262Y0097711D02*
X0155884Y0097711D01*
X0156706Y0096112D02*
X0153485Y0096112D01*
X0151477Y0096112D02*
X0123485Y0096112D01*
X0121477Y0096112D02*
X0119824Y0096112D01*
X0119078Y0097711D02*
X0114939Y0097711D01*
X0115686Y0099309D02*
X0115806Y0099309D01*
X0121423Y0094514D02*
X0156717Y0094514D01*
X0156763Y0094222D02*
X0156645Y0094968D01*
X0156645Y0095146D01*
X0164245Y0095146D01*
X0164645Y0095146D01*
X0164645Y0095546D01*
X0172245Y0095546D01*
X0172245Y0095723D01*
X0172126Y0096470D01*
X0171893Y0097188D01*
X0171550Y0097861D01*
X0171106Y0098473D01*
X0170572Y0099007D01*
X0169960Y0099451D01*
X0169287Y0099794D01*
X0168569Y0100027D01*
X0167822Y0100146D01*
X0164645Y0100146D01*
X0164645Y0095546D01*
X0164245Y0095546D01*
X0164245Y0095146D01*
X0164245Y0090546D01*
X0161067Y0090546D01*
X0160321Y0090664D01*
X0159602Y0090897D01*
X0158929Y0091240D01*
X0158318Y0091684D01*
X0157783Y0092219D01*
X0157339Y0092830D01*
X0156996Y0093503D01*
X0156763Y0094222D01*
X0157296Y0092915D02*
X0155708Y0092915D01*
X0156558Y0091317D02*
X0158824Y0091317D01*
X0156665Y0089718D02*
X0177804Y0089718D01*
X0177301Y0088120D02*
X0171504Y0088120D01*
X0173487Y0086521D02*
X0177657Y0086521D01*
X0175086Y0084923D02*
X0206846Y0084923D01*
X0206846Y0086521D02*
X0200747Y0086521D01*
X0202346Y0088120D02*
X0206846Y0088120D01*
X0206846Y0089718D02*
X0203944Y0089718D01*
X0205543Y0091317D02*
X0206846Y0091317D01*
X0206846Y0092915D02*
X0205705Y0092915D01*
X0205705Y0094514D02*
X0206846Y0094514D01*
X0206846Y0096112D02*
X0205705Y0096112D01*
X0205705Y0097711D02*
X0206846Y0097711D01*
X0206846Y0099309D02*
X0205705Y0099309D01*
X0205705Y0100908D02*
X0206846Y0100908D01*
X0206846Y0102506D02*
X0205705Y0102506D01*
X0205705Y0104105D02*
X0206846Y0104105D01*
X0206846Y0105703D02*
X0205705Y0105703D01*
X0205705Y0107302D02*
X0206846Y0107302D01*
X0206846Y0108900D02*
X0205705Y0108900D01*
X0205705Y0110499D02*
X0206846Y0110499D01*
X0206846Y0112097D02*
X0205705Y0112097D01*
X0205705Y0113696D02*
X0206846Y0113696D01*
X0206846Y0115294D02*
X0205705Y0115294D01*
X0205705Y0116893D02*
X0206846Y0116893D01*
X0206846Y0118491D02*
X0205705Y0118491D01*
X0205705Y0120090D02*
X0206846Y0120090D01*
X0206846Y0121688D02*
X0205705Y0121688D01*
X0205705Y0123287D02*
X0206846Y0123287D01*
X0206846Y0124885D02*
X0205705Y0124885D01*
X0205705Y0126484D02*
X0206846Y0126484D01*
X0206846Y0128082D02*
X0205705Y0128082D01*
X0205705Y0129681D02*
X0206846Y0129681D01*
X0206846Y0131279D02*
X0205705Y0131279D01*
X0205705Y0132878D02*
X0206846Y0132878D01*
X0206846Y0134476D02*
X0205705Y0134476D01*
X0205705Y0136075D02*
X0206846Y0136075D01*
X0206846Y0137673D02*
X0205705Y0137673D01*
X0205705Y0139272D02*
X0206846Y0139272D01*
X0206846Y0140870D02*
X0205705Y0140870D01*
X0205705Y0142469D02*
X0206846Y0142469D01*
X0206846Y0144068D02*
X0205705Y0144068D01*
X0205705Y0145666D02*
X0206846Y0145666D01*
X0206846Y0147265D02*
X0205705Y0147265D01*
X0205705Y0148863D02*
X0206846Y0148863D01*
X0206846Y0150462D02*
X0205705Y0150462D01*
X0205705Y0152060D02*
X0206846Y0152060D01*
X0206846Y0153659D02*
X0205705Y0153659D01*
X0205705Y0155257D02*
X0206846Y0155257D01*
X0206846Y0156856D02*
X0205705Y0156856D01*
X0205705Y0158454D02*
X0206846Y0158454D01*
X0206846Y0160053D02*
X0205705Y0160053D01*
X0205705Y0161651D02*
X0206846Y0161651D01*
X0206846Y0163250D02*
X0205705Y0163250D01*
X0204953Y0164848D02*
X0206846Y0164848D01*
X0206846Y0166447D02*
X0203355Y0166447D01*
X0201756Y0168045D02*
X0206846Y0168045D01*
X0206846Y0169644D02*
X0200157Y0169644D01*
X0198559Y0171242D02*
X0206846Y0171242D01*
X0206846Y0172841D02*
X0196960Y0172841D01*
X0193697Y0169644D02*
X0188396Y0169644D01*
X0188190Y0170139D02*
X0186985Y0171345D01*
X0186753Y0171441D01*
X0191900Y0171441D01*
X0201137Y0162204D01*
X0201137Y0127999D01*
X0199547Y0129589D01*
X0199531Y0129627D01*
X0198748Y0130410D01*
X0198398Y0130555D01*
X0198398Y0131966D01*
X0194814Y0131966D01*
X0194814Y0132334D01*
X0198398Y0132334D01*
X0198398Y0133750D01*
X0198577Y0133750D01*
X0201096Y0136269D01*
X0201096Y0138050D01*
X0201096Y0139831D01*
X0198577Y0142350D01*
X0196796Y0142350D01*
X0196796Y0138050D01*
X0201096Y0138050D01*
X0196796Y0138050D01*
X0196796Y0138050D01*
X0196796Y0138050D01*
X0196796Y0142350D01*
X0195015Y0142350D01*
X0192637Y0139972D01*
X0192428Y0140477D01*
X0191223Y0141682D01*
X0189648Y0142334D01*
X0187944Y0142334D01*
X0186369Y0141682D01*
X0185164Y0140477D01*
X0184512Y0138902D01*
X0184512Y0137198D01*
X0185043Y0135914D01*
X0184184Y0135054D01*
X0184184Y0130834D01*
X0175915Y0130834D01*
X0176630Y0132561D01*
X0176630Y0140464D01*
X0175902Y0142223D01*
X0174556Y0143568D01*
X0174056Y0143775D01*
X0177550Y0143775D01*
X0178595Y0144821D01*
X0178595Y0145441D01*
X0179447Y0145441D01*
X0179447Y0145146D01*
X0180492Y0144100D01*
X0185907Y0144100D01*
X0186535Y0144728D01*
X0186819Y0144444D01*
X0187229Y0144207D01*
X0187687Y0144085D01*
X0189708Y0144085D01*
X0189708Y0147866D01*
X0190076Y0147866D01*
X0190076Y0144085D01*
X0192098Y0144085D01*
X0192556Y0144207D01*
X0192966Y0144444D01*
X0193301Y0144779D01*
X0193538Y0145190D01*
X0193661Y0145648D01*
X0193661Y0147866D01*
X0190077Y0147866D01*
X0190077Y0148234D01*
X0193661Y0148234D01*
X0193661Y0150452D01*
X0193538Y0150910D01*
X0193301Y0151321D01*
X0192966Y0151656D01*
X0192734Y0151790D01*
X0193033Y0152089D01*
X0193672Y0151450D01*
X0199087Y0151450D01*
X0200132Y0152496D01*
X0200132Y0158304D01*
X0199087Y0159350D01*
X0198664Y0159350D01*
X0198664Y0163662D01*
X0198278Y0164048D01*
X0198278Y0164408D01*
X0197822Y0165509D01*
X0196980Y0166351D01*
X0195879Y0166807D01*
X0194688Y0166807D01*
X0193587Y0166351D01*
X0192745Y0165509D01*
X0192289Y0164408D01*
X0192289Y0163217D01*
X0192745Y0162116D01*
X0193587Y0161274D01*
X0194095Y0161063D01*
X0194095Y0159350D01*
X0193672Y0159350D01*
X0193033Y0158711D01*
X0192394Y0159350D01*
X0186979Y0159350D01*
X0185934Y0158304D01*
X0185934Y0155669D01*
X0185868Y0155602D01*
X0185868Y0163618D01*
X0186985Y0164080D01*
X0188190Y0165286D01*
X0188843Y0166860D01*
X0188843Y0168565D01*
X0188190Y0170139D01*
X0187087Y0171242D02*
X0192098Y0171242D01*
X0195295Y0168045D02*
X0188843Y0168045D01*
X0188671Y0166447D02*
X0193818Y0166447D01*
X0192471Y0164848D02*
X0187753Y0164848D01*
X0185868Y0163250D02*
X0192289Y0163250D01*
X0193210Y0161651D02*
X0185868Y0161651D01*
X0185868Y0160053D02*
X0194095Y0160053D01*
X0198095Y0164848D02*
X0198492Y0164848D01*
X0198664Y0163250D02*
X0200091Y0163250D01*
X0201137Y0161651D02*
X0198664Y0161651D01*
X0198664Y0160053D02*
X0201137Y0160053D01*
X0201137Y0158454D02*
X0199983Y0158454D01*
X0200132Y0156856D02*
X0201137Y0156856D01*
X0201137Y0155257D02*
X0200132Y0155257D01*
X0200132Y0153659D02*
X0201137Y0153659D01*
X0201137Y0152060D02*
X0199697Y0152060D01*
X0201137Y0150462D02*
X0193658Y0150462D01*
X0193661Y0148863D02*
X0201137Y0148863D01*
X0201137Y0147265D02*
X0193661Y0147265D01*
X0193661Y0145666D02*
X0201137Y0145666D01*
X0201137Y0144068D02*
X0177842Y0144068D01*
X0175655Y0142469D02*
X0201137Y0142469D01*
X0201137Y0140870D02*
X0200056Y0140870D01*
X0201096Y0139272D02*
X0201137Y0139272D01*
X0201096Y0137673D02*
X0201137Y0137673D01*
X0201137Y0136075D02*
X0200902Y0136075D01*
X0201137Y0134476D02*
X0199303Y0134476D01*
X0198398Y0132878D02*
X0201137Y0132878D01*
X0201137Y0131279D02*
X0198398Y0131279D01*
X0199477Y0129681D02*
X0201137Y0129681D01*
X0201137Y0128082D02*
X0201054Y0128082D01*
X0196796Y0139272D02*
X0196796Y0139272D01*
X0196796Y0140870D02*
X0196796Y0140870D01*
X0193535Y0140870D02*
X0192034Y0140870D01*
X0190076Y0145666D02*
X0189708Y0145666D01*
X0189708Y0147265D02*
X0190076Y0147265D01*
X0193004Y0152060D02*
X0193062Y0152060D01*
X0185934Y0156856D02*
X0185868Y0156856D01*
X0185868Y0158454D02*
X0186084Y0158454D01*
X0181299Y0158454D02*
X0174031Y0158454D01*
X0174123Y0158362D02*
X0172771Y0159714D01*
X0172785Y0159728D01*
X0173069Y0159444D01*
X0173479Y0159207D01*
X0173937Y0159085D01*
X0175958Y0159085D01*
X0175958Y0162866D01*
X0176326Y0162866D01*
X0176326Y0159085D01*
X0178348Y0159085D01*
X0178806Y0159207D01*
X0179216Y0159444D01*
X0179551Y0159779D01*
X0179788Y0160190D01*
X0179911Y0160648D01*
X0179911Y0162866D01*
X0176327Y0162866D01*
X0176327Y0163234D01*
X0179911Y0163234D01*
X0179911Y0163442D01*
X0181299Y0162054D01*
X0181299Y0156471D01*
X0178595Y0153767D01*
X0178595Y0157317D01*
X0177550Y0158362D01*
X0174123Y0158362D01*
X0175958Y0160053D02*
X0176326Y0160053D01*
X0176326Y0161651D02*
X0175958Y0161651D01*
X0179911Y0161651D02*
X0181299Y0161651D01*
X0181299Y0160053D02*
X0179709Y0160053D01*
X0179911Y0163250D02*
X0180103Y0163250D01*
X0181299Y0156856D02*
X0178595Y0156856D01*
X0178595Y0155257D02*
X0180085Y0155257D01*
X0176462Y0140870D02*
X0185557Y0140870D01*
X0184665Y0139272D02*
X0176630Y0139272D01*
X0176630Y0137673D02*
X0184512Y0137673D01*
X0184977Y0136075D02*
X0176630Y0136075D01*
X0176630Y0134476D02*
X0184184Y0134476D01*
X0184184Y0132878D02*
X0176630Y0132878D01*
X0176099Y0131279D02*
X0184184Y0131279D01*
X0182687Y0124885D02*
X0171803Y0124885D01*
X0172229Y0123287D02*
X0182260Y0123287D01*
X0182370Y0121688D02*
X0172119Y0121688D01*
X0171396Y0120090D02*
X0183094Y0120090D01*
X0179630Y0118491D02*
X0169292Y0118491D01*
X0170387Y0108900D02*
X0184102Y0108900D01*
X0183918Y0108766D02*
X0183383Y0108232D01*
X0182939Y0107620D01*
X0182596Y0106947D01*
X0182363Y0106229D01*
X0182245Y0105482D01*
X0182245Y0105305D01*
X0189845Y0105305D01*
X0189845Y0109905D01*
X0186667Y0109905D01*
X0185921Y0109787D01*
X0185202Y0109553D01*
X0184529Y0109210D01*
X0183918Y0108766D01*
X0182777Y0107302D02*
X0171712Y0107302D01*
X0172210Y0105703D02*
X0182280Y0105703D01*
X0182245Y0104905D02*
X0182245Y0104727D01*
X0182363Y0103981D01*
X0182596Y0103262D01*
X0182939Y0102589D01*
X0183383Y0101978D01*
X0183918Y0101443D01*
X0184529Y0100999D01*
X0185202Y0100656D01*
X0185921Y0100423D01*
X0186667Y0100305D01*
X0189845Y0100305D01*
X0189845Y0104905D01*
X0190245Y0104905D01*
X0190245Y0105305D01*
X0197845Y0105305D01*
X0197845Y0105482D01*
X0197726Y0106229D01*
X0197493Y0106947D01*
X0197150Y0107620D01*
X0196706Y0108232D01*
X0196172Y0108766D01*
X0195560Y0109210D01*
X0194887Y0109553D01*
X0194169Y0109787D01*
X0193422Y0109905D01*
X0190245Y0109905D01*
X0190245Y0105305D01*
X0189845Y0105305D01*
X0189845Y0104905D01*
X0182245Y0104905D01*
X0182343Y0104105D02*
X0172146Y0104105D01*
X0171490Y0102506D02*
X0182999Y0102506D01*
X0184709Y0100908D02*
X0169780Y0100908D01*
X0170155Y0099309D02*
X0184334Y0099309D01*
X0184529Y0099451D02*
X0183918Y0099007D01*
X0183383Y0098473D01*
X0182939Y0097861D01*
X0182596Y0097188D01*
X0182363Y0096470D01*
X0182245Y0095723D01*
X0182245Y0095546D01*
X0189845Y0095546D01*
X0189845Y0100146D01*
X0186667Y0100146D01*
X0185921Y0100027D01*
X0185202Y0099794D01*
X0184529Y0099451D01*
X0182862Y0097711D02*
X0171627Y0097711D01*
X0172183Y0096112D02*
X0182306Y0096112D01*
X0182245Y0095146D02*
X0182245Y0094968D01*
X0182363Y0094222D01*
X0182596Y0093503D01*
X0182939Y0092830D01*
X0183383Y0092219D01*
X0183918Y0091684D01*
X0184529Y0091240D01*
X0185202Y0090897D01*
X0185921Y0090664D01*
X0186667Y0090546D01*
X0189845Y0090546D01*
X0189845Y0095146D01*
X0190245Y0095146D01*
X0190245Y0095546D01*
X0197845Y0095546D01*
X0197845Y0095723D01*
X0197726Y0096470D01*
X0197493Y0097188D01*
X0197150Y0097861D01*
X0196706Y0098473D01*
X0196172Y0099007D01*
X0195560Y0099451D01*
X0194887Y0099794D01*
X0194169Y0100027D01*
X0193422Y0100146D01*
X0190245Y0100146D01*
X0190245Y0095546D01*
X0189845Y0095546D01*
X0189845Y0095146D01*
X0182245Y0095146D01*
X0182317Y0094514D02*
X0172173Y0094514D01*
X0172126Y0094222D02*
X0172245Y0094968D01*
X0172245Y0095146D01*
X0164645Y0095146D01*
X0164645Y0090546D01*
X0167822Y0090546D01*
X0168569Y0090664D01*
X0169287Y0090897D01*
X0169960Y0091240D01*
X0170572Y0091684D01*
X0171106Y0092219D01*
X0171550Y0092830D01*
X0171893Y0093503D01*
X0172126Y0094222D01*
X0171593Y0092915D02*
X0182896Y0092915D01*
X0184424Y0091317D02*
X0170065Y0091317D01*
X0164645Y0091317D02*
X0164245Y0091317D01*
X0164245Y0092915D02*
X0164645Y0092915D01*
X0164645Y0094514D02*
X0164245Y0094514D01*
X0164245Y0096112D02*
X0164645Y0096112D01*
X0164645Y0097711D02*
X0164245Y0097711D01*
X0164245Y0099309D02*
X0164645Y0099309D01*
X0164645Y0100908D02*
X0164245Y0100908D01*
X0164245Y0102506D02*
X0164645Y0102506D01*
X0164645Y0104105D02*
X0164245Y0104105D01*
X0164245Y0105703D02*
X0164645Y0105703D01*
X0164645Y0107302D02*
X0164245Y0107302D01*
X0164245Y0108900D02*
X0164645Y0108900D01*
X0158502Y0108900D02*
X0156461Y0108900D01*
X0156665Y0110499D02*
X0201137Y0110499D01*
X0201137Y0112097D02*
X0156234Y0112097D01*
X0154928Y0113696D02*
X0201137Y0113696D01*
X0201137Y0115294D02*
X0200170Y0115294D01*
X0201137Y0108900D02*
X0195987Y0108900D01*
X0197312Y0107302D02*
X0201137Y0107302D01*
X0201137Y0105703D02*
X0197810Y0105703D01*
X0197845Y0104905D02*
X0190245Y0104905D01*
X0190245Y0100305D01*
X0193422Y0100305D01*
X0194169Y0100423D01*
X0194887Y0100656D01*
X0195560Y0100999D01*
X0196172Y0101443D01*
X0196706Y0101978D01*
X0197150Y0102589D01*
X0197493Y0103262D01*
X0197726Y0103981D01*
X0197845Y0104727D01*
X0197845Y0104905D01*
X0197746Y0104105D02*
X0201137Y0104105D01*
X0201137Y0102506D02*
X0197090Y0102506D01*
X0195380Y0100908D02*
X0201137Y0100908D01*
X0201137Y0099309D02*
X0195755Y0099309D01*
X0197227Y0097711D02*
X0201137Y0097711D01*
X0201137Y0096112D02*
X0197783Y0096112D01*
X0197845Y0095146D02*
X0190245Y0095146D01*
X0190245Y0090546D01*
X0193422Y0090546D01*
X0194169Y0090664D01*
X0194887Y0090897D01*
X0195560Y0091240D01*
X0196172Y0091684D01*
X0196706Y0092219D01*
X0197150Y0092830D01*
X0197493Y0093503D01*
X0197726Y0094222D01*
X0197845Y0094968D01*
X0197845Y0095146D01*
X0197773Y0094514D02*
X0201137Y0094514D01*
X0200681Y0092915D02*
X0197193Y0092915D01*
X0195665Y0091317D02*
X0199082Y0091317D01*
X0190245Y0091317D02*
X0189845Y0091317D01*
X0189845Y0092915D02*
X0190245Y0092915D01*
X0190245Y0094514D02*
X0189845Y0094514D01*
X0189845Y0096112D02*
X0190245Y0096112D01*
X0190245Y0097711D02*
X0189845Y0097711D01*
X0189845Y0099309D02*
X0190245Y0099309D01*
X0190245Y0100908D02*
X0189845Y0100908D01*
X0189845Y0102506D02*
X0190245Y0102506D01*
X0190245Y0104105D02*
X0189845Y0104105D01*
X0189845Y0105703D02*
X0190245Y0105703D01*
X0190245Y0107302D02*
X0189845Y0107302D01*
X0189845Y0108900D02*
X0190245Y0108900D01*
X0176684Y0083324D02*
X0206846Y0083324D01*
X0206846Y0081726D02*
X0195455Y0081726D01*
X0197154Y0080127D02*
X0206846Y0080127D01*
X0206846Y0078529D02*
X0197816Y0078529D01*
X0197829Y0076930D02*
X0206846Y0076930D01*
X0206846Y0075332D02*
X0197306Y0075332D01*
X0195998Y0073733D02*
X0206846Y0073733D01*
X0206846Y0072134D02*
X0202824Y0072134D01*
X0204422Y0070536D02*
X0206846Y0070536D01*
X0206846Y0068937D02*
X0205218Y0068937D01*
X0205218Y0067339D02*
X0206846Y0067339D01*
X0206846Y0065740D02*
X0205218Y0065740D01*
X0205218Y0064142D02*
X0206846Y0064142D01*
X0206846Y0062543D02*
X0205218Y0062543D01*
X0205218Y0060945D02*
X0206846Y0060945D01*
X0206846Y0059346D02*
X0205218Y0059346D01*
X0205428Y0057748D02*
X0206846Y0057748D01*
X0206846Y0056149D02*
X0205099Y0056149D01*
X0206846Y0054551D02*
X0203048Y0054551D01*
X0201819Y0054551D02*
X0196214Y0054551D01*
X0196214Y0056149D02*
X0199767Y0056149D01*
X0199439Y0057748D02*
X0196214Y0057748D01*
X0197379Y0059346D02*
X0198298Y0059346D01*
X0196214Y0052952D02*
X0206846Y0052952D01*
X0206846Y0051354D02*
X0196214Y0051354D01*
X0196038Y0049755D02*
X0206846Y0049755D01*
X0206846Y0048157D02*
X0194790Y0048157D01*
X0193192Y0046558D02*
X0206846Y0046558D01*
X0206846Y0044960D02*
X0191593Y0044960D01*
X0189995Y0043361D02*
X0206846Y0043361D01*
X0206846Y0041763D02*
X0188396Y0041763D01*
X0186798Y0040164D02*
X0206846Y0040164D01*
X0206846Y0038566D02*
X0185199Y0038566D01*
X0183930Y0036967D02*
X0206846Y0036967D01*
X0206846Y0035369D02*
X0183930Y0035369D01*
X0183930Y0033770D02*
X0206846Y0033770D01*
X0206846Y0032172D02*
X0183930Y0032172D01*
X0183930Y0030573D02*
X0206846Y0030573D01*
X0206846Y0028975D02*
X0183930Y0028975D01*
X0183930Y0027376D02*
X0206846Y0027376D01*
X0206846Y0025778D02*
X0203952Y0025778D01*
X0206494Y0024179D02*
X0206846Y0024179D01*
X0191718Y0025778D02*
X0183930Y0025778D01*
X0183930Y0024179D02*
X0189177Y0024179D01*
X0187578Y0022581D02*
X0183930Y0022581D01*
X0183759Y0020982D02*
X0186392Y0020982D01*
X0185470Y0019384D02*
X0183618Y0019384D01*
X0183618Y0017785D02*
X0184879Y0017785D01*
X0184450Y0016187D02*
X0183618Y0016187D01*
X0183618Y0014588D02*
X0184240Y0014588D01*
X0184240Y0012990D02*
X0183618Y0012990D01*
X0183506Y0011391D02*
X0184355Y0011391D01*
X0184783Y0009793D02*
X0182779Y0009793D01*
X0180668Y0008194D02*
X0185264Y0008194D01*
X0186187Y0006596D02*
X0166205Y0006596D01*
X0166205Y0008194D02*
X0166999Y0008194D01*
X0166123Y0004997D02*
X0187223Y0004997D01*
X0176999Y0008194D02*
X0170668Y0008194D01*
X0172779Y0009793D02*
X0174887Y0009793D01*
X0174161Y0011391D02*
X0173506Y0011391D01*
X0173618Y0012990D02*
X0174049Y0012990D01*
X0174049Y0014588D02*
X0173618Y0014588D01*
X0173618Y0016187D02*
X0174049Y0016187D01*
X0174049Y0017785D02*
X0173618Y0017785D01*
X0173618Y0019384D02*
X0174049Y0019384D01*
X0174636Y0020982D02*
X0173030Y0020982D01*
X0171631Y0022581D02*
X0176035Y0022581D01*
X0178362Y0024179D02*
X0163135Y0024179D01*
X0164733Y0022581D02*
X0166035Y0022581D01*
X0161536Y0025778D02*
X0178362Y0025778D01*
X0178362Y0027376D02*
X0160518Y0027376D01*
X0160518Y0028975D02*
X0178362Y0028975D01*
X0178362Y0030573D02*
X0160518Y0030573D01*
X0160518Y0032172D02*
X0178362Y0032172D01*
X0178362Y0033770D02*
X0160518Y0033770D01*
X0160518Y0035369D02*
X0178362Y0035369D01*
X0178362Y0036967D02*
X0160518Y0036967D01*
X0160518Y0038566D02*
X0178362Y0038566D01*
X0178923Y0040164D02*
X0160518Y0040164D01*
X0160518Y0041763D02*
X0180521Y0041763D01*
X0182120Y0043361D02*
X0160518Y0043361D01*
X0160518Y0044960D02*
X0183718Y0044960D01*
X0185317Y0046558D02*
X0160518Y0046558D01*
X0160518Y0048157D02*
X0186915Y0048157D01*
X0188514Y0049755D02*
X0160518Y0049755D01*
X0160518Y0051354D02*
X0190112Y0051354D01*
X0190645Y0052952D02*
X0160518Y0052952D01*
X0160518Y0054551D02*
X0190645Y0054551D01*
X0190645Y0056149D02*
X0160518Y0056149D01*
X0160278Y0057748D02*
X0190645Y0057748D01*
X0186921Y0059346D02*
X0186553Y0059346D01*
X0186553Y0060945D02*
X0186921Y0060945D01*
X0186921Y0062543D02*
X0186553Y0062543D01*
X0186553Y0064142D02*
X0186921Y0064142D01*
X0182775Y0064142D02*
X0156109Y0064142D01*
X0155483Y0062543D02*
X0182771Y0062543D01*
X0182771Y0060945D02*
X0157081Y0060945D01*
X0158680Y0059346D02*
X0182871Y0059346D01*
X0183196Y0068937D02*
X0157379Y0068937D01*
X0157643Y0067339D02*
X0199649Y0067339D01*
X0199649Y0065740D02*
X0157287Y0065740D01*
X0156331Y0070536D02*
X0181597Y0070536D01*
X0179999Y0072134D02*
X0147157Y0072134D01*
X0147157Y0070536D02*
X0150385Y0070536D01*
X0149337Y0068937D02*
X0147157Y0068937D01*
X0147157Y0067339D02*
X0149074Y0067339D01*
X0150313Y0061253D02*
X0147489Y0061253D01*
X0147489Y0059711D01*
X0146443Y0058666D01*
X0143122Y0058666D01*
X0143749Y0058039D01*
X0143749Y0056829D01*
X0145940Y0056829D01*
X0146219Y0057107D01*
X0147794Y0057759D01*
X0149498Y0057759D01*
X0151073Y0057107D01*
X0152278Y0055902D01*
X0152930Y0054327D01*
X0152930Y0052623D01*
X0152278Y0051048D01*
X0151508Y0050278D01*
X0151840Y0050141D01*
X0152891Y0049090D01*
X0154227Y0049090D01*
X0155272Y0048045D01*
X0155272Y0044205D01*
X0154692Y0043625D01*
X0155272Y0043045D01*
X0155272Y0039205D01*
X0154692Y0038625D01*
X0155272Y0038045D01*
X0155272Y0034205D01*
X0154692Y0033625D01*
X0155272Y0033045D01*
X0155272Y0029205D01*
X0154227Y0028160D01*
X0153570Y0028160D01*
X0153570Y0020349D01*
X0154374Y0020349D01*
X0154777Y0021323D01*
X0156123Y0022668D01*
X0157581Y0023272D01*
X0155949Y0024904D01*
X0155949Y0055616D01*
X0150313Y0061253D01*
X0150620Y0060945D02*
X0147489Y0060945D01*
X0147124Y0059346D02*
X0152219Y0059346D01*
X0153817Y0057748D02*
X0149525Y0057748D01*
X0147766Y0057748D02*
X0143749Y0057748D01*
X0143749Y0051354D02*
X0144887Y0051354D01*
X0146088Y0049755D02*
X0139451Y0049755D01*
X0139611Y0048157D02*
X0143154Y0048157D01*
X0143042Y0046558D02*
X0138651Y0046558D01*
X0136048Y0044960D02*
X0143042Y0044960D01*
X0143358Y0043361D02*
X0134483Y0043361D01*
X0134800Y0041763D02*
X0143042Y0041763D01*
X0143042Y0040164D02*
X0134800Y0040164D01*
X0134279Y0038566D02*
X0143563Y0038566D01*
X0143042Y0036967D02*
X0134800Y0036967D01*
X0134800Y0035369D02*
X0143042Y0035369D01*
X0143477Y0033770D02*
X0134365Y0033770D01*
X0134800Y0032172D02*
X0143042Y0032172D01*
X0143042Y0030573D02*
X0134800Y0030573D01*
X0134569Y0028975D02*
X0143272Y0028975D01*
X0144096Y0027376D02*
X0133115Y0027376D01*
X0132928Y0025778D02*
X0144096Y0025778D01*
X0144096Y0024179D02*
X0131558Y0024179D01*
X0131538Y0022581D02*
X0136129Y0022581D01*
X0134654Y0020982D02*
X0133013Y0020982D01*
X0133571Y0019384D02*
X0134096Y0019384D01*
X0134033Y0017785D02*
X0133633Y0017785D01*
X0133633Y0016187D02*
X0134033Y0016187D01*
X0134033Y0014588D02*
X0133633Y0014588D01*
X0133633Y0012990D02*
X0134033Y0012990D01*
X0134183Y0011391D02*
X0133483Y0011391D01*
X0132718Y0009793D02*
X0134949Y0009793D01*
X0138633Y0016187D02*
X0139033Y0016187D01*
X0139033Y0017785D02*
X0138633Y0017785D01*
X0138633Y0019384D02*
X0139033Y0019384D01*
X0139033Y0020982D02*
X0138633Y0020982D01*
X0138633Y0022581D02*
X0139033Y0022581D01*
X0141538Y0022581D02*
X0144096Y0022581D01*
X0144096Y0020982D02*
X0143013Y0020982D01*
X0143571Y0019384D02*
X0144049Y0019384D01*
X0144049Y0017785D02*
X0143633Y0017785D01*
X0143633Y0016187D02*
X0144049Y0016187D01*
X0144049Y0014588D02*
X0143633Y0014588D01*
X0143633Y0012990D02*
X0144049Y0012990D01*
X0144161Y0011391D02*
X0143483Y0011391D01*
X0142718Y0009793D02*
X0144887Y0009793D01*
X0153570Y0020982D02*
X0154636Y0020982D01*
X0153570Y0022581D02*
X0156035Y0022581D01*
X0156674Y0024179D02*
X0153570Y0024179D01*
X0153570Y0025778D02*
X0155949Y0025778D01*
X0155949Y0027376D02*
X0153570Y0027376D01*
X0155042Y0028975D02*
X0155949Y0028975D01*
X0155949Y0030573D02*
X0155272Y0030573D01*
X0155272Y0032172D02*
X0155949Y0032172D01*
X0155949Y0033770D02*
X0154837Y0033770D01*
X0155272Y0035369D02*
X0155949Y0035369D01*
X0155949Y0036967D02*
X0155272Y0036967D01*
X0154751Y0038566D02*
X0155949Y0038566D01*
X0155949Y0040164D02*
X0155272Y0040164D01*
X0155272Y0041763D02*
X0155949Y0041763D01*
X0155949Y0043361D02*
X0154956Y0043361D01*
X0155272Y0044960D02*
X0155949Y0044960D01*
X0155949Y0046558D02*
X0155272Y0046558D01*
X0155160Y0048157D02*
X0155949Y0048157D01*
X0155949Y0049755D02*
X0152226Y0049755D01*
X0152404Y0051354D02*
X0155949Y0051354D01*
X0155949Y0052952D02*
X0152930Y0052952D01*
X0152837Y0054551D02*
X0155949Y0054551D01*
X0155416Y0056149D02*
X0152030Y0056149D01*
X0136854Y0058650D02*
X0136243Y0058039D01*
X0136243Y0056829D01*
X0134680Y0056829D01*
X0134680Y0058650D01*
X0136071Y0058650D01*
X0136071Y0063021D01*
X0132487Y0063021D01*
X0132487Y0061911D01*
X0131832Y0062565D01*
X0131832Y0065992D01*
X0130787Y0067037D01*
X0125372Y0067037D01*
X0124733Y0066398D01*
X0124225Y0066907D01*
X0125022Y0067704D01*
X0125478Y0068804D01*
X0125478Y0069996D01*
X0125022Y0071096D01*
X0124180Y0071939D01*
X0123079Y0072394D01*
X0122719Y0072394D01*
X0121498Y0073616D01*
X0127842Y0073616D01*
X0129180Y0074954D01*
X0132167Y0077941D01*
X0138652Y0077941D01*
X0138470Y0077759D01*
X0138014Y0076658D01*
X0138014Y0075467D01*
X0138470Y0074366D01*
X0139312Y0073524D01*
X0140413Y0073068D01*
X0140578Y0073068D01*
X0140069Y0072559D01*
X0139786Y0072843D01*
X0139375Y0073080D01*
X0138917Y0073203D01*
X0136896Y0073203D01*
X0136896Y0069422D01*
X0136528Y0069422D01*
X0136528Y0073203D01*
X0134506Y0073203D01*
X0134049Y0073080D01*
X0133638Y0072843D01*
X0133303Y0072508D01*
X0133066Y0072098D01*
X0132943Y0071640D01*
X0132943Y0069422D01*
X0136527Y0069422D01*
X0136527Y0069053D01*
X0132943Y0069053D01*
X0132943Y0067163D01*
X0132847Y0067067D01*
X0132610Y0066656D01*
X0132487Y0066199D01*
X0132487Y0063390D01*
X0136071Y0063390D01*
X0136071Y0063021D01*
X0136440Y0063021D01*
X0136440Y0058650D01*
X0136854Y0058650D01*
X0136440Y0059346D02*
X0136071Y0059346D01*
X0136071Y0060945D02*
X0136440Y0060945D01*
X0136440Y0062543D02*
X0136071Y0062543D01*
X0132487Y0062543D02*
X0131854Y0062543D01*
X0131832Y0064142D02*
X0132487Y0064142D01*
X0132487Y0065740D02*
X0131832Y0065740D01*
X0132943Y0067339D02*
X0124657Y0067339D01*
X0125478Y0068937D02*
X0132943Y0068937D01*
X0132943Y0070536D02*
X0125254Y0070536D01*
X0123707Y0072134D02*
X0133087Y0072134D01*
X0136528Y0072134D02*
X0136896Y0072134D01*
X0136896Y0070536D02*
X0136528Y0070536D01*
X0139103Y0073733D02*
X0127959Y0073733D01*
X0129180Y0074954D02*
X0129180Y0074954D01*
X0129558Y0075332D02*
X0138070Y0075332D01*
X0138126Y0076930D02*
X0131156Y0076930D01*
X0143890Y0076930D02*
X0149859Y0076930D01*
X0155103Y0076930D02*
X0156660Y0076930D01*
X0156660Y0076594D02*
X0157389Y0074836D01*
X0158735Y0073490D01*
X0160493Y0072761D01*
X0168396Y0072761D01*
X0170155Y0073490D01*
X0171500Y0074836D01*
X0172229Y0076594D01*
X0172229Y0078497D01*
X0171500Y0080256D01*
X0170155Y0081602D01*
X0168396Y0082330D01*
X0160493Y0082330D01*
X0158735Y0081602D01*
X0157389Y0080256D01*
X0156660Y0078497D01*
X0156660Y0076594D01*
X0157183Y0075332D02*
X0144970Y0075332D01*
X0145689Y0073733D02*
X0158491Y0073733D01*
X0156673Y0078529D02*
X0156307Y0078529D01*
X0156665Y0080127D02*
X0157335Y0080127D01*
X0156388Y0081726D02*
X0159034Y0081726D01*
X0169855Y0081726D02*
X0170408Y0081726D01*
X0171554Y0080127D02*
X0172006Y0080127D01*
X0172216Y0078529D02*
X0173605Y0078529D01*
X0172229Y0076930D02*
X0175203Y0076930D01*
X0176802Y0075332D02*
X0171706Y0075332D01*
X0170398Y0073733D02*
X0178400Y0073733D01*
X0181480Y0078529D02*
X0182273Y0078529D01*
X0182935Y0080127D02*
X0179881Y0080127D01*
X0178283Y0081726D02*
X0184634Y0081726D01*
X0157177Y0107302D02*
X0155475Y0107302D01*
X0149078Y0097711D02*
X0125884Y0097711D01*
X0125708Y0092915D02*
X0149253Y0092915D01*
X0129082Y0091317D02*
X0126558Y0091317D01*
X0126665Y0089718D02*
X0127483Y0089718D01*
X0115037Y0073616D02*
X0108862Y0073616D01*
X0107524Y0074954D01*
X0106750Y0075728D01*
X0099905Y0075728D01*
X0099905Y0073004D01*
X0098758Y0071857D01*
X0098818Y0071715D01*
X0098818Y0070010D01*
X0098165Y0068436D01*
X0096960Y0067230D01*
X0095385Y0066578D01*
X0094145Y0066578D01*
X0094145Y0064947D01*
X0090364Y0064947D01*
X0090364Y0064578D01*
X0090364Y0060994D01*
X0092582Y0060994D01*
X0093040Y0061117D01*
X0093450Y0061354D01*
X0093785Y0061689D01*
X0094022Y0062099D01*
X0094145Y0062557D01*
X0094145Y0064578D01*
X0090364Y0064578D01*
X0089995Y0064578D01*
X0089995Y0060994D01*
X0087777Y0060994D01*
X0087320Y0061117D01*
X0086909Y0061354D01*
X0086822Y0061441D01*
X0086391Y0061010D01*
X0080582Y0061010D01*
X0080189Y0061403D01*
X0079435Y0061403D01*
X0078707Y0060675D01*
X0079518Y0059864D01*
X0079518Y0058959D01*
X0080679Y0058959D01*
X0081703Y0058535D01*
X0081750Y0058488D01*
X0081750Y0059870D01*
X0082795Y0060915D01*
X0088604Y0060915D01*
X0089035Y0060484D01*
X0089122Y0060571D01*
X0089532Y0060808D01*
X0089990Y0060931D01*
X0092208Y0060931D01*
X0092208Y0057347D01*
X0092576Y0057347D01*
X0092576Y0060931D01*
X0094795Y0060931D01*
X0095252Y0060808D01*
X0095663Y0060571D01*
X0095998Y0060236D01*
X0096235Y0059826D01*
X0096358Y0059368D01*
X0096358Y0057347D01*
X0092577Y0057347D01*
X0092577Y0056978D01*
X0096358Y0056978D01*
X0096358Y0056311D01*
X0100462Y0060416D01*
X0102204Y0061137D01*
X0106009Y0061137D01*
X0106009Y0061941D01*
X0105036Y0062344D01*
X0103690Y0063690D01*
X0102962Y0065448D01*
X0102962Y0067352D01*
X0103690Y0069110D01*
X0105036Y0070456D01*
X0106794Y0071184D01*
X0114697Y0071184D01*
X0116456Y0070456D01*
X0117802Y0069110D01*
X0118530Y0067352D01*
X0118530Y0066888D01*
X0118679Y0067037D01*
X0119103Y0067037D01*
X0119103Y0069250D01*
X0119253Y0069400D01*
X0115037Y0073616D01*
X0116518Y0072134D02*
X0099036Y0072134D01*
X0098818Y0070536D02*
X0105229Y0070536D01*
X0103618Y0068937D02*
X0098373Y0068937D01*
X0097069Y0067339D02*
X0102962Y0067339D01*
X0102962Y0065740D02*
X0094145Y0065740D01*
X0094145Y0064142D02*
X0103503Y0064142D01*
X0104836Y0062543D02*
X0094141Y0062543D01*
X0092576Y0059346D02*
X0092208Y0059346D01*
X0092208Y0057748D02*
X0092576Y0057748D01*
X0092576Y0056149D02*
X0092208Y0056149D01*
X0092208Y0054551D02*
X0092576Y0054551D01*
X0092999Y0052952D02*
X0087286Y0052952D01*
X0088884Y0051354D02*
X0092121Y0051354D01*
X0091909Y0049755D02*
X0090483Y0049755D01*
X0090980Y0048157D02*
X0091909Y0048157D01*
X0091909Y0046558D02*
X0091367Y0046558D01*
X0091198Y0044960D02*
X0091909Y0044960D01*
X0091423Y0040164D02*
X0057526Y0040164D01*
X0056517Y0039062D02*
X0052533Y0035079D01*
X0052533Y0032462D01*
X0059133Y0032462D01*
X0059133Y0032062D01*
X0059533Y0032062D01*
X0059533Y0025462D01*
X0062150Y0025462D01*
X0066133Y0029446D01*
X0066133Y0032062D01*
X0059533Y0032062D01*
X0059533Y0032462D01*
X0066133Y0032462D01*
X0066133Y0035079D01*
X0062150Y0039062D01*
X0059533Y0039062D01*
X0059533Y0032463D01*
X0059133Y0032463D01*
X0059133Y0039062D01*
X0056517Y0039062D01*
X0056020Y0038566D02*
X0055215Y0038566D01*
X0054421Y0036967D02*
X0052249Y0036967D01*
X0052823Y0035369D02*
X0051217Y0035369D01*
X0051217Y0033770D02*
X0052533Y0033770D01*
X0052533Y0032062D02*
X0052533Y0029446D01*
X0056517Y0025462D01*
X0059133Y0025462D01*
X0059133Y0032062D01*
X0052533Y0032062D01*
X0051217Y0032172D02*
X0059133Y0032172D01*
X0059533Y0032172D02*
X0072549Y0032172D01*
X0072615Y0033770D02*
X0066133Y0033770D01*
X0065844Y0035369D02*
X0073277Y0035369D01*
X0074444Y0036967D02*
X0064245Y0036967D01*
X0062647Y0038566D02*
X0076823Y0038566D01*
X0081844Y0038566D02*
X0089825Y0038566D01*
X0096829Y0032172D02*
X0105471Y0032172D01*
X0105230Y0032295D02*
X0105903Y0031952D01*
X0106622Y0031718D01*
X0107368Y0031600D01*
X0110546Y0031600D01*
X0110546Y0036200D01*
X0110946Y0036200D01*
X0110946Y0036600D01*
X0118546Y0036600D01*
X0118546Y0036778D01*
X0118428Y0037524D01*
X0118194Y0038243D01*
X0117851Y0038916D01*
X0117407Y0039527D01*
X0116873Y0040061D01*
X0116262Y0040505D01*
X0115588Y0040848D01*
X0114870Y0041082D01*
X0114124Y0041200D01*
X0110946Y0041200D01*
X0110946Y0036600D01*
X0110546Y0036600D01*
X0110546Y0041200D01*
X0107368Y0041200D01*
X0106622Y0041082D01*
X0105903Y0040848D01*
X0105230Y0040505D01*
X0104619Y0040061D01*
X0104085Y0039527D01*
X0103640Y0038916D01*
X0103297Y0038243D01*
X0103064Y0037524D01*
X0102946Y0036778D01*
X0102946Y0036600D01*
X0110546Y0036600D01*
X0110546Y0036200D01*
X0102946Y0036200D01*
X0102946Y0036022D01*
X0103064Y0035276D01*
X0103297Y0034557D01*
X0103640Y0033884D01*
X0104085Y0033273D01*
X0104619Y0032739D01*
X0105230Y0032295D01*
X0103723Y0033770D02*
X0098428Y0033770D01*
X0100026Y0035369D02*
X0103049Y0035369D01*
X0102976Y0036967D02*
X0101061Y0036967D01*
X0101383Y0038566D02*
X0103462Y0038566D01*
X0104761Y0040164D02*
X0101383Y0040164D01*
X0101383Y0041763D02*
X0106485Y0041763D01*
X0106622Y0041718D02*
X0107368Y0041600D01*
X0110546Y0041600D01*
X0110546Y0046200D01*
X0110946Y0046200D01*
X0110946Y0046600D01*
X0118546Y0046600D01*
X0118546Y0046778D01*
X0118428Y0047524D01*
X0118194Y0048243D01*
X0117851Y0048916D01*
X0117407Y0049527D01*
X0116873Y0050061D01*
X0116262Y0050505D01*
X0115588Y0050848D01*
X0114870Y0051082D01*
X0114124Y0051200D01*
X0110946Y0051200D01*
X0110946Y0046600D01*
X0110546Y0046600D01*
X0110546Y0051200D01*
X0107368Y0051200D01*
X0106622Y0051082D01*
X0105903Y0050848D01*
X0105230Y0050505D01*
X0104619Y0050061D01*
X0104085Y0049527D01*
X0103640Y0048916D01*
X0103297Y0048243D01*
X0103064Y0047524D01*
X0102946Y0046778D01*
X0102946Y0046600D01*
X0110546Y0046600D01*
X0110546Y0046200D01*
X0102946Y0046200D01*
X0102946Y0046022D01*
X0103064Y0045276D01*
X0103297Y0044557D01*
X0103640Y0043884D01*
X0104085Y0043273D01*
X0104619Y0042739D01*
X0105230Y0042295D01*
X0105903Y0041952D01*
X0106622Y0041718D01*
X0104020Y0043361D02*
X0101383Y0043361D01*
X0101383Y0044960D02*
X0103167Y0044960D01*
X0101383Y0046558D02*
X0110546Y0046558D01*
X0110946Y0046558D02*
X0121552Y0046558D01*
X0122570Y0044960D02*
X0118325Y0044960D01*
X0118428Y0045276D02*
X0118194Y0044557D01*
X0117851Y0043884D01*
X0117407Y0043273D01*
X0116873Y0042739D01*
X0116262Y0042295D01*
X0115588Y0041952D01*
X0114870Y0041718D01*
X0114124Y0041600D01*
X0110946Y0041600D01*
X0110946Y0046200D01*
X0118546Y0046200D01*
X0118546Y0046022D01*
X0118428Y0045276D01*
X0117471Y0043361D02*
X0122886Y0043361D01*
X0122570Y0041763D02*
X0115007Y0041763D01*
X0116731Y0040164D02*
X0122570Y0040164D01*
X0123090Y0038566D02*
X0118029Y0038566D01*
X0118516Y0036967D02*
X0122570Y0036967D01*
X0122570Y0035369D02*
X0118442Y0035369D01*
X0118428Y0035276D02*
X0118546Y0036022D01*
X0118546Y0036200D01*
X0110946Y0036200D01*
X0110946Y0031600D01*
X0114124Y0031600D01*
X0114870Y0031718D01*
X0115588Y0031952D01*
X0116262Y0032295D01*
X0116873Y0032739D01*
X0117407Y0033273D01*
X0117851Y0033884D01*
X0118194Y0034557D01*
X0118428Y0035276D01*
X0117768Y0033770D02*
X0123004Y0033770D01*
X0122570Y0032172D02*
X0116020Y0032172D01*
X0110946Y0032172D02*
X0110546Y0032172D01*
X0110546Y0033770D02*
X0110946Y0033770D01*
X0110946Y0035369D02*
X0110546Y0035369D01*
X0110546Y0036967D02*
X0110946Y0036967D01*
X0110946Y0038566D02*
X0110546Y0038566D01*
X0110546Y0040164D02*
X0110946Y0040164D01*
X0110946Y0041763D02*
X0110546Y0041763D01*
X0110546Y0043361D02*
X0110946Y0043361D01*
X0110946Y0044960D02*
X0110546Y0044960D01*
X0110546Y0048157D02*
X0110946Y0048157D01*
X0110946Y0049755D02*
X0110546Y0049755D01*
X0104799Y0051354D02*
X0116757Y0051354D01*
X0117179Y0049755D02*
X0118355Y0049755D01*
X0118222Y0048157D02*
X0119954Y0048157D01*
X0134680Y0057748D02*
X0136243Y0057748D01*
X0119103Y0067339D02*
X0118530Y0067339D01*
X0119103Y0068937D02*
X0117873Y0068937D01*
X0118117Y0070536D02*
X0116262Y0070536D01*
X0108745Y0073733D02*
X0099905Y0073733D01*
X0099905Y0075332D02*
X0107146Y0075332D01*
X0095337Y0075332D02*
X0086470Y0075332D01*
X0088069Y0076930D02*
X0094895Y0076930D01*
X0094626Y0078529D02*
X0089667Y0078529D01*
X0091345Y0073733D02*
X0084872Y0073733D01*
X0079444Y0068937D02*
X0090693Y0068937D01*
X0090364Y0067339D02*
X0089995Y0067339D01*
X0089995Y0065740D02*
X0090364Y0065740D01*
X0090364Y0064142D02*
X0089995Y0064142D01*
X0089995Y0062543D02*
X0090364Y0062543D01*
X0096358Y0059346D02*
X0099393Y0059346D01*
X0097795Y0057748D02*
X0096358Y0057748D01*
X0101740Y0060945D02*
X0078976Y0060945D01*
X0079518Y0059346D02*
X0081750Y0059346D01*
X0081009Y0051354D02*
X0079050Y0051354D01*
X0079533Y0049755D02*
X0082608Y0049755D01*
X0084206Y0048157D02*
X0079533Y0048157D01*
X0074458Y0044960D02*
X0073108Y0044960D01*
X0073108Y0043361D02*
X0074458Y0043361D01*
X0072690Y0030573D02*
X0066133Y0030573D01*
X0065662Y0028975D02*
X0073352Y0028975D01*
X0074625Y0027376D02*
X0064064Y0027376D01*
X0062465Y0025778D02*
X0077261Y0025778D01*
X0081406Y0025778D02*
X0098574Y0025778D01*
X0098574Y0025968D02*
X0094793Y0025968D01*
X0094793Y0027989D01*
X0094916Y0028447D01*
X0095153Y0028858D01*
X0095488Y0029193D01*
X0095898Y0029430D01*
X0096356Y0029552D01*
X0098574Y0029552D01*
X0098574Y0025968D01*
X0098943Y0025778D02*
X0127313Y0025778D01*
X0126400Y0027376D02*
X0102724Y0027376D01*
X0102247Y0028975D02*
X0122800Y0028975D01*
X0122570Y0030573D02*
X0095231Y0030573D01*
X0095270Y0028975D02*
X0093632Y0028975D01*
X0094793Y0027376D02*
X0084041Y0027376D01*
X0080721Y0020982D02*
X0071945Y0020982D01*
X0072680Y0019384D02*
X0074651Y0019384D01*
X0074334Y0017785D02*
X0072680Y0017785D01*
X0072680Y0016187D02*
X0074334Y0016187D01*
X0074334Y0014588D02*
X0072680Y0014588D01*
X0071670Y0012990D02*
X0074927Y0012990D01*
X0074318Y0011391D02*
X0072680Y0011391D01*
X0072680Y0009793D02*
X0078099Y0009793D01*
X0074318Y0008194D02*
X0072680Y0008194D01*
X0069449Y0004732D02*
X0069582Y0004600D01*
X0060146Y0004600D01*
X0060153Y0004617D01*
X0060153Y0005808D01*
X0060095Y0005947D01*
X0060281Y0005898D01*
X0062499Y0005898D01*
X0062499Y0009482D01*
X0062868Y0009482D01*
X0062868Y0005898D01*
X0064387Y0005898D01*
X0064387Y0005777D01*
X0065432Y0004732D01*
X0069449Y0004732D01*
X0065167Y0004997D02*
X0060153Y0004997D01*
X0062499Y0006596D02*
X0062868Y0006596D01*
X0062868Y0008194D02*
X0062499Y0008194D01*
X0062499Y0009793D02*
X0057080Y0009793D01*
X0057080Y0011391D02*
X0058718Y0011391D01*
X0059327Y0012990D02*
X0056070Y0012990D01*
X0057080Y0014588D02*
X0058734Y0014588D01*
X0058734Y0016187D02*
X0057080Y0016187D01*
X0057080Y0017785D02*
X0058734Y0017785D01*
X0059051Y0019384D02*
X0057080Y0019384D01*
X0056345Y0020982D02*
X0065121Y0020982D01*
X0059533Y0025778D02*
X0059133Y0025778D01*
X0059133Y0027376D02*
X0059533Y0027376D01*
X0059533Y0028975D02*
X0059133Y0028975D01*
X0059133Y0030573D02*
X0059533Y0030573D01*
X0059533Y0033770D02*
X0059133Y0033770D01*
X0059133Y0035369D02*
X0059533Y0035369D01*
X0059533Y0036967D02*
X0059133Y0036967D01*
X0059133Y0038566D02*
X0059533Y0038566D01*
X0052533Y0030573D02*
X0015596Y0030573D01*
X0015596Y0028975D02*
X0053004Y0028975D01*
X0054603Y0027376D02*
X0015596Y0027376D01*
X0015596Y0025778D02*
X0018490Y0025778D01*
X0015948Y0024179D02*
X0015596Y0024179D01*
X0015596Y0032172D02*
X0036639Y0032172D01*
X0036609Y0032282D02*
X0036732Y0031824D01*
X0036969Y0031414D01*
X0037304Y0031079D01*
X0037714Y0030842D01*
X0038172Y0030719D01*
X0040390Y0030719D01*
X0040390Y0034303D01*
X0036609Y0034303D01*
X0036609Y0032282D01*
X0036609Y0033770D02*
X0015596Y0033770D01*
X0015596Y0035369D02*
X0036609Y0035369D01*
X0034163Y0036967D02*
X0015596Y0036967D01*
X0015596Y0038566D02*
X0022399Y0038566D01*
X0022840Y0038125D02*
X0024621Y0038125D01*
X0024621Y0042425D01*
X0024621Y0042425D01*
X0024621Y0042425D01*
X0024621Y0046725D01*
X0022840Y0046725D01*
X0020321Y0044206D01*
X0020321Y0042425D01*
X0024621Y0042425D01*
X0020321Y0042425D01*
X0020321Y0040644D01*
X0022840Y0038125D01*
X0024621Y0038566D02*
X0024621Y0038566D01*
X0024621Y0040164D02*
X0024621Y0040164D01*
X0024621Y0041763D02*
X0024621Y0041763D01*
X0024621Y0042425D02*
X0024621Y0042425D01*
X0024621Y0043361D02*
X0024621Y0043361D01*
X0024621Y0044960D02*
X0024621Y0044960D01*
X0024621Y0046558D02*
X0024621Y0046558D01*
X0026569Y0046558D02*
X0031404Y0046558D01*
X0029097Y0044960D02*
X0028167Y0044960D01*
X0028441Y0040164D02*
X0028920Y0040164D01*
X0030743Y0038566D02*
X0026843Y0038566D01*
X0020800Y0040164D02*
X0015596Y0040164D01*
X0015596Y0041763D02*
X0020321Y0041763D01*
X0020321Y0043361D02*
X0015596Y0043361D01*
X0015596Y0044960D02*
X0021074Y0044960D01*
X0022673Y0046558D02*
X0015596Y0046558D01*
X0034069Y0037061D02*
X0034069Y0037061D01*
X0040390Y0033770D02*
X0040759Y0033770D01*
X0040759Y0032172D02*
X0040390Y0032172D01*
X0033265Y0024179D02*
X0094793Y0024179D01*
X0095282Y0022581D02*
X0034864Y0022581D01*
X0036050Y0020982D02*
X0049521Y0020982D01*
X0043451Y0019384D02*
X0036972Y0019384D01*
X0037563Y0017785D02*
X0043134Y0017785D01*
X0043134Y0016187D02*
X0037992Y0016187D01*
X0038202Y0014588D02*
X0043134Y0014588D01*
X0043727Y0012990D02*
X0038202Y0012990D01*
X0038087Y0011391D02*
X0043118Y0011391D01*
X0046899Y0009793D02*
X0037659Y0009793D01*
X0037178Y0008194D02*
X0043118Y0008194D01*
X0043476Y0006596D02*
X0036255Y0006596D01*
X0035219Y0004997D02*
X0049567Y0004997D01*
X0047268Y0006596D02*
X0046899Y0006596D01*
X0046899Y0008194D02*
X0047268Y0008194D01*
X0057785Y0008194D02*
X0058718Y0008194D01*
X0056201Y0025778D02*
X0030724Y0025778D01*
X0033983Y0067339D02*
X0033983Y0067339D01*
X0044708Y0075332D02*
X0050892Y0075332D01*
X0055468Y0076930D02*
X0067969Y0076930D01*
X0061525Y0092509D02*
X0052618Y0092509D01*
X0052618Y0094884D01*
X0051279Y0096222D01*
X0049560Y0097941D01*
X0067008Y0097941D01*
X0067044Y0097855D01*
X0067065Y0097834D01*
X0066850Y0097834D01*
X0065512Y0096496D01*
X0061525Y0092509D01*
X0061931Y0092915D02*
X0052618Y0092915D01*
X0052618Y0094514D02*
X0063529Y0094514D01*
X0065128Y0096112D02*
X0051389Y0096112D01*
X0049791Y0097711D02*
X0066726Y0097711D01*
X0067008Y0102509D02*
X0044174Y0102509D01*
X0044138Y0102595D01*
X0043380Y0103354D01*
X0044318Y0104291D01*
X0047967Y0107941D01*
X0059825Y0107941D01*
X0059801Y0107883D01*
X0059801Y0106692D01*
X0060257Y0105591D01*
X0061100Y0104749D01*
X0062200Y0104293D01*
X0062560Y0104293D01*
X0063100Y0103753D01*
X0068202Y0103753D01*
X0067044Y0102595D01*
X0067008Y0102509D01*
X0062748Y0104105D02*
X0044131Y0104105D01*
X0045729Y0105703D02*
X0060211Y0105703D01*
X0059801Y0107302D02*
X0047328Y0107302D01*
X0028121Y0131267D02*
X0027580Y0131809D01*
X0027580Y0138041D01*
X0028742Y0139203D01*
X0033239Y0139203D01*
X0033239Y0139103D01*
X0033079Y0139169D01*
X0031888Y0139169D01*
X0030787Y0138714D01*
X0029945Y0137871D01*
X0029489Y0136771D01*
X0029489Y0135579D01*
X0029945Y0134479D01*
X0030199Y0134224D01*
X0030199Y0133174D01*
X0029166Y0133174D01*
X0028121Y0132129D01*
X0028121Y0131267D01*
X0028121Y0131279D02*
X0028109Y0131279D01*
X0027580Y0132878D02*
X0028870Y0132878D01*
X0029947Y0134476D02*
X0027580Y0134476D01*
X0027580Y0136075D02*
X0029489Y0136075D01*
X0029863Y0137673D02*
X0027580Y0137673D01*
X0022530Y0147265D02*
X0021018Y0147265D01*
X0021018Y0148863D02*
X0055177Y0148863D01*
X0089651Y0163117D02*
X0091682Y0165148D01*
X0091889Y0165650D01*
X0092471Y0165650D01*
X0092836Y0165650D01*
X0092836Y0163421D01*
X0092837Y0163419D01*
X0092141Y0163707D01*
X0090950Y0163707D01*
X0089850Y0163251D01*
X0089683Y0163085D01*
X0089651Y0163117D01*
X0089783Y0163250D02*
X0089848Y0163250D01*
X0091381Y0164848D02*
X0092836Y0164848D01*
X0092471Y0165650D02*
X0092471Y0169950D01*
X0092471Y0169950D01*
X0092471Y0165650D01*
X0092471Y0166447D02*
X0092471Y0166447D01*
X0092471Y0168045D02*
X0092471Y0168045D01*
X0092471Y0169644D02*
X0092471Y0169644D01*
X0107954Y0167666D02*
X0114392Y0167666D01*
X0120137Y0173410D01*
X0120137Y0172171D01*
X0114554Y0166589D01*
X0114185Y0166958D01*
X0107954Y0166958D01*
X0107954Y0167666D01*
X0114771Y0168045D02*
X0116011Y0168045D01*
X0116370Y0169644D02*
X0117609Y0169644D01*
X0117968Y0171242D02*
X0119208Y0171242D01*
X0119567Y0172841D02*
X0120137Y0172841D01*
X0133564Y0155257D02*
X0134678Y0155257D01*
X0139609Y0147265D02*
X0128505Y0147265D01*
X0128505Y0145666D02*
X0140241Y0145666D01*
X0144265Y0139272D02*
X0145190Y0139272D01*
X0152102Y0139272D02*
X0157062Y0139272D01*
X0157230Y0140870D02*
X0152867Y0140870D01*
X0152930Y0142469D02*
X0158036Y0142469D01*
X0160341Y0144068D02*
X0152375Y0144068D01*
X0163351Y0144068D02*
X0164062Y0144068D01*
X0132312Y0137673D02*
X0131505Y0137673D01*
X0127044Y0128082D02*
X0111395Y0128082D01*
X0126404Y0121688D02*
X0128204Y0121688D01*
X0108659Y0103266D02*
X0107989Y0102595D01*
X0107953Y0102509D01*
X0088990Y0102509D01*
X0089084Y0102604D01*
X0089540Y0103704D01*
X0089540Y0104064D01*
X0091104Y0105628D01*
X0106100Y0105628D01*
X0107124Y0104604D01*
X0108462Y0103266D01*
X0108659Y0103266D01*
X0107623Y0104105D02*
X0089581Y0104105D01*
X0085119Y0097941D02*
X0107953Y0097941D01*
X0107989Y0097855D01*
X0108680Y0097164D01*
X0106850Y0095334D01*
X0086850Y0095334D01*
X0085512Y0093996D01*
X0084597Y0093082D01*
X0083906Y0093772D01*
X0082368Y0094409D01*
X0080704Y0094409D01*
X0080618Y0094374D01*
X0077157Y0097834D01*
X0074118Y0097834D01*
X0074138Y0097855D01*
X0074687Y0099179D01*
X0075924Y0097941D01*
X0077953Y0097941D01*
X0077989Y0097855D01*
X0079166Y0096678D01*
X0080704Y0096041D01*
X0082368Y0096041D01*
X0083906Y0096678D01*
X0085083Y0097855D01*
X0085119Y0097941D01*
X0084939Y0097711D02*
X0108133Y0097711D01*
X0107628Y0096112D02*
X0082540Y0096112D01*
X0080532Y0096112D02*
X0078879Y0096112D01*
X0078133Y0097711D02*
X0077281Y0097711D01*
X0080478Y0094514D02*
X0086029Y0094514D01*
X0103200Y0049755D02*
X0104313Y0049755D01*
X0103270Y0048157D02*
X0101602Y0048157D01*
X0098943Y0028975D02*
X0098574Y0028975D01*
X0098574Y0027376D02*
X0098943Y0027376D01*
X0102724Y0024179D02*
X0128683Y0024179D01*
X0128633Y0022581D02*
X0129033Y0022581D01*
X0129033Y0020982D02*
X0128633Y0020982D01*
X0128633Y0019384D02*
X0129033Y0019384D01*
X0129033Y0017785D02*
X0128633Y0017785D01*
X0128633Y0016187D02*
X0129033Y0016187D01*
X0124033Y0016187D02*
X0123633Y0016187D01*
X0123633Y0017785D02*
X0124033Y0017785D01*
X0124096Y0019384D02*
X0123571Y0019384D01*
X0123013Y0020982D02*
X0124654Y0020982D01*
X0126129Y0022581D02*
X0121538Y0022581D01*
X0119033Y0022581D02*
X0118633Y0022581D01*
X0118633Y0020982D02*
X0119033Y0020982D01*
X0119033Y0019384D02*
X0118633Y0019384D01*
X0118633Y0017785D02*
X0119033Y0017785D01*
X0119033Y0016187D02*
X0118633Y0016187D01*
X0114033Y0016187D02*
X0113618Y0016187D01*
X0113618Y0017785D02*
X0114033Y0017785D01*
X0114096Y0019384D02*
X0113618Y0019384D01*
X0113030Y0020982D02*
X0114654Y0020982D01*
X0116129Y0022581D02*
X0111631Y0022581D01*
X0106035Y0022581D02*
X0102234Y0022581D01*
X0102708Y0020982D02*
X0104636Y0020982D01*
X0104049Y0019384D02*
X0102708Y0019384D01*
X0104049Y0013328D02*
X0099704Y0013328D01*
X0090825Y0013328D01*
X0089487Y0014666D01*
X0089097Y0015056D01*
X0088738Y0015056D01*
X0088280Y0015245D01*
X0088280Y0014045D01*
X0087247Y0013012D01*
X0088280Y0011980D01*
X0088280Y0008472D01*
X0106328Y0008472D01*
X0106123Y0008557D01*
X0104777Y0009902D01*
X0104049Y0011661D01*
X0104049Y0013328D01*
X0104049Y0012990D02*
X0087270Y0012990D01*
X0088280Y0014588D02*
X0089565Y0014588D01*
X0088280Y0011391D02*
X0104161Y0011391D01*
X0104887Y0009793D02*
X0088280Y0009793D01*
X0092022Y0019384D02*
X0094809Y0019384D01*
X0094809Y0020982D02*
X0090079Y0020982D01*
X0088587Y0020982D02*
X0087545Y0020982D01*
X0112779Y0009793D02*
X0114949Y0009793D01*
X0114183Y0011391D02*
X0113506Y0011391D01*
X0113618Y0012990D02*
X0114033Y0012990D01*
X0114033Y0014588D02*
X0113618Y0014588D01*
X0123633Y0014588D02*
X0124033Y0014588D01*
X0124033Y0012990D02*
X0123633Y0012990D01*
X0123483Y0011391D02*
X0124183Y0011391D01*
X0124949Y0009793D02*
X0122718Y0009793D01*
X0196749Y0166447D02*
X0196894Y0166447D01*
X0203548Y0174439D02*
X0206846Y0174439D01*
X0206846Y0176038D02*
X0206260Y0176038D01*
X0189439Y0176009D02*
X0181073Y0176009D01*
X0181462Y0176207D01*
X0182073Y0176651D01*
X0182607Y0177186D01*
X0183051Y0177797D01*
X0183394Y0178470D01*
X0183628Y0179188D01*
X0183746Y0179935D01*
X0183746Y0183112D01*
X0179146Y0183112D01*
X0179146Y0183512D01*
X0183746Y0183512D01*
X0183746Y0186690D01*
X0183628Y0187437D01*
X0183394Y0188155D01*
X0183051Y0188828D01*
X0182607Y0189439D01*
X0182073Y0189974D01*
X0181462Y0190418D01*
X0180788Y0190761D01*
X0180070Y0190994D01*
X0179324Y0191112D01*
X0179146Y0191112D01*
X0179146Y0183513D01*
X0178746Y0183513D01*
X0178746Y0191112D01*
X0178568Y0191112D01*
X0178555Y0191110D01*
X0178555Y0192221D01*
X0177217Y0193559D01*
X0174926Y0195850D01*
X0187620Y0195850D01*
X0186956Y0195187D01*
X0185166Y0192087D01*
X0184240Y0188629D01*
X0184240Y0185050D01*
X0185166Y0181592D01*
X0186956Y0178492D01*
X0189439Y0176009D01*
X0189410Y0176038D02*
X0181129Y0176038D01*
X0182934Y0177636D02*
X0187812Y0177636D01*
X0186527Y0179235D02*
X0183635Y0179235D01*
X0183746Y0180833D02*
X0185604Y0180833D01*
X0184941Y0182432D02*
X0183746Y0182432D01*
X0183746Y0184030D02*
X0184513Y0184030D01*
X0184240Y0185629D02*
X0183746Y0185629D01*
X0183661Y0187227D02*
X0184240Y0187227D01*
X0184293Y0188826D02*
X0183052Y0188826D01*
X0181449Y0190424D02*
X0184721Y0190424D01*
X0185149Y0192023D02*
X0178555Y0192023D01*
X0178746Y0190424D02*
X0179146Y0190424D01*
X0179146Y0188826D02*
X0178746Y0188826D01*
X0178746Y0187227D02*
X0179146Y0187227D01*
X0179146Y0185629D02*
X0178746Y0185629D01*
X0178746Y0184030D02*
X0179146Y0184030D01*
X0177155Y0193621D02*
X0186052Y0193621D01*
X0186989Y0195220D02*
X0175556Y0195220D01*
X0018894Y0174439D02*
X0015596Y0174439D01*
X0015596Y0176038D02*
X0016182Y0176038D01*
D38*
X0066833Y0066013D02*
X0073333Y0066013D01*
X0054333Y0042263D02*
X0052237Y0042263D01*
X0048604Y0038629D01*
X0047267Y0037293D01*
X0047267Y0034488D01*
X0128685Y0036125D02*
X0128685Y0041125D01*
D39*
X0066833Y0066013D03*
X0054333Y0042263D03*
D40*
X0079333Y0032262D02*
X0079421Y0032350D01*
X0090308Y0032350D01*
X0096646Y0038688D01*
X0096646Y0049900D01*
X0103146Y0056400D01*
X0110746Y0056400D01*
X0110746Y0066400D01*
X0110746Y0056400D02*
X0118410Y0056400D01*
X0128685Y0046125D01*
X0128685Y0041125D01*
X0128685Y0046125D02*
X0128647Y0046162D01*
X0149157Y0046125D02*
X0149157Y0041125D01*
X0149157Y0036125D01*
X0149157Y0031125D01*
X0148833Y0030801D01*
X0148833Y0015612D01*
X0158833Y0015612D01*
M02*
