%
M48
M72
T01C0.01220
T02C0.01575
T03C0.02362
T04C0.03200
T05C0.04000
T06C0.12598
%
T01
X44021Y44937
X37683Y46237
X37496Y56075
X34246Y56075
X30996Y56075
X27746Y56075
X40746Y56075
X57671Y59075
X57671Y51925
X67908Y51437
X75033Y40800
X78283Y40800
X81533Y40800
X81533Y44050
X81533Y47300
X81936Y54365
X80258Y60375
X86921Y70775
X94721Y75650
X97621Y78175
X96183Y64925
X122483Y69400
X130283Y74388
X130446Y84025
X141008Y76063
X142333Y95312
X141846Y105062
X128196Y103925
X127383Y95312
X105933Y96450
X105771Y104412
X94233Y104575
X95371Y96450
X86546Y104300
X85296Y95475
X63846Y96612
X63196Y103112
X62796Y107287
X55558Y104737
X55558Y95312
X45783Y93125
X49671Y85863
X49683Y80450
X52608Y77850
X56508Y76388
X63983Y76713
X36521Y86787
X20271Y86138
X16546Y81625
X18808Y95725
X20921Y103012
X24358Y123987
X28571Y134925
X28571Y138175
X32483Y136175
X36233Y138675
X40796Y130725
X44358Y133675
X50871Y127800
X47483Y125862
X57021Y125375
X55783Y138050
X59683Y138050
X58108Y149613
X63221Y149725
X54008Y155550
X49608Y158363
X45533Y163813
X43271Y157063
X38471Y152600
X35471Y163238
X32058Y174287
X23421Y163988
X27596Y153450
X16058Y136550
X56433Y174287
X65371Y172500
X67883Y162675
X72758Y163488
X82183Y164625
X87796Y160738
X91546Y160713
X90558Y163888
X96546Y163050
X100058Y157313
X98521Y154625
X93058Y147088
X89808Y147088
X89808Y150338
X85921Y151488
X81983Y145238
X92483Y142738
X92171Y129925
X83971Y125787
X80721Y125787
X69983Y129612
X103796Y123350
X113233Y129887
X115996Y127287
X124758Y130500
X121671Y139113
X121346Y144313
X108733Y135238
X105921Y144188
X109733Y167625
X111683Y175750
X101446Y175750
X78933Y191112
X55296Y191187
X40671Y187612
X137608Y173112
X144108Y175062
X152708Y170150
X159371Y159425
X165058Y158938
X176121Y158813
X179033Y150163
X188308Y143375
X195783Y144188
X206171Y142525
X206171Y139275
X206171Y136025
X200171Y130212
X199046Y125550
X200621Y118975
X182171Y116800
X183096Y131638
X179846Y131638
X152871Y132450
X149946Y132450
X147021Y123187
X144096Y123187
X138571Y134238
X136946Y136838
X139871Y139438
X142471Y141713
X139871Y144313
X140683Y153413
X173021Y190300
X180171Y170638
X189283Y167263
X195283Y163813
X191071Y160275
X201633Y172300
X205371Y172300
X180296Y87975
X181146Y67450
X177896Y67450
X174646Y67450
X171396Y67450
X168146Y67450
X164896Y67450
X161646Y67450
X161646Y64200
X161646Y60950
X161646Y57700
X161646Y54450
X161646Y51200
X161646Y47950
X161646Y44700
X161646Y41450
X161646Y38200
X161646Y34950
X161646Y31700
X161646Y28450
X168146Y25200
X171396Y25200
X174646Y25200
X177896Y25200
X184396Y25200
X187646Y25200
X187821Y36450
X206021Y34950
X206021Y38200
X206021Y41450
X206021Y44700
X206021Y47950
X206021Y51200
X206021Y54450
X206021Y57700
X206021Y60950
X206021Y64200
X206021Y67450
X197246Y67450
X193996Y67450
X190746Y67450
X187496Y67450
X184246Y67450
X178883Y55462
X175633Y55462
X172383Y55462
X202433Y57537
X206021Y31700
X206021Y28450
X206021Y25200
X154171Y25850
X154171Y23087
X143446Y23087
X143446Y25850
X130121Y26825
X118096Y26012
X114846Y26012
X111596Y26012
X108346Y26012
X105096Y26012
X105096Y29262
X108346Y29262
X111596Y29262
X114846Y29262
X118096Y29262
X101683Y12687
X103796Y10413
X94371Y9763
X91283Y12525
X89333Y18050
X67396Y24225
X64146Y24225
X60896Y24225
X67396Y27475
X67396Y30725
X57158Y5213
X132396Y50550
X136621Y48762
T02
X88196Y46000
X129796Y126437
X199183Y62412
T03
X66833Y66013
X54333Y42263
T04
X32621Y42425
X24621Y42425
X33983Y66150
X41983Y66150
X40591Y80225
X40591Y90225
X40591Y100225
X40591Y110225
X40591Y120225
X70591Y120225
X70591Y110225
X70591Y100225
X70591Y90225
X70591Y80225
X81536Y80225
X81536Y90225
X81536Y100225
X81536Y110225
X81536Y120225
X111536Y120225
X111536Y110225
X111536Y100225
X111536Y90225
X111536Y80225
X122481Y80225
X122481Y90225
X122481Y100225
X122481Y110225
X122481Y120225
X152481Y120225
X152481Y110225
X152481Y100225
X152481Y90225
X152481Y80225
X188796Y138050
X196796Y138050
T05
X190045Y122905
X190045Y105105
X190045Y95346
X190045Y77546
X164445Y77546
X164445Y95346
X164445Y105105
X164445Y122905
X161846Y136513
X171846Y136513
X168946Y183312
X178946Y183312
X158946Y183312
X147096Y183312
X137096Y183312
X127096Y183312
X115221Y183312
X105221Y183312
X95221Y183312
X85221Y183312
X70296Y187887
X60296Y187887
X60296Y177887
X70296Y177887
X50296Y177887
X50296Y187887
X110746Y66400
X110746Y56400
X110746Y46400
X110746Y36400
X108833Y15612
X118833Y15612
X128833Y15612
X138833Y15612
X148833Y15612
X158833Y15612
X168833Y15612
X178833Y15612
X79333Y32262
X59333Y32262
T06
X24607Y13611
X197835Y13611
X197835Y186839
X24607Y186839
M30
