G75*
%MOIN*%
%OFA0B0*%
%FSLAX25Y25*%
%IPPOS*%
%LPD*%
%AMOC8*
5,1,8,0,0,1.08239X$1,22.5*
%
%ADD10C,0.00000*%
%ADD11C,0.01000*%
%ADD12C,0.00700*%
D10*
X0012796Y0013611D02*
X0012796Y0186839D01*
X0018308Y0186839D02*
X0018310Y0186997D01*
X0018316Y0187155D01*
X0018326Y0187313D01*
X0018340Y0187471D01*
X0018358Y0187628D01*
X0018379Y0187785D01*
X0018405Y0187941D01*
X0018435Y0188097D01*
X0018468Y0188252D01*
X0018506Y0188405D01*
X0018547Y0188558D01*
X0018592Y0188710D01*
X0018641Y0188861D01*
X0018694Y0189010D01*
X0018750Y0189158D01*
X0018810Y0189304D01*
X0018874Y0189449D01*
X0018942Y0189592D01*
X0019013Y0189734D01*
X0019087Y0189874D01*
X0019165Y0190011D01*
X0019247Y0190147D01*
X0019331Y0190281D01*
X0019420Y0190412D01*
X0019511Y0190541D01*
X0019606Y0190668D01*
X0019703Y0190793D01*
X0019804Y0190915D01*
X0019908Y0191034D01*
X0020015Y0191151D01*
X0020125Y0191265D01*
X0020238Y0191376D01*
X0020353Y0191485D01*
X0020471Y0191590D01*
X0020592Y0191692D01*
X0020715Y0191792D01*
X0020841Y0191888D01*
X0020969Y0191981D01*
X0021099Y0192071D01*
X0021232Y0192157D01*
X0021367Y0192241D01*
X0021503Y0192320D01*
X0021642Y0192397D01*
X0021783Y0192469D01*
X0021925Y0192539D01*
X0022069Y0192604D01*
X0022215Y0192666D01*
X0022362Y0192724D01*
X0022511Y0192779D01*
X0022661Y0192830D01*
X0022812Y0192877D01*
X0022964Y0192920D01*
X0023117Y0192959D01*
X0023272Y0192995D01*
X0023427Y0193026D01*
X0023583Y0193054D01*
X0023739Y0193078D01*
X0023896Y0193098D01*
X0024054Y0193114D01*
X0024211Y0193126D01*
X0024370Y0193134D01*
X0024528Y0193138D01*
X0024686Y0193138D01*
X0024844Y0193134D01*
X0025003Y0193126D01*
X0025160Y0193114D01*
X0025318Y0193098D01*
X0025475Y0193078D01*
X0025631Y0193054D01*
X0025787Y0193026D01*
X0025942Y0192995D01*
X0026097Y0192959D01*
X0026250Y0192920D01*
X0026402Y0192877D01*
X0026553Y0192830D01*
X0026703Y0192779D01*
X0026852Y0192724D01*
X0026999Y0192666D01*
X0027145Y0192604D01*
X0027289Y0192539D01*
X0027431Y0192469D01*
X0027572Y0192397D01*
X0027711Y0192320D01*
X0027847Y0192241D01*
X0027982Y0192157D01*
X0028115Y0192071D01*
X0028245Y0191981D01*
X0028373Y0191888D01*
X0028499Y0191792D01*
X0028622Y0191692D01*
X0028743Y0191590D01*
X0028861Y0191485D01*
X0028976Y0191376D01*
X0029089Y0191265D01*
X0029199Y0191151D01*
X0029306Y0191034D01*
X0029410Y0190915D01*
X0029511Y0190793D01*
X0029608Y0190668D01*
X0029703Y0190541D01*
X0029794Y0190412D01*
X0029883Y0190281D01*
X0029967Y0190147D01*
X0030049Y0190011D01*
X0030127Y0189874D01*
X0030201Y0189734D01*
X0030272Y0189592D01*
X0030340Y0189449D01*
X0030404Y0189304D01*
X0030464Y0189158D01*
X0030520Y0189010D01*
X0030573Y0188861D01*
X0030622Y0188710D01*
X0030667Y0188558D01*
X0030708Y0188405D01*
X0030746Y0188252D01*
X0030779Y0188097D01*
X0030809Y0187941D01*
X0030835Y0187785D01*
X0030856Y0187628D01*
X0030874Y0187471D01*
X0030888Y0187313D01*
X0030898Y0187155D01*
X0030904Y0186997D01*
X0030906Y0186839D01*
X0030904Y0186681D01*
X0030898Y0186523D01*
X0030888Y0186365D01*
X0030874Y0186207D01*
X0030856Y0186050D01*
X0030835Y0185893D01*
X0030809Y0185737D01*
X0030779Y0185581D01*
X0030746Y0185426D01*
X0030708Y0185273D01*
X0030667Y0185120D01*
X0030622Y0184968D01*
X0030573Y0184817D01*
X0030520Y0184668D01*
X0030464Y0184520D01*
X0030404Y0184374D01*
X0030340Y0184229D01*
X0030272Y0184086D01*
X0030201Y0183944D01*
X0030127Y0183804D01*
X0030049Y0183667D01*
X0029967Y0183531D01*
X0029883Y0183397D01*
X0029794Y0183266D01*
X0029703Y0183137D01*
X0029608Y0183010D01*
X0029511Y0182885D01*
X0029410Y0182763D01*
X0029306Y0182644D01*
X0029199Y0182527D01*
X0029089Y0182413D01*
X0028976Y0182302D01*
X0028861Y0182193D01*
X0028743Y0182088D01*
X0028622Y0181986D01*
X0028499Y0181886D01*
X0028373Y0181790D01*
X0028245Y0181697D01*
X0028115Y0181607D01*
X0027982Y0181521D01*
X0027847Y0181437D01*
X0027711Y0181358D01*
X0027572Y0181281D01*
X0027431Y0181209D01*
X0027289Y0181139D01*
X0027145Y0181074D01*
X0026999Y0181012D01*
X0026852Y0180954D01*
X0026703Y0180899D01*
X0026553Y0180848D01*
X0026402Y0180801D01*
X0026250Y0180758D01*
X0026097Y0180719D01*
X0025942Y0180683D01*
X0025787Y0180652D01*
X0025631Y0180624D01*
X0025475Y0180600D01*
X0025318Y0180580D01*
X0025160Y0180564D01*
X0025003Y0180552D01*
X0024844Y0180544D01*
X0024686Y0180540D01*
X0024528Y0180540D01*
X0024370Y0180544D01*
X0024211Y0180552D01*
X0024054Y0180564D01*
X0023896Y0180580D01*
X0023739Y0180600D01*
X0023583Y0180624D01*
X0023427Y0180652D01*
X0023272Y0180683D01*
X0023117Y0180719D01*
X0022964Y0180758D01*
X0022812Y0180801D01*
X0022661Y0180848D01*
X0022511Y0180899D01*
X0022362Y0180954D01*
X0022215Y0181012D01*
X0022069Y0181074D01*
X0021925Y0181139D01*
X0021783Y0181209D01*
X0021642Y0181281D01*
X0021503Y0181358D01*
X0021367Y0181437D01*
X0021232Y0181521D01*
X0021099Y0181607D01*
X0020969Y0181697D01*
X0020841Y0181790D01*
X0020715Y0181886D01*
X0020592Y0181986D01*
X0020471Y0182088D01*
X0020353Y0182193D01*
X0020238Y0182302D01*
X0020125Y0182413D01*
X0020015Y0182527D01*
X0019908Y0182644D01*
X0019804Y0182763D01*
X0019703Y0182885D01*
X0019606Y0183010D01*
X0019511Y0183137D01*
X0019420Y0183266D01*
X0019331Y0183397D01*
X0019247Y0183531D01*
X0019165Y0183667D01*
X0019087Y0183804D01*
X0019013Y0183944D01*
X0018942Y0184086D01*
X0018874Y0184229D01*
X0018810Y0184374D01*
X0018750Y0184520D01*
X0018694Y0184668D01*
X0018641Y0184817D01*
X0018592Y0184968D01*
X0018547Y0185120D01*
X0018506Y0185273D01*
X0018468Y0185426D01*
X0018435Y0185581D01*
X0018405Y0185737D01*
X0018379Y0185893D01*
X0018358Y0186050D01*
X0018340Y0186207D01*
X0018326Y0186365D01*
X0018316Y0186523D01*
X0018310Y0186681D01*
X0018308Y0186839D01*
X0012796Y0186839D02*
X0012799Y0187124D01*
X0012810Y0187410D01*
X0012827Y0187695D01*
X0012851Y0187979D01*
X0012882Y0188263D01*
X0012920Y0188546D01*
X0012965Y0188827D01*
X0013016Y0189108D01*
X0013074Y0189388D01*
X0013139Y0189666D01*
X0013211Y0189942D01*
X0013289Y0190216D01*
X0013374Y0190489D01*
X0013466Y0190759D01*
X0013564Y0191027D01*
X0013668Y0191293D01*
X0013779Y0191556D01*
X0013896Y0191816D01*
X0014019Y0192074D01*
X0014149Y0192328D01*
X0014285Y0192579D01*
X0014426Y0192827D01*
X0014574Y0193071D01*
X0014727Y0193312D01*
X0014887Y0193548D01*
X0015052Y0193781D01*
X0015222Y0194010D01*
X0015398Y0194235D01*
X0015580Y0194455D01*
X0015766Y0194671D01*
X0015958Y0194882D01*
X0016155Y0195089D01*
X0016357Y0195291D01*
X0016564Y0195488D01*
X0016775Y0195680D01*
X0016991Y0195866D01*
X0017211Y0196048D01*
X0017436Y0196224D01*
X0017665Y0196394D01*
X0017898Y0196559D01*
X0018134Y0196719D01*
X0018375Y0196872D01*
X0018619Y0197020D01*
X0018867Y0197161D01*
X0019118Y0197297D01*
X0019372Y0197427D01*
X0019630Y0197550D01*
X0019890Y0197667D01*
X0020153Y0197778D01*
X0020419Y0197882D01*
X0020687Y0197980D01*
X0020957Y0198072D01*
X0021230Y0198157D01*
X0021504Y0198235D01*
X0021780Y0198307D01*
X0022058Y0198372D01*
X0022338Y0198430D01*
X0022619Y0198481D01*
X0022900Y0198526D01*
X0023183Y0198564D01*
X0023467Y0198595D01*
X0023751Y0198619D01*
X0024036Y0198636D01*
X0024322Y0198647D01*
X0024607Y0198650D01*
X0197835Y0198650D01*
X0191536Y0186839D02*
X0191538Y0186997D01*
X0191544Y0187155D01*
X0191554Y0187313D01*
X0191568Y0187471D01*
X0191586Y0187628D01*
X0191607Y0187785D01*
X0191633Y0187941D01*
X0191663Y0188097D01*
X0191696Y0188252D01*
X0191734Y0188405D01*
X0191775Y0188558D01*
X0191820Y0188710D01*
X0191869Y0188861D01*
X0191922Y0189010D01*
X0191978Y0189158D01*
X0192038Y0189304D01*
X0192102Y0189449D01*
X0192170Y0189592D01*
X0192241Y0189734D01*
X0192315Y0189874D01*
X0192393Y0190011D01*
X0192475Y0190147D01*
X0192559Y0190281D01*
X0192648Y0190412D01*
X0192739Y0190541D01*
X0192834Y0190668D01*
X0192931Y0190793D01*
X0193032Y0190915D01*
X0193136Y0191034D01*
X0193243Y0191151D01*
X0193353Y0191265D01*
X0193466Y0191376D01*
X0193581Y0191485D01*
X0193699Y0191590D01*
X0193820Y0191692D01*
X0193943Y0191792D01*
X0194069Y0191888D01*
X0194197Y0191981D01*
X0194327Y0192071D01*
X0194460Y0192157D01*
X0194595Y0192241D01*
X0194731Y0192320D01*
X0194870Y0192397D01*
X0195011Y0192469D01*
X0195153Y0192539D01*
X0195297Y0192604D01*
X0195443Y0192666D01*
X0195590Y0192724D01*
X0195739Y0192779D01*
X0195889Y0192830D01*
X0196040Y0192877D01*
X0196192Y0192920D01*
X0196345Y0192959D01*
X0196500Y0192995D01*
X0196655Y0193026D01*
X0196811Y0193054D01*
X0196967Y0193078D01*
X0197124Y0193098D01*
X0197282Y0193114D01*
X0197439Y0193126D01*
X0197598Y0193134D01*
X0197756Y0193138D01*
X0197914Y0193138D01*
X0198072Y0193134D01*
X0198231Y0193126D01*
X0198388Y0193114D01*
X0198546Y0193098D01*
X0198703Y0193078D01*
X0198859Y0193054D01*
X0199015Y0193026D01*
X0199170Y0192995D01*
X0199325Y0192959D01*
X0199478Y0192920D01*
X0199630Y0192877D01*
X0199781Y0192830D01*
X0199931Y0192779D01*
X0200080Y0192724D01*
X0200227Y0192666D01*
X0200373Y0192604D01*
X0200517Y0192539D01*
X0200659Y0192469D01*
X0200800Y0192397D01*
X0200939Y0192320D01*
X0201075Y0192241D01*
X0201210Y0192157D01*
X0201343Y0192071D01*
X0201473Y0191981D01*
X0201601Y0191888D01*
X0201727Y0191792D01*
X0201850Y0191692D01*
X0201971Y0191590D01*
X0202089Y0191485D01*
X0202204Y0191376D01*
X0202317Y0191265D01*
X0202427Y0191151D01*
X0202534Y0191034D01*
X0202638Y0190915D01*
X0202739Y0190793D01*
X0202836Y0190668D01*
X0202931Y0190541D01*
X0203022Y0190412D01*
X0203111Y0190281D01*
X0203195Y0190147D01*
X0203277Y0190011D01*
X0203355Y0189874D01*
X0203429Y0189734D01*
X0203500Y0189592D01*
X0203568Y0189449D01*
X0203632Y0189304D01*
X0203692Y0189158D01*
X0203748Y0189010D01*
X0203801Y0188861D01*
X0203850Y0188710D01*
X0203895Y0188558D01*
X0203936Y0188405D01*
X0203974Y0188252D01*
X0204007Y0188097D01*
X0204037Y0187941D01*
X0204063Y0187785D01*
X0204084Y0187628D01*
X0204102Y0187471D01*
X0204116Y0187313D01*
X0204126Y0187155D01*
X0204132Y0186997D01*
X0204134Y0186839D01*
X0204132Y0186681D01*
X0204126Y0186523D01*
X0204116Y0186365D01*
X0204102Y0186207D01*
X0204084Y0186050D01*
X0204063Y0185893D01*
X0204037Y0185737D01*
X0204007Y0185581D01*
X0203974Y0185426D01*
X0203936Y0185273D01*
X0203895Y0185120D01*
X0203850Y0184968D01*
X0203801Y0184817D01*
X0203748Y0184668D01*
X0203692Y0184520D01*
X0203632Y0184374D01*
X0203568Y0184229D01*
X0203500Y0184086D01*
X0203429Y0183944D01*
X0203355Y0183804D01*
X0203277Y0183667D01*
X0203195Y0183531D01*
X0203111Y0183397D01*
X0203022Y0183266D01*
X0202931Y0183137D01*
X0202836Y0183010D01*
X0202739Y0182885D01*
X0202638Y0182763D01*
X0202534Y0182644D01*
X0202427Y0182527D01*
X0202317Y0182413D01*
X0202204Y0182302D01*
X0202089Y0182193D01*
X0201971Y0182088D01*
X0201850Y0181986D01*
X0201727Y0181886D01*
X0201601Y0181790D01*
X0201473Y0181697D01*
X0201343Y0181607D01*
X0201210Y0181521D01*
X0201075Y0181437D01*
X0200939Y0181358D01*
X0200800Y0181281D01*
X0200659Y0181209D01*
X0200517Y0181139D01*
X0200373Y0181074D01*
X0200227Y0181012D01*
X0200080Y0180954D01*
X0199931Y0180899D01*
X0199781Y0180848D01*
X0199630Y0180801D01*
X0199478Y0180758D01*
X0199325Y0180719D01*
X0199170Y0180683D01*
X0199015Y0180652D01*
X0198859Y0180624D01*
X0198703Y0180600D01*
X0198546Y0180580D01*
X0198388Y0180564D01*
X0198231Y0180552D01*
X0198072Y0180544D01*
X0197914Y0180540D01*
X0197756Y0180540D01*
X0197598Y0180544D01*
X0197439Y0180552D01*
X0197282Y0180564D01*
X0197124Y0180580D01*
X0196967Y0180600D01*
X0196811Y0180624D01*
X0196655Y0180652D01*
X0196500Y0180683D01*
X0196345Y0180719D01*
X0196192Y0180758D01*
X0196040Y0180801D01*
X0195889Y0180848D01*
X0195739Y0180899D01*
X0195590Y0180954D01*
X0195443Y0181012D01*
X0195297Y0181074D01*
X0195153Y0181139D01*
X0195011Y0181209D01*
X0194870Y0181281D01*
X0194731Y0181358D01*
X0194595Y0181437D01*
X0194460Y0181521D01*
X0194327Y0181607D01*
X0194197Y0181697D01*
X0194069Y0181790D01*
X0193943Y0181886D01*
X0193820Y0181986D01*
X0193699Y0182088D01*
X0193581Y0182193D01*
X0193466Y0182302D01*
X0193353Y0182413D01*
X0193243Y0182527D01*
X0193136Y0182644D01*
X0193032Y0182763D01*
X0192931Y0182885D01*
X0192834Y0183010D01*
X0192739Y0183137D01*
X0192648Y0183266D01*
X0192559Y0183397D01*
X0192475Y0183531D01*
X0192393Y0183667D01*
X0192315Y0183804D01*
X0192241Y0183944D01*
X0192170Y0184086D01*
X0192102Y0184229D01*
X0192038Y0184374D01*
X0191978Y0184520D01*
X0191922Y0184668D01*
X0191869Y0184817D01*
X0191820Y0184968D01*
X0191775Y0185120D01*
X0191734Y0185273D01*
X0191696Y0185426D01*
X0191663Y0185581D01*
X0191633Y0185737D01*
X0191607Y0185893D01*
X0191586Y0186050D01*
X0191568Y0186207D01*
X0191554Y0186365D01*
X0191544Y0186523D01*
X0191538Y0186681D01*
X0191536Y0186839D01*
X0197835Y0198650D02*
X0198120Y0198647D01*
X0198406Y0198636D01*
X0198691Y0198619D01*
X0198975Y0198595D01*
X0199259Y0198564D01*
X0199542Y0198526D01*
X0199823Y0198481D01*
X0200104Y0198430D01*
X0200384Y0198372D01*
X0200662Y0198307D01*
X0200938Y0198235D01*
X0201212Y0198157D01*
X0201485Y0198072D01*
X0201755Y0197980D01*
X0202023Y0197882D01*
X0202289Y0197778D01*
X0202552Y0197667D01*
X0202812Y0197550D01*
X0203070Y0197427D01*
X0203324Y0197297D01*
X0203575Y0197161D01*
X0203823Y0197020D01*
X0204067Y0196872D01*
X0204308Y0196719D01*
X0204544Y0196559D01*
X0204777Y0196394D01*
X0205006Y0196224D01*
X0205231Y0196048D01*
X0205451Y0195866D01*
X0205667Y0195680D01*
X0205878Y0195488D01*
X0206085Y0195291D01*
X0206287Y0195089D01*
X0206484Y0194882D01*
X0206676Y0194671D01*
X0206862Y0194455D01*
X0207044Y0194235D01*
X0207220Y0194010D01*
X0207390Y0193781D01*
X0207555Y0193548D01*
X0207715Y0193312D01*
X0207868Y0193071D01*
X0208016Y0192827D01*
X0208157Y0192579D01*
X0208293Y0192328D01*
X0208423Y0192074D01*
X0208546Y0191816D01*
X0208663Y0191556D01*
X0208774Y0191293D01*
X0208878Y0191027D01*
X0208976Y0190759D01*
X0209068Y0190489D01*
X0209153Y0190216D01*
X0209231Y0189942D01*
X0209303Y0189666D01*
X0209368Y0189388D01*
X0209426Y0189108D01*
X0209477Y0188827D01*
X0209522Y0188546D01*
X0209560Y0188263D01*
X0209591Y0187979D01*
X0209615Y0187695D01*
X0209632Y0187410D01*
X0209643Y0187124D01*
X0209646Y0186839D01*
X0209646Y0013611D01*
X0191536Y0013611D02*
X0191538Y0013769D01*
X0191544Y0013927D01*
X0191554Y0014085D01*
X0191568Y0014243D01*
X0191586Y0014400D01*
X0191607Y0014557D01*
X0191633Y0014713D01*
X0191663Y0014869D01*
X0191696Y0015024D01*
X0191734Y0015177D01*
X0191775Y0015330D01*
X0191820Y0015482D01*
X0191869Y0015633D01*
X0191922Y0015782D01*
X0191978Y0015930D01*
X0192038Y0016076D01*
X0192102Y0016221D01*
X0192170Y0016364D01*
X0192241Y0016506D01*
X0192315Y0016646D01*
X0192393Y0016783D01*
X0192475Y0016919D01*
X0192559Y0017053D01*
X0192648Y0017184D01*
X0192739Y0017313D01*
X0192834Y0017440D01*
X0192931Y0017565D01*
X0193032Y0017687D01*
X0193136Y0017806D01*
X0193243Y0017923D01*
X0193353Y0018037D01*
X0193466Y0018148D01*
X0193581Y0018257D01*
X0193699Y0018362D01*
X0193820Y0018464D01*
X0193943Y0018564D01*
X0194069Y0018660D01*
X0194197Y0018753D01*
X0194327Y0018843D01*
X0194460Y0018929D01*
X0194595Y0019013D01*
X0194731Y0019092D01*
X0194870Y0019169D01*
X0195011Y0019241D01*
X0195153Y0019311D01*
X0195297Y0019376D01*
X0195443Y0019438D01*
X0195590Y0019496D01*
X0195739Y0019551D01*
X0195889Y0019602D01*
X0196040Y0019649D01*
X0196192Y0019692D01*
X0196345Y0019731D01*
X0196500Y0019767D01*
X0196655Y0019798D01*
X0196811Y0019826D01*
X0196967Y0019850D01*
X0197124Y0019870D01*
X0197282Y0019886D01*
X0197439Y0019898D01*
X0197598Y0019906D01*
X0197756Y0019910D01*
X0197914Y0019910D01*
X0198072Y0019906D01*
X0198231Y0019898D01*
X0198388Y0019886D01*
X0198546Y0019870D01*
X0198703Y0019850D01*
X0198859Y0019826D01*
X0199015Y0019798D01*
X0199170Y0019767D01*
X0199325Y0019731D01*
X0199478Y0019692D01*
X0199630Y0019649D01*
X0199781Y0019602D01*
X0199931Y0019551D01*
X0200080Y0019496D01*
X0200227Y0019438D01*
X0200373Y0019376D01*
X0200517Y0019311D01*
X0200659Y0019241D01*
X0200800Y0019169D01*
X0200939Y0019092D01*
X0201075Y0019013D01*
X0201210Y0018929D01*
X0201343Y0018843D01*
X0201473Y0018753D01*
X0201601Y0018660D01*
X0201727Y0018564D01*
X0201850Y0018464D01*
X0201971Y0018362D01*
X0202089Y0018257D01*
X0202204Y0018148D01*
X0202317Y0018037D01*
X0202427Y0017923D01*
X0202534Y0017806D01*
X0202638Y0017687D01*
X0202739Y0017565D01*
X0202836Y0017440D01*
X0202931Y0017313D01*
X0203022Y0017184D01*
X0203111Y0017053D01*
X0203195Y0016919D01*
X0203277Y0016783D01*
X0203355Y0016646D01*
X0203429Y0016506D01*
X0203500Y0016364D01*
X0203568Y0016221D01*
X0203632Y0016076D01*
X0203692Y0015930D01*
X0203748Y0015782D01*
X0203801Y0015633D01*
X0203850Y0015482D01*
X0203895Y0015330D01*
X0203936Y0015177D01*
X0203974Y0015024D01*
X0204007Y0014869D01*
X0204037Y0014713D01*
X0204063Y0014557D01*
X0204084Y0014400D01*
X0204102Y0014243D01*
X0204116Y0014085D01*
X0204126Y0013927D01*
X0204132Y0013769D01*
X0204134Y0013611D01*
X0204132Y0013453D01*
X0204126Y0013295D01*
X0204116Y0013137D01*
X0204102Y0012979D01*
X0204084Y0012822D01*
X0204063Y0012665D01*
X0204037Y0012509D01*
X0204007Y0012353D01*
X0203974Y0012198D01*
X0203936Y0012045D01*
X0203895Y0011892D01*
X0203850Y0011740D01*
X0203801Y0011589D01*
X0203748Y0011440D01*
X0203692Y0011292D01*
X0203632Y0011146D01*
X0203568Y0011001D01*
X0203500Y0010858D01*
X0203429Y0010716D01*
X0203355Y0010576D01*
X0203277Y0010439D01*
X0203195Y0010303D01*
X0203111Y0010169D01*
X0203022Y0010038D01*
X0202931Y0009909D01*
X0202836Y0009782D01*
X0202739Y0009657D01*
X0202638Y0009535D01*
X0202534Y0009416D01*
X0202427Y0009299D01*
X0202317Y0009185D01*
X0202204Y0009074D01*
X0202089Y0008965D01*
X0201971Y0008860D01*
X0201850Y0008758D01*
X0201727Y0008658D01*
X0201601Y0008562D01*
X0201473Y0008469D01*
X0201343Y0008379D01*
X0201210Y0008293D01*
X0201075Y0008209D01*
X0200939Y0008130D01*
X0200800Y0008053D01*
X0200659Y0007981D01*
X0200517Y0007911D01*
X0200373Y0007846D01*
X0200227Y0007784D01*
X0200080Y0007726D01*
X0199931Y0007671D01*
X0199781Y0007620D01*
X0199630Y0007573D01*
X0199478Y0007530D01*
X0199325Y0007491D01*
X0199170Y0007455D01*
X0199015Y0007424D01*
X0198859Y0007396D01*
X0198703Y0007372D01*
X0198546Y0007352D01*
X0198388Y0007336D01*
X0198231Y0007324D01*
X0198072Y0007316D01*
X0197914Y0007312D01*
X0197756Y0007312D01*
X0197598Y0007316D01*
X0197439Y0007324D01*
X0197282Y0007336D01*
X0197124Y0007352D01*
X0196967Y0007372D01*
X0196811Y0007396D01*
X0196655Y0007424D01*
X0196500Y0007455D01*
X0196345Y0007491D01*
X0196192Y0007530D01*
X0196040Y0007573D01*
X0195889Y0007620D01*
X0195739Y0007671D01*
X0195590Y0007726D01*
X0195443Y0007784D01*
X0195297Y0007846D01*
X0195153Y0007911D01*
X0195011Y0007981D01*
X0194870Y0008053D01*
X0194731Y0008130D01*
X0194595Y0008209D01*
X0194460Y0008293D01*
X0194327Y0008379D01*
X0194197Y0008469D01*
X0194069Y0008562D01*
X0193943Y0008658D01*
X0193820Y0008758D01*
X0193699Y0008860D01*
X0193581Y0008965D01*
X0193466Y0009074D01*
X0193353Y0009185D01*
X0193243Y0009299D01*
X0193136Y0009416D01*
X0193032Y0009535D01*
X0192931Y0009657D01*
X0192834Y0009782D01*
X0192739Y0009909D01*
X0192648Y0010038D01*
X0192559Y0010169D01*
X0192475Y0010303D01*
X0192393Y0010439D01*
X0192315Y0010576D01*
X0192241Y0010716D01*
X0192170Y0010858D01*
X0192102Y0011001D01*
X0192038Y0011146D01*
X0191978Y0011292D01*
X0191922Y0011440D01*
X0191869Y0011589D01*
X0191820Y0011740D01*
X0191775Y0011892D01*
X0191734Y0012045D01*
X0191696Y0012198D01*
X0191663Y0012353D01*
X0191633Y0012509D01*
X0191607Y0012665D01*
X0191586Y0012822D01*
X0191568Y0012979D01*
X0191554Y0013137D01*
X0191544Y0013295D01*
X0191538Y0013453D01*
X0191536Y0013611D01*
X0197835Y0001800D02*
X0198120Y0001803D01*
X0198406Y0001814D01*
X0198691Y0001831D01*
X0198975Y0001855D01*
X0199259Y0001886D01*
X0199542Y0001924D01*
X0199823Y0001969D01*
X0200104Y0002020D01*
X0200384Y0002078D01*
X0200662Y0002143D01*
X0200938Y0002215D01*
X0201212Y0002293D01*
X0201485Y0002378D01*
X0201755Y0002470D01*
X0202023Y0002568D01*
X0202289Y0002672D01*
X0202552Y0002783D01*
X0202812Y0002900D01*
X0203070Y0003023D01*
X0203324Y0003153D01*
X0203575Y0003289D01*
X0203823Y0003430D01*
X0204067Y0003578D01*
X0204308Y0003731D01*
X0204544Y0003891D01*
X0204777Y0004056D01*
X0205006Y0004226D01*
X0205231Y0004402D01*
X0205451Y0004584D01*
X0205667Y0004770D01*
X0205878Y0004962D01*
X0206085Y0005159D01*
X0206287Y0005361D01*
X0206484Y0005568D01*
X0206676Y0005779D01*
X0206862Y0005995D01*
X0207044Y0006215D01*
X0207220Y0006440D01*
X0207390Y0006669D01*
X0207555Y0006902D01*
X0207715Y0007138D01*
X0207868Y0007379D01*
X0208016Y0007623D01*
X0208157Y0007871D01*
X0208293Y0008122D01*
X0208423Y0008376D01*
X0208546Y0008634D01*
X0208663Y0008894D01*
X0208774Y0009157D01*
X0208878Y0009423D01*
X0208976Y0009691D01*
X0209068Y0009961D01*
X0209153Y0010234D01*
X0209231Y0010508D01*
X0209303Y0010784D01*
X0209368Y0011062D01*
X0209426Y0011342D01*
X0209477Y0011623D01*
X0209522Y0011904D01*
X0209560Y0012187D01*
X0209591Y0012471D01*
X0209615Y0012755D01*
X0209632Y0013040D01*
X0209643Y0013326D01*
X0209646Y0013611D01*
X0197835Y0001800D02*
X0024607Y0001800D01*
X0018308Y0013611D02*
X0018310Y0013769D01*
X0018316Y0013927D01*
X0018326Y0014085D01*
X0018340Y0014243D01*
X0018358Y0014400D01*
X0018379Y0014557D01*
X0018405Y0014713D01*
X0018435Y0014869D01*
X0018468Y0015024D01*
X0018506Y0015177D01*
X0018547Y0015330D01*
X0018592Y0015482D01*
X0018641Y0015633D01*
X0018694Y0015782D01*
X0018750Y0015930D01*
X0018810Y0016076D01*
X0018874Y0016221D01*
X0018942Y0016364D01*
X0019013Y0016506D01*
X0019087Y0016646D01*
X0019165Y0016783D01*
X0019247Y0016919D01*
X0019331Y0017053D01*
X0019420Y0017184D01*
X0019511Y0017313D01*
X0019606Y0017440D01*
X0019703Y0017565D01*
X0019804Y0017687D01*
X0019908Y0017806D01*
X0020015Y0017923D01*
X0020125Y0018037D01*
X0020238Y0018148D01*
X0020353Y0018257D01*
X0020471Y0018362D01*
X0020592Y0018464D01*
X0020715Y0018564D01*
X0020841Y0018660D01*
X0020969Y0018753D01*
X0021099Y0018843D01*
X0021232Y0018929D01*
X0021367Y0019013D01*
X0021503Y0019092D01*
X0021642Y0019169D01*
X0021783Y0019241D01*
X0021925Y0019311D01*
X0022069Y0019376D01*
X0022215Y0019438D01*
X0022362Y0019496D01*
X0022511Y0019551D01*
X0022661Y0019602D01*
X0022812Y0019649D01*
X0022964Y0019692D01*
X0023117Y0019731D01*
X0023272Y0019767D01*
X0023427Y0019798D01*
X0023583Y0019826D01*
X0023739Y0019850D01*
X0023896Y0019870D01*
X0024054Y0019886D01*
X0024211Y0019898D01*
X0024370Y0019906D01*
X0024528Y0019910D01*
X0024686Y0019910D01*
X0024844Y0019906D01*
X0025003Y0019898D01*
X0025160Y0019886D01*
X0025318Y0019870D01*
X0025475Y0019850D01*
X0025631Y0019826D01*
X0025787Y0019798D01*
X0025942Y0019767D01*
X0026097Y0019731D01*
X0026250Y0019692D01*
X0026402Y0019649D01*
X0026553Y0019602D01*
X0026703Y0019551D01*
X0026852Y0019496D01*
X0026999Y0019438D01*
X0027145Y0019376D01*
X0027289Y0019311D01*
X0027431Y0019241D01*
X0027572Y0019169D01*
X0027711Y0019092D01*
X0027847Y0019013D01*
X0027982Y0018929D01*
X0028115Y0018843D01*
X0028245Y0018753D01*
X0028373Y0018660D01*
X0028499Y0018564D01*
X0028622Y0018464D01*
X0028743Y0018362D01*
X0028861Y0018257D01*
X0028976Y0018148D01*
X0029089Y0018037D01*
X0029199Y0017923D01*
X0029306Y0017806D01*
X0029410Y0017687D01*
X0029511Y0017565D01*
X0029608Y0017440D01*
X0029703Y0017313D01*
X0029794Y0017184D01*
X0029883Y0017053D01*
X0029967Y0016919D01*
X0030049Y0016783D01*
X0030127Y0016646D01*
X0030201Y0016506D01*
X0030272Y0016364D01*
X0030340Y0016221D01*
X0030404Y0016076D01*
X0030464Y0015930D01*
X0030520Y0015782D01*
X0030573Y0015633D01*
X0030622Y0015482D01*
X0030667Y0015330D01*
X0030708Y0015177D01*
X0030746Y0015024D01*
X0030779Y0014869D01*
X0030809Y0014713D01*
X0030835Y0014557D01*
X0030856Y0014400D01*
X0030874Y0014243D01*
X0030888Y0014085D01*
X0030898Y0013927D01*
X0030904Y0013769D01*
X0030906Y0013611D01*
X0030904Y0013453D01*
X0030898Y0013295D01*
X0030888Y0013137D01*
X0030874Y0012979D01*
X0030856Y0012822D01*
X0030835Y0012665D01*
X0030809Y0012509D01*
X0030779Y0012353D01*
X0030746Y0012198D01*
X0030708Y0012045D01*
X0030667Y0011892D01*
X0030622Y0011740D01*
X0030573Y0011589D01*
X0030520Y0011440D01*
X0030464Y0011292D01*
X0030404Y0011146D01*
X0030340Y0011001D01*
X0030272Y0010858D01*
X0030201Y0010716D01*
X0030127Y0010576D01*
X0030049Y0010439D01*
X0029967Y0010303D01*
X0029883Y0010169D01*
X0029794Y0010038D01*
X0029703Y0009909D01*
X0029608Y0009782D01*
X0029511Y0009657D01*
X0029410Y0009535D01*
X0029306Y0009416D01*
X0029199Y0009299D01*
X0029089Y0009185D01*
X0028976Y0009074D01*
X0028861Y0008965D01*
X0028743Y0008860D01*
X0028622Y0008758D01*
X0028499Y0008658D01*
X0028373Y0008562D01*
X0028245Y0008469D01*
X0028115Y0008379D01*
X0027982Y0008293D01*
X0027847Y0008209D01*
X0027711Y0008130D01*
X0027572Y0008053D01*
X0027431Y0007981D01*
X0027289Y0007911D01*
X0027145Y0007846D01*
X0026999Y0007784D01*
X0026852Y0007726D01*
X0026703Y0007671D01*
X0026553Y0007620D01*
X0026402Y0007573D01*
X0026250Y0007530D01*
X0026097Y0007491D01*
X0025942Y0007455D01*
X0025787Y0007424D01*
X0025631Y0007396D01*
X0025475Y0007372D01*
X0025318Y0007352D01*
X0025160Y0007336D01*
X0025003Y0007324D01*
X0024844Y0007316D01*
X0024686Y0007312D01*
X0024528Y0007312D01*
X0024370Y0007316D01*
X0024211Y0007324D01*
X0024054Y0007336D01*
X0023896Y0007352D01*
X0023739Y0007372D01*
X0023583Y0007396D01*
X0023427Y0007424D01*
X0023272Y0007455D01*
X0023117Y0007491D01*
X0022964Y0007530D01*
X0022812Y0007573D01*
X0022661Y0007620D01*
X0022511Y0007671D01*
X0022362Y0007726D01*
X0022215Y0007784D01*
X0022069Y0007846D01*
X0021925Y0007911D01*
X0021783Y0007981D01*
X0021642Y0008053D01*
X0021503Y0008130D01*
X0021367Y0008209D01*
X0021232Y0008293D01*
X0021099Y0008379D01*
X0020969Y0008469D01*
X0020841Y0008562D01*
X0020715Y0008658D01*
X0020592Y0008758D01*
X0020471Y0008860D01*
X0020353Y0008965D01*
X0020238Y0009074D01*
X0020125Y0009185D01*
X0020015Y0009299D01*
X0019908Y0009416D01*
X0019804Y0009535D01*
X0019703Y0009657D01*
X0019606Y0009782D01*
X0019511Y0009909D01*
X0019420Y0010038D01*
X0019331Y0010169D01*
X0019247Y0010303D01*
X0019165Y0010439D01*
X0019087Y0010576D01*
X0019013Y0010716D01*
X0018942Y0010858D01*
X0018874Y0011001D01*
X0018810Y0011146D01*
X0018750Y0011292D01*
X0018694Y0011440D01*
X0018641Y0011589D01*
X0018592Y0011740D01*
X0018547Y0011892D01*
X0018506Y0012045D01*
X0018468Y0012198D01*
X0018435Y0012353D01*
X0018405Y0012509D01*
X0018379Y0012665D01*
X0018358Y0012822D01*
X0018340Y0012979D01*
X0018326Y0013137D01*
X0018316Y0013295D01*
X0018310Y0013453D01*
X0018308Y0013611D01*
X0012796Y0013611D02*
X0012799Y0013326D01*
X0012810Y0013040D01*
X0012827Y0012755D01*
X0012851Y0012471D01*
X0012882Y0012187D01*
X0012920Y0011904D01*
X0012965Y0011623D01*
X0013016Y0011342D01*
X0013074Y0011062D01*
X0013139Y0010784D01*
X0013211Y0010508D01*
X0013289Y0010234D01*
X0013374Y0009961D01*
X0013466Y0009691D01*
X0013564Y0009423D01*
X0013668Y0009157D01*
X0013779Y0008894D01*
X0013896Y0008634D01*
X0014019Y0008376D01*
X0014149Y0008122D01*
X0014285Y0007871D01*
X0014426Y0007623D01*
X0014574Y0007379D01*
X0014727Y0007138D01*
X0014887Y0006902D01*
X0015052Y0006669D01*
X0015222Y0006440D01*
X0015398Y0006215D01*
X0015580Y0005995D01*
X0015766Y0005779D01*
X0015958Y0005568D01*
X0016155Y0005361D01*
X0016357Y0005159D01*
X0016564Y0004962D01*
X0016775Y0004770D01*
X0016991Y0004584D01*
X0017211Y0004402D01*
X0017436Y0004226D01*
X0017665Y0004056D01*
X0017898Y0003891D01*
X0018134Y0003731D01*
X0018375Y0003578D01*
X0018619Y0003430D01*
X0018867Y0003289D01*
X0019118Y0003153D01*
X0019372Y0003023D01*
X0019630Y0002900D01*
X0019890Y0002783D01*
X0020153Y0002672D01*
X0020419Y0002568D01*
X0020687Y0002470D01*
X0020957Y0002378D01*
X0021230Y0002293D01*
X0021504Y0002215D01*
X0021780Y0002143D01*
X0022058Y0002078D01*
X0022338Y0002020D01*
X0022619Y0001969D01*
X0022900Y0001924D01*
X0023183Y0001886D01*
X0023467Y0001855D01*
X0023751Y0001831D01*
X0024036Y0001814D01*
X0024322Y0001803D01*
X0024607Y0001800D01*
D11*
X0069508Y0171775D02*
X0075846Y0171775D01*
X0076658Y0172587D02*
X0076658Y0178925D01*
D12*
X0073899Y0152216D02*
X0072632Y0152216D01*
X0071998Y0151582D01*
X0071998Y0149046D01*
X0072632Y0148413D01*
X0073899Y0148413D01*
X0074533Y0149046D01*
X0074533Y0151582D01*
X0073899Y0152216D01*
X0073266Y0149680D02*
X0071998Y0148413D01*
X0070390Y0149046D02*
X0069756Y0148413D01*
X0068488Y0148413D01*
X0067854Y0149046D01*
X0067854Y0149680D01*
X0068488Y0150314D01*
X0069122Y0150314D01*
X0068488Y0150314D02*
X0067854Y0150948D01*
X0067854Y0151582D01*
X0068488Y0152216D01*
X0069756Y0152216D01*
X0070390Y0151582D01*
X0077909Y0138266D02*
X0077909Y0134463D01*
X0079177Y0134463D02*
X0076641Y0134463D01*
X0079177Y0136998D02*
X0077909Y0138266D01*
X0082053Y0138266D02*
X0082053Y0134463D01*
X0083320Y0134463D02*
X0080785Y0134463D01*
X0083320Y0136998D02*
X0082053Y0138266D01*
X0084928Y0137632D02*
X0085562Y0138266D01*
X0086830Y0138266D01*
X0087464Y0137632D01*
X0087464Y0135096D01*
X0086830Y0134463D01*
X0085562Y0134463D01*
X0084928Y0135096D01*
X0095764Y0141400D02*
X0095764Y0142034D01*
X0093229Y0144569D01*
X0093229Y0145203D01*
X0095764Y0145203D01*
X0098640Y0145203D02*
X0098640Y0141400D01*
X0099908Y0141400D02*
X0097372Y0141400D01*
X0099908Y0143935D02*
X0098640Y0145203D01*
X0101516Y0144569D02*
X0102150Y0145203D01*
X0103418Y0145203D01*
X0104051Y0144569D01*
X0104051Y0142034D01*
X0103418Y0141400D01*
X0102150Y0141400D01*
X0101516Y0142034D01*
X0111816Y0142196D02*
X0111816Y0144732D01*
X0112450Y0145366D01*
X0113718Y0145366D01*
X0114352Y0144732D01*
X0114352Y0144098D01*
X0113718Y0143464D01*
X0111816Y0143464D01*
X0111816Y0142196D02*
X0112450Y0141563D01*
X0113718Y0141563D01*
X0114352Y0142196D01*
X0115960Y0142196D02*
X0116594Y0141563D01*
X0117861Y0141563D01*
X0118495Y0142196D01*
X0120103Y0141563D02*
X0121371Y0142830D01*
X0120737Y0142830D02*
X0122639Y0142830D01*
X0122639Y0141563D02*
X0122639Y0145366D01*
X0120737Y0145366D01*
X0120103Y0144732D01*
X0120103Y0143464D01*
X0120737Y0142830D01*
X0118495Y0144732D02*
X0117861Y0145366D01*
X0116594Y0145366D01*
X0115960Y0144732D01*
X0115960Y0144098D01*
X0116594Y0143464D01*
X0115960Y0142830D01*
X0115960Y0142196D01*
X0116594Y0143464D02*
X0117228Y0143464D01*
X0129020Y0132028D02*
X0130922Y0130127D01*
X0128386Y0130127D01*
X0129020Y0132028D02*
X0129020Y0128225D01*
X0132530Y0128225D02*
X0135065Y0128225D01*
X0132530Y0130760D01*
X0132530Y0131394D01*
X0133164Y0132028D01*
X0134431Y0132028D01*
X0135065Y0131394D01*
X0136673Y0131394D02*
X0136673Y0130760D01*
X0137307Y0130127D01*
X0136673Y0129493D01*
X0136673Y0128859D01*
X0137307Y0128225D01*
X0138575Y0128225D01*
X0139209Y0128859D01*
X0140817Y0128225D02*
X0140817Y0132028D01*
X0142084Y0130760D01*
X0143352Y0132028D01*
X0143352Y0128225D01*
X0144960Y0128225D02*
X0147496Y0128225D01*
X0147496Y0132028D01*
X0139209Y0131394D02*
X0138575Y0132028D01*
X0137307Y0132028D01*
X0136673Y0131394D01*
X0137307Y0130127D02*
X0137941Y0130127D01*
X0155486Y0116469D02*
X0155486Y0115835D01*
X0156120Y0115202D01*
X0155486Y0114568D01*
X0155486Y0113934D01*
X0156120Y0113300D01*
X0157387Y0113300D01*
X0158021Y0113934D01*
X0159629Y0113300D02*
X0162165Y0113300D01*
X0159629Y0115835D01*
X0159629Y0116469D01*
X0160263Y0117103D01*
X0161531Y0117103D01*
X0162165Y0116469D01*
X0163773Y0116469D02*
X0163773Y0115202D01*
X0164407Y0114568D01*
X0166308Y0114568D01*
X0165041Y0114568D02*
X0163773Y0113300D01*
X0166308Y0113300D02*
X0166308Y0117103D01*
X0164407Y0117103D01*
X0163773Y0116469D01*
X0158021Y0116469D02*
X0157387Y0117103D01*
X0156120Y0117103D01*
X0155486Y0116469D01*
X0156120Y0115202D02*
X0156753Y0115202D01*
X0174129Y0125671D02*
X0174763Y0125037D01*
X0176030Y0125037D01*
X0176664Y0125671D01*
X0176664Y0126305D01*
X0176030Y0126939D01*
X0174763Y0126939D01*
X0174129Y0126305D01*
X0174129Y0125671D01*
X0174763Y0126939D02*
X0174129Y0127573D01*
X0174129Y0128207D01*
X0174763Y0128841D01*
X0176030Y0128841D01*
X0176664Y0128207D01*
X0176664Y0127573D01*
X0176030Y0126939D01*
X0178272Y0125671D02*
X0178906Y0125037D01*
X0180174Y0125037D01*
X0180808Y0125671D01*
X0180808Y0128207D01*
X0180174Y0128841D01*
X0178906Y0128841D01*
X0178272Y0128207D01*
X0177657Y0143250D02*
X0178924Y0143250D01*
X0179558Y0143884D01*
X0178924Y0145152D02*
X0179558Y0145785D01*
X0179558Y0146419D01*
X0178924Y0147053D01*
X0177657Y0147053D01*
X0177023Y0146419D01*
X0177657Y0145152D02*
X0177023Y0144518D01*
X0177023Y0143884D01*
X0177657Y0143250D01*
X0177657Y0145152D02*
X0178924Y0145152D01*
X0175415Y0145152D02*
X0172879Y0145152D01*
X0172879Y0145785D02*
X0172879Y0143250D01*
X0171271Y0143250D02*
X0171271Y0147053D01*
X0168736Y0147053D01*
X0167128Y0147053D02*
X0167128Y0143250D01*
X0164592Y0143250D01*
X0165860Y0145152D02*
X0167128Y0145152D01*
X0167128Y0147053D02*
X0164592Y0147053D01*
X0162984Y0147053D02*
X0160449Y0147053D01*
X0161716Y0147053D02*
X0161716Y0143250D01*
X0157573Y0143250D02*
X0157573Y0145152D01*
X0156305Y0146419D01*
X0156305Y0147053D01*
X0157573Y0145152D02*
X0158841Y0146419D01*
X0158841Y0147053D01*
X0170003Y0145152D02*
X0171271Y0145152D01*
X0172879Y0145785D02*
X0174147Y0147053D01*
X0175415Y0145785D01*
X0175415Y0143250D01*
X0192273Y0154971D02*
X0192907Y0154338D01*
X0194175Y0154338D01*
X0194809Y0154971D01*
X0194809Y0155605D01*
X0194175Y0156239D01*
X0192907Y0156239D01*
X0192273Y0155605D01*
X0192273Y0154971D01*
X0192907Y0156239D02*
X0192273Y0156873D01*
X0192273Y0157507D01*
X0192907Y0158141D01*
X0194175Y0158141D01*
X0194809Y0157507D01*
X0194809Y0156873D01*
X0194175Y0156239D01*
X0196417Y0156873D02*
X0196417Y0157507D01*
X0197051Y0158141D01*
X0198318Y0158141D01*
X0198952Y0157507D01*
X0200560Y0157507D02*
X0200560Y0156239D01*
X0201194Y0155605D01*
X0203096Y0155605D01*
X0203096Y0154338D02*
X0203096Y0158141D01*
X0201194Y0158141D01*
X0200560Y0157507D01*
X0201828Y0155605D02*
X0200560Y0154338D01*
X0198952Y0154338D02*
X0196417Y0156873D01*
X0196417Y0154338D02*
X0198952Y0154338D01*
X0201503Y0152391D02*
X0201503Y0148588D01*
X0202770Y0148588D02*
X0200235Y0148588D01*
X0198627Y0149221D02*
X0197993Y0148588D01*
X0196725Y0148588D01*
X0196091Y0149221D01*
X0196091Y0149855D01*
X0196725Y0150489D01*
X0198627Y0150489D01*
X0198627Y0149221D01*
X0198627Y0150489D02*
X0197359Y0151757D01*
X0196091Y0152391D01*
X0201503Y0152391D02*
X0202770Y0151123D01*
X0204378Y0151757D02*
X0205012Y0152391D01*
X0206280Y0152391D01*
X0206914Y0151757D01*
X0206914Y0149221D01*
X0206280Y0148588D01*
X0205012Y0148588D01*
X0204378Y0149221D01*
X0187039Y0162138D02*
X0187039Y0165941D01*
X0185137Y0165941D01*
X0184503Y0165307D01*
X0184503Y0164039D01*
X0185137Y0163405D01*
X0187039Y0163405D01*
X0185771Y0163405D02*
X0184503Y0162138D01*
X0182895Y0162771D02*
X0182261Y0162138D01*
X0180994Y0162138D01*
X0180360Y0162771D01*
X0180360Y0163405D01*
X0180994Y0164039D01*
X0181628Y0164039D01*
X0180994Y0164039D02*
X0180360Y0164673D01*
X0180360Y0165307D01*
X0180994Y0165941D01*
X0182261Y0165941D01*
X0182895Y0165307D01*
X0178752Y0165941D02*
X0178752Y0164039D01*
X0177484Y0164673D01*
X0176850Y0164673D01*
X0176216Y0164039D01*
X0176216Y0162771D01*
X0176850Y0162138D01*
X0178118Y0162138D01*
X0178752Y0162771D01*
X0178752Y0165941D02*
X0176216Y0165941D01*
X0198671Y0116048D02*
X0198671Y0113512D01*
X0201206Y0116048D01*
X0201840Y0116048D01*
X0202474Y0115414D01*
X0202474Y0114146D01*
X0201840Y0113512D01*
X0201840Y0111904D02*
X0202474Y0111270D01*
X0202474Y0110002D01*
X0201840Y0109369D01*
X0201840Y0107760D02*
X0200572Y0107760D01*
X0199939Y0107127D01*
X0199939Y0105225D01*
X0199939Y0106493D02*
X0198671Y0107760D01*
X0198671Y0109369D02*
X0201206Y0111904D01*
X0201840Y0111904D01*
X0198671Y0111904D02*
X0198671Y0109369D01*
X0201840Y0107760D02*
X0202474Y0107127D01*
X0202474Y0105225D01*
X0198671Y0105225D01*
X0199955Y0098992D02*
X0199321Y0098358D01*
X0199321Y0097090D01*
X0199955Y0096456D01*
X0202490Y0098992D01*
X0199955Y0098992D01*
X0202490Y0098992D02*
X0203124Y0098358D01*
X0203124Y0097090D01*
X0202490Y0096456D01*
X0199955Y0096456D01*
X0199321Y0094848D02*
X0199321Y0092313D01*
X0201856Y0094848D01*
X0202490Y0094848D01*
X0203124Y0094215D01*
X0203124Y0092947D01*
X0202490Y0092313D01*
X0202490Y0090705D02*
X0201222Y0090705D01*
X0200589Y0090071D01*
X0200589Y0088169D01*
X0200589Y0089437D02*
X0199321Y0090705D01*
X0202490Y0090705D02*
X0203124Y0090071D01*
X0203124Y0088169D01*
X0199321Y0088169D01*
X0195371Y0087946D02*
X0195371Y0090482D01*
X0194737Y0091116D01*
X0193469Y0091116D01*
X0192835Y0090482D01*
X0191227Y0091116D02*
X0188692Y0091116D01*
X0188692Y0090482D01*
X0191227Y0087946D01*
X0191227Y0087312D01*
X0192835Y0087946D02*
X0193469Y0087312D01*
X0194737Y0087312D01*
X0195371Y0087946D01*
X0182546Y0076828D02*
X0180644Y0076828D01*
X0180010Y0076194D01*
X0180010Y0074927D01*
X0180644Y0074293D01*
X0182546Y0074293D01*
X0181278Y0074293D02*
X0180010Y0073025D01*
X0178402Y0073025D02*
X0175867Y0075560D01*
X0175867Y0076194D01*
X0176501Y0076828D01*
X0177768Y0076828D01*
X0178402Y0076194D01*
X0178402Y0073025D02*
X0175867Y0073025D01*
X0174259Y0073025D02*
X0171723Y0073025D01*
X0172991Y0073025D02*
X0172991Y0076828D01*
X0174259Y0075560D01*
X0173188Y0070166D02*
X0175090Y0068264D01*
X0172554Y0068264D01*
X0173188Y0066363D02*
X0173188Y0070166D01*
X0176698Y0069532D02*
X0177332Y0070166D01*
X0178599Y0070166D01*
X0179233Y0069532D01*
X0179233Y0066996D01*
X0178599Y0066363D01*
X0177332Y0066363D01*
X0176698Y0066996D01*
X0182546Y0073025D02*
X0182546Y0076828D01*
X0189679Y0072019D02*
X0189679Y0071385D01*
X0192215Y0068850D01*
X0189679Y0068850D01*
X0189679Y0072019D02*
X0190313Y0072653D01*
X0191581Y0072653D01*
X0192215Y0072019D01*
X0196358Y0072653D02*
X0196358Y0068850D01*
X0193823Y0068850D01*
X0201671Y0049348D02*
X0204206Y0049348D01*
X0205474Y0048080D01*
X0204206Y0046812D01*
X0201671Y0046812D01*
X0203572Y0046812D02*
X0203572Y0049348D01*
X0203572Y0045204D02*
X0202939Y0044570D01*
X0202939Y0042669D01*
X0201671Y0042669D02*
X0205474Y0042669D01*
X0205474Y0044570D01*
X0204840Y0045204D01*
X0203572Y0045204D01*
X0202305Y0041060D02*
X0204840Y0041060D01*
X0205474Y0040427D01*
X0205474Y0039159D01*
X0204840Y0038525D01*
X0202305Y0038525D01*
X0201671Y0039159D01*
X0201671Y0040427D01*
X0202305Y0041060D01*
X0202389Y0032328D02*
X0200487Y0032328D01*
X0199853Y0031694D01*
X0199853Y0030427D01*
X0200487Y0029793D01*
X0202389Y0029793D01*
X0201121Y0029793D02*
X0199853Y0028525D01*
X0198245Y0028525D02*
X0195710Y0028525D01*
X0196978Y0028525D02*
X0196978Y0032328D01*
X0198245Y0031060D01*
X0194102Y0032328D02*
X0191566Y0032328D01*
X0191566Y0031694D01*
X0194102Y0029159D01*
X0194102Y0028525D01*
X0202389Y0028525D02*
X0202389Y0032328D01*
X0187621Y0016385D02*
X0186353Y0017653D01*
X0186353Y0013850D01*
X0187621Y0013850D02*
X0185085Y0013850D01*
X0165076Y0028850D02*
X0165076Y0032653D01*
X0163175Y0032653D01*
X0162541Y0032019D01*
X0162541Y0030752D01*
X0163175Y0030118D01*
X0165076Y0030118D01*
X0163809Y0030118D02*
X0162541Y0028850D01*
X0160933Y0028850D02*
X0158397Y0028850D01*
X0159665Y0028850D02*
X0159665Y0032653D01*
X0160933Y0031385D01*
X0159712Y0034450D02*
X0159712Y0036352D01*
X0159078Y0036985D01*
X0157810Y0036985D01*
X0157176Y0036352D01*
X0157176Y0034450D01*
X0155908Y0034450D02*
X0159712Y0034450D01*
X0157176Y0035718D02*
X0155908Y0036985D01*
X0155908Y0038594D02*
X0155908Y0041129D01*
X0155908Y0039861D02*
X0159712Y0039861D01*
X0158444Y0038594D01*
X0157810Y0042737D02*
X0157810Y0044639D01*
X0157176Y0045273D01*
X0156542Y0045273D01*
X0155908Y0044639D01*
X0155908Y0043371D01*
X0156542Y0042737D01*
X0157810Y0042737D01*
X0159078Y0044005D01*
X0159712Y0045273D01*
X0152746Y0044853D02*
X0152746Y0041050D01*
X0152746Y0042318D02*
X0150844Y0042318D01*
X0150210Y0042952D01*
X0150210Y0044219D01*
X0150844Y0044853D01*
X0152746Y0044853D01*
X0151478Y0042318D02*
X0150210Y0041050D01*
X0148602Y0041050D02*
X0146067Y0041050D01*
X0147334Y0041050D02*
X0147334Y0044853D01*
X0148602Y0043585D01*
X0144459Y0042952D02*
X0143191Y0043585D01*
X0142557Y0043585D01*
X0141923Y0042952D01*
X0141923Y0041684D01*
X0142557Y0041050D01*
X0143825Y0041050D01*
X0144459Y0041684D01*
X0144459Y0042952D02*
X0144459Y0044853D01*
X0141923Y0044853D01*
X0142557Y0039491D02*
X0144459Y0037589D01*
X0141923Y0037589D01*
X0142557Y0035688D02*
X0142557Y0039491D01*
X0146067Y0035688D02*
X0148602Y0035688D01*
X0147334Y0035688D02*
X0147334Y0039491D01*
X0148602Y0038223D01*
X0150210Y0038857D02*
X0150844Y0039491D01*
X0152746Y0039491D01*
X0152746Y0035688D01*
X0152746Y0036955D02*
X0150844Y0036955D01*
X0150210Y0037589D01*
X0150210Y0038857D01*
X0151478Y0036955D02*
X0150210Y0035688D01*
X0154254Y0032019D02*
X0154888Y0032653D01*
X0156155Y0032653D01*
X0156789Y0032019D01*
X0156789Y0031385D01*
X0156155Y0030752D01*
X0154254Y0030752D01*
X0154254Y0032019D02*
X0154254Y0029484D01*
X0154888Y0028850D01*
X0156155Y0028850D01*
X0156789Y0029484D01*
X0164292Y0058838D02*
X0163658Y0059472D01*
X0163658Y0060740D01*
X0164292Y0061373D01*
X0164292Y0062981D02*
X0163658Y0063615D01*
X0163658Y0064883D01*
X0164292Y0065517D01*
X0165560Y0065517D01*
X0166194Y0064883D01*
X0166194Y0064249D01*
X0165560Y0062981D01*
X0167462Y0062981D01*
X0167462Y0065517D01*
X0166828Y0061373D02*
X0167462Y0060740D01*
X0167462Y0059472D01*
X0166828Y0058838D01*
X0164292Y0058838D01*
X0157196Y0059500D02*
X0157196Y0063303D01*
X0155294Y0063303D01*
X0154660Y0062669D01*
X0154660Y0061402D01*
X0155294Y0060768D01*
X0157196Y0060768D01*
X0153052Y0059500D02*
X0151784Y0060768D01*
X0150517Y0059500D01*
X0150517Y0063303D01*
X0148909Y0063303D02*
X0148909Y0059500D01*
X0148909Y0060768D02*
X0147007Y0060768D01*
X0146373Y0061402D01*
X0146373Y0062669D01*
X0147007Y0063303D01*
X0148909Y0063303D01*
X0147641Y0060768D02*
X0146373Y0059500D01*
X0144765Y0061402D02*
X0142230Y0061402D01*
X0140622Y0062669D02*
X0139988Y0063303D01*
X0138720Y0063303D01*
X0138086Y0062669D01*
X0138086Y0060134D01*
X0138720Y0059500D01*
X0139988Y0059500D01*
X0140622Y0060134D01*
X0140622Y0062669D01*
X0139354Y0060768D02*
X0138086Y0059500D01*
X0136478Y0059500D02*
X0133943Y0059500D01*
X0135210Y0059500D02*
X0135210Y0063303D01*
X0136478Y0062035D01*
X0137695Y0067888D02*
X0138962Y0067888D01*
X0139596Y0068521D01*
X0141204Y0067888D02*
X0143740Y0067888D01*
X0142472Y0067888D02*
X0142472Y0071691D01*
X0143740Y0070423D01*
X0145348Y0069789D02*
X0145982Y0069155D01*
X0147883Y0069155D01*
X0146616Y0069155D02*
X0145348Y0067888D01*
X0145348Y0069789D02*
X0145348Y0071057D01*
X0145982Y0071691D01*
X0147883Y0071691D01*
X0147883Y0067888D01*
X0153052Y0063303D02*
X0153052Y0059500D01*
X0139596Y0071057D02*
X0138962Y0071691D01*
X0137695Y0071691D01*
X0137061Y0071057D01*
X0137061Y0070423D01*
X0137695Y0069789D01*
X0137061Y0069155D01*
X0137061Y0068521D01*
X0137695Y0067888D01*
X0137695Y0069789D02*
X0138328Y0069789D01*
X0135512Y0083988D02*
X0135512Y0086523D01*
X0135512Y0085255D02*
X0131708Y0085255D01*
X0131708Y0088131D02*
X0135512Y0088131D01*
X0135512Y0090033D01*
X0134878Y0090667D01*
X0133610Y0090667D01*
X0132976Y0090033D01*
X0132976Y0088131D01*
X0135512Y0092275D02*
X0135512Y0094810D01*
X0135512Y0093542D02*
X0131708Y0093542D01*
X0131708Y0096418D02*
X0131708Y0098954D01*
X0131708Y0100562D02*
X0135512Y0100562D01*
X0134244Y0101829D01*
X0135512Y0103097D01*
X0131708Y0103097D01*
X0131708Y0104705D02*
X0135512Y0104705D01*
X0135512Y0106607D01*
X0134878Y0107241D01*
X0133610Y0107241D01*
X0132976Y0106607D01*
X0132976Y0104705D01*
X0135512Y0098954D02*
X0135512Y0096418D01*
X0131708Y0096418D01*
X0133610Y0096418D02*
X0133610Y0097686D01*
X0102349Y0113262D02*
X0098546Y0113262D01*
X0098546Y0115798D01*
X0098546Y0117406D02*
X0098546Y0119942D01*
X0098546Y0118674D02*
X0102349Y0118674D01*
X0101081Y0117406D01*
X0063533Y0113882D02*
X0063533Y0111346D01*
X0062899Y0110712D01*
X0061631Y0110712D01*
X0060997Y0111346D01*
X0060997Y0113882D01*
X0061631Y0114516D01*
X0062899Y0114516D01*
X0063533Y0113882D01*
X0062265Y0111980D02*
X0060997Y0110712D01*
X0059389Y0110712D02*
X0056854Y0110712D01*
X0058122Y0110712D02*
X0058122Y0114516D01*
X0059389Y0113248D01*
X0048762Y0148900D02*
X0049396Y0149534D01*
X0049396Y0152069D01*
X0048762Y0152703D01*
X0047494Y0152703D01*
X0046860Y0152069D01*
X0046860Y0149534D01*
X0047494Y0148900D01*
X0048762Y0148900D01*
X0048128Y0150168D02*
X0046860Y0148900D01*
X0045252Y0148900D02*
X0042717Y0151435D01*
X0042717Y0152069D01*
X0043351Y0152703D01*
X0044618Y0152703D01*
X0045252Y0152069D01*
X0045252Y0148900D02*
X0042717Y0148900D01*
X0109748Y0158521D02*
X0110382Y0157888D01*
X0111650Y0157888D01*
X0112284Y0158521D01*
X0109748Y0161057D01*
X0109748Y0158521D01*
X0112284Y0158521D02*
X0112284Y0161057D01*
X0111650Y0161691D01*
X0110382Y0161691D01*
X0109748Y0161057D01*
X0113892Y0159789D02*
X0116427Y0159789D01*
X0114526Y0161691D01*
X0114526Y0157888D01*
X0118035Y0157888D02*
X0119303Y0159155D01*
X0118669Y0159155D02*
X0120571Y0159155D01*
X0120571Y0157888D02*
X0120571Y0161691D01*
X0118669Y0161691D01*
X0118035Y0161057D01*
X0118035Y0159789D01*
X0118669Y0159155D01*
X0052665Y0070817D02*
X0052031Y0070817D01*
X0051397Y0070183D01*
X0050764Y0070817D01*
X0050130Y0070817D01*
X0049496Y0070183D01*
X0049496Y0068915D01*
X0050130Y0068281D01*
X0049496Y0066673D02*
X0049496Y0064138D01*
X0049496Y0065406D02*
X0053299Y0065406D01*
X0052031Y0064138D01*
X0052665Y0062530D02*
X0053299Y0061896D01*
X0053299Y0060628D01*
X0052665Y0059994D01*
X0050130Y0059994D01*
X0049496Y0060628D01*
X0049496Y0061896D01*
X0050130Y0062530D01*
X0052665Y0068281D02*
X0053299Y0068915D01*
X0053299Y0070183D01*
X0052665Y0070817D01*
X0051397Y0070183D02*
X0051397Y0069549D01*
X0032555Y0030603D02*
X0031287Y0030603D01*
X0030653Y0029969D01*
X0029045Y0029335D02*
X0027778Y0030603D01*
X0027778Y0026800D01*
X0029045Y0026800D02*
X0026510Y0026800D01*
X0024902Y0028702D02*
X0022366Y0028702D01*
X0023000Y0030603D02*
X0023000Y0026800D01*
X0024902Y0028702D02*
X0023000Y0030603D01*
X0030653Y0027434D02*
X0031287Y0026800D01*
X0032555Y0026800D01*
X0033189Y0027434D01*
X0033189Y0029969D01*
X0032555Y0030603D01*
X0043688Y0010853D02*
X0043054Y0010219D01*
X0043054Y0009585D01*
X0043688Y0008952D01*
X0043054Y0008318D01*
X0043054Y0007684D01*
X0043688Y0007050D01*
X0044956Y0007050D01*
X0045590Y0007684D01*
X0047198Y0007684D02*
X0047832Y0007050D01*
X0049099Y0007050D01*
X0049733Y0007684D01*
X0049733Y0010219D01*
X0049099Y0010853D01*
X0047832Y0010853D01*
X0047198Y0010219D01*
X0045590Y0010219D02*
X0044956Y0010853D01*
X0043688Y0010853D01*
X0043688Y0008952D02*
X0044322Y0008952D01*
X0089716Y0006769D02*
X0089716Y0006135D01*
X0090350Y0005502D01*
X0091618Y0005502D01*
X0092252Y0006135D01*
X0092252Y0006769D01*
X0091618Y0007403D01*
X0090350Y0007403D01*
X0089716Y0006769D01*
X0090350Y0005502D02*
X0089716Y0004868D01*
X0089716Y0004234D01*
X0090350Y0003600D01*
X0091618Y0003600D01*
X0092252Y0004234D01*
X0092252Y0004868D01*
X0091618Y0005502D01*
X0093860Y0006135D02*
X0093860Y0006769D01*
X0094494Y0007403D01*
X0095761Y0007403D01*
X0096395Y0006769D01*
X0098003Y0006769D02*
X0098003Y0005502D01*
X0098637Y0004868D01*
X0100539Y0004868D01*
X0099271Y0004868D02*
X0098003Y0003600D01*
X0096395Y0004234D02*
X0095761Y0003600D01*
X0094494Y0003600D01*
X0093860Y0004234D01*
X0093860Y0004868D01*
X0094494Y0005502D01*
X0095128Y0005502D01*
X0094494Y0005502D02*
X0093860Y0006135D01*
X0098003Y0006769D02*
X0098637Y0007403D01*
X0100539Y0007403D01*
X0100539Y0003600D01*
M02*
